<?xml version="1.0" standalone="no"?>
<!DOCTYPE svg PUBLIC "-//W3C//DTD SVG 1.1//EN" "http://www.w3.org/Graphics/SVG/1.1/DTD/svg11.dtd">
<svg xmlns="http://www.w3.org/2000/svg">
<defs >
<font id="LibreFranklin" horiz-adv-x="568" ><font-face
    font-family="Libre Franklin Thin SemiBold"
    units-per-em="1000"
    panose-1="0 0 0 0 0 0 0 0 0 0"
    ascent="966"
    descent="-246"
    alphabetic="0" />
<glyph unicode=" " horiz-adv-x="209" />
<glyph unicode="!" horiz-adv-x="257" d="M200 21Q200 0 176 0H74Q55 0 55 18V129Q55 145 68 145H187Q200 145 200 131V21ZM171 234Q171 223 166 219T148 214H104Q93 214 90 218T85 232L53 726Q52 734 56 738T66 742H190Q204 742 203 728L171 234Z" />
<glyph unicode="&quot;" horiz-adv-x="449" d="M365 492Q363 481 359 477T342 472H310Q300 472 297 476T292 489L261 727Q260 735 264 738T274 742H383Q398 742 396 728L365 492ZM161 492Q159 481 155 477T138 472H106Q96 472 93 476T88 489L57 727Q56 735 60
738T70 742H179Q194 742 192 728L161 492Z" />
<glyph unicode="#" horiz-adv-x="603" d="M181 21Q179 9 175 4T159 0L127 5Q117 6 113 9T109 21L214 726Q216 733 219 738T228 742L273 737Q288 735 286 721L181 21ZM396 21Q394 9 390 4T374 0L342 5Q332 6 328 9T323 21L429 726Q431 733 434 738T443 742L488
737Q502 735 500 721L396 21ZM548 254Q548 234 525 234H41Q30 234 27 238T23 251V289Q23 305 35 305H534Q548 305 548 291V254ZM581 464Q581 444 558 444H74Q63 444 60 448T56 461V499Q56 515 68 515H567Q581 515 581 501V464Z" />
<glyph unicode="$" horiz-adv-x="638" d="M602 204Q602 147 575 102T499 28T383 -5Q374 -5 371 -8T368 -19V-62Q368 -82 348 -82H299Q281 -82 281 -65V-18Q281 -10 279 -8T269 -5Q192 -2 138 23T40 93Q21 110 33 122L84 175Q91 182 97 182T110 176Q141 141 178
119T269 92Q282 90 282 101L283 298Q283 306 279 311T266 319Q186 341 139 372T71 443T51 534Q51 588 76 630T150 702T266 742Q271 743 276 746T282 757V799Q282 805 285 808T293 811H352Q360 811 364 808T368 794V751Q368 744 380 742Q435 733 477 713T556 663Q570
654 559 640L512 583Q506 578 501 578T487 585Q469 604 441 620T379 643Q373 644 370 642T367 635V438Q367 429 379 425L429 411Q482 393 521 364T581 294T602 204V204ZM282 636Q282 650 270 647Q219 640 191 613T163 547Q163 526 173 508T204 475T262 447Q272
445 277 448T282 464V636ZM367 98Q367 90 379 92Q430 96 459 122T488 186Q488 225 463 251T381 294Q375 296 371 295T367 285V98V98Z" />
<glyph unicode="%" horiz-adv-x="935" d="M229 753Q281 753 322 726T387 651T411 541Q411 480 388 433T323 358T229 331Q177 331 135 358T69 432T45 541Q45 603 69 650T135 725T229 753V753ZM228 399Q272 399 293 437T314 540Q314 607 293 646T228 685Q200 685
181 667T152 617T142 540Q142 498 151 466T180 417T228 399V399ZM708 412Q760 412 801 385T865 310T889 200Q889 139 866 92T801 17T708 -10Q655 -10 614 17T548 91T524 200Q524 262 548 309T614 384T708 412V412ZM707 58Q735 58 754 75T782 125T792 199Q792 243
782 275T753 326T707 344Q679 344 660 326T631 276T621 199Q621 157 630 125T659 76T707 58V58ZM264 6Q257 -4 241 -4L205 -3Q193 -3 191 5T195 21L673 741Q677 748 682 749T694 750H739Q746 750 749 747T747 735L264 6Z" />
<glyph unicode="&amp;" horiz-adv-x="818" d="M362 753Q424 753 471 734T547 680T575 597Q575 564 557 529T502 462T414 406Q407 402 406 399T411 389L534 250Q540 244 543 244T554 252Q568 267 582 285T610 324T634 363T651 398Q657 412 672 407L737 386Q744
384 747 377T749 363Q739 336 721 306T679 244T627 179Q621 171 621 168T629 160Q645 146 667 136T716 119T769 112Q787 111 787 95V22Q787 12 782 6T766 0Q722 0 679 9T598 36T531 75Q523 79 519 79T507 74Q458 35 402 15T276 -5Q165 -5 102 47T39 192Q39 251
77 301T202 400Q212 406 212 410T203 425Q173 459 156 496T139 569Q139 622 168 663T248 729T362 753V753ZM368 671Q337 671 315 658T282 624T270 579Q270 562 278 544T302 508L333 472Q337 468 342 468T352 470Q407 497 432 526T458 592Q458 630 432 650T368 671V671ZM294
324Q287 333 281 333T267 329Q227 308 204 275T180 204Q180 173 196 148T241 108T303 93Q337 93 371 106T430 142Q437 147 438 152T433 166L294 324V324Z" />
<glyph unicode="&apos;" horiz-adv-x="245" d="M161 492Q159 481 155 477T138 472H106Q96 472 93 476T88 489L57 727Q56 735 60 738T70 742H179Q194 742 192 728L161 492Z" />
<glyph unicode="(" horiz-adv-x="304" d="M277 742Q285 742 286 738T285 731Q236 633 205 518T173 284Q173 171 200 66T280 -152Q283 -157 281 -161T272 -165H206Q197 -165 191 -155Q150 -84 119 -16T72 126T55 285Q55 410 93 524T194 732Q203 742 215 742H277V742Z" />
<glyph unicode=")" horiz-adv-x="304" d="M27 742V742H89Q102 742 110 732Q172 638 210 524T249 285Q249 200 233 126T185 -16T113 -155Q107 -165 98 -165H32Q25 -165 23 -161T24 -152Q77 -39 104 66T131 284Q131 403 100 518T19 731Q17 734 18 738T27 742Z" />
<glyph unicode="*" horiz-adv-x="436" d="M225 487Q223 490 221 490T217 487L143 364Q140 361 135 361T123 363L75 397Q65 404 73 414L161 522Q164 525 163 528T157 532L34 566Q23 569 28 584L47 635Q52 647 62 641L178 592Q183 590 185 591T188 598L178 731Q177
735 180 738T189 742H253Q259 742 261 739T264 731L254 597Q253 588 261 591L381 643Q393 649 397 635L413 585Q417 571 405 568L285 532Q281 531 281 528T283 521L367 419Q371 414 370 409T361 397L319 368Q312 363 306 364T297 368L225 487Z" />
<glyph unicode="+" horiz-adv-x="574" d="M522 345Q522 325 499 325H71Q61 325 57 329T53 342V405Q53 421 66 421H509Q522 421 522 407V345ZM259 139Q240 139 240 162V590Q240 600 244 604T257 608H320Q336 608 336 595V152Q336 139 322 139H259Z" />
<glyph unicode="," horiz-adv-x="239" d="M53 -151Q46 -151 43 -146T43 -133L90 -22Q100 0 81 0H65Q46 0 46 17V131Q46 146 60 146H179Q192 146 192 132V25Q192 18 189 11L100 -136Q95 -143 86 -147T69 -151H53V-151Z" />
<glyph unicode="-" horiz-adv-x="380" d="M327 235Q327 216 304 216H72Q62 216 58 220T54 233V296Q54 312 67 312H314Q327 312 327 299V235Z" />
<glyph unicode="." horiz-adv-x="237" d="M190 21Q190 0 165 0H64Q44 0 44 18V131Q44 148 58 148H176Q190 148 190 133V21Z" />
<glyph unicode="/" horiz-adv-x="357" d="M19 -26Q4 -26 8 -13L258 729Q263 742 276 742H335Q355 742 347 719L103 -8Q100 -18 94 -22T79 -26H19V-26Z" />
<glyph unicode="0" horiz-adv-x="701" d="M352 753Q416 753 470 727T564 650T627 529T649 369Q649 251 611 167T505 37T351 -9Q265 -9 197 36T91 166T52 368Q52 458 74 528T137 649T232 726T352 753V753ZM351 97Q399 97 432 124T482 211T499 368Q499 468 482 529T431
619T351 648Q304 648 271 620T220 529T202 368Q202 272 220 212T271 125T351 97V97Z" />
<glyph unicode="1" horiz-adv-x="494" d="M441 111Q457 111 457 97V15Q457 10 453 5T440 0H60Q44 0 44 14V97Q44 111 59 111H171Q180 111 180 117V582Q180 595 168 592L62 557Q43 552 43 573V631Q43 640 46 643T56 651L217 732Q229 738 236 740T255 742H315Q328
742 328 726V120Q328 111 337 111H441V111Z" />
<glyph unicode="2" horiz-adv-x="628" d="M276 318Q322 359 351 389T398 443T423 488T430 534Q430 569 413 593T368 630T306 643Q279 643 252 633T200 601T152 540Q149 534 143 533T127 537L53 576Q44 581 43 589T48 605Q97 681 165 716T316 752Q390 752 448 727T540
652T574 533Q574 491 560 454T512 379T424 295L233 134Q227 130 227 126T239 122H564Q581 122 581 108V16Q581 9 577 5T563 0H62Q50 0 46 4T41 19V84Q41 90 43 95T54 110T81 135L276 318Z" />
<glyph unicode="3" horiz-adv-x="658" d="M69 630Q61 639 69 650Q98 683 137 705T222 740T319 752Q403 752 463 728T555 660T588 560Q588 511 557 468T467 405Q456 401 456 396T467 388Q508 376 541 351T592 290T611 211Q611 144 577 94T476 17T306 -10Q252 -10
202 4T110 44T39 108Q33 115 34 121T43 133L109 181Q117 186 121 186T129 181Q160 150 188 132T247 105T315 96Q387 96 426 127T466 208Q466 247 444 274T387 315T310 330L223 331Q207 331 207 344V423Q207 434 223 436L293 438Q337 439 371 454T424 494T444 552Q444
579 428 601T383 635T317 648Q269 648 229 630T150 574Q144 568 140 568T129 573L69 630V630Z" />
<glyph unicode="4" horiz-adv-x="675" d="M371 726Q379 736 386 739T406 742H512Q526 742 526 726V297Q526 286 536 286H622Q639 286 639 273V200Q639 183 621 183H537Q526 183 526 172V20Q526 0 504 0H395Q376 0 376 18L377 175Q377 183 366 183H57Q39 183 39
200V272Q39 280 44 290T61 315L371 726V726ZM368 286Q377 286 377 293V571Q377 584 374 584T363 575L161 299Q151 286 168 286H368Z" />
<glyph unicode="5" horiz-adv-x="669" d="M556 742Q571 742 574 738T576 722L572 638Q571 629 568 626T552 622H228Q213 622 213 609L199 451Q198 443 202 440T212 439Q251 454 284 464T363 475Q435 475 494 450T588 373T624 242Q624 163 586 107T482 20T328 -10Q238
-10 164 20T47 105Q41 113 40 120T48 134L117 184Q129 193 140 180Q165 156 189 137T242 106T311 95Q364 95 401 113T458 164T478 238Q478 279 460 308T408 353T332 369Q291 369 257 355T188 323Q180 319 177 319T165 324L89 366Q79 372 79 377T79 395L107 722Q108
734 113 738T138 742H556Z" />
<glyph unicode="6" horiz-adv-x="677" d="M371 751Q416 751 452 740T517 710T565 671T593 629Q595 623 595 618T587 609L496 577Q489 575 485 579T478 587Q459 613 435 629T371 646Q314 646 276 618T218 541T199 429Q199 411 202 407T219 409Q255 424 292 437T382
450Q459 450 515 422T603 345T634 231Q634 161 597 107T496 22T355 -9Q262 -9 194 35T89 162T52 357Q52 480 91 568T202 703T371 751V751ZM354 351Q332 351 306 346T256 332T217 313Q207 306 204 299T201 276Q201 242 210 210T239 150T286 107T352 91Q390 91 421
108T470 156T488 226Q488 263 471 291T424 335T354 351V351Z" />
<glyph unicode="7" horiz-adv-x="612" d="M552 742Q564 742 570 737T575 724L573 675Q573 667 566 653T552 626Q514 570 480 505T418 373T367 241T331 121T312 25Q310 0 293 0H161Q140 0 146 22Q161 78 183 141T236 277T312 432T416 607Q420 614 419 618T408 622H53Q35
622 36 640L45 729Q47 742 66 742H552Z" />
<glyph unicode="8" horiz-adv-x="678" d="M336 752Q413 752 472 726T566 653T600 546Q600 503 576 468T502 401Q486 392 501 384Q549 361 578 334T620 275T633 205Q633 139 595 90T489 16T331 -10Q246 -10 182 12T83 78T48 183Q48 234 73 274T163 352Q173 357
174 361T164 371Q138 388 116 409T81 460T68 529Q68 590 100 640T193 721T336 752V752ZM338 652Q301 652 271 639T224 601T207 545Q207 474 288 453L375 429Q389 425 406 434T438 460T464 499T474 544Q474 590 438 621T338 652V652ZM340 90Q408 90 447 118T486
196Q486 231 467 255T397 293L290 322Q275 326 256 319T218 296T187 256T175 204Q175 151 215 121T340 90V90Z" />
<glyph unicode="9" horiz-adv-x="675" d="M307 -9Q261 -9 224 2T157 32T109 71T80 114Q78 119 78 125T86 134L177 165Q184 167 188 164T195 156Q215 129 240 113T307 96Q363 96 400 124T457 201T476 314Q476 332 473 336T455 334Q421 318 384 305T295 292Q219
292 163 320T75 398T44 511Q44 582 81 636T181 720T323 751Q416 751 483 707T586 580T623 385Q623 263 584 175T474 39T307 -9V-9ZM322 391Q346 391 371 396T420 411T459 432Q468 439 471 446T475 469Q475 502 466 534T438 593T391 636T326 652Q288 652 257 634T208
586T190 517Q190 480 207 452T254 407T322 391V391Z" />
<glyph unicode=":" horiz-adv-x="237" d="M190 390Q190 369 165 369H64Q44 369 44 388V498Q44 514 58 514H176Q190 514 190 499V390ZM190 24Q190 3 165 3H64Q44 3 44 22V132Q44 148 58 148H176Q190 148 190 134V24Z" />
<glyph unicode=";" horiz-adv-x="249" d="M53 -154Q46 -154 43 -148T43 -135L90 -22Q99 0 81 0H65Q46 0 46 17V131Q46 146 60 146H179Q192 146 192 132V25Q192 18 189 11L100 -138Q95 -146 86 -150T69 -154H53V-154ZM64 365Q44 365 44 383V496Q44 512 58 512H176Q190
512 190 498V386Q190 365 165 365H64V365Z" />
<glyph unicode="&lt;" horiz-adv-x="566" d="M504 149Q504 135 496 131T475 131L65 290Q57 294 52 299T46 314V391Q46 402 51 407T65 416L476 577Q488 582 496 576T504 559V494Q504 474 473 461L191 352L473 245Q489 238 496 232T504 213V149Z" />
<glyph unicode="=" horiz-adv-x="574" d="M522 442Q522 423 499 423H71Q61 423 57 427T53 440V503Q53 519 66 519H509Q522 519 522 505V442ZM522 211Q522 191 499 191H71Q61 191 57 195T53 208V271Q53 287 66 287H509Q522 287 522 273V211Z" />
<glyph unicode="&gt;" horiz-adv-x="566" d="M62 213Q62 225 69 231T93 245L374 352L93 461Q62 474 62 494V559Q62 570 69 576T90 577L501 416Q510 413 515 408T520 391V314Q520 305 515 300T501 290L90 131Q78 126 70 130T62 149V213V213Z" />
<glyph unicode="?" horiz-adv-x="532" d="M321 21Q321 0 297 0H195Q184 0 180 4T176 18V129Q176 145 190 145H308Q321 145 321 131V21ZM23 587Q16 589 15 595T16 606Q48 675 112 713T264 752Q337 752 390 729T472 666T502 576Q502 527 482 493T432 430T373 375T323
314T302 234Q302 227 298 222T285 217H214Q196 217 196 237Q196 291 214 330T258 400T310 456T354 509T372 569Q372 611 342 636T263 661Q235 661 208 650T159 619T126 573Q123 567 120 566T108 565L23 587Z" />
<glyph unicode="@" horiz-adv-x="834" d="M661 -46Q624 -74 565 -93T432 -113Q340 -113 268 -84T145 -4T68 116T42 262Q42 343 70 415T152 542T281 629T450 661Q517 661 580 643T696 585T778 485T808 339Q808 263 783 205T714 114T612 81Q570 81 548 95T518 130Q515
136 513 136T506 130Q484 103 450 85T370 67Q329 67 295 89T242 150T222 244Q222 306 246 358T316 443T422 475Q463 475 489 459T532 420Q534 418 536 418T540 423L545 443Q546 449 554 449H616Q625 449 623 442L587 226Q581 188 590 173T621 158Q648 158 671 178T710
237T725 333Q725 403 702 451T639 529T550 572T449 585Q368 585 308 560T207 490T147 387T127 262Q127 193 148 138T211 42T311 -20T447 -42Q490 -42 520 -35T573 -15T620 12Q634 21 641 11L668 -26Q673 -32 670 -37T661 -46V-46ZM318 252Q318 207 337 178T392
149Q423 149 448 167T489 214T508 276Q512 312 502 338T473 379T428 393Q397 393 372 374T333 324T318 252V252Z" />
<glyph unicode="A" horiz-adv-x="756" d="M50 0Q43 0 39 7T39 25L291 724Q295 734 300 738T315 742H440Q461 742 468 722L718 24Q721 16 718 8T707 0H586Q572 0 568 13L510 175Q509 180 507 182T498 185H237Q228 185 225 176L165 12Q164 6 160 3T147 0H50V0ZM462
298Q475 298 470 314L374 581Q371 588 367 588T360 580L263 314Q257 298 271 298H462Z" />
<glyph unicode="B" horiz-adv-x="715" d="M96 0Q88 0 84 4T79 16V723Q79 732 84 737T97 742H354Q496 742 572 693T648 548Q648 491 618 452T517 384Q514 383 514 380T517 376Q593 353 629 311T666 200Q666 99 590 50T365 0H96V0ZM360 102Q437 102 474 130T512
211Q512 249 494 274T443 311T369 323H245Q227 323 227 307V119Q227 102 240 102H360ZM369 427Q394 427 417 432T459 451T489 483T501 531Q501 585 462 612T358 640H244Q227 640 227 625V444Q227 427 240 427H369Z" />
<glyph unicode="C" horiz-adv-x="719" d="M381 752Q436 752 485 736T573 690T637 621T670 537Q673 523 671 519T660 514L546 506Q538 506 536 509T532 520Q520 576 483 611T385 647Q300 647 253 581T206 373Q206 233 251 167T388 101Q450 101 494 131T566 234Q569
242 584 239L669 221Q673 220 676 216T678 199Q672 176 657 148T618 92T560 41T481 4T382 -10Q280 -10 206 38T91 172T51 375Q51 492 91 576T205 706T381 752V752Z" />
<glyph unicode="D" horiz-adv-x="741" d="M99 742Q113 742 140 742T199 742T257 742T299 741Q435 738 521 694T649 569T690 375Q690 257 647 173T515 45T292 0H99Q79 0 79 21V724Q79 734 83 738T99 742V742ZM237 636Q227 636 227 622V118Q227 106 240 106H265Q357
106 417 132T506 217T535 373Q535 469 507 526T421 610T274 636H237V636Z" />
<glyph unicode="E" horiz-adv-x="645" d="M79 725Q79 742 94 742H579Q592 742 592 727V651Q592 632 574 632H244Q227 632 227 618V443Q227 428 241 428H469Q484 428 484 413V332Q484 327 481 324T470 320H240Q227 320 227 308V122Q227 110 238 110H588Q604 110
604 96V15Q604 9 600 5T587 0H98Q79 0 79 18V725V725Z" />
<glyph unicode="F" horiz-adv-x="621" d="M79 725Q79 742 94 742H571Q584 742 584 727L583 651Q583 632 566 632H244Q227 632 227 618V432Q227 417 241 417H475Q489 417 489 403V323Q489 311 475 311H240Q227 311 227 298V19Q227 0 205 0H98Q87 0 83 4T79 18V725V725Z" />
<glyph unicode="G" horiz-adv-x="747" d="M377 -10Q278 -10 205 36T91 168T51 368Q51 487 93 573T210 705T385 752Q462 752 524 722T625 645T674 544Q677 531 675 527T664 521L553 504Q545 504 543 507T538 518Q532 553 512 582T458 628T382 646Q326 646 287 617T227
528T206 374Q206 275 227 214T289 125T386 96Q424 96 452 108T501 139T532 183T548 233L549 273Q553 286 540 286H404Q397 286 394 289T390 301V365Q390 377 404 377L664 376Q676 376 682 371T688 356V14Q688 7 685 4T675 0H646Q638 0 633 3T622 15L600 94Q598
98 596 98T590 93Q571 68 544 44T476 5T377 -10V-10Z" />
<glyph unicode="H" horiz-adv-x="746" d="M239 327Q227 327 227 316V20Q227 0 204 0H98Q87 0 83 4T79 18V725Q79 742 94 742H213Q227 742 227 726V457Q227 441 241 441H505Q519 441 519 456V726Q519 742 533 742H652Q667 742 667 725V18Q667 9 663 5T648 0H542Q519
0 519 20V316Q519 327 507 327H239Z" />
<glyph unicode="I" horiz-adv-x="306" d="M213 742Q227 742 227 726V22Q227 10 222 5T203 0H99Q87 0 83 4T79 18V725Q79 742 94 742H213Z" />
<glyph unicode="J" horiz-adv-x="437" d="M363 182Q363 82 316 36T172 -10Q136 -10 106 -4T55 8Q45 10 40 16T36 36L45 114Q46 131 62 128Q76 125 92 119T133 113Q175 113 195 136T215 218V725Q215 742 230 742H349Q363 742 363 726V182V182Z" />
<glyph unicode="K" horiz-adv-x="729" d="M692 21Q696 12 694 6T682 0H556Q537 0 531 13L349 347Q342 357 332 344L234 229Q227 221 227 209V20Q227 0 204 0H99Q88 0 84 4T79 18V726Q79 742 93 742H213Q227 742 227 727V405Q227 396 230 396T238 401L510 728Q515
736 521 739T539 742H641Q652 742 656 736T654 722L448 485Q441 477 447 465L692 21V21Z" />
<glyph unicode="L" horiz-adv-x="619" d="M79 725Q79 742 94 742H213Q227 742 227 726V122Q227 110 238 110H566Q582 110 582 96V15Q582 9 578 5T565 0H98Q87 0 83 4T79 18V725V725Z" />
<glyph unicode="M" horiz-adv-x="934" d="M98 0Q79 0 79 20V725Q79 742 95 742H264Q274 742 278 740T285 728L461 256Q464 248 468 248T475 257L646 723Q652 742 666 742H841Q855 742 855 726V21Q855 0 833 0H726Q716 0 712 4T707 18V541Q707 547 704 547T699
540L509 15Q504 0 489 0H418Q401 0 396 15L208 534Q206 541 203 541T200 533V16Q200 7 197 4T183 0H98V0Z" />
<glyph unicode="N" horiz-adv-x="758" d="M667 742Q679 742 679 728V15Q679 8 675 4T662 0H579Q572 0 567 1T555 11L213 497Q209 503 206 502T202 496V16Q203 0 185 0H97Q79 0 79 16V725Q79 742 95 742H195Q205 742 210 740T221 729L543 265Q549 257 553 258T558
268V726Q558 742 574 742H667Z" />
<glyph unicode="O" horiz-adv-x="770" d="M386 -10Q283 -10 208 35T93 165T52 368Q52 488 93 574T209 706T386 752Q488 752 562 706T678 575T719 369Q719 251 679 166T563 36T386 -10V-10ZM387 96Q477 96 520 160T564 367Q564 512 520 579T386 647Q295 647 251
580T206 367Q206 226 250 161T387 96V96Z" />
<glyph unicode="P" horiz-adv-x="706" d="M663 516Q663 442 629 393T534 318T394 293H237Q227 293 227 283V20Q227 0 205 0H97Q87 0 83 4T79 18V725Q79 742 94 742H377Q457 742 522 718T625 644T663 516V516ZM511 519Q511 560 494 585T444 623T369 635H244Q227
635 227 619V417Q227 400 240 400H375Q437 400 474 430T511 519V519Z" />
<glyph unicode="Q" horiz-adv-x="772" d="M52 369Q52 489 93 575T209 706T386 752Q488 752 563 707T678 575T719 369Q719 259 686 183T593 59Q590 56 590 51Q590 41 606 26T648 -1T702 -18Q711 -19 713 -23T715 -31V-102Q715 -116 708 -120T682 -125Q625 -125
574 -97T476 -8Q472 -1 461 -4Q443 -7 425 -8T386 -10Q284 -10 209 34T93 164T52 369V369ZM206 367Q206 225 250 161T386 96Q477 96 521 160T565 368Q565 511 521 579T386 647Q295 647 251 579T206 367V367Z" />
<glyph unicode="R" horiz-adv-x="713" d="M656 24Q660 15 656 8T643 0H521Q507 0 501 16L386 308Q381 321 359 321H239Q232 321 230 318T227 310V21Q227 0 204 0H98Q87 0 83 4T79 18V725Q79 742 94 742H395Q523 742 594 691T666 542Q666 489 646 450T594 385T526
346Q517 344 522 333L656 24V24ZM374 423Q442 423 477 450T513 531Q513 586 479 613T386 641H245Q227 641 227 627V438Q227 423 240 423H374V423Z" />
<glyph unicode="S" horiz-adv-x="665" d="M497 580Q473 606 438 626T342 646Q275 646 240 620T205 551Q205 537 211 521T237 490T294 462L448 416Q540 389 580 336T621 211Q621 143 586 93T487 17T334 -10Q269 -10 213 5T113 49T42 118Q37 126 38 132T48 145L111
189Q123 196 129 195T141 188Q166 156 190 136T247 105T325 95Q395 95 437 118T479 192Q479 212 471 228T443 259T386 285L235 331Q177 349 140 379T83 450T64 533Q64 597 98 646T194 724T339 752Q393 752 440 740T526 704T590 649Q594 644 596 639T590 626L519
573Q514 569 510 570T497 580V580Z" />
<glyph unicode="T" horiz-adv-x="669" d="M36 726Q36 733 40 737T53 742H615Q624 742 628 738T632 726V648Q632 634 616 634H424Q413 634 413 624V17Q413 0 398 0H279Q265 0 265 16V622Q265 634 254 634H53Q36 634 36 648V726Z" />
<glyph unicode="U" horiz-adv-x="717" d="M646 265Q646 166 612 105T514 17T358 -10Q254 -10 191 23T99 121T70 283V724Q70 742 84 742H204Q218 742 218 726V261Q218 176 256 137T369 98Q416 98 451 114T505 168T524 264V725Q524 742 538 742H633Q646 742 646
726V265V265Z" />
<glyph unicode="V" horiz-adv-x="724" d="M673 742Q682 742 686 736T687 722L442 19Q436 0 414 0H309Q285 0 280 18L38 721Q35 730 39 736T52 742H171Q186 742 190 727L369 187Q376 169 382 188L559 727Q563 742 579 742H673V742Z" />
<glyph unicode="W" horiz-adv-x="1071" d="M1012 742Q1025 742 1030 735T1032 716L827 19Q821 0 800 0H708Q685 0 680 18L542 500Q540 508 538 508T532 499L393 19Q387 0 365 0H271Q249 0 243 18L40 715Q37 727 42 734T60 742H164Q175 742 180 739T187 727L328
228Q331 217 334 217T340 226L481 727Q483 734 488 738T505 742H595Q606 742 611 739T618 727L761 223Q763 215 766 215T772 222L912 727Q914 735 919 738T936 742H1012V742Z" />
<glyph unicode="X" horiz-adv-x="715" d="M670 33Q683 14 679 7T660 0H543Q524 0 517 13L359 260Q352 271 347 271T334 259L178 13Q174 6 167 3T150 0H55Q41 0 38 7T46 33L263 362Q269 371 269 377T262 392L47 719Q43 726 45 734T57 742H181Q193 742 198 739T207
728L349 503Q354 496 359 496T369 504L511 728Q515 736 520 739T536 742H641Q653 742 654 735T649 721L441 406Q435 399 435 393T441 379L670 33V33Z" />
<glyph unicode="Y" horiz-adv-x="715" d="M667 742Q676 742 679 737T677 724L441 334Q436 327 435 319T434 289V22Q434 0 409 0H306Q294 0 290 4T286 19V291Q286 304 284 310T276 325L38 721Q32 730 35 736T51 742H174Q186 742 190 739T201 726L362 445Q367 435
371 435T382 444L541 726Q546 736 551 739T567 742H667V742Z" />
<glyph unicode="Z" horiz-adv-x="664" d="M57 0Q47 0 43 3T39 17V49Q39 60 41 66T54 85L411 620Q418 632 404 632H77Q68 632 65 635T62 648V728Q62 742 74 742H609Q622 742 622 728V692Q622 684 620 679T610 664L245 122Q241 116 244 114T253 111H604Q619 111
619 98V15Q619 9 615 5T602 0H57V0Z" />
<glyph unicode="[" horiz-adv-x="306" d="M72 727Q72 742 90 742H280Q291 742 291 733V676Q291 666 280 666H198Q181 666 181 647V-74Q181 -83 183 -86T195 -89H277Q291 -89 291 -101V-151Q291 -165 277 -165H93Q73 -165 73 -147L72 727V727Z" />
<glyph unicode="\" horiz-adv-x="357" d="M278 -26Q269 -26 263 -22T253 -8L9 719Q2 742 21 742H80Q94 742 98 729L348 -13Q353 -26 337 -26H278V-26Z" />
<glyph unicode="]" horiz-adv-x="306" d="M234 727V727V-147Q234 -165 213 -165H29Q15 -165 15 -151V-101Q15 -89 29 -89H111Q120 -89 123 -86T126 -74L125 647Q125 666 108 666H27Q15 666 15 676V733Q15 742 27 742H216Q234 742 234 727Z" />
<glyph unicode="^" horiz-adv-x="475" d="M245 382Q242 390 237 390T228 382L129 136Q127 131 122 130T110 128H50Q34 128 41 146L191 504Q201 527 218 535T254 537T282 505L433 143Q439 127 422 127H364Q358 127 352 128T344 136L245 382Z" />
<glyph unicode="_" horiz-adv-x="535" d="M482 -115Q482 -134 459 -134L71 -135Q61 -135 57 -131T53 -117V-54Q53 -38 66 -38H469Q482 -38 482 -52V-115Z" />
<glyph unicode="`" horiz-adv-x="299" d="M32 743Q37 755 48 751L282 656Q293 652 288 638L277 607Q275 600 271 598T256 598L26 662Q6 668 12 685L32 743V743Z" />
<glyph unicode="a" horiz-adv-x="558" d="M355 55Q321 25 281 8T190 -10Q113 -10 70 30T26 136Q26 191 59 231T155 295T306 322L356 325Q362 326 367 329T372 340V363Q372 407 346 431T274 456Q239 456 209 441T156 390Q153 384 150 382T137 382L53 403Q48 405
46 409T49 425Q76 482 134 511T280 540Q357 540 404 519T474 461T496 372V20Q496 9 493 5T479 0H394Q385 0 381 7T376 24L374 54Q372 71 355 55V55ZM372 242Q372 260 357 259L316 256Q284 254 255 247T203 227T167 196T153 152Q153 118 177 98T244 78Q271 78 294
87T334 110Q351 124 361 139T372 171V242V242Z" />
<glyph unicode="b" horiz-adv-x="606" d="M83 0Q71 0 67 4T63 20V725Q63 742 78 742H179Q193 742 193 725V488Q193 477 197 476T209 481Q223 495 243 508T292 530T356 540Q426 540 473 506T543 410T567 268Q567 141 508 66T339 -10Q300 -10 269 2T215 34T179 70Q175
75 172 75T168 67L158 19Q154 0 137 0H83ZM193 182Q193 150 209 126T251 87T307 72Q345 72 373 92T418 154T434 266Q434 362 403 408T312 455Q275 455 245 438T193 394V182Z" />
<glyph unicode="c" horiz-adv-x="548" d="M297 540Q357 540 401 520T473 467T517 398Q523 380 507 379L419 368Q409 366 405 377Q392 399 378 416T346 443T302 453Q262 453 232 432T185 368T168 265Q168 203 185 161T234 98T308 76Q353 76 382 99T436 165Q439
169 442 170T452 169L515 152Q525 149 521 135Q511 112 493 86T447 39T383 4T297 -10Q221 -10 162 24T70 120T36 263Q36 345 70 407T163 505T297 540V540Z" />
<glyph unicode="d" horiz-adv-x="606" d="M434 0Q426 0 421 4T415 18V51Q415 58 411 59T402 55Q387 41 367 26T319 1T251 -10Q190 -10 142 20T66 110T38 260Q38 344 67 407T148 505T262 540Q306 540 337 526T396 487Q405 481 409 482T413 495V726Q413 742 427
742H528Q543 742 543 725V19Q543 9 539 5T522 0H434V0ZM413 399Q387 425 362 439T303 454Q265 454 235 434T187 371T170 262Q170 195 187 154T233 93T300 74Q332 74 357 89T398 127T413 173V399V399Z" />
<glyph unicode="e" horiz-adv-x="584" d="M171 224Q171 183 190 151T242 100T316 81Q357 81 390 98T454 153Q458 158 461 158T471 155L532 128Q545 122 535 110Q505 66 471 40T395 2T301 -10Q225 -10 165 24T71 118T36 258Q36 345 71 408T167 505T299 540Q375
540 431 507T520 413T552 263Q552 253 551 247T536 240H182Q176 240 174 236T171 224V224ZM408 314Q418 314 421 316T425 328Q425 359 411 389T370 438T304 458Q264 458 234 439T189 387T173 314H408Z" />
<glyph unicode="f" horiz-adv-x="394" d="M357 530Q365 530 369 526T373 515V452Q373 439 358 439H265Q255 439 255 429V17Q255 0 240 0H139Q125 0 125 16V430Q125 439 118 439H37Q22 439 22 452V515Q22 521 25 525T38 530H114Q125 530 125 543V608Q125 672 160
707T263 742H358Q377 742 377 724L378 668Q378 662 375 658T364 654H305Q279 654 266 636T252 590V540Q252 530 263 530H357V530Z" />
<glyph unicode="g" horiz-adv-x="622" d="M579 548Q588 548 593 544T599 528V472Q599 459 594 454T577 450Q563 452 551 452T528 448Q502 442 508 425Q511 416 515 403T520 372Q520 327 495 290T417 231T287 209Q243 209 218 204T181 191T170 172Q170 158 187
153T242 144L380 136Q478 131 523 93T568 -7Q568 -82 498 -128T293 -175Q154 -175 84 -142T13 -42Q13 -7 39 17T108 59Q121 64 108 70Q85 81 70 97T54 138Q54 157 66 172T98 201T145 224Q150 226 151 229T146 236Q101 258 77 291T53 371Q53 447 115 492T297 538Q351
538 389 526T453 493Q460 488 467 488T479 494Q491 508 508 520T544 540T579 548V548ZM286 277Q345 277 373 303T401 370Q401 415 373 442T286 469Q231 469 201 442T171 370Q171 329 201 303T286 277V277ZM207 42Q188 43 169 35T136 11T122 -25Q122 -51 140 -70T199
-98T303 -108Q376 -108 414 -88T452 -28Q452 -2 432 15T366 34L207 42Z" />
<glyph unicode="h" horiz-adv-x="592" d="M82 0Q63 0 63 18V725Q63 742 78 742H177Q190 742 190 727V467Q190 461 193 460T201 463Q234 491 262 507T318 532T376 540Q453 540 494 498T535 383V21Q535 0 514 0H422Q413 0 409 4T405 18V362Q405 401 385 422T322
444Q298 444 278 437T237 414T193 376V20Q193 0 171 0H82V0Z" />
<glyph unicode="i" horiz-adv-x="256" d="M193 22Q193 10 188 5T169 0H82Q71 0 67 4T63 18V513Q63 530 78 530H179Q193 530 193 514V22ZM195 628Q195 605 171 605H80Q69 605 65 610T61 625V723Q61 742 77 742H180Q195 742 195 725V628Z" />
<glyph unicode="j" horiz-adv-x="256" d="M193 -6Q193 -88 155 -129T26 -170Q-17 -170 -29 -167T-41 -152V-85Q-41 -80 -38 -75T-27 -68L18 -64Q41 -62 52 -49T63 0V513Q63 530 79 530H180Q193 530 193 514V-6V-6ZM196 628Q196 605 172 605H81Q61 605 61 625V723Q61
742 78 742H180Q196 742 196 725V628Z" />
<glyph unicode="k" horiz-adv-x="590" d="M566 21Q571 14 568 7T554 0H444Q435 0 430 4T420 18L300 242Q297 249 294 250T285 245L202 163Q198 159 196 154T193 140V22Q193 10 188 5T170 0H83Q71 0 67 4T63 18V725Q63 742 78 742H179Q193 742 193 726V297Q193
291 196 289T205 294L413 516Q427 530 438 530H529Q542 530 544 523T538 507L391 359Q387 354 386 349T390 334L566 21V21Z" />
<glyph unicode="l" horiz-adv-x="257" d="M193 22Q193 10 188 5T170 0H82Q62 0 62 18L65 725Q65 742 80 742H179Q193 742 193 726V22Z" />
<glyph unicode="m" horiz-adv-x="914" d="M81 0Q63 0 63 18V513Q63 530 77 530H176Q190 530 190 515V463Q190 457 193 456T201 459Q229 484 255 502T310 530T371 541Q427 541 463 515T513 449Q515 445 519 446T527 451Q553 477 582 497T642 528T704 540Q775 540
816 498T857 382V21Q857 0 836 0H744Q735 0 731 4T727 18V362Q727 401 708 422T649 444Q626 444 605 436T567 414T537 388Q530 381 528 375T525 359V21Q525 0 504 0H412Q404 0 400 4T395 18V362Q395 401 376 422T317 444Q283 444 255 427T193 376V20Q193 0 170
0H81V0Z" />
<glyph unicode="n" horiz-adv-x="592" d="M81 0Q63 0 63 18V513Q63 530 77 530H177Q190 530 190 515V463Q190 457 193 456T201 459Q230 484 257 502T313 530T376 540Q450 540 492 498T535 385V21Q535 0 514 0H422Q413 0 409 4T405 18V362Q405 401 384 422T321
444Q297 444 277 437T236 414T193 376V20Q193 0 170 0H81V0Z" />
<glyph unicode="o" horiz-adv-x="599" d="M299 -10Q221 -10 162 25T70 121T36 262Q36 345 70 407T164 505T300 540Q379 540 438 505T530 407T563 263Q563 183 530 122T437 25T299 -10V-10ZM300 79Q343 79 372 100T416 163T431 265Q431 326 416 368T371 432T300
454Q259 454 229 432T184 368T168 265Q168 205 183 164T229 101T300 79V79Z" />
<glyph unicode="p" horiz-adv-x="605" d="M174 530Q193 530 193 512V478Q193 471 197 471T206 475Q221 489 240 504T288 529T356 540Q416 540 463 511T538 422T566 271Q566 177 538 115T461 21T347 -10Q306 -10 272 3T211 41Q201 50 197 49T193 35V-149Q193 -165
179 -165H77Q63 -165 63 -149V510Q63 521 67 525T83 530H174V530ZM193 130Q216 105 242 90T302 75Q342 75 371 95T417 159T434 272Q434 340 418 380T372 437T306 455Q273 455 248 442T208 407T193 363V130V130Z" />
<glyph unicode="q" horiz-adv-x="606" d="M523 530Q535 530 539 526T543 510V-148Q543 -165 528 -165H427Q413 -165 413 -149V31Q413 43 410 45T397 40Q370 19 335 5T258 -10Q191 -10 142 23T65 117T38 266Q38 349 65 410T143 506T264 541Q310 541 341 529T394
499T430 464Q439 454 442 467L452 511Q455 521 459 525T473 530H523ZM413 348Q413 379 399 404T359 444T300 459Q264 459 235 439T188 377T170 267Q170 201 186 159T232 95T299 74Q333 74 362 88T413 126V348Z" />
<glyph unicode="r" horiz-adv-x="411" d="M81 0Q71 0 67 4T63 18V513Q63 530 77 530H174Q188 530 188 515V454Q188 448 192 447T201 451Q223 480 248 499T300 529T352 540Q388 540 388 524V428Q388 414 375 416Q360 420 344 421T313 423Q294 423 273 415T233 393T204
361T193 326V20Q193 0 170 0H81V0Z" />
<glyph unicode="s" horiz-adv-x="524" d="M387 399Q368 424 337 441T261 458Q218 458 189 441T160 393Q160 378 172 364T225 339L344 307Q422 288 455 248T489 156Q489 104 460 67T378 10T258 -10Q172 -10 111 21T25 100Q22 106 22 111T27 121L86 151Q94 156 99
155T107 150Q122 129 141 112T189 85T259 76Q290 76 315 84T356 106T371 142Q371 162 354 177T293 203L191 227Q115 245 80 281T44 371Q44 421 70 459T146 518T262 540Q336 540 390 513T469 446Q473 441 474 435T469 425L407 394Q401 391 396 392T387 399V399Z"
/>
<glyph unicode="t" horiz-adv-x="417" d="M257 439Q247 439 247 428V161Q247 122 263 107T313 92H372Q378 92 382 88T386 78L385 26Q385 10 366 6Q351 4 331 3T292 1T256 0Q189 0 153 31T117 127V426Q117 439 105 439H38Q22 439 22 454V517Q22 530 37 530H111Q120
530 120 540L133 694Q134 710 147 710H236Q250 710 250 693V540Q250 531 259 531H372Q387 531 387 517V454Q387 439 370 439H257Z" />
<glyph unicode="u" horiz-adv-x="588" d="M268 85Q303 85 334 104T395 154V510Q395 530 418 530H508Q526 530 526 511L524 16Q524 0 510 0H412Q398 0 398 15V68Q398 73 396 74T388 71Q341 27 299 9T212 -10Q167 -10 132 9T77 64T57 148V509Q57 530 78 530H170Q187
530 187 511V170Q187 132 208 109T268 85V85Z" />
<glyph unicode="v" horiz-adv-x="564" d="M528 530Q537 530 540 524T540 510L341 19Q333 0 312 0H253Q231 0 223 18L24 509Q21 518 25 524T38 530H143Q150 530 155 526T163 515L292 187Q299 168 308 188L436 516Q439 522 443 526T455 530H528V530Z" />
<glyph unicode="w" horiz-adv-x="811" d="M772 530Q781 530 784 524T785 510L625 15Q623 7 619 4T605 0H534Q515 0 510 17L413 326Q409 335 406 335T399 326L303 15Q301 7 297 4T283 0H209Q191 0 186 17L26 509Q23 518 27 524T40 530H137Q144 530 150 526T157
515L257 196Q259 186 263 186T271 197L368 516Q370 522 375 526T387 530H459Q465 530 470 526T478 515L577 196Q580 186 584 186T591 197L688 516Q691 522 696 526T708 530H772V530Z" />
<glyph unicode="x" horiz-adv-x="575" d="M543 29Q555 13 554 7T537 0H429Q409 0 400 13L284 176Q277 186 274 186T262 176L143 13Q134 0 114 0H44Q29 0 24 8T34 35L204 253Q210 261 210 267T203 281L37 506Q31 514 34 522T50 530H153Q164 530 170 527T181 517L288
367Q296 355 304 367L407 517Q412 524 418 527T435 530H512Q525 530 526 524T522 510L366 300Q360 292 360 286T367 272L543 29V29Z" />
<glyph unicode="y" horiz-adv-x="554" d="M105 -165Q75 -165 60 -163T45 -148V-84Q45 -78 51 -74T74 -69H140Q160 -69 176 -58T203 -31T217 2T215 34L23 508Q20 517 24 523T38 530H142Q149 530 154 526T162 515L286 186Q289 177 294 177T303 188L426 516Q429 522
433 526T445 530H518Q526 530 530 524T530 510L320 -16Q301 -63 281 -92T235 -137T179 -159T105 -165V-165Z" />
<glyph unicode="z" horiz-adv-x="506" d="M44 0Q34 0 30 3T26 17V53Q26 64 29 70T42 90L302 434Q311 446 295 446H64Q55 446 52 449T48 462V516Q48 530 61 530H460Q473 530 473 517V477Q473 468 470 461T460 444L197 99Q186 85 202 85H461Q476 85 476 72V16Q476
9 472 5T459 0H44V0Z" />
<glyph unicode="{" horiz-adv-x="345" d="M116 626Q116 664 137 690T192 729T265 742H319Q330 742 330 733V676Q330 666 319 666H289Q261 666 247 659T229 640T225 613V404Q224 367 208 344T168 310T119 295Q113 294 113 292T119 288Q144 286 167 276T207 242T225
176V-35Q225 -63 238 -76T289 -89H317Q330 -89 330 -101V-151Q330 -165 317 -165H267Q227 -165 193 -152T137 -112T116 -48V165Q116 189 105 210T70 244T9 257Q0 257 0 271V313Q0 327 9 327Q65 327 90 352T116 422V626V626Z" />
<glyph unicode="|" horiz-adv-x="255" d="M98 -165Q80 -165 80 -144L79 829Q79 839 83 843T96 847H159Q176 847 176 832V-151Q176 -165 161 -165H98Z" />
<glyph unicode="}" horiz-adv-x="345" d="M229 626V626V422Q229 377 255 352T337 327Q345 327 345 313V271Q345 257 337 257Q300 257 276 245T241 211T229 165V-48Q229 -86 209 -112T154 -151T79 -165H29Q15 -165 15 -151V-101Q15 -89 29 -89H56Q94 -89 107 -76T121
-35V176Q122 218 138 241T178 275T226 288Q233 289 233 291T226 295Q201 298 177 309T138 344T121 404V613Q121 628 117 640T99 659T57 666H27Q15 666 15 676V733Q15 742 27 742H81Q119 742 153 729T208 690T229 626Z" />
<glyph unicode="~" horiz-adv-x="595" d="M533 373Q512 340 477 321T399 302Q368 302 344 311T298 332T254 353T207 362Q171 362 146 344T100 304Q96 299 92 299T85 305L58 352Q53 362 64 372Q96 403 129 424T207 445Q237 445 261 436T306 416T349 395T397 386Q431
386 454 401T492 438Q503 452 514 435L536 395Q539 390 538 384T533 373V373Z" />
<glyph unicode="&#xa0;" horiz-adv-x="209" />
<glyph unicode="&#xa1;" horiz-adv-x="257" d="M202 399Q202 385 188 385H70Q56 385 56 401V512Q56 530 76 530H177Q202 530 202 509V399V399ZM205 -151Q206 -157 202 -161T192 -165H67Q62 -165 58 -161T55 -149L87 299Q88 308 91 312T105 316H150Q162 316 167
312T173 296L205 -151V-151Z" />
<glyph unicode="&#xa2;" horiz-adv-x="558" d="M341 22Q341 0 318 0H273Q253 0 253 20V143Q253 163 274 163H322Q341 163 341 145V22V22ZM341 601Q341 579 318 579H273Q253 579 253 599V722Q253 742 274 742H322Q341 742 341 724V601V601ZM297 651Q357 651 401
631T473 578T517 509Q523 491 507 490L419 479Q409 477 405 488Q392 510 378 527T346 554T302 564Q262 564 232 543T185 479T168 376Q168 314 185 272T234 209T308 187Q353 187 382 210T436 276Q439 280 442 281T452 280L515 263Q525 260 521 246Q511 223 493 197T447
150T383 115T297 101Q221 101 162 135T70 231T36 374Q36 456 70 518T163 616T297 651V651Z" />
<glyph unicode="&#xa3;" horiz-adv-x="635" d="M26 0Q12 0 12 15V97Q12 109 24 109H48Q87 108 112 136T138 227Q138 246 136 272T128 341Q127 350 119 350H32Q23 350 23 360V415Q23 424 32 424H102Q113 424 111 435L100 514Q91 571 106 615T153 690T230 736T324
752Q370 752 414 738T495 694T548 623Q551 617 548 614T539 609L452 582Q439 578 434 587Q422 613 401 630T342 647Q315 647 293 636T258 603T245 550Q245 523 250 492T262 434Q264 425 273 425H411Q420 425 420 416V359Q420 350 411 350H285Q276 350 276 341Q279
313 279 288T275 238Q273 206 265 183T247 145T228 121Q222 116 223 113T231 110H369Q415 110 443 126T486 180Q491 192 505 188L583 171Q600 166 596 153Q574 78 517 39T378 0H26V0Z" />
<glyph unicode="&#xa4;" horiz-adv-x="562" d="M282 160Q220 160 169 192Q160 197 154 191L105 141Q96 133 85 142L47 180Q39 190 47 198L97 248Q104 255 98 265Q83 290 76 315T68 372Q68 404 76 431T99 483Q103 492 97 498L48 547Q40 557 48 566L86 605Q96 615
105 605L155 555Q161 550 170 554Q194 568 222 576T279 585Q341 585 393 553Q401 549 405 554L456 604Q461 610 467 604L511 558Q517 552 511 546L461 496Q457 492 460 485Q476 461 484 433T493 373Q493 343 485 314T459 261Q456 255 460 252L511 200Q517 194 512
188L467 143Q461 137 456 143L406 193Q401 198 395 194Q370 178 342 169T282 160V160ZM281 249Q317 249 345 266T389 312T405 373Q405 406 389 434T345 479T281 497Q246 497 218 480T174 434T157 373Q157 341 173 313T218 267T281 249V249Z" />
<glyph unicode="&#xa5;" horiz-adv-x="641" d="M632 742Q642 742 644 737T643 724L407 338Q402 331 401 323T400 292V22Q400 0 375 0H272Q261 0 257 4T252 19V293Q252 305 250 311T242 326L5 721Q-1 730 2 736T18 742H143Q155 742 159 739T169 726L330 445Q335
436 338 436T347 444L508 726Q513 736 518 739T534 742H632V742ZM554 299Q554 280 531 280L116 279Q106 279 102 283T98 297V337Q98 353 111 353H541Q554 353 554 339V299ZM554 142Q554 123 531 123H116Q106 123 102 127T98 140V180Q98 196 111 196H541Q554 196
554 183V142Z" />
<glyph unicode="&#xa6;" horiz-adv-x="255" d="M98 432Q80 432 80 453L79 829Q79 839 83 843T96 847H159Q176 847 176 832V445Q176 432 161 432H98ZM98 -165Q80 -165 80 -144L79 233Q79 242 83 246T96 250H159Q176 250 176 235V-151Q176 -165 161 -165H98Z" />
<glyph unicode="&#xa7;" horiz-adv-x="500" d="M379 213Q426 187 448 156T471 83Q471 37 446 1T372 -57T256 -78Q176 -78 117 -48T34 25Q28 35 29 39T34 46L96 77Q102 81 107 79T116 72Q137 45 170 25T254 5Q298 5 326 20T354 67Q354 89 336 108T267 147L184 178Q107
208 72 245T37 337Q37 384 63 418T131 471Q97 491 78 511T50 553T42 599Q42 643 67 677T137 731T244 752Q316 752 368 724T444 658Q450 648 449 644T444 637L383 607Q376 604 372 605T361 611Q341 635 314 652T249 670Q207 670 183 654T159 612Q159 594 173 578T228
545L307 514Q391 481 428 442T465 345Q465 296 441 265T379 213V213ZM282 256Q305 255 321 263T347 287T357 322Q357 346 343 367T275 409L226 429Q201 427 183 416T154 390T144 355Q144 331 160 315T227 278L282 256V256Z" />
<glyph unicode="&#xa8;" horiz-adv-x="322" d="M128 637Q128 627 124 623T107 619H28Q17 619 14 623T10 635V726Q10 742 23 742H116Q128 742 128 728V637ZM312 637Q312 627 307 623T290 619H211Q201 619 198 623T194 635V726Q194 742 207 742H299Q312 742 312 728V637Z" />
<glyph unicode="&#xa9;" horiz-adv-x="830" d="M415 -10Q336 -10 267 19T146 101T64 222T34 371Q34 450 63 519T145 640T267 722T415 752Q494 752 563 723T684 641T766 519T796 371Q796 292 767 223T685 101T563 20T415 -10V-10ZM415 66Q478 66 532 87T627 149T690
245T713 371Q713 440 691 496T628 592T533 655T415 677Q350 677 296 655T201 593T139 496T117 371Q117 301 139 245T201 149T295 88T415 66V66ZM418 587Q464 587 498 570T554 527T589 473Q591 466 589 463T581 459L510 449Q502 447 499 457Q487 480 470 497T422
515Q377 515 350 479T323 374Q323 303 351 267T426 231Q462 231 485 250T524 300Q527 306 537 302L586 289Q594 287 591 276Q583 258 569 238T534 200T484 171T418 160Q359 160 314 187T242 261T216 372Q216 436 242 484T314 559T418 587V587Z" />
<glyph unicode="&#xaa;" horiz-adv-x="395" d="M185 751Q261 750 293 722T325 642V474Q325 460 326 450T332 426Q336 418 329 416T312 413H260Q253 413 251 416T247 424L244 443Q242 452 230 444Q206 425 185 416T135 407Q83 407 55 432T26 501Q26 550 69 579T197
614L231 617Q242 618 242 627V640Q242 694 181 694Q161 694 143 686T112 655Q108 649 99 651L42 664Q39 666 39 670T40 678Q57 713 90 732T185 751V751ZM111 505Q111 486 126 474T167 462Q200 462 224 483Q233 491 237 499T242 517V558Q242 570 231 569L202 566Q162
563 137 548T111 505V505Z" />
<glyph unicode="&#xab;" horiz-adv-x="473" d="M422 77Q426 68 410 68H363Q355 68 351 75L239 242Q229 256 238 271L351 448Q354 453 357 454T364 455H412Q418 455 421 452T421 443L339 267Q335 257 339 247L422 77ZM232 77Q236 68 220 68H173Q165 68 161 75L49
242Q39 256 48 271L161 448Q164 453 167 454T174 455H222Q227 455 230 452T231 443L149 267Q145 257 149 247L232 77Z" />
<glyph unicode="&#xac;" horiz-adv-x="574" d="M522 345Q522 325 499 325H71Q61 325 57 329T53 342V405Q53 421 66 421H509Q522 421 522 407V345ZM522 191Q522 173 502 173H433Q416 173 416 188V375Q416 390 428 390H510Q522 390 522 375V191Z" />
<glyph unicode="&#xad;" horiz-adv-x="380" d="M327 235Q327 216 304 216H72Q62 216 58 220T54 233V296Q54 312 67 312H314Q327 312 327 299V235Z" />
<glyph unicode="&#xae;" horiz-adv-x="545" d="M273 275Q207 275 153 307T66 393T34 513Q34 579 66 633T152 719T273 752Q339 752 393 720T479 633T511 513Q511 447 479 393T393 307T273 275V275ZM273 330Q326 330 366 352T428 416T451 513Q451 569 429 610T366
674T273 697Q219 697 179 674T116 610T94 513Q94 457 116 416T178 353T273 330V330ZM370 401Q371 398 370 396T365 394H320Q315 394 313 399L279 494Q278 496 277 497T270 499H235Q231 499 231 495V400Q231 394 224 394H184Q178 394 178 399V624Q178 630 182 630H287Q329
630 352 614T375 568Q375 542 361 528T330 506Q327 506 328 502L370 401V401ZM283 537Q299 537 309 544T319 564Q319 576 310 583T281 591H237Q234 591 233 591T231 587V543Q231 537 235 537H283V537Z" />
<glyph unicode="&#xaf;" horiz-adv-x="361" d="M351 664Q351 647 330 647H25Q16 647 13 651T10 663V719Q10 733 21 733H340Q351 733 351 721V664Z" />
<glyph unicode="&#xb0;" horiz-adv-x="464" d="M400 689Q400 640 378 602T318 543T232 521Q184 521 146 542T86 602T64 689Q64 739 86 776T146 835T232 857Q280 857 318 836T378 777T400 689V689ZM318 688Q318 728 295 753T230 779Q191 779 167 754T143 688Q144
648 167 623T231 597Q271 597 294 622T318 688V688Z" />
<glyph unicode="&#xb1;" horiz-adv-x="574" d="M522 64Q522 45 499 45H71Q61 45 57 49T53 62V125Q53 141 66 141H509Q522 141 522 127V64ZM522 429Q522 409 499 409H71Q61 409 57 413T53 426V489Q53 505 66 505H509Q522 505 522 491V429ZM259 223Q240 223 240
246V674Q240 684 244 688T257 692H320Q336 692 336 679V236Q336 223 322 223H259Z" />
<glyph unicode="&#xb2;" horiz-adv-x="452" d="M192 583Q230 618 251 641T280 682T289 720Q289 742 278 757T250 780T210 789Q185 789 160 774T114 724Q109 715 98 722L52 746Q46 750 45 754T48 764Q79 812 122 834T217 857Q264 857 300 841T357 795T379 719Q379
693 370 670T340 623T284 570L164 469Q161 466 161 464T168 461H373Q384 461 384 452V394Q384 384 373 384H57Q50 384 47 386T44 397V437Q44 443 48 448T69 469L192 583Z" />
<glyph unicode="&#xb3;" horiz-adv-x="467" d="M71 780Q67 786 71 793Q98 823 139 840T229 857Q308 857 353 823T398 736Q398 705 379 678T322 639Q315 636 315 633T322 628Q361 616 386 587T412 517Q412 453 365 416T221 378Q169 378 125 397T53 452Q49 456 50
460T55 468L97 498Q105 504 109 498Q138 469 164 457T226 445Q271 445 296 464T321 514Q321 539 308 556T272 582T223 592H168Q158 592 158 600V650Q158 657 168 658L212 659Q253 661 280 680T307 731Q307 757 285 774T228 792Q198 792 173 781T122 745Q119 741
116 741T109 744L71 780V780Z" />
<glyph unicode="&#xb4;" horiz-adv-x="299" d="M289 685Q295 668 275 662L45 598Q36 596 32 598T24 608L13 638Q9 652 19 656L254 751Q265 755 270 743L289 685Z" />
<glyph unicode="&#xb5;" horiz-adv-x="588" d="M268 85Q303 85 334 104T395 154V510Q395 530 418 530H508Q526 530 526 511L524 16Q524 0 510 0H412Q398 0 398 15V68Q398 74 396 75T388 72Q349 36 318 18T252 -4Q229 -7 214 -5T187 4V-143Q187 -155 182 -160T163
-165H77Q57 -165 57 -147V509Q57 530 78 530H170Q187 530 187 511V161Q187 140 197 123T227 95T268 85V85Z" />
<glyph unicode="&#xb6;" horiz-adv-x="589" d="M477 667Q468 667 468 657V-73Q468 -77 466 -81T458 -85H400Q387 -85 387 -73V658Q387 667 377 667H340Q331 667 331 657V-73Q331 -85 319 -85H260Q249 -85 249 -73V300Q249 306 241 307Q183 310 136 337T63 411T36
520Q36 580 63 630T143 711T274 742H521Q532 742 532 733V675Q532 667 521 667H477Z" />
<glyph unicode="&#xb7;" horiz-adv-x="232" d="M185 325Q185 306 163 306H62Q44 306 44 323V426Q44 441 57 441H173Q185 441 185 428V325Z" />
<glyph unicode="&#xb8;" horiz-adv-x="247" d="M237 -133Q237 -160 221 -178T178 -206T118 -216Q90 -216 64 -211T15 -193Q8 -188 10 -181L24 -149Q26 -143 34 -146Q48 -154 65 -160T103 -167Q128 -167 141 -158T155 -133Q155 -112 136 -101T70 -90Q65 -90 63
-88T63 -81L100 5H161L139 -49Q137 -55 144 -55Q179 -56 199 -68T228 -98T237 -133V-133Z" />
<glyph unicode="&#xb9;" horiz-adv-x="367" d="M284 449Q294 449 294 441V390Q294 380 283 380H44Q34 380 34 389V441Q34 449 43 449H114Q119 449 119 454V746Q119 754 112 752L45 731Q33 727 33 740V777Q33 782 34 784T41 789L143 840Q150 844 154 845T166 847H204Q212
847 212 837V456Q212 449 218 449H284V449Z" />
<glyph unicode="&#xba;" horiz-adv-x="403" d="M201 752Q252 752 289 730T346 668T367 578Q367 529 347 491T289 430T201 408Q151 408 114 430T56 490T36 578Q36 630 57 669T115 730T201 752V752ZM201 692Q163 692 144 663T125 581Q125 525 144 496T201 467Q240
467 259 496T278 581Q278 634 259 663T201 692V692Z" />
<glyph unicode="&#xbb;" horiz-adv-x="472" d="M133 247Q138 257 133 267L51 443Q49 449 52 452T60 455H108Q113 455 115 454T121 448L235 271Q244 256 234 242L121 75Q118 68 109 68H63Q47 68 51 77L133 247V247ZM323 247Q328 257 323 267L241 443Q239 449 242
452T250 455H298Q303 455 305 454T311 448L425 271Q434 256 424 242L312 75Q308 68 299 68H253Q238 68 241 77L323 247V247Z" />
<glyph unicode="&#xbc;" horiz-adv-x="924" d="M284 345Q294 345 294 337V286Q294 276 283 276H44Q34 276 34 285V337Q34 345 43 345H114Q119 345 119 350V642Q119 650 112 648L45 627Q33 623 33 636V673Q33 678 34 680T41 685L143 736Q150 740 154 741T166 743H204Q212
743 212 733V352Q212 345 218 345H284V345ZM273 6Q266 -4 250 -4L214 -3Q202 -3 200 5T204 21L681 741Q686 748 691 749T702 750H748Q754 750 757 747T756 735L273 6ZM714 457Q719 463 723 465T736 467H803Q812 467 812 457V187Q812 180 818 180H873Q883 180 883
172V126Q883 115 871 115H819Q812 115 812 108V13Q812 0 798 0H730Q718 0 718 12V110Q718 115 711 115H517Q506 115 506 126V171Q506 177 509 183T519 198L714 457V457ZM713 180Q718 180 718 184V360Q718 368 716 368T709 362L582 188Q577 180 587 180H713Z" />
<glyph unicode="&#xbd;" horiz-adv-x="978" d="M286 345Q296 345 296 337V286Q296 276 285 276H46Q36 276 36 285V337Q36 345 45 345H116Q121 345 121 350V642Q121 650 114 648L47 627Q35 623 35 636V673Q35 678 36 680T43 685L145 736Q152 740 156 741T168 743H206Q214
743 214 733V352Q214 345 220 345H286V345ZM260 6Q253 -4 237 -4L201 -3Q189 -3 187 5T191 21L668 741Q673 748 678 749T689 750H735Q741 750 744 747T743 735L260 6ZM730 199Q768 234 789 257T818 298T827 336Q827 358 816 373T788 396T748 405Q723 405 698 390T652
340Q647 331 636 338L590 362Q584 366 583 370T586 380Q617 428 660 450T755 473Q802 473 838 457T895 411T917 335Q917 309 908 286T878 239T822 186L702 85Q699 82 699 80T706 77H911Q922 77 922 68V10Q922 0 911 0H595Q588 0 585 2T582 13V53Q582 59 586 64T607
85L730 199Z" />
<glyph unicode="&#xbe;" horiz-adv-x="984" d="M57 675Q53 681 57 688Q84 718 125 735T215 752Q294 752 339 718T384 631Q384 600 365 573T308 534Q301 531 301 528T308 523Q347 511 372 482T398 412Q398 348 351 311T207 273Q155 273 111 292T39 347Q35 351 36
355T41 363L83 393Q91 399 95 393Q124 364 150 352T212 340Q257 340 282 359T307 409Q307 434 294 451T258 477T209 487H154Q144 487 144 495V545Q144 552 154 553L198 554Q239 556 266 575T293 626Q293 652 271 669T214 687Q184 687 159 676T108 640Q105 636 102
636T95 639L57 675V675ZM330 6Q323 -4 307 -4L271 -3Q259 -3 257 5T261 21L738 741Q743 748 748 749T759 750H805Q811 750 814 747T813 735L330 6ZM776 457Q781 463 785 465T798 467H865Q874 467 874 457V187Q874 180 880 180H935Q945 180 945 172V126Q945 115
933 115H881Q874 115 874 108V13Q874 0 860 0H792Q780 0 780 12V110Q780 115 773 115H579Q568 115 568 126V171Q568 177 571 183T581 198L776 457V457ZM775 180Q780 180 780 184V360Q780 368 778 368T771 362L644 188Q639 180 649 180H775Z" />
<glyph unicode="&#xbf;" horiz-adv-x="527" d="M206 509Q206 530 231 530H333Q343 530 347 526T352 512V401Q352 385 338 385H219Q206 385 206 399V509ZM505 -10Q512 -12 513 -18T512 -29Q480 -98 416 -136T263 -175Q186 -175 133 -152T53 -88T26 1Q26 41 40 69T77
117T125 157T173 196T210 241T225 302Q225 309 230 314T242 319H313Q331 319 331 298Q331 257 319 226T286 172T244 131T201 94T168 55T155 8Q155 -32 186 -56T264 -81Q293 -81 320 -70T369 -40T402 4Q405 10 408 11T420 11L505 -10Z" />
<glyph unicode="&#xc0;" horiz-adv-x="756" d="M50 0Q43 0 39 7T39 25L291 724Q295 734 300 738T315 742H440Q461 742 468 722L718 24Q721 16 718 8T707 0H586Q572 0 568 13L510 175Q509 180 507 182T498 185H237Q228 185 225 176L165 12Q164 6 160 3T147 0H50V0ZM462
298Q475 298 470 314L374 581Q371 588 367 588T360 580L263 314Q257 298 271 298H462ZM261 955Q266 967 277 963L511 868Q522 864 517 850L506 819Q504 812 500 810T485 810L255 874Q235 880 241 897L261 955V955Z" />
<glyph unicode="&#xc1;" horiz-adv-x="756" d="M50 0Q43 0 39 7T39 25L291 724Q295 734 300 738T315 742H440Q461 742 468 722L718 24Q721 16 718 8T707 0H586Q572 0 568 13L510 175Q509 180 507 182T498 185H237Q228 185 225 176L165 12Q164 6 160 3T147 0H50V0ZM462
298Q475 298 470 314L374 581Q371 588 367 588T360 580L263 314Q257 298 271 298H462ZM515 897Q521 880 501 874L271 810Q262 808 258 810T250 820L239 850Q235 864 245 868L480 963Q491 967 496 955L515 897Z" />
<glyph unicode="&#xc2;" horiz-adv-x="756" d="M50 0Q43 0 39 7T39 25L291 724Q295 734 300 738T315 742H440Q461 742 468 722L718 24Q721 16 718 8T707 0H586Q572 0 568 13L510 175Q509 180 507 182T498 185H237Q228 185 225 176L165 12Q164 6 160 3T147 0H50V0ZM462
298Q475 298 470 314L374 581Q371 588 367 588T360 580L263 314Q257 298 271 298H462ZM388 888Q379 898 375 898T361 888L308 836Q301 830 298 829T286 828H215Q207 828 207 832T212 843L318 947Q324 954 330 957T348 960H409Q418 960 423 957T432 949L537 843Q552
828 536 828H459Q452 828 447 829T437 836L388 888Z" />
<glyph unicode="&#xc3;" horiz-adv-x="756" d="M50 0Q43 0 39 7T39 25L291 724Q295 734 300 738T315 742H440Q461 742 468 722L718 24Q721 16 718 8T707 0H586Q572 0 568 13L510 175Q509 180 507 182T498 185H237Q228 185 225 176L165 12Q164 6 160 3T147 0H50V0ZM462
298Q475 298 470 314L374 581Q371 588 367 588T360 580L263 314Q257 298 271 298H462ZM534 874Q520 865 499 857T448 849Q420 849 398 856T354 870T307 877Q286 877 272 871T243 854Q236 850 232 850T225 860L212 898Q211 904 211 908T218 919Q235 933 254 943T302
953Q330 953 354 946T402 931T448 923Q469 923 484 930T513 946Q520 950 525 949T532 939L544 895Q547 884 534 874V874Z" />
<glyph unicode="&#xc4;" horiz-adv-x="756" d="M50 0Q43 0 39 7T39 25L291 724Q295 734 300 738T315 742H440Q461 742 468 722L718 24Q721 16 718 8T707 0H586Q572 0 568 13L510 175Q509 180 507 182T498 185H237Q228 185 225 176L165 12Q164 6 160 3T147 0H50V0ZM462
298Q475 298 470 314L374 581Q371 588 367 588T360 580L263 314Q257 298 271 298H462ZM342 849Q342 839 338 835T321 831H242Q231 831 228 835T224 847V938Q224 954 237 954H330Q342 954 342 940V849ZM526 849Q526 839 521 835T504 831H425Q415 831 412 835T408
847V938Q408 954 421 954H513Q526 954 526 940V849Z" />
<glyph unicode="&#xc5;" horiz-adv-x="756" d="M50 0Q43 0 39 7T39 25L291 724Q295 734 300 738T315 742H440Q461 742 468 722L718 24Q721 16 718 8T707 0H586Q572 0 568 13L510 175Q509 180 507 182T498 185H237Q228 185 225 176L165 12Q164 6 160 3T147 0H50V0ZM462
298Q475 298 470 314L374 581Q371 588 367 588T360 580L263 314Q257 298 271 298H462ZM484 853Q484 806 452 775T374 743Q329 743 297 775T265 855Q265 884 280 908T320 946T374 960Q405 960 430 946T469 907T484 853V853ZM426 851Q426 874 411 889T373 904Q353
904 337 889T320 851Q320 831 336 815T373 798Q396 798 411 814T426 851V851Z" />
<glyph unicode="&#xc6;" horiz-adv-x="1055" d="M998 110Q1014 110 1014 96V15Q1014 9 1010 5T997 0H521Q502 0 502 18V175Q502 185 493 185H269Q258 185 254 176L164 12Q162 6 158 3T144 0H48Q40 0 38 7T41 25L420 724Q425 734 431 738T447 742H989Q1002 742
1002 727V651Q1002 632 984 632H667Q650 632 650 618V443Q650 428 664 428H883Q898 428 898 413V332Q898 327 895 324T884 320H663Q650 320 650 308V122Q650 110 661 110H998V110ZM488 298Q502 298 502 313V598Q502 615 493 615T473 598L316 314Q307 298 321 298H488V298Z"
/>
<glyph unicode="&#xc7;" horiz-adv-x="719" d="M381 752Q436 752 485 736T573 690T637 621T670 537Q673 523 671 519T660 514L546 506Q538 506 536 509T532 520Q520 576 483 611T385 647Q300 647 253 581T206 373Q206 233 251 167T388 101Q450 101 494 131T566
234Q569 242 584 239L669 221Q673 220 676 216T678 199Q672 176 657 148T618 92T560 41T481 4T382 -10Q280 -10 206 38T91 172T51 375Q51 492 91 576T205 706T381 752V752ZM492 -133Q492 -160 476 -178T433 -206T373 -216Q345 -216 319 -211T270 -193Q263 -188
265 -181L279 -149Q281 -143 289 -146Q303 -154 320 -160T358 -167Q383 -167 396 -158T410 -133Q410 -112 391 -101T325 -90Q320 -90 318 -88T318 -81L355 5H416L394 -49Q392 -55 399 -55Q434 -56 454 -68T483 -98T492 -133V-133Z" />
<glyph unicode="&#xc8;" horiz-adv-x="645" d="M79 725Q79 742 94 742H579Q592 742 592 727V651Q592 632 574 632H244Q227 632 227 618V443Q227 428 241 428H469Q484 428 484 413V332Q484 327 481 324T470 320H240Q227 320 227 308V122Q227 110 238 110H588Q604
110 604 96V15Q604 9 600 5T587 0H98Q79 0 79 18V725V725ZM226 955Q231 967 242 963L476 868Q487 864 482 850L471 819Q469 812 465 810T450 810L220 874Q200 880 206 897L226 955V955Z" />
<glyph unicode="&#xc9;" horiz-adv-x="645" d="M79 725Q79 742 94 742H579Q592 742 592 727V651Q592 632 574 632H244Q227 632 227 618V443Q227 428 241 428H469Q484 428 484 413V332Q484 327 481 324T470 320H240Q227 320 227 308V122Q227 110 238 110H588Q604
110 604 96V15Q604 9 600 5T587 0H98Q79 0 79 18V725V725ZM479 897Q485 880 465 874L235 810Q226 808 222 810T214 820L203 850Q199 864 209 868L444 963Q455 967 460 955L479 897Z" />
<glyph unicode="&#xca;" horiz-adv-x="645" d="M79 725Q79 742 94 742H579Q592 742 592 727V651Q592 632 574 632H244Q227 632 227 618V443Q227 428 241 428H469Q484 428 484 413V332Q484 327 481 324T470 320H240Q227 320 227 308V122Q227 110 238 110H588Q604
110 604 96V15Q604 9 600 5T587 0H98Q79 0 79 18V725V725ZM352 888Q343 898 339 898T325 888L272 836Q265 830 262 829T250 828H179Q171 828 171 832T176 843L282 947Q288 954 294 957T312 960H373Q382 960 387 957T396 949L501 843Q516 828 500 828H423Q416 828
411 829T401 836L352 888Z" />
<glyph unicode="&#xcb;" horiz-adv-x="645" d="M79 725Q79 742 94 742H579Q592 742 592 727V651Q592 632 574 632H244Q227 632 227 618V443Q227 428 241 428H469Q484 428 484 413V332Q484 327 481 324T470 320H240Q227 320 227 308V122Q227 110 238 110H588Q604
110 604 96V15Q604 9 600 5T587 0H98Q79 0 79 18V725V725ZM306 849Q306 839 302 835T285 831H206Q195 831 192 835T188 847V938Q188 954 201 954H294Q306 954 306 940V849ZM490 849Q490 839 485 835T468 831H389Q379 831 376 835T372 847V938Q372 954 385 954H477Q490
954 490 940V849Z" />
<glyph unicode="&#xcc;" horiz-adv-x="306" d="M213 742Q227 742 227 726V22Q227 10 222 5T203 0H99Q87 0 83 4T79 18V725Q79 742 94 742H213ZM40 955Q45 967 56 963L290 868Q301 864 296 850L285 819Q283 812 279 810T264 810L34 874Q14 880 20 897L40 955V955Z" />
<glyph unicode="&#xcd;" horiz-adv-x="306" d="M213 742Q227 742 227 726V22Q227 10 222 5T203 0H99Q87 0 83 4T79 18V725Q79 742 94 742H213ZM294 897Q300 880 280 874L50 810Q41 808 37 810T29 820L18 850Q14 864 24 868L259 963Q270 967 275 955L294 897Z" />
<glyph unicode="&#xce;" horiz-adv-x="306" d="M213 742Q227 742 227 726V22Q227 10 222 5T203 0H99Q87 0 83 4T79 18V725Q79 742 94 742H213ZM167 888Q158 898 154 898T140 888L87 836Q80 830 77 829T65 828H-6Q-14 828 -14 832T-9 843L97 947Q103 954 109 957T127
960H188Q197 960 202 957T211 949L316 843Q331 828 315 828H238Q231 828 226 829T216 836L167 888Z" />
<glyph unicode="&#xcf;" horiz-adv-x="306" d="M213 742Q227 742 227 726V22Q227 10 222 5T203 0H99Q87 0 83 4T79 18V725Q79 742 94 742H213ZM121 849Q121 839 117 835T100 831H21Q10 831 7 835T3 847V938Q3 954 16 954H109Q121 954 121 940V849ZM305 849Q305
839 300 835T283 831H204Q194 831 191 835T187 847V938Q187 954 200 954H292Q305 954 305 940V849Z" />
<glyph unicode="&#xd0;" horiz-adv-x="753" d="M393 340Q393 319 368 319H48Q37 319 33 323T29 338V400Q29 417 43 417H379Q393 417 393 402V340ZM110 742Q124 742 151 742T210 742T269 742T310 741Q447 738 533 694T660 569T701 375Q701 257 658 173T526 45T303
0H111Q90 0 90 21V724Q90 734 94 738T110 742V742ZM248 636Q238 636 238 622V118Q238 106 251 106H277Q369 106 428 132T517 217T547 373Q547 469 519 526T432 610T285 636H248V636Z" />
<glyph unicode="&#xd1;" horiz-adv-x="758" d="M667 742Q679 742 679 728V15Q679 8 675 4T662 0H579Q572 0 567 1T555 11L213 497Q209 503 206 502T202 496V16Q203 0 185 0H97Q79 0 79 16V725Q79 742 95 742H195Q205 742 210 740T221 729L543 265Q549 257 553
258T558 268V726Q558 742 574 742H667ZM545 874Q531 865 510 857T459 849Q431 849 409 856T365 870T318 877Q297 877 283 871T254 854Q247 850 243 850T236 860L223 898Q222 904 222 908T229 919Q246 933 265 943T313 953Q341 953 365 946T413 931T459 923Q480
923 495 930T524 946Q531 950 536 949T543 939L555 895Q558 884 545 874V874Z" />
<glyph unicode="&#xd2;" horiz-adv-x="770" d="M386 -10Q283 -10 208 35T93 165T52 368Q52 488 93 574T209 706T386 752Q488 752 562 706T678 575T719 369Q719 251 679 166T563 36T386 -10V-10ZM387 96Q477 96 520 160T564 367Q564 512 520 579T386 647Q295 647
251 580T206 367Q206 226 250 161T387 96V96ZM272 955Q277 967 288 963L522 868Q533 864 528 850L517 819Q515 812 511 810T496 810L266 874Q246 880 252 897L272 955V955Z" />
<glyph unicode="&#xd3;" horiz-adv-x="770" d="M386 -10Q283 -10 208 35T93 165T52 368Q52 488 93 574T209 706T386 752Q488 752 562 706T678 575T719 369Q719 251 679 166T563 36T386 -10V-10ZM387 96Q477 96 520 160T564 367Q564 512 520 579T386 647Q295 647
251 580T206 367Q206 226 250 161T387 96V96ZM526 897Q532 880 512 874L282 810Q273 808 269 810T261 820L250 850Q246 864 256 868L491 963Q502 967 507 955L526 897Z" />
<glyph unicode="&#xd4;" horiz-adv-x="770" d="M386 -10Q283 -10 208 35T93 165T52 368Q52 488 93 574T209 706T386 752Q488 752 562 706T678 575T719 369Q719 251 679 166T563 36T386 -10V-10ZM387 96Q477 96 520 160T564 367Q564 512 520 579T386 647Q295 647
251 580T206 367Q206 226 250 161T387 96V96ZM398 888Q389 898 385 898T371 888L318 836Q311 830 308 829T296 828H225Q217 828 217 832T222 843L328 947Q334 954 340 957T358 960H419Q428 960 433 957T442 949L547 843Q562 828 546 828H469Q462 828 457 829T447
836L398 888Z" />
<glyph unicode="&#xd5;" horiz-adv-x="770" d="M386 -10Q283 -10 208 35T93 165T52 368Q52 488 93 574T209 706T386 752Q488 752 562 706T678 575T719 369Q719 251 679 166T563 36T386 -10V-10ZM387 96Q477 96 520 160T564 367Q564 512 520 579T386 647Q295 647
251 580T206 367Q206 226 250 161T387 96V96ZM545 874Q531 865 510 857T459 849Q431 849 409 856T365 870T318 877Q297 877 283 871T254 854Q247 850 243 850T236 860L223 898Q222 904 222 908T229 919Q246 933 265 943T313 953Q341 953 365 946T413 931T459 923Q480
923 495 930T524 946Q531 950 536 949T543 939L555 895Q558 884 545 874V874Z" />
<glyph unicode="&#xd6;" horiz-adv-x="770" d="M386 -10Q283 -10 208 35T93 165T52 368Q52 488 93 574T209 706T386 752Q488 752 562 706T678 575T719 369Q719 251 679 166T563 36T386 -10V-10ZM387 96Q477 96 520 160T564 367Q564 512 520 579T386 647Q295 647
251 580T206 367Q206 226 250 161T387 96V96ZM352 849Q352 839 348 835T331 831H252Q241 831 238 835T234 847V938Q234 954 247 954H340Q352 954 352 940V849ZM536 849Q536 839 531 835T514 831H435Q425 831 422 835T418 847V938Q418 954 431 954H523Q536 954 536
940V849Z" />
<glyph unicode="&#xd7;" horiz-adv-x="564" d="M455 160Q441 146 425 162L67 519Q60 527 60 532T67 544L111 589Q123 601 132 591L500 223Q504 219 504 214T500 204L455 160ZM70 200Q55 214 72 230L429 588Q436 595 442 595T454 588L499 544Q509 533 501 523L133
156Q124 147 114 156L70 200Z" />
<glyph unicode="&#xd8;" horiz-adv-x="752" d="M736 704Q746 694 736 684L656 599Q682 554 696 496T710 369Q710 251 670 166T554 36T377 -10Q308 -10 251 11T152 71L88 3Q80 -6 73 -6T56 2L26 31Q11 47 22 59L97 138Q70 183 56 241T42 368Q42 488 83 574T200
706T377 752Q446 752 503 731T602 667L671 741Q685 755 694 745L736 704V704ZM199 367Q199 334 202 307T215 256L511 577Q468 647 377 647Q286 647 243 580T199 367V367ZM553 367Q553 401 550 429T537 481L242 161Q285 97 377 97Q468 97 510 161T553 367V367Z"
/>
<glyph unicode="&#xd9;" horiz-adv-x="717" d="M646 265Q646 166 612 105T514 17T358 -10Q254 -10 191 23T99 121T70 283V724Q70 742 84 742H204Q218 742 218 726V261Q218 176 256 137T369 98Q416 98 451 114T505 168T524 264V725Q524 742 538 742H633Q646 742
646 726V265V265ZM255 955Q260 967 271 963L505 868Q516 864 511 850L500 819Q498 812 494 810T479 810L249 874Q229 880 235 897L255 955V955Z" />
<glyph unicode="&#xda;" horiz-adv-x="717" d="M646 265Q646 166 612 105T514 17T358 -10Q254 -10 191 23T99 121T70 283V724Q70 742 84 742H204Q218 742 218 726V261Q218 176 256 137T369 98Q416 98 451 114T505 168T524 264V725Q524 742 538 742H633Q646 742
646 726V265V265ZM509 897Q515 880 495 874L265 810Q256 808 252 810T244 820L233 850Q229 864 239 868L474 963Q485 967 490 955L509 897Z" />
<glyph unicode="&#xdb;" horiz-adv-x="717" d="M646 265Q646 166 612 105T514 17T358 -10Q254 -10 191 23T99 121T70 283V724Q70 742 84 742H204Q218 742 218 726V261Q218 176 256 137T369 98Q416 98 451 114T505 168T524 264V725Q524 742 538 742H633Q646 742
646 726V265V265ZM382 888Q373 898 369 898T355 888L302 836Q295 830 292 829T280 828H209Q201 828 201 832T206 843L312 947Q318 954 324 957T342 960H403Q412 960 417 957T426 949L531 843Q546 828 530 828H453Q446 828 441 829T431 836L382 888Z" />
<glyph unicode="&#xdc;" horiz-adv-x="717" d="M646 265Q646 166 612 105T514 17T358 -10Q254 -10 191 23T99 121T70 283V724Q70 742 84 742H204Q218 742 218 726V261Q218 176 256 137T369 98Q416 98 451 114T505 168T524 264V725Q524 742 538 742H633Q646 742
646 726V265V265ZM336 849Q336 839 332 835T315 831H236Q225 831 222 835T218 847V938Q218 954 231 954H324Q336 954 336 940V849ZM520 849Q520 839 515 835T498 831H419Q409 831 406 835T402 847V938Q402 954 415 954H507Q520 954 520 940V849Z" />
<glyph unicode="&#xdd;" horiz-adv-x="715" d="M667 742Q676 742 679 737T677 724L441 334Q436 327 435 319T434 289V22Q434 0 409 0H306Q294 0 290 4T286 19V291Q286 304 284 310T276 325L38 721Q32 730 35 736T51 742H174Q186 742 190 739T201 726L362 445Q367
435 371 435T382 444L541 726Q546 736 551 739T567 742H667V742ZM504 897Q510 880 490 874L260 810Q251 808 247 810T239 820L228 850Q224 864 234 868L469 963Q480 967 485 955L504 897Z" />
<glyph unicode="&#xde;" horiz-adv-x="713" d="M670 380Q670 307 636 258T541 184T402 160H237Q227 160 227 149V20Q227 0 205 0H97Q87 0 83 4T79 18V725Q79 742 94 742H213Q227 742 227 726V604Q227 595 235 595H384Q465 595 529 572T632 501T670 380V380ZM519
382Q519 437 480 462T376 488H244Q227 488 227 473V284Q227 267 240 267H383Q445 267 482 296T519 382V382Z" />
<glyph unicode="&#xdf;" horiz-adv-x="635" d="M331 742Q398 742 442 723T508 671T530 593Q530 556 515 530T470 485T400 448Q378 436 370 429T361 409Q361 397 369 391T399 378Q434 364 469 348T533 309T581 253T600 170Q600 111 573 71T498 11T389 -10Q350 -10
318 -3T261 19Q250 25 256 35L286 96Q292 106 302 99Q318 90 337 83T383 76Q427 76 454 96T482 157Q482 185 468 202T430 231T373 254Q345 266 320 281T279 321T263 381Q263 420 283 445T337 494Q355 508 371 520T399 549T410 587Q410 617 388 636T323 655Q271
655 241 624T211 535V17Q215 0 199 0H97Q83 0 83 15V410Q83 420 75 420H33Q18 420 18 433V496Q18 502 22 506T34 511H72Q80 511 81 515T83 525Q84 569 98 608T142 678T219 725T331 742V742Z" />
<glyph unicode="&#xe0;" horiz-adv-x="558" d="M355 55Q321 25 281 8T190 -10Q113 -10 70 30T26 136Q26 191 59 231T155 295T306 322L356 325Q362 326 367 329T372 340V363Q372 407 346 431T274 456Q239 456 209 441T156 390Q153 384 150 382T137 382L53 403Q48
405 46 409T49 425Q76 482 134 511T280 540Q357 540 404 519T474 461T496 372V20Q496 9 493 5T479 0H394Q385 0 381 7T376 24L374 54Q372 71 355 55V55ZM372 242Q372 260 357 259L316 256Q284 254 255 247T203 227T167 196T153 152Q153 118 177 98T244 78Q271 78
294 87T334 110Q351 124 361 139T372 171V242V242ZM163 743Q168 755 179 751L413 656Q424 652 419 638L408 607Q406 600 402 598T387 598L157 662Q137 668 143 685L163 743V743Z" />
<glyph unicode="&#xe1;" horiz-adv-x="558" d="M355 55Q321 25 281 8T190 -10Q113 -10 70 30T26 136Q26 191 59 231T155 295T306 322L356 325Q362 326 367 329T372 340V363Q372 407 346 431T274 456Q239 456 209 441T156 390Q153 384 150 382T137 382L53 403Q48
405 46 409T49 425Q76 482 134 511T280 540Q357 540 404 519T474 461T496 372V20Q496 9 493 5T479 0H394Q385 0 381 7T376 24L374 54Q372 71 355 55V55ZM372 242Q372 260 357 259L316 256Q284 254 255 247T203 227T167 196T153 152Q153 118 177 98T244 78Q271 78
294 87T334 110Q351 124 361 139T372 171V242V242ZM417 685Q423 668 403 662L173 598Q164 596 160 598T152 608L141 638Q137 652 147 656L382 751Q393 755 398 743L417 685Z" />
<glyph unicode="&#xe2;" horiz-adv-x="558" d="M355 55Q321 25 281 8T190 -10Q113 -10 70 30T26 136Q26 191 59 231T155 295T306 322L356 325Q362 326 367 329T372 340V363Q372 407 346 431T274 456Q239 456 209 441T156 390Q153 384 150 382T137 382L53 403Q48
405 46 409T49 425Q76 482 134 511T280 540Q357 540 404 519T474 461T496 372V20Q496 9 493 5T479 0H394Q385 0 381 7T376 24L374 54Q372 71 355 55V55ZM372 242Q372 260 357 259L316 256Q284 254 255 247T203 227T167 196T153 152Q153 118 177 98T244 78Q271 78
294 87T334 110Q351 124 361 139T372 171V242V242ZM290 676Q281 686 277 686T263 676L210 624Q203 618 200 617T188 616H117Q109 616 109 620T114 631L220 735Q226 742 232 745T250 748H311Q320 748 325 745T334 737L439 631Q454 616 438 616H361Q354 616 349 617T339
624L290 676Z" />
<glyph unicode="&#xe3;" horiz-adv-x="558" d="M355 55Q321 25 281 8T190 -10Q113 -10 70 30T26 136Q26 191 59 231T155 295T306 322L356 325Q362 326 367 329T372 340V363Q372 407 346 431T274 456Q239 456 209 441T156 390Q153 384 150 382T137 382L53 403Q48
405 46 409T49 425Q76 482 134 511T280 540Q357 540 404 519T474 461T496 372V20Q496 9 493 5T479 0H394Q385 0 381 7T376 24L374 54Q372 71 355 55V55ZM372 242Q372 260 357 259L316 256Q284 254 255 247T203 227T167 196T153 152Q153 118 177 98T244 78Q271 78
294 87T334 110Q351 124 361 139T372 171V242V242ZM436 662Q422 653 401 645T350 637Q322 637 300 644T256 658T209 665Q188 665 174 659T145 642Q138 638 134 638T127 648L114 686Q113 692 113 696T120 707Q137 721 156 731T204 741Q232 741 256 734T304 719T350
711Q371 711 386 718T415 734Q422 738 427 737T434 727L446 683Q449 672 436 662V662Z" />
<glyph unicode="&#xe4;" horiz-adv-x="558" d="M355 55Q321 25 281 8T190 -10Q113 -10 70 30T26 136Q26 191 59 231T155 295T306 322L356 325Q362 326 367 329T372 340V363Q372 407 346 431T274 456Q239 456 209 441T156 390Q153 384 150 382T137 382L53 403Q48
405 46 409T49 425Q76 482 134 511T280 540Q357 540 404 519T474 461T496 372V20Q496 9 493 5T479 0H394Q385 0 381 7T376 24L374 54Q372 71 355 55V55ZM372 242Q372 260 357 259L316 256Q284 254 255 247T203 227T167 196T153 152Q153 118 177 98T244 78Q271 78
294 87T334 110Q351 124 361 139T372 171V242V242ZM244 637Q244 627 240 623T223 619H144Q133 619 130 623T126 635V726Q126 742 139 742H232Q244 742 244 728V637ZM428 637Q428 627 423 623T406 619H327Q317 619 314 623T310 635V726Q310 742 323 742H415Q428
742 428 728V637Z" />
<glyph unicode="&#xe5;" horiz-adv-x="558" d="M355 55Q321 25 281 8T190 -10Q113 -10 70 30T26 136Q26 191 59 231T155 295T306 322L356 325Q362 326 367 329T372 340V363Q372 407 346 431T274 456Q239 456 209 441T156 390Q153 384 150 382T137 382L53 403Q48
405 46 409T49 425Q76 482 134 511T280 540Q357 540 404 519T474 461T496 372V20Q496 9 493 5T479 0H394Q385 0 381 7T376 24L374 54Q372 71 355 55V55ZM372 242Q372 260 357 259L316 256Q284 254 255 247T203 227T167 196T153 152Q153 118 177 98T244 78Q271 78
294 87T334 110Q351 124 361 139T372 171V242V242ZM387 695Q387 648 355 617T277 585Q232 585 200 617T168 697Q168 726 183 750T223 788T277 802Q308 802 333 788T372 749T387 695V695ZM329 693Q329 716 314 731T276 746Q256 746 240 731T223 693Q223 673 239
657T276 640Q299 640 314 656T329 693V693Z" />
<glyph unicode="&#xe6;" horiz-adv-x="916" d="M519 240Q510 240 506 236T502 219Q502 191 513 166T544 122T590 92T648 81Q680 81 704 90T747 116T786 153Q790 158 792 158T803 155L863 128Q876 123 866 110Q838 68 804 42T728 3T632 -10Q581 -10 543 4T475 41T425
87Q421 92 417 87Q392 61 362 39T291 4T195 -10Q114 -10 70 31T26 140Q26 217 92 265T292 321L354 325Q361 326 366 329T372 340V363Q372 407 347 431T271 456Q239 456 209 441T156 390Q152 382 149 381T136 382L53 403Q48 405 47 412T49 425Q69 463 99 488T173
526T278 540Q348 539 392 521T459 465Q490 503 534 521T631 540Q705 540 762 508T851 413T884 263Q884 251 881 246T866 240H519V240ZM634 458Q599 458 570 441T523 392T505 315L739 314Q750 314 753 317T756 329Q756 359 742 389T700 438T634 458V458ZM372 237Q372
246 369 250T355 254L306 250Q262 247 228 235T174 201T153 148Q153 114 177 93T245 73Q280 75 308 87T354 120T372 167V237V237Z" />
<glyph unicode="&#xe7;" horiz-adv-x="548" d="M297 540Q357 540 401 520T473 467T517 398Q523 380 507 379L419 368Q409 366 405 377Q392 399 378 416T346 443T302 453Q262 453 232 432T185 368T168 265Q168 203 185 161T234 98T308 76Q353 76 382 99T436 165Q439
169 442 170T452 169L515 152Q525 149 521 135Q511 112 493 86T447 39T383 4T297 -10Q221 -10 162 24T70 120T36 263Q36 345 70 407T163 505T297 540V540ZM407 -133Q407 -160 391 -178T348 -206T288 -216Q260 -216 234 -211T185 -193Q178 -188 180 -181L194 -149Q196
-143 204 -146Q218 -154 235 -160T273 -167Q298 -167 311 -158T325 -133Q325 -112 306 -101T240 -90Q235 -90 233 -88T233 -81L270 5H331L309 -49Q307 -55 314 -55Q349 -56 369 -68T398 -98T407 -133V-133Z" />
<glyph unicode="&#xe8;" horiz-adv-x="584" d="M171 224Q171 183 190 151T242 100T316 81Q357 81 390 98T454 153Q458 158 461 158T471 155L532 128Q545 122 535 110Q505 66 471 40T395 2T301 -10Q225 -10 165 24T71 118T36 258Q36 345 71 408T167 505T299 540Q375
540 431 507T520 413T552 263Q552 253 551 247T536 240H182Q176 240 174 236T171 224V224ZM408 314Q418 314 421 316T425 328Q425 359 411 389T370 438T304 458Q264 458 234 439T189 387T173 314H408ZM185 743Q190 755 201 751L435 656Q446 652 441 638L430 607Q428
600 424 598T409 598L179 662Q159 668 165 685L185 743V743Z" />
<glyph unicode="&#xe9;" horiz-adv-x="584" d="M171 224Q171 183 190 151T242 100T316 81Q357 81 390 98T454 153Q458 158 461 158T471 155L532 128Q545 122 535 110Q505 66 471 40T395 2T301 -10Q225 -10 165 24T71 118T36 258Q36 345 71 408T167 505T299 540Q375
540 431 507T520 413T552 263Q552 253 551 247T536 240H182Q176 240 174 236T171 224V224ZM408 314Q418 314 421 316T425 328Q425 359 411 389T370 438T304 458Q264 458 234 439T189 387T173 314H408ZM439 685Q445 668 425 662L195 598Q186 596 182 598T174 608L163
638Q159 652 169 656L404 751Q415 755 420 743L439 685Z" />
<glyph unicode="&#xea;" horiz-adv-x="584" d="M171 224Q171 183 190 151T242 100T316 81Q357 81 390 98T454 153Q458 158 461 158T471 155L532 128Q545 122 535 110Q505 66 471 40T395 2T301 -10Q225 -10 165 24T71 118T36 258Q36 345 71 408T167 505T299 540Q375
540 431 507T520 413T552 263Q552 253 551 247T536 240H182Q176 240 174 236T171 224V224ZM408 314Q418 314 421 316T425 328Q425 359 411 389T370 438T304 458Q264 458 234 439T189 387T173 314H408ZM312 676Q303 686 299 686T285 676L232 624Q225 618 222 617T210
616H139Q131 616 131 620T136 631L242 735Q248 742 254 745T272 748H333Q342 748 347 745T356 737L461 631Q476 616 460 616H383Q376 616 371 617T361 624L312 676Z" />
<glyph unicode="&#xeb;" horiz-adv-x="584" d="M171 224Q171 183 190 151T242 100T316 81Q357 81 390 98T454 153Q458 158 461 158T471 155L532 128Q545 122 535 110Q505 66 471 40T395 2T301 -10Q225 -10 165 24T71 118T36 258Q36 345 71 408T167 505T299 540Q375
540 431 507T520 413T552 263Q552 253 551 247T536 240H182Q176 240 174 236T171 224V224ZM408 314Q418 314 421 316T425 328Q425 359 411 389T370 438T304 458Q264 458 234 439T189 387T173 314H408ZM266 637Q266 627 262 623T245 619H166Q155 619 152 623T148
635V726Q148 742 161 742H254Q266 742 266 728V637ZM450 637Q450 627 445 623T428 619H349Q339 619 336 623T332 635V726Q332 742 345 742H437Q450 742 450 728V637Z" />
<glyph unicode="&#xec;" horiz-adv-x="256" d="M193 22Q193 10 188 5T169 0H82Q71 0 67 4T63 18V513Q63 530 78 530H179Q193 530 193 514V22ZM16 743Q21 755 32 751L266 656Q277 652 272 638L261 607Q259 600 255 598T240 598L10 662Q-10 668 -4 685L16 743V743Z" />
<glyph unicode="&#xed;" horiz-adv-x="256" d="M193 22Q193 10 188 5T169 0H82Q71 0 67 4T63 18V513Q63 530 78 530H179Q193 530 193 514V22ZM270 685Q276 668 256 662L26 598Q17 596 13 598T5 608L-6 638Q-10 652 0 656L235 751Q246 755 251 743L270 685Z" />
<glyph unicode="&#xee;" horiz-adv-x="256" d="M193 22Q193 10 188 5T169 0H82Q71 0 67 4T63 18V513Q63 530 78 530H179Q193 530 193 514V22ZM143 676Q134 686 130 686T116 676L63 624Q56 618 53 617T41 616H-30Q-38 616 -38 620T-33 631L73 735Q79 742 85 745T103
748H164Q173 748 178 745T187 737L292 631Q307 616 291 616H214Q207 616 202 617T192 624L143 676Z" />
<glyph unicode="&#xef;" horiz-adv-x="256" d="M193 22Q193 10 188 5T169 0H82Q71 0 67 4T63 18V513Q63 530 78 530H179Q193 530 193 514V22ZM96 637Q96 627 92 623T75 619H-4Q-15 619 -18 623T-22 635V726Q-22 742 -9 742H84Q96 742 96 728V637ZM280 637Q280
627 275 623T258 619H179Q169 619 166 623T162 635V726Q162 742 175 742H267Q280 742 280 728V637Z" />
<glyph unicode="&#xf0;" horiz-adv-x="599" d="M563 270Q563 186 531 123T439 25T298 -10Q221 -10 162 24T70 117T36 252Q36 331 70 391T162 485T296 520Q321 520 340 513T372 493Q355 528 328 558T261 615L133 543Q122 537 114 550L102 569Q97 576 98 580T103
586L211 646Q190 658 167 669T116 690Q112 692 111 695T114 702L169 746Q174 751 177 751T189 750Q221 740 251 728T308 700L395 749Q404 755 409 748L427 717Q431 710 424 706L359 669Q462 598 512 495T563 270V270ZM300 79Q341 79 370 100T415 162T431 255Q431
310 415 350T370 412T300 434Q260 434 231 412T185 350T168 255Q168 201 184 162T230 101T300 79V79Z" />
<glyph unicode="&#xf1;" horiz-adv-x="592" d="M81 0Q63 0 63 18V513Q63 530 77 530H177Q190 530 190 515V463Q190 457 193 456T201 459Q230 484 257 502T313 530T376 540Q450 540 492 498T535 385V21Q535 0 514 0H422Q413 0 409 4T405 18V362Q405 401 384 422T321
444Q297 444 277 437T236 414T193 376V20Q193 0 170 0H81V0ZM462 662Q448 653 427 645T376 637Q348 637 326 644T282 658T235 665Q214 665 200 659T171 642Q164 638 160 638T153 648L140 686Q139 692 139 696T146 707Q163 721 182 731T230 741Q258 741 282 734T330
719T376 711Q397 711 412 718T441 734Q448 738 453 737T460 727L472 683Q475 672 462 662V662Z" />
<glyph unicode="&#xf2;" horiz-adv-x="599" d="M299 -10Q221 -10 162 25T70 121T36 262Q36 345 70 407T164 505T300 540Q379 540 438 505T530 407T563 263Q563 183 530 122T437 25T299 -10V-10ZM300 79Q343 79 372 100T416 163T431 265Q431 326 416 368T371 432T300
454Q259 454 229 432T184 368T168 265Q168 205 183 164T229 101T300 79V79ZM186 743Q191 755 202 751L436 656Q447 652 442 638L431 607Q429 600 425 598T410 598L180 662Q160 668 166 685L186 743V743Z" />
<glyph unicode="&#xf3;" horiz-adv-x="599" d="M299 -10Q221 -10 162 25T70 121T36 262Q36 345 70 407T164 505T300 540Q379 540 438 505T530 407T563 263Q563 183 530 122T437 25T299 -10V-10ZM300 79Q343 79 372 100T416 163T431 265Q431 326 416 368T371 432T300
454Q259 454 229 432T184 368T168 265Q168 205 183 164T229 101T300 79V79ZM440 685Q446 668 426 662L196 598Q187 596 183 598T175 608L164 638Q160 652 170 656L405 751Q416 755 421 743L440 685Z" />
<glyph unicode="&#xf4;" horiz-adv-x="599" d="M299 -10Q221 -10 162 25T70 121T36 262Q36 345 70 407T164 505T300 540Q379 540 438 505T530 407T563 263Q563 183 530 122T437 25T299 -10V-10ZM300 79Q343 79 372 100T416 163T431 265Q431 326 416 368T371 432T300
454Q259 454 229 432T184 368T168 265Q168 205 183 164T229 101T300 79V79ZM313 676Q304 686 300 686T286 676L233 624Q226 618 223 617T211 616H140Q132 616 132 620T137 631L243 735Q249 742 255 745T273 748H334Q343 748 348 745T357 737L462 631Q477 616 461
616H384Q377 616 372 617T362 624L313 676Z" />
<glyph unicode="&#xf5;" horiz-adv-x="599" d="M299 -10Q221 -10 162 25T70 121T36 262Q36 345 70 407T164 505T300 540Q379 540 438 505T530 407T563 263Q563 183 530 122T437 25T299 -10V-10ZM300 79Q343 79 372 100T416 163T431 265Q431 326 416 368T371 432T300
454Q259 454 229 432T184 368T168 265Q168 205 183 164T229 101T300 79V79ZM459 662Q445 653 424 645T373 637Q345 637 323 644T279 658T232 665Q211 665 197 659T168 642Q161 638 157 638T150 648L137 686Q136 692 136 696T143 707Q160 721 179 731T227 741Q255
741 279 734T327 719T373 711Q394 711 409 718T438 734Q445 738 450 737T457 727L469 683Q472 672 459 662V662Z" />
<glyph unicode="&#xf6;" horiz-adv-x="599" d="M299 -10Q221 -10 162 25T70 121T36 262Q36 345 70 407T164 505T300 540Q379 540 438 505T530 407T563 263Q563 183 530 122T437 25T299 -10V-10ZM300 79Q343 79 372 100T416 163T431 265Q431 326 416 368T371 432T300
454Q259 454 229 432T184 368T168 265Q168 205 183 164T229 101T300 79V79ZM267 637Q267 627 263 623T246 619H167Q156 619 153 623T149 635V726Q149 742 162 742H255Q267 742 267 728V637ZM451 637Q451 627 446 623T429 619H350Q340 619 337 623T333 635V726Q333
742 346 742H438Q451 742 451 728V637Z" />
<glyph unicode="&#xf7;" horiz-adv-x="575" d="M360 130Q360 110 337 110H235Q217 110 217 127V232Q217 247 230 247H348Q360 247 360 234V130ZM522 345Q522 325 499 325H71Q61 325 57 329T53 342V405Q53 421 66 421H509Q522 421 522 407V345ZM360 518Q360 499
337 499H235Q217 499 217 516V621Q217 636 230 636H348Q360 636 360 622V518Z" />
<glyph unicode="&#xf8;" horiz-adv-x="591" d="M75 9Q67 1 60 1T44 9L29 25Q13 41 27 54L517 522Q532 535 542 525L567 499Q577 487 566 477L75 9ZM298 -10Q220 -10 161 25T69 121T35 262Q35 345 69 407T163 505T299 540Q378 540 437 505T529 407T562 263Q562
183 529 122T436 25T298 -10V-10ZM300 79Q342 79 371 100T415 163T430 265Q430 326 415 368T371 432T299 454Q258 454 228 432T183 368T167 265Q167 205 182 164T228 101T300 79V79Z" />
<glyph unicode="&#xf9;" horiz-adv-x="588" d="M268 85Q303 85 334 104T395 154V510Q395 530 418 530H508Q526 530 526 511L524 16Q524 0 510 0H412Q398 0 398 15V68Q398 73 396 74T388 71Q341 27 299 9T212 -10Q167 -10 132 9T77 64T57 148V509Q57 530 78 530H170Q187
530 187 511V170Q187 132 208 109T268 85V85ZM171 743Q176 755 187 751L421 656Q432 652 427 638L416 607Q414 600 410 598T395 598L165 662Q145 668 151 685L171 743V743Z" />
<glyph unicode="&#xfa;" horiz-adv-x="588" d="M268 85Q303 85 334 104T395 154V510Q395 530 418 530H508Q526 530 526 511L524 16Q524 0 510 0H412Q398 0 398 15V68Q398 73 396 74T388 71Q341 27 299 9T212 -10Q167 -10 132 9T77 64T57 148V509Q57 530 78 530H170Q187
530 187 511V170Q187 132 208 109T268 85V85ZM425 685Q431 668 411 662L181 598Q172 596 168 598T160 608L149 638Q145 652 155 656L390 751Q401 755 406 743L425 685Z" />
<glyph unicode="&#xfb;" horiz-adv-x="588" d="M268 85Q303 85 334 104T395 154V510Q395 530 418 530H508Q526 530 526 511L524 16Q524 0 510 0H412Q398 0 398 15V68Q398 73 396 74T388 71Q341 27 299 9T212 -10Q167 -10 132 9T77 64T57 148V509Q57 530 78 530H170Q187
530 187 511V170Q187 132 208 109T268 85V85ZM298 676Q289 686 285 686T271 676L218 624Q211 618 208 617T196 616H125Q117 616 117 620T122 631L228 735Q234 742 240 745T258 748H319Q328 748 333 745T342 737L447 631Q462 616 446 616H369Q362 616 357 617T347
624L298 676Z" />
<glyph unicode="&#xfc;" horiz-adv-x="588" d="M268 85Q303 85 334 104T395 154V510Q395 530 418 530H508Q526 530 526 511L524 16Q524 0 510 0H412Q398 0 398 15V68Q398 73 396 74T388 71Q341 27 299 9T212 -10Q167 -10 132 9T77 64T57 148V509Q57 530 78 530H170Q187
530 187 511V170Q187 132 208 109T268 85V85ZM252 637Q252 627 248 623T231 619H152Q141 619 138 623T134 635V726Q134 742 147 742H240Q252 742 252 728V637ZM436 637Q436 627 431 623T414 619H335Q325 619 322 623T318 635V726Q318 742 331 742H423Q436 742 436
728V637Z" />
<glyph unicode="&#xfd;" horiz-adv-x="554" d="M105 -165Q75 -165 60 -163T45 -148V-84Q45 -78 51 -74T74 -69H140Q160 -69 176 -58T203 -31T217 2T215 34L23 508Q20 517 24 523T38 530H142Q149 530 154 526T162 515L286 186Q289 177 294 177T303 188L426 516Q429
522 433 526T445 530H518Q526 530 530 524T530 510L320 -16Q301 -63 281 -92T235 -137T179 -159T105 -165V-165ZM434 685Q440 668 420 662L190 598Q181 596 177 598T169 608L158 638Q154 652 164 656L399 751Q410 755 415 743L434 685Z" />
<glyph unicode="&#xfe;" horiz-adv-x="603" d="M174 742Q193 742 193 724V478Q193 471 197 471T206 475Q221 489 240 504T288 529T356 540Q416 540 463 511T538 422T566 271Q566 177 538 115T461 21T347 -10Q306 -10 272 3T211 41Q201 50 197 49T193 35V-149Q193
-165 179 -165H77Q63 -165 63 -149V722Q63 733 67 737T83 742H174V742ZM193 130Q216 105 242 90T302 75Q342 75 371 95T417 159T434 272Q434 340 418 380T372 437T306 455Q273 455 248 442T208 407T193 363V130V130Z" />
<glyph unicode="&#xff;" horiz-adv-x="554" d="M105 -165Q75 -165 60 -163T45 -148V-84Q45 -78 51 -74T74 -69H140Q160 -69 176 -58T203 -31T217 2T215 34L23 508Q20 517 24 523T38 530H142Q149 530 154 526T162 515L286 186Q289 177 294 177T303 188L426 516Q429
522 433 526T445 530H518Q526 530 530 524T530 510L320 -16Q301 -63 281 -92T235 -137T179 -159T105 -165V-165ZM261 637Q261 627 257 623T240 619H161Q150 619 147 623T143 635V726Q143 742 156 742H249Q261 742 261 728V637ZM445 637Q445 627 440 623T423 619H344Q334
619 331 623T327 635V726Q327 742 340 742H432Q445 742 445 728V637Z" />
<glyph unicode="&#x2013;" horiz-adv-x="575" d="M522 227Q522 208 499 208H71Q61 208 57 212T53 225V288Q53 304 66 304H509Q522 304 522 290V227Z" />
<glyph unicode="&#x2014;" horiz-adv-x="899" d="M846 227Q846 208 823 208H71Q61 208 57 212T53 225V288Q53 304 66 304H833Q846 304 846 290V227Z" />
<glyph unicode="&#x2018;" horiz-adv-x="234" d="M177 742Q183 742 186 737T187 727L144 629Q139 618 140 613T150 606L167 605Q177 604 180 601T184 589V485Q184 470 171 470H56Q44 470 44 483V581Q44 587 47 592L133 728Q137 736 145 739T160 742H177V742Z" />
<glyph unicode="&#x2019;" horiz-adv-x="234" d="M57 470Q51 470 48 475T47 486L91 584Q95 595 94 600T84 606L67 607Q58 608 54 611T50 623V728Q50 742 63 742H178Q190 742 190 729V631Q190 625 187 620L102 484Q97 477 90 474T74 470H57V470Z" />
<glyph unicode="&#x201a;" horiz-adv-x="234" d="M57 -137Q51 -137 48 -132T47 -122L91 -24Q95 -13 94 -8T84 -1L67 0Q58 1 54 4T50 16V120Q50 135 63 135H178Q190 135 190 122V24Q190 18 187 13L102 -123Q97 -130 90 -133T74 -137H57V-137Z" />
<glyph unicode="&#x201c;" horiz-adv-x="442" d="M264 470Q252 470 252 483V581Q252 587 255 592L340 728Q345 736 353 739T368 742H385Q391 742 394 737T395 727L351 629Q347 618 348 613T358 606L375 605Q385 604 388 601T392 589V485Q392 470 379 470H264V470ZM56
470Q44 470 44 483V581Q44 587 47 592L133 728Q137 736 145 739T160 742H177Q183 742 186 737T187 727L144 629Q139 618 140 613T150 606L167 605Q177 604 180 601T184 589V485Q184 470 171 470H56V470Z" />
<glyph unicode="&#x201d;" horiz-adv-x="445" d="M265 470Q259 470 256 475T255 486L299 584Q303 595 302 600T292 606L275 607Q266 608 262 611T258 623V728Q258 742 271 742H386Q398 742 398 729V631Q398 625 395 620L310 484Q305 477 298 474T282 470H265V470ZM57
470Q51 470 48 475T47 486L91 584Q95 595 94 600T84 606L67 607Q58 608 54 611T50 623V728Q50 742 63 742H178Q190 742 190 729V631Q190 625 187 620L102 484Q97 477 90 474T74 470H57V470Z" />
<glyph unicode="&#x201e;" horiz-adv-x="445" d="M265 -137Q259 -137 256 -132T255 -122L299 -24Q303 -13 302 -8T292 -1L275 0Q266 1 262 4T258 16V120Q258 135 271 135H386Q398 135 398 122V24Q398 18 395 13L310 -123Q305 -130 298 -133T282 -137H265V-137ZM57
-137Q51 -137 48 -132T47 -122L91 -24Q95 -13 94 -8T84 -1L67 0Q58 1 54 4T50 16V120Q50 135 63 135H178Q190 135 190 122V24Q190 18 187 13L102 -123Q97 -130 90 -133T74 -137H57V-137Z" />
<glyph unicode="&#x2022;" horiz-adv-x="329" d="M163 259Q131 259 104 275T61 318T45 377Q45 410 61 436T104 479T163 495Q196 495 223 479T265 437T281 377Q281 345 266 318T223 275T163 259V259Z" />
<glyph unicode="&#x2039;" horiz-adv-x="282" d="M232 77Q236 68 220 68H173Q165 68 161 75L49 242Q39 256 48 271L161 448Q164 453 167 454T174 455H222Q227 455 230 452T231 443L149 267Q145 257 149 247L232 77Z" />
<glyph unicode="&#x203a;" horiz-adv-x="283" d="M134 247Q138 257 134 267L52 443Q49 449 52 452T61 455H109Q113 455 115 454T121 448L235 271Q244 257 234 242L122 75Q118 68 109 68H63Q48 68 51 77L134 247V247Z" />
</font>
</defs>
</svg>
