<?xml version="1.0" standalone="no"?>
<!DOCTYPE svg PUBLIC "-//W3C//DTD SVG 1.1//EN" "http://www.w3.org/Graphics/SVG/1.1/DTD/svg11.dtd">
<svg xmlns="http://www.w3.org/2000/svg">
<defs >
<font id="LibreFranklin" horiz-adv-x="567" ><font-face
    font-family="Libre Franklin Thin Light"
    units-per-em="1000"
    panose-1="0 0 0 0 0 0 0 0 0 0"
    ascent="966"
    descent="-246"
    alphabetic="0" />
<glyph unicode=" " horiz-adv-x="217" />
<glyph unicode="!" horiz-adv-x="239" d="M127 12Q125 4 123 2T111 0H53Q46 0 43 4T41 14L52 89Q53 95 54 96T60 98H129Q133 98 135 95T138 86L127 12ZM131 177Q130 171 128 169T118 167H95Q89 167 86 170T84 179L145 734Q146 739 147 740T152 742H218Q222 742
224 739T226 732L131 177Z" />
<glyph unicode="&quot;" horiz-adv-x="393" d="M299 538Q297 532 295 530T285 527H263Q257 527 255 530T252 539L257 735Q258 740 260 741T265 742H341Q345 742 348 739T349 732L299 538ZM400 538Q398 532 396 530T386 527H364Q358 527 356 530T353 539L358 735Q359
740 361 741T366 742H442Q446 742 449 739T450 732L400 538Z" />
<glyph unicode="#" horiz-adv-x="603" d="M137 9Q135 3 133 1T125 0L99 4Q93 5 91 8T89 15L300 735Q303 739 304 741T309 742L338 738Q344 737 346 733T347 723L137 9ZM343 9Q342 3 340 1T331 0L305 4Q300 5 298 8T295 15L507 735Q509 739 511 741T516 742L545
738Q550 737 553 733T554 723L343 9ZM530 255Q529 249 527 247T517 245H48Q42 245 39 248T37 257L41 285Q42 290 44 291T49 293H526Q529 293 532 290T534 283L530 255ZM593 465Q592 459 589 457T579 455H110Q104 455 102 458T100 467L104 495Q105 500 107 501T112
503H589Q592 503 594 500T597 493L593 465Z" />
<glyph unicode="$" horiz-adv-x="592" d="M541 173Q534 122 503 81T422 17T310 -9Q303 -9 300 -11T296 -19L288 -80Q287 -86 285 -88T277 -90H246Q240 -90 238 -87T236 -80L245 -15Q245 -10 245 -10T241 -9Q154 -8 104 22T22 110Q17 116 16 120T20 128L49 150Q55
154 60 152T68 145Q97 100 136 76T242 50Q248 50 251 52T256 60L292 323Q294 332 290 338T277 348Q207 378 166 406T111 470T103 555Q111 609 142 650T225 717T338 749Q343 750 348 753T354 760L360 812Q361 816 362 817T367 819H401Q407 819 410 815T411 805L404
754Q404 751 404 750T408 748Q468 742 509 718T583 655Q587 653 589 649T585 640L551 611Q546 608 543 610T537 620Q518 646 484 664T407 689Q401 690 398 687T393 679L355 407Q354 400 355 399T363 394L395 382Q448 359 482 330T532 261T541 173V173ZM342 684Q343
689 341 690T335 690Q268 684 223 646T170 551Q166 526 175 504T209 462T282 418Q291 416 298 419T307 434L342 684ZM306 54Q306 51 307 51T311 51Q377 51 422 87T474 177Q481 225 455 257T363 319Q344 323 341 307L306 54V54Z" />
<glyph unicode="%" horiz-adv-x="909" d="M295 753Q344 753 379 728T429 654T435 538Q426 471 399 424T330 353T241 328Q192 328 156 353T105 427T98 544Q108 611 136 657T205 728T295 753V753ZM240 369Q277 369 306 391T356 453T383 543Q393 618 370 665T294
712Q257 712 227 690T178 627T150 537Q141 463 164 416T240 369V369ZM699 415Q749 415 784 389T834 315T840 199Q830 132 803 86T735 15T646 -10Q596 -10 561 15T510 89T504 206Q514 273 541 319T610 390T699 415V415ZM645 31Q681 31 710 54T761 116T788 205Q795
254 786 292T755 352T699 374Q664 374 634 351T583 288T555 198Q549 151 557 113T588 53T645 31V31ZM187 3Q183 -1 180 -2T169 -4H147Q139 -4 138 2T141 14L730 745Q733 750 736 750T744 750H772Q776 750 779 747T778 738L187 3Z" />
<glyph unicode="&amp;" horiz-adv-x="762" d="M394 753Q446 753 484 735T542 683T555 601Q550 566 527 531T460 462T346 400Q329 396 337 384L478 185Q482 179 485 181T495 191Q516 208 542 234T592 289T634 345T662 390Q664 394 668 394T677 392L706 381Q710
380 712 375T714 364Q700 335 671 296T605 216T531 140Q525 137 524 134T526 124Q543 107 570 93T630 69T693 60Q703 60 706 56T709 46L704 15Q703 6 700 3T688 0Q651 0 609 12T531 44T471 85Q466 88 462 87T453 79Q400 38 342 17T221 -5Q120 -5 69 49T29 192Q37
250 78 299T205 398Q218 404 220 408T215 425Q186 458 174 494T167 572Q174 624 206 665T288 729T394 753V753ZM394 702Q350 702 317 683T264 634T238 567Q234 542 240 518T266 468L288 440Q290 437 295 437T305 442Q397 481 440 520T489 608Q497 656 468 679T394
702V702ZM273 352Q268 360 262 359T246 353Q187 328 148 284T101 186Q93 125 130 88T233 50Q281 50 328 70T411 121Q419 126 422 131T421 143L273 352V352Z" />
<glyph unicode="&apos;" horiz-adv-x="238" d="M181 538Q179 532 177 530T167 527H145Q139 527 137 530T134 539L139 735Q140 740 142 741T147 742H223Q227 742 230 739T231 732L181 538Z" />
<glyph unicode="(" horiz-adv-x="278" d="M158 -165Q150 -165 148 -155Q117 -86 97 -17T70 127T76 288Q93 412 148 527T279 738Q286 742 295 742H318Q323 742 324 738T325 730Q283 666 246 593T183 440T144 281Q128 169 140 62T188 -160Q193 -165 184 -165H158V-165Z" />
<glyph unicode=")" horiz-adv-x="278" d="M-32 -165Q-37 -165 -39 -161T-39 -153Q3 -89 40 -16T104 137T142 296Q158 409 146 516T98 737Q92 742 101 742H127Q136 742 137 732Q169 663 189 594T215 450T209 289Q192 165 137 50T6 -161Q0 -165 -9 -165H-32V-165Z" />
<glyph unicode="*" horiz-adv-x="359" d="M228 549Q226 551 225 549T223 546L131 427Q129 425 127 426T121 430L94 450Q91 453 90 455T92 461L191 567Q193 570 193 571T191 573L82 605Q79 607 78 610T78 617L94 647Q96 650 97 650T102 649L204 607Q207 606 209
608T213 614L222 737Q223 740 224 741T230 742H269Q273 742 275 739T276 733L252 610Q252 607 253 607T256 608L373 655Q378 657 379 655T382 649L388 620Q388 615 388 614T385 610L268 573Q265 572 263 570T262 564L328 464Q330 461 330 458T325 451L295 432Q291
429 287 431T284 435L228 549Z" />
<glyph unicode="+" horiz-adv-x="551" d="M498 355Q498 349 495 348T485 346L88 345Q83 345 80 348T78 357L83 392Q84 397 85 398T90 400H495Q498 400 501 397T504 390L498 355ZM247 162Q241 162 238 166T236 178L291 574Q292 581 293 582T301 583H336Q341 583
344 580T345 574L290 169Q289 166 288 164T282 162H247Z" />
<glyph unicode="," horiz-adv-x="202" d="M-7 -139Q-15 -139 -9 -128L52 -15Q55 -8 54 -4T44 0H32Q26 0 25 2T24 8L35 88Q35 92 38 95T45 98H115Q123 98 121 88L111 20Q110 16 109 13T106 7L20 -129Q17 -134 14 -136T4 -139H-7V-139Z" />
<glyph unicode="-" horiz-adv-x="381" d="M313 247Q312 241 309 239T299 237H74Q68 237 65 240T63 248L68 285Q69 290 70 291T75 293L309 294Q313 294 316 291T318 284L313 247Z" />
<glyph unicode="." horiz-adv-x="198" d="M106 12Q105 4 102 2T90 0H33Q25 0 22 4T20 14L31 90Q32 95 34 97T40 99H108Q113 99 115 96T117 87L106 12Z" />
<glyph unicode="/" horiz-adv-x="336" d="M-22 -50Q-27 -50 -29 -47T-30 -41L331 736Q333 740 335 741T342 742H379Q386 742 387 738T386 727L31 -41Q28 -47 25 -48T16 -50H-22V-50Z" />
<glyph unicode="0" horiz-adv-x="683" d="M407 752Q474 752 524 720T604 624T633 464Q633 441 631 417T625 366Q608 241 561 158T448 32T305 -10Q238 -10 187 22T108 116T79 272Q79 295 81 319T86 371Q100 465 130 536T203 656T298 728T407 752V752ZM309 51Q368
51 416 84T498 188T549 372Q553 402 555 429T557 479Q557 591 516 641T405 692Q348 692 299 658T214 552T163 365Q159 337 157 311T154 262Q154 151 197 101T309 51V51Z" />
<glyph unicode="1" horiz-adv-x="454" d="M372 62Q383 62 381 53L373 8Q372 4 371 2T365 0H25Q19 0 18 2T17 9L23 56Q24 59 25 60T31 62H165Q172 62 173 69L255 652Q256 656 255 657T248 657L111 607Q99 604 101 615L106 650Q107 656 109 659T116 665L268 736Q277
741 282 741T296 742H333Q343 742 342 730L248 68Q247 62 253 62H372V62Z" />
<glyph unicode="2" horiz-adv-x="588" d="M300 309Q353 355 395 398T463 485T488 575Q488 614 469 639T418 678T351 691Q305 691 252 667T158 591Q153 584 146 588L104 620Q101 622 101 625T107 635Q158 695 227 723T360 752Q414 752 460 734T533 677T561 579Q561
520 535 471T463 375T357 276L125 77Q119 72 120 69T127 65H487Q499 65 497 55L491 9Q490 4 489 2T481 0H31Q16 0 18 16L22 49Q23 56 25 61T32 73T47 87L300 309Z" />
<glyph unicode="3" horiz-adv-x="634" d="M133 643Q127 652 133 658Q171 691 209 711T287 742T369 752Q473 752 531 706T590 587Q590 543 570 506T513 440T430 396Q425 395 425 392T431 387Q486 374 523 332T561 227Q561 161 525 107T421 22T256 -10Q193 -10 151
4T79 42T26 95Q21 102 25 106L66 136Q69 138 71 138T75 136Q108 90 157 71T263 51Q326 51 377 72T458 132T488 224Q488 269 462 299T395 344T308 359H217Q206 359 208 368L214 411Q214 418 223 418H295Q354 418 404 440T484 498T515 581Q515 629 475 660T368 692Q323
692 289 681T227 651T174 613Q164 605 157 615L133 643V643Z" />
<glyph unicode="4" horiz-adv-x="638" d="M457 735Q461 739 465 740T476 742H532Q543 742 541 730L477 272Q476 265 482 265H580Q586 265 589 263T592 255L586 215Q585 210 583 208T574 205H475Q466 205 465 196L440 10Q439 5 436 3T426 0H373Q363 0 364 12L390
198Q392 205 384 205H51Q40 205 41 217L48 262Q49 269 52 274T63 290L457 735V735ZM389 265Q397 265 398 274L449 634Q451 648 436 630L124 277Q118 270 119 268T124 265H389Z" />
<glyph unicode="5" horiz-adv-x="649" d="M608 742Q615 742 617 740T617 730L607 685Q606 681 604 680T595 678H247Q242 678 240 676T236 667L183 425Q182 419 184 417T190 417Q227 437 272 452T373 467Q432 467 480 448T558 387T588 280Q588 194 547 129T434
27T272 -10Q224 -10 182 1T103 35T36 93Q32 99 32 102T36 108L72 134Q75 138 78 137T86 131Q115 100 157 75T264 49Q337 49 392 78T480 158T512 274Q512 320 492 350T436 394T358 408Q319 408 285 398T221 373T165 343Q160 341 157 341T148 344L112 368Q107 373
107 377T108 389L184 732Q186 739 189 740T202 742H608Z" />
<glyph unicode="6" horiz-adv-x="655" d="M434 752Q467 752 494 744T544 724T582 694T609 658Q612 653 606 649L561 628Q556 624 546 638Q528 663 502 677T433 691Q354 691 299 653T210 550T165 403Q164 398 164 394T164 388Q164 384 168 384T176 387Q219 406
268 423T379 440Q449 440 496 416T568 351T593 256Q593 199 571 151T510 67T420 10T311 -10Q237 -10 185 22T106 117T78 269Q78 291 80 315T85 365Q102 486 149 572T269 705T434 752V752ZM371 381Q342 381 307 375T239 357T182 332Q160 319 154 300T148 247Q148
213 157 178T186 114T237 67T314 49Q370 49 416 76T490 149T518 248Q518 305 481 343T371 381V381Z" />
<glyph unicode="7" horiz-adv-x="594" d="M603 742Q609 742 611 739T613 731L608 700Q607 692 604 684T593 667Q543 607 495 536T403 391T321 246T257 115T218 14Q217 6 214 3T204 0H144Q137 0 136 5T136 19Q158 74 192 147T274 305T381 482T514 667Q518 672 517
675T510 678H111Q105 678 104 680T103 689L114 734Q116 739 118 740T126 742H603Z" />
<glyph unicode="8" horiz-adv-x="665" d="M400 752Q463 752 511 731T585 670T611 574Q611 533 596 501T559 444T516 405T484 380Q479 376 479 373T485 366Q500 359 519 348T554 319T582 275T594 209Q594 156 571 115T507 46T411 4T293 -10Q220 -10 166 10T82 69T53
167Q53 219 74 257T128 323T198 375Q203 379 204 382T199 390Q177 405 160 420T133 457T123 516Q123 583 160 636T259 720T400 752V752ZM396 693Q339 693 293 670T222 609T196 526Q196 485 219 462T290 426L390 401Q410 396 435 409T485 449T526 508T543 576Q543
629 504 661T396 693V693ZM298 49Q365 49 414 69T491 124T519 207Q519 249 496 277T423 318L285 355Q273 359 247 346T192 307T143 245T123 168Q123 114 169 82T298 49V49Z" />
<glyph unicode="9" horiz-adv-x="651" d="M251 -10Q215 -10 186 -2T135 19T96 48T70 82Q65 90 72 93L115 112Q124 117 131 105Q150 78 178 65T254 51Q330 51 384 89T471 192T515 339Q517 353 514 355T503 355Q461 335 414 319T305 302Q236 302 189 326T117 392T93
488Q93 545 115 593T177 677T267 732T374 752Q447 752 498 720T576 625T603 474Q603 381 580 294T513 139T403 30T251 -10V-10ZM312 361Q343 361 377 368T444 388T501 416Q523 429 529 448T535 499Q535 532 526 566T497 629T447 675T372 693Q317 693 271 666T196
594T167 495Q167 438 205 400T312 361V361Z" />
<glyph unicode=":" horiz-adv-x="198" d="M163 418Q162 411 159 409T147 406H90Q82 406 79 410T77 420L88 495Q89 501 91 502T97 504H165Q170 504 172 501T174 492L163 418ZM107 15Q106 8 103 6T90 3H33Q25 3 23 7T21 17L31 92Q32 98 34 99T40 101H108Q113 101
115 98T117 89L107 15Z" />
<glyph unicode=";" horiz-adv-x="221" d="M-4 -140Q-8 -140 -10 -136T-11 -126L51 -12Q54 -5 54 -3T46 0H35Q29 0 26 3T24 12L35 92Q36 96 37 97T43 98H113Q117 98 119 95T121 88L111 17Q110 9 108 4L22 -133Q19 -137 15 -138T5 -140H-4V-140ZM89 405Q82 405 79
409T77 419L88 494Q89 500 91 502T96 504H165Q170 504 172 501T173 492L163 417Q161 409 159 407T146 405H89V405Z" />
<glyph unicode="&lt;" horiz-adv-x="535" d="M455 180Q454 170 449 168T436 169L76 319Q71 321 68 325T66 334L73 382Q73 388 76 390T84 394L486 546Q496 550 501 546T505 532L500 495Q499 489 495 486T481 478L154 356L443 234Q452 230 456 225T460 213L455 180Z" />
<glyph unicode="=" horiz-adv-x="551" d="M513 455Q512 449 509 447T499 445L102 444Q97 444 94 447T92 456L97 491Q98 496 99 497T104 499L509 500Q512 500 515 497T517 490L513 455ZM481 231Q480 225 478 224T468 222L72 221Q66 221 63 224T61 233L65 268Q67
273 68 274T73 276H477Q481 276 484 273T486 266L481 231Z" />
<glyph unicode="&gt;" horiz-adv-x="535" d="M61 217Q63 224 67 227T81 235L407 356L117 479Q99 487 100 499L106 536Q108 552 126 545L485 394Q490 392 493 389T495 378L488 331Q488 325 485 323T477 318L76 168Q68 165 62 169T57 184L61 217V217Z" />
<glyph unicode="?" horiz-adv-x="519" d="M253 12Q251 4 249 2T237 0H179Q173 0 170 4T167 14L178 89Q179 95 180 96T186 98H255Q259 98 261 95T264 86L253 12ZM88 611Q84 613 83 617T83 626Q124 685 189 718T330 752Q397 752 443 729T512 665T526 568Q520 517
493 478T431 407T360 341T298 269T263 176Q261 169 254 169H214Q209 169 206 173T204 185Q211 242 237 284T298 360T366 427T425 494T456 573Q464 630 429 663T328 696Q292 696 255 683T187 647T142 596Q141 594 139 594T132 595L88 611Z" />
<glyph unicode="@" horiz-adv-x="834" d="M612 -48Q562 -78 505 -95T386 -113Q294 -113 226 -84T115 -2T56 118T50 265Q61 345 100 416T199 543T336 629T502 661Q566 661 626 642T733 584T800 483T810 336Q800 261 767 204T687 114T585 81Q559 81 541 87T514 106T503
139Q502 145 499 143T492 134Q465 105 429 86T343 67Q306 67 277 89T234 151T227 247Q236 310 267 362T346 444T448 475Q490 475 516 456T556 405Q559 404 562 406T566 413L579 445Q580 448 581 448T586 449H624Q627 449 629 447T631 441L562 216Q547 169 555 152T589
134Q625 134 659 159T717 230T751 337Q762 410 744 462T687 546T601 594T500 609Q419 609 352 581T233 504T150 392T108 256Q99 191 112 134T161 33T256 -36T400 -61Q444 -61 475 -53T532 -31T585 -1Q592 3 597 1T604 -5L618 -27Q623 -34 620 -39T612 -48V-48ZM290
243Q282 187 299 155T354 122Q390 122 423 142T482 197T519 272Q533 323 526 355T497 404T449 420Q409 420 376 396T320 332T290 243V243Z" />
<glyph unicode="A" horiz-adv-x="716" d="M19 0Q14 0 12 4T13 15L376 731Q379 738 383 740T395 742H455Q464 742 468 738T473 728L632 12Q633 7 631 4T623 0H571Q558 0 558 11L511 216Q510 223 502 223H199Q190 223 186 214L80 7Q79 2 76 1T67 0H19V0ZM489 284Q500
284 497 296L417 650Q415 660 412 659T403 648L222 296Q219 289 219 287T225 284H489Z" />
<glyph unicode="B" horiz-adv-x="693" d="M77 0Q72 0 70 3T68 12L170 730Q171 742 183 742H401Q520 742 584 700T649 577Q649 502 608 453T494 381Q488 380 488 377T493 372Q551 360 584 324T617 226Q617 162 592 119T524 49T426 12T312 0H77V0ZM305 58Q347 58
388 65T464 90T519 140T540 225Q540 269 517 295T454 334T361 346H204Q197 346 194 343T189 334L152 68Q151 62 153 60T160 58H305ZM366 404Q423 404 470 422T544 477T572 568Q572 628 525 656T394 684H250Q244 684 241 682T236 673L201 415Q200 409 202 407T208
404H366Z" />
<glyph unicode="C" horiz-adv-x="702" d="M444 752Q510 752 563 724T649 649T680 547Q681 537 672 537L616 533Q608 533 607 546Q601 611 556 651T441 692Q378 692 331 667T250 598T196 501T166 389T156 275Q156 165 204 109T351 52Q426 52 481 88T576 201Q579
207 588 204L635 190Q642 187 638 176Q623 146 602 118T554 67T494 27T424 0T345 -10Q260 -10 200 25T110 125T79 283Q79 348 92 415T132 542T203 650T306 725T444 752V752Z" />
<glyph unicode="D" horiz-adv-x="714" d="M81 0Q75 0 71 4T69 15L170 733Q171 738 174 740T183 742H318Q438 742 515 710T629 616T666 459Q666 313 617 211T467 54T215 0H81V0ZM217 59Q350 59 431 105T549 242T587 461Q587 544 557 592T466 661T311 682H248Q237
682 236 670L153 73Q152 65 154 62T164 59H217Z" />
<glyph unicode="E" horiz-adv-x="622" d="M170 732Q171 739 172 740T180 742H618Q627 742 624 731L619 692Q618 687 616 685T606 682H248Q242 682 240 680T236 672L200 412Q199 408 200 406T207 404H482Q487 404 488 402T488 395L482 353Q481 345 472 345H200Q190
345 189 334L152 69Q151 60 158 60H533Q539 60 541 58T542 50L537 8Q536 3 535 2T527 0H80Q67 0 68 14L170 732V732Z" />
<glyph unicode="F" horiz-adv-x="594" d="M170 731Q171 739 173 740T181 742H607Q617 742 615 732L609 692Q608 687 606 685T598 682H248Q243 682 240 680T236 670L199 402Q198 397 199 395T206 392H488Q492 392 494 391T496 384L491 343Q491 338 489 336T480
333H198Q193 333 191 331T187 321L144 9Q142 3 140 2T131 0H77Q70 0 69 3T68 14L170 731V731Z" />
<glyph unicode="G" horiz-adv-x="735" d="M338 -10Q256 -10 198 24T109 124T79 281Q79 374 102 459T172 610T286 714T442 752Q509 752 563 724T650 651T681 551Q681 542 676 541L616 531Q612 530 611 533T608 545Q607 586 586 619T527 672T440 692Q367 692 314
657T226 562T174 429T157 275Q157 164 204 108T344 51Q398 51 440 69T512 118T561 183T586 250L596 317Q598 326 586 326H413Q404 326 405 334L410 371Q411 377 416 377H663Q668 377 670 375T672 367L621 11Q620 0 608 0H588Q575 0 575 11L583 110Q583 115 580
115T572 109Q551 77 517 50T438 6T338 -10V-10Z" />
<glyph unicode="H" horiz-adv-x="731" d="M200 355Q197 355 195 352T191 346L144 10Q142 4 140 2T130 0H79Q72 0 70 3T68 13L170 732Q171 739 173 740T180 742H236Q241 742 243 740T244 730L202 426Q201 419 202 418T210 416H563Q569 416 571 419T574 428L618
733Q619 739 620 740T627 742H683Q689 742 691 739T692 728L591 11Q590 4 588 2T580 0H529Q522 0 519 3T516 13L563 348Q564 355 556 355H200Z" />
<glyph unicode="I" horiz-adv-x="283" d="M235 742Q247 742 244 728L144 13Q142 4 140 2T128 0H81Q72 0 70 3T68 14L170 732Q171 739 173 740T180 742H235Z" />
<glyph unicode="J" horiz-adv-x="410" d="M295 153Q288 101 268 64T213 9T126 -10Q84 -10 56 0T19 13Q12 16 10 19T9 26L26 72Q27 76 30 77T40 74Q52 70 71 64T119 57Q168 57 190 84T222 174L301 733Q302 739 304 740T310 742H367Q377 742 375 728L295 153V153Z" />
<glyph unicode="K" horiz-adv-x="690" d="M604 13Q611 0 601 0H536Q527 0 524 9L341 393Q339 398 336 396T328 389L187 252Q182 248 179 244T175 233L144 10Q143 5 140 3T130 0H80Q73 0 70 3T68 13L170 733Q171 739 173 740T179 742H235Q240 742 243 739T245 730L191
345Q189 339 191 340T198 347L602 735Q606 740 610 741T622 742H681Q688 742 688 739T685 731L402 459Q400 457 398 455T397 449L604 13V13Z" />
<glyph unicode="L" horiz-adv-x="596" d="M170 731Q171 742 182 742H237Q246 742 244 728L152 70Q150 60 159 60H512Q523 60 522 49L516 8Q515 3 514 2T507 0H80Q66 0 68 14L170 731V731Z" />
<glyph unicode="M" horiz-adv-x="895" d="M76 0Q70 0 69 2T69 15L170 732Q171 739 172 740T180 742H250Q256 742 258 740T261 733L418 118Q419 109 423 110T432 121L761 733Q766 742 775 742H847Q857 742 856 730L755 11Q754 4 752 2T743 0H693Q686 0 683 3T680
13L762 597Q763 602 762 602T759 599L444 10Q440 4 437 2T426 0H382Q375 0 373 2T368 13L222 595Q221 599 220 599T217 595L134 9Q133 4 131 2T123 0H76V0Z" />
<glyph unicode="N" horiz-adv-x="756" d="M708 742Q718 742 717 730L616 9Q615 0 605 0H570Q564 0 560 1T551 9L230 598Q226 606 222 605T217 595L135 10Q134 4 132 2T123 0H78Q72 0 70 3T68 13L170 732Q171 739 173 740T181 742H222Q229 742 232 740T239 732L554
150Q559 142 564 143T570 154L651 733Q653 739 654 740T661 742H708Z" />
<glyph unicode="O" horiz-adv-x="762" d="M345 -10Q260 -10 201 23T110 121T79 278Q79 300 80 323T86 371Q103 494 152 579T276 708T447 752Q531 752 590 718T680 619T712 458Q712 437 711 414T705 366Q688 244 640 161T516 34T345 -10V-10ZM349 51Q465 51 535
130T628 372Q632 399 633 424T635 471Q635 583 587 637T445 692Q330 692 259 611T163 365Q159 340 158 316T156 271Q156 159 205 105T349 51V51Z" />
<glyph unicode="P" horiz-adv-x="683" d="M197 317Q192 317 189 314T185 306L144 10Q142 4 140 2T132 0H78Q66 0 68 13L170 730Q171 737 172 739T180 742H420Q492 742 547 724T634 666T666 563Q666 482 629 428T525 345T373 317H197ZM588 565Q588 631 541 657T411
683H249Q244 683 241 680T236 671L197 389Q196 382 197 380T204 377H372Q438 377 486 398T561 462T588 565V565Z" />
<glyph unicode="Q" horiz-adv-x="762" d="M86 372Q103 496 152 580T276 708T446 752Q531 752 590 719T680 620T712 459Q712 438 711 414T705 366Q687 239 639 159T515 33Q506 27 507 20Q508 8 524 -10T567 -42T627 -62Q633 -63 634 -65T635 -72L629 -114Q628 -120
623 -121T605 -123Q583 -123 554 -112T494 -75T440 -4Q436 2 425 -1Q406 -5 385 -7T345 -10Q262 -10 202 22T111 120T79 280Q79 301 80 324T86 372V372ZM163 364Q159 337 158 313T156 268Q156 157 205 104T348 51Q463 51 534 129T628 372Q632 399 633 423T635 469Q635
580 588 636T444 692Q328 692 257 610T163 364V364Z" />
<glyph unicode="R" horiz-adv-x="689" d="M581 15Q586 0 570 0H515Q510 0 507 3T502 13L412 336Q411 341 408 343T395 345H202Q190 345 189 333L144 12Q142 4 140 2T129 0H80Q73 0 70 4T68 13L170 732Q171 739 172 740T180 742H450Q554 742 611 702T668 583Q668
527 646 482T585 405T493 359Q487 357 485 355T484 350L581 15V15ZM372 403Q438 403 486 420T561 476T588 576Q588 631 552 657T442 684H250Q239 684 237 674L200 412Q199 407 200 405T206 403H372V403Z" />
<glyph unicode="S" horiz-adv-x="631" d="M550 616Q526 648 485 670T384 692Q329 692 285 673T216 618T191 535Q191 518 199 499T228 462T288 429L423 379Q498 352 531 313T564 218Q564 144 527 93T425 16T280 -10Q191 -10 131 22T36 118Q34 124 34 129T43 138L70
155Q77 161 82 160T93 151Q116 118 140 95T198 61T285 49Q345 49 390 65T462 116T489 205Q489 237 467 262T385 312L241 367Q173 393 146 435T118 524Q118 577 139 618T197 690T283 736T388 752Q438 752 478 740T549 705T604 652Q609 646 609 643T605 636L565 607Q562
606 559 607T550 616V616Z" />
<glyph unicode="T" horiz-adv-x="636" d="M110 734Q111 739 112 740T119 742H651Q657 742 658 740T658 733L652 691Q651 687 649 685T640 682H435Q428 682 426 680T422 671L329 11Q328 4 326 2T318 0H263Q256 0 254 3T253 13L346 670Q347 682 335 682H113Q103
682 104 692L110 734Z" />
<glyph unicode="U" horiz-adv-x="706" d="M608 238Q596 153 560 98T463 16T317 -10Q200 -10 144 40T88 191Q88 206 89 223T93 258L160 731Q161 738 163 740T170 742H224Q230 742 233 739T234 728L165 234Q164 222 163 212T162 191Q162 119 202 85T324 51Q388 51
434 71T508 134T545 241L614 733Q615 739 617 740T623 742H668Q674 742 676 739T677 729L608 238V238Z" />
<glyph unicode="V" horiz-adv-x="700" d="M713 742Q724 742 719 730L359 12Q355 4 352 2T339 0H286Q277 0 273 2T266 12L114 731Q113 742 124 742H175Q187 742 188 730L321 99Q324 81 333 97L650 734Q652 739 655 740T663 742H713V742Z" />
<glyph unicode="W" horiz-adv-x="1035" d="M1043 742Q1051 742 1052 738T1052 726L744 12Q741 4 738 2T725 0H675Q667 0 662 3T656 13L571 610Q570 614 569 614T565 610L308 12Q305 4 302 2T288 0H238Q221 0 219 13L117 729Q115 736 118 739T128 742H176Q184 742
186 739T190 730L277 117Q279 108 281 108T288 117L551 734Q553 739 556 740T567 742H611Q619 742 621 739T625 730L712 114Q714 106 716 106T723 117L986 734Q988 739 991 740T1001 742H1043V742Z" />
<glyph unicode="X" horiz-adv-x="677" d="M589 15Q594 6 593 3T584 0H525Q521 0 518 1T513 7L353 309Q349 317 345 317T336 311L88 5Q86 2 83 1T75 0H17Q10 0 10 4T16 18L301 369Q306 375 307 380T306 393L125 732Q124 736 124 739T130 742H193Q199 742 201 741T206
734L354 450Q361 439 369 450L601 737Q604 740 606 741T614 742H676Q682 742 682 738T679 730L402 389Q397 384 397 381T399 374L589 15V15Z" />
<glyph unicode="Y" horiz-adv-x="660" d="M675 742Q681 742 682 738T680 728L385 327Q381 322 379 317T376 299L335 14Q334 5 330 3T316 0H270Q262 0 261 4T260 14L299 296Q301 305 301 309T298 319L112 729Q110 735 111 738T121 742H173Q182 742 185 739T191
729L339 394Q348 375 361 394L605 733Q610 739 613 740T625 742H675V742Z" />
<glyph unicode="Z" horiz-adv-x="619" d="M26 0Q20 0 17 2T15 11L17 32Q19 38 21 42T28 54L518 675Q521 679 521 680T515 682H133Q122 682 125 693L130 735Q131 740 132 741T137 742H625Q634 742 632 733L629 709Q628 704 627 701T621 693L126 68Q119 60 127 60H528Q532
60 534 59T536 53L530 8Q529 4 528 2T520 0H26V0Z" />
<glyph unicode="[" horiz-adv-x="279" d="M51 -165Q45 -165 42 -162T39 -152L162 735Q163 740 165 741T173 742H321Q326 742 328 740T330 734L325 699Q324 695 323 695T318 694H231Q225 694 222 690T218 681L105 -110Q105 -115 105 -116T112 -117H199Q204 -117
206 -120T209 -128L204 -157Q203 -162 202 -163T195 -165H51V-165Z" />
<glyph unicode="\" horiz-adv-x="336" d="M233 -50Q221 -50 221 -38L80 730Q79 737 80 739T87 742H125Q129 742 132 739T135 732L278 -45Q278 -48 277 -49T271 -50H233V-50Z" />
<glyph unicode="]" horiz-adv-x="279" d="M-35 -165Q-40 -165 -42 -163T-44 -157L-39 -122Q-38 -118 -37 -118T-32 -117H55Q61 -117 64 -113T68 -104L181 687Q181 693 181 693T174 694H87Q83 694 80 697T78 705L82 734Q83 740 84 741T91 742H235Q242 742 245 739T247
729L124 -158Q123 -163 122 -164T113 -165H-35V-165Z" />
<glyph unicode="^" horiz-adv-x="476" d="M268 440Q267 446 263 445T257 437L96 142Q94 137 92 137T84 136H44Q40 136 38 140T38 150L233 506Q246 529 260 536T287 536T306 503L403 144Q404 138 403 136T396 134H358Q353 134 349 137T344 144L268 440Z" />
<glyph unicode="_" horiz-adv-x="511" d="M395 -101Q394 -107 391 -109T381 -111H24Q18 -111 16 -108T14 -100L19 -63Q20 -58 21 -57T26 -55L390 -54Q394 -54 397 -57T399 -64L395 -101Z" />
<glyph unicode="`" horiz-adv-x="280" d="M92 746Q93 749 96 749T101 749L318 656Q322 654 323 651T323 643L312 622Q311 618 309 618T299 618L82 690Q74 692 73 696T73 705L92 746V746Z" />
<glyph unicode="a" horiz-adv-x="544" d="M368 65Q325 27 277 9T175 -10Q104 -10 64 24T23 115Q23 167 48 203T113 262T204 297T305 312L395 319Q414 321 416 336L420 365Q421 370 421 376T422 387Q422 435 391 462T305 489Q258 489 217 468T138 402Q135 399 133
399T126 400L87 417Q84 419 83 422T85 433Q122 481 179 510T310 540Q368 540 407 523T466 473T486 396Q486 389 486 382T484 366L434 11Q433 3 431 2T422 0H385Q380 0 377 3T374 14L380 67Q379 79 368 65V65ZM405 261Q406 269 404 272T394 274L316 268Q285 265
246 258T172 236T114 194T91 124Q91 85 119 64T197 42Q233 42 266 55T328 87Q356 108 373 130T393 173L405 261Z" />
<glyph unicode="b" horiz-adv-x="596" d="M61 0Q53 0 50 4T48 17L149 732Q150 738 152 740T159 742H206Q212 742 213 738T214 728L179 481Q178 471 181 471T191 478Q200 485 222 500T281 527T364 540Q428 540 468 513T528 438T548 329Q548 271 532 211T484 101T400
21T279 -10Q231 -10 200 5T151 39T126 70Q123 75 119 73T113 63L102 13Q101 5 98 3T85 0H61ZM136 176Q131 139 149 108T199 59T269 41Q322 41 361 67T427 135T466 227T479 328Q479 403 446 445T344 488Q293 488 248 465T170 408L136 176Z" />
<glyph unicode="c" horiz-adv-x="540" d="M332 540Q382 540 418 524T479 482T519 419Q522 414 521 412T516 407L474 395Q471 394 469 396T463 405Q443 434 424 452T384 479T335 488Q282 488 241 464T172 400T129 311T114 213Q114 134 155 88T268 42Q319 42 360
66T439 140Q444 146 450 142L483 126Q485 125 487 121T486 112Q467 85 443 62T391 23T330 -1T260 -10Q195 -10 147 18T73 96T47 215Q47 274 66 332T122 437T212 512T332 540V540Z" />
<glyph unicode="d" horiz-adv-x="596" d="M426 0Q420 0 417 3T414 13L421 59Q423 67 420 67T409 61Q398 51 376 34T320 4T241 -10Q157 -10 102 43T47 201Q47 261 65 320T118 430T205 510T325 540Q378 540 409 522T461 484Q469 477 473 479T479 495L513 732Q514
738 516 740T524 742H570Q579 742 579 729L477 13Q476 5 474 3T462 0H426ZM470 420Q442 453 410 470T336 488Q281 488 240 463T171 396T129 304T114 204Q114 148 134 112T187 59T261 41Q305 41 343 62T406 114T434 173L470 420Z" />
<glyph unicode="e" horiz-adv-x="579" d="M264 -10Q198 -10 149 18T73 96T46 213Q46 275 65 333T122 438T213 512T335 540Q399 540 444 515T514 442T539 326Q539 312 538 298T535 267Q534 260 529 255T516 250H125Q118 250 115 242T112 205Q112 130 156 87T270
43Q326 43 369 65T447 132Q451 136 454 136T461 133L492 114Q501 110 495 100Q465 62 430 38T353 2T264 -10V-10ZM455 296Q465 296 471 304T477 343Q477 408 438 448T333 489Q274 489 230 461T158 388T124 296H455Z" />
<glyph unicode="f" horiz-adv-x="373" d="M377 530Q381 530 383 528T384 521L379 486Q378 479 371 479H248Q241 479 239 469L174 11Q173 4 172 2T164 0H118Q114 0 111 4T109 13L173 472Q175 479 168 479H63Q59 479 58 482T56 489L61 523Q62 527 63 528T69 530H172Q176
530 179 533T183 541L194 617Q203 680 235 711T330 742H409Q413 742 416 740T418 731L414 699Q413 692 404 692H331Q297 692 280 672T259 616L247 537Q246 530 254 530H377V530Z" />
<glyph unicode="g" horiz-adv-x="594" d="M214 -175Q102 -175 44 -140T-15 -46Q-15 -3 14 30T90 85Q97 89 99 92T95 98Q78 108 70 119T62 147Q62 167 75 182T107 208T144 225Q151 227 153 231T149 238Q116 257 100 283T83 346Q83 393 101 428T152 488T225 525T313
538Q376 538 411 524T465 491Q470 487 475 488T486 495Q499 505 514 514T547 529T581 535Q593 535 597 532T601 520L597 495Q596 486 593 483T580 478Q561 477 548 474T523 466Q493 453 497 442Q501 433 504 421T508 390Q508 343 489 309T436 252T362 220T276 209Q267
209 243 208T193 202T147 187T128 160Q128 145 149 139T220 129L344 122Q420 118 456 87T492 -1Q492 -41 477 -70T434 -119T372 -151T296 -169T214 -175V-175ZM215 -129Q253 -129 290 -124T359 -105T408 -67T427 -7Q427 27 407 43T334 63L167 73Q134 66 107 51T64
14T48 -37Q48 -87 93 -108T215 -129V-129ZM279 256Q323 256 361 270T422 315T446 396Q446 442 413 466T315 491Q271 491 232 475T169 428T145 348Q145 303 180 280T279 256V256Z" />
<glyph unicode="h" horiz-adv-x="581" d="M59 0Q54 0 51 4T48 13L149 733Q150 739 152 740T159 742H203Q214 742 212 731L175 469Q173 457 181 462Q222 489 254 506T315 531T379 540Q452 540 488 506T524 416Q524 409 524 403T522 388L469 11Q468 5 466 3T456
0H414Q400 0 403 13L454 375Q455 382 455 388T456 401Q456 442 434 463T361 485Q328 485 299 476T239 447T169 398L113 10Q112 4 110 2T101 0H59Z" />
<glyph unicode="i" horiz-adv-x="232" d="M113 13Q112 4 110 2T98 0H61Q53 0 50 3T47 14L119 520Q120 527 122 528T129 530H175Q181 530 183 527T185 517L113 13ZM207 649Q206 641 203 637T191 633H143Q136 633 134 638T133 650L144 728Q146 742 158 742H207Q212
742 215 738T218 726L207 649Z" />
<glyph unicode="j" horiz-adv-x="232" d="M106 -40Q97 -107 67 -138T-38 -170Q-83 -170 -94 -167T-105 -157L-100 -122Q-99 -119 -98 -117T-92 -115L-37 -113Q-2 -111 16 -93T41 -31L119 520Q120 526 122 528T130 530H175Q181 530 183 526T185 517L106 -40V-40ZM207
649Q206 641 203 637T191 633H143Q136 633 134 638T133 650L144 728Q146 742 158 742H207Q212 742 215 738T218 726L207 649Z" />
<glyph unicode="k" horiz-adv-x="553" d="M485 13Q488 7 488 4T479 0H426Q420 0 417 3T411 12L286 284Q283 290 275 283L143 166Q139 162 137 158T132 147L113 13Q112 4 110 2T98 0H61Q53 0 50 3T48 14L149 732Q150 739 152 740T159 742H205Q211 742 213 739T214
728L147 250Q146 242 147 242T156 249L456 520Q463 527 467 528T476 530H525Q535 530 537 525T530 511L344 345Q340 342 338 339T338 330L485 13V13Z" />
<glyph unicode="l" horiz-adv-x="232" d="M113 13Q112 4 110 2T98 0H61Q53 0 50 3T47 14L149 732Q151 739 152 740T160 742H205Q217 742 214 729L113 13Z" />
<glyph unicode="m" horiz-adv-x="902" d="M59 0Q54 0 50 4T47 13L119 521Q120 527 122 528T128 530H173Q179 530 181 528T182 519L174 466Q173 456 180 461Q218 487 248 504T308 531T371 540Q433 540 464 513T501 451Q502 447 506 450T517 459Q555 485 586 503T647
530T710 540Q777 540 811 506T845 416Q845 409 845 402T843 388L790 11Q789 5 787 3T778 0H736Q722 0 724 13L775 373Q777 381 777 389T777 403Q777 442 757 463T690 485Q657 485 627 473T571 444T526 411Q516 404 511 398T504 381L452 11Q450 5 448 3T439 0H397Q392
0 389 4T386 13L437 375Q444 428 425 456T352 485Q321 485 294 476T237 447T169 398L113 10Q112 4 110 2T100 0H59V0Z" />
<glyph unicode="n" horiz-adv-x="581" d="M58 0Q52 0 49 4T47 13L119 521Q120 527 121 528T128 530H174Q179 530 181 528T182 520L173 461Q172 450 181 457Q231 497 279 518T379 540Q451 540 487 506T524 415Q524 409 524 403T522 389L469 11Q468 5 466 3T456
0H413Q407 0 405 4T403 13L454 374Q455 381 455 388T456 401Q456 442 433 463T360 485Q328 485 299 476T239 447T169 398L113 10Q112 4 110 2T100 0H58V0Z" />
<glyph unicode="o" horiz-adv-x="598" d="M263 -10Q196 -10 147 18T73 96T47 214Q47 285 69 344T131 448T224 516T336 540Q403 540 451 511T525 431T551 311Q551 218 513 146T409 32T263 -10V-10ZM267 43Q329 43 378 77T455 174T484 319Q484 398 445 443T334 488Q273
488 223 453T144 356T114 211Q114 133 154 88T267 43V43Z" />
<glyph unicode="p" horiz-adv-x="594" d="M33 -165Q28 -165 26 -161T24 -152L119 518Q120 526 122 528T133 530H170Q177 530 180 527T183 517L175 471Q174 465 177 465T188 470Q199 480 220 496T274 526T355 540Q439 540 493 488T547 331Q547 271 530 211T479
101T393 21T272 -10Q222 -10 188 6T135 43Q127 50 123 46T116 32L90 -155Q89 -161 88 -163T80 -165H33V-165ZM260 41Q314 41 355 66T423 134T465 226T479 327Q479 383 460 419T408 472T335 489Q290 489 252 469T190 420T163 362L126 110Q154 78 186 60T260 41V41Z"
/>
<glyph unicode="q" horiz-adv-x="597" d="M398 -165Q388 -165 389 -151L416 33Q418 44 416 45T404 39Q374 19 333 5T246 -10Q151 -10 100 49T48 209Q48 266 64 324T112 431T196 510T318 540Q371 540 402 527T449 496T473 468Q477 464 480 465T487 475L499 517Q502
526 505 528T517 530H539Q546 530 548 527T549 513L455 -155Q454 -161 451 -163T443 -165H398V-165ZM263 41Q306 41 349 60T425 113L461 353Q466 389 451 420T404 471T329 490Q277 490 237 465T171 399T130 310T116 212Q116 130 156 86T263 41V41Z" />
<glyph unicode="r" horiz-adv-x="372" d="M59 0Q53 0 50 4T47 13L119 521Q120 527 121 528T128 530H172Q177 530 179 528T181 518L172 457Q171 451 174 451T181 454Q212 486 240 504T295 531T347 540Q367 540 376 537T384 528L377 483Q377 478 376 477T372 476Q364
476 355 477T333 478Q310 478 282 467T227 438T183 398T161 352L113 10Q112 4 110 2T100 0H59V0Z" />
<glyph unicode="s" horiz-adv-x="507" d="M213 -10Q135 -10 80 22T7 104Q3 113 10 117L42 134Q47 136 50 135T56 129Q75 89 114 65T214 41Q235 41 263 46T317 64T360 95T377 145Q377 171 355 192T283 227L184 256Q119 275 94 304T68 370Q68 425 99 462T180 520T287
540Q352 540 400 515T470 444Q473 441 472 438T467 432L436 416Q432 414 429 415T422 421Q405 453 370 471T284 489Q252 489 217 479T157 446T132 387Q132 367 148 350T209 317L334 278Q388 262 414 230T441 157Q441 115 421 84T367 32T293 0T213 -10V-10Z" />
<glyph unicode="t" horiz-adv-x="375" d="M208 0Q155 0 130 21T105 87Q105 96 106 105T108 123L156 471Q157 476 156 477T149 479H63Q55 479 56 489L61 524Q62 528 63 529T69 530H157Q161 530 164 533T167 540L200 700Q201 710 212 710H247Q253 710 254 707T255
695L233 537Q232 533 233 532T239 530H369Q374 530 376 528T378 522L373 486Q372 481 371 480T364 479H233Q224 479 222 469L175 133Q174 124 173 117T172 102Q172 71 186 62T226 52H299Q303 52 306 49T308 41L304 13Q303 6 296 3Q286 2 269 2T235 1T208 0V0Z"
/>
<glyph unicode="u" horiz-adv-x="576" d="M201 -10Q137 -10 97 25T57 119Q57 125 57 131T58 142L111 519Q112 525 115 527T123 530H166Q172 530 175 527T177 516L127 161Q126 154 126 148T125 137Q125 89 149 67T219 45Q266 45 312 71T409 141L463 520Q464 526
466 528T475 530H517Q524 530 527 527T529 516L457 9Q456 4 455 2T447 0H404Q399 0 396 2T394 10L403 68Q404 74 402 75T394 72Q329 23 285 7T201 -10V-10Z" />
<glyph unicode="v" horiz-adv-x="540" d="M536 530Q543 530 546 526T546 516L270 12Q266 4 262 2T249 0H222Q213 0 207 4T200 14L66 519Q65 530 76 530H122Q127 530 131 527T135 518L244 101Q249 82 260 105L486 523Q491 530 500 530H536V530Z" />
<glyph unicode="w" horiz-adv-x="791" d="M783 530Q789 530 792 526T794 516L571 10Q568 4 565 2T553 0H513Q495 0 495 14L423 413Q421 421 418 420T412 410L235 10Q232 4 229 2T218 0H175Q157 0 157 14L70 519Q68 530 79 530H123Q129 530 133 527T137 518L207
103Q209 93 212 95T220 107L407 523Q410 530 418 530H455Q461 530 464 527T468 518L543 103Q545 93 548 95T556 107L738 523Q743 530 753 530H783V530Z" />
<glyph unicode="x" horiz-adv-x="532" d="M460 15Q467 6 466 3T458 0H403Q397 0 393 3T387 9L265 215Q261 221 258 220T248 212L61 6Q59 2 54 1T43 0H3Q-5 0 -7 5T0 22L220 259Q226 265 227 269T226 279L81 518Q79 523 80 526T88 530H139Q146 530 149 528T154
521L273 325Q275 320 279 321T288 328L458 524Q461 529 464 529T475 530H518Q525 530 526 526T523 517L316 285Q311 280 310 275T311 265L460 15V15Z" />
<glyph unicode="y" horiz-adv-x="521" d="M44 -165Q16 -165 0 -164T-15 -153L-11 -124Q-10 -117 -3 -115T22 -112H81Q103 -112 124 -96T161 -57T185 -9T187 34L63 514Q60 530 74 530H124Q134 530 135 522L238 111Q241 101 245 101T256 113L470 519Q473 525 476
527T484 530H522Q534 530 526 519L221 -58Q204 -89 185 -109T145 -142T98 -160T44 -165V-165Z" />
<glyph unicode="z" horiz-adv-x="472" d="M6 0Q0 0 -2 2T-2 11L1 35Q2 41 5 46T16 60L377 470Q381 475 381 478T374 481H93Q88 481 87 483T86 492L91 522Q92 527 95 528T102 530H461Q467 530 467 523L462 494Q461 488 458 482T449 470L88 60Q84 55 85 52T90 49H398Q407
49 405 41L401 10Q400 5 398 3T390 0H6V0Z" />
<glyph unicode="{" horiz-adv-x="290" d="M179 -165Q148 -165 127 -158T91 -137T72 -105T70 -64L102 165Q105 189 97 212T67 250T9 266Q6 266 4 268T2 276L6 307Q7 311 7 312T9 313Q66 314 98 345T138 422L170 646Q175 676 191 697T236 730T301 742H332Q336 742
338 740T340 734L336 699Q335 695 334 695T328 694H305Q280 694 265 687T242 669T231 639L200 413Q194 374 177 348T137 309T88 292Q81 292 79 290T81 286Q107 284 128 271T159 232T164 164L132 -64Q128 -92 140 -104T189 -117H210Q215 -117 217 -120T220 -128L216
-157Q215 -162 214 -163T206 -165H179V-165Z" />
<glyph unicode="|" horiz-adv-x="263" d="M57 -165Q51 -165 48 -162T46 -154L185 839Q186 844 187 845T194 847H230Q236 847 238 843T239 834L100 -157Q99 -162 98 -163T92 -165H57Z" />
<glyph unicode="}" horiz-adv-x="290" d="M-35 -165Q-40 -165 -42 -163T-44 -157L-39 -122Q-38 -118 -37 -118T-32 -117H-8Q16 -117 31 -110T55 -91T66 -62L97 164Q103 204 120 229T160 268T208 285Q215 285 218 287T215 291Q190 293 169 306T138 345T132 413L164
641Q168 670 157 682T108 694H86Q82 694 80 697T77 705L81 734Q82 740 83 741T90 742H118Q148 742 170 735T206 714T225 682T226 641L194 412Q191 388 199 365T229 327T287 311Q290 311 292 309T294 301L290 270Q289 266 289 265T286 264Q229 263 197 232T158 155L127
-69Q123 -99 106 -120T61 -153T-5 -165H-35V-165Z" />
<glyph unicode="~" horiz-adv-x="557" d="M507 369Q491 353 461 339T388 325Q357 325 335 332T293 350T253 367T207 374Q169 374 143 360T98 327Q94 324 91 326T87 334L78 361Q76 365 76 368T80 374Q106 394 135 409T206 424Q234 424 256 417T300 400T342 383T389
375Q426 375 449 388T486 418Q492 422 495 420T500 411L509 385Q512 379 507 369V369Z" />
<glyph unicode="&#xa0;" horiz-adv-x="217" />
<glyph unicode="&#xa1;" horiz-adv-x="239" d="M187 440Q186 435 185 434T179 432H111Q107 432 104 435T102 445L113 519Q114 526 116 528T125 530H182Q192 530 195 526T198 514L187 440V440ZM101 -158Q101 -162 100 -163T94 -165H29Q25 -165 23 -162T21 -154L109
355Q110 360 111 361T119 363H142Q149 363 153 360T155 350L101 -158V-158Z" />
<glyph unicode="&#xa2;" horiz-adv-x="558" d="M280 14Q279 5 276 3T264 0H240Q231 0 228 4T226 16L241 123Q241 129 244 131T253 133H284Q291 133 293 130T295 120L280 14V14ZM366 623Q365 614 362 612T349 609H325Q317 609 314 613T311 625L326 732Q328 738
330 740T339 742H370Q376 742 378 739T381 729L366 623V623ZM310 651Q360 651 396 635T457 593T497 530Q500 525 499 523T494 518L452 506Q449 505 447 507T441 516Q421 545 402 563T362 590T313 599Q260 599 219 575T150 511T107 422T92 324Q92 245 133 199T246
153Q297 153 338 177T417 251Q422 257 428 253L461 237Q463 236 465 232T464 223Q445 196 421 173T369 134T308 110T238 101Q173 101 125 129T51 207T25 326Q25 385 44 443T100 548T190 623T310 651V651Z" />
<glyph unicode="&#xa3;" horiz-adv-x="608" d="M-14 0Q-19 0 -22 3T-24 12L-18 53Q-17 57 -16 58T-10 59H22Q61 58 95 98T142 221Q145 244 146 277T149 353Q148 355 147 355T144 356H53Q50 356 48 358T46 365L51 399Q51 402 52 403T56 404H136Q140 404 143 407T147
413L140 487Q135 549 152 597T203 680T281 733T373 752Q417 752 455 738T518 699T551 645Q553 642 552 642T546 639L503 623Q498 622 495 623T490 630Q478 658 452 674T378 691Q338 691 303 676T245 631T215 559Q210 521 212 479T218 408Q221 405 225 405H386Q390
405 391 403T393 397L388 362Q387 358 386 357T382 356H232Q228 356 225 354T220 345Q222 318 221 290T214 230Q206 182 192 149T163 95T140 65Q135 62 134 61T138 60H328Q379 60 416 78T476 139Q479 141 482 141T489 141L526 130Q529 128 532 125T533 116Q502
58 449 29T325 0H-14V0Z" />
<glyph unicode="&#xa4;" horiz-adv-x="527" d="M255 191Q226 191 201 200T158 224Q153 226 150 225T143 220L94 177Q88 173 84 174T75 180L59 199Q55 204 55 208T59 217L108 259Q115 268 113 278Q103 298 98 322T97 376Q102 404 112 429T141 478Q148 484 144 489L107
531Q103 536 103 541T107 551L129 569Q135 574 138 573T146 567L184 523Q186 521 189 522T196 525Q220 539 247 546T300 554Q328 554 353 545T396 521Q401 519 404 520T411 525L465 572Q469 575 471 574T477 569L499 544Q501 540 501 538T500 532L444 484Q438 478
440 471Q451 451 456 425T458 370Q454 343 443 317T415 270Q412 267 410 265T411 259L451 212Q454 208 455 205T453 199L424 174Q421 171 418 172T413 177L374 224Q370 226 367 226T362 222Q337 207 310 199T255 191V191ZM259 248Q295 248 326 266T379 314T404
376Q409 409 397 436T360 481T300 498Q264 498 232 480T180 433T154 370Q150 338 162 310T199 265T259 248V248Z" />
<glyph unicode="&#xa5;" horiz-adv-x="596" d="M639 742Q646 742 649 738T647 727L356 333Q351 329 349 324T346 306L304 14Q303 5 300 3T286 0H243Q235 0 232 4T229 15L269 299Q270 308 270 312T267 323L83 729Q80 735 82 738T92 742H147Q156 742 159 739T165
729L312 393Q317 384 320 385T329 396L576 733Q581 740 584 741T595 742H639V742ZM503 303Q502 297 500 295T490 293H122Q117 293 114 296T111 304L115 333Q116 338 117 339T122 341L498 342Q502 342 505 339T507 332L503 303ZM483 158Q482 152 479 151T469 149L102
148Q96 148 93 151T91 160L95 188Q96 193 97 194T102 196L478 197Q481 197 484 194T487 187L483 158Z" />
<glyph unicode="&#xa6;" horiz-adv-x="263" d="M141 440Q135 440 133 443T131 451L185 839Q186 844 187 845T194 847H230Q236 847 238 843T239 834L185 448Q184 443 183 442T176 440H141ZM57 -165Q51 -165 48 -162T46 -154L100 234Q100 239 101 240T108 242H144Q150
242 153 239T155 229L100 -157Q99 -162 98 -163T92 -165H57Z" />
<glyph unicode="&#xa7;" horiz-adv-x="483" d="M336 198Q378 173 399 142T415 66Q410 27 382 -4T309 -53T207 -71Q139 -71 86 -40T13 42Q11 46 11 48T11 51L49 70Q53 73 56 71T61 64Q80 28 118 5T211 -19Q266 -19 305 4T350 68Q355 95 336 120T257 169L169 205Q106
231 82 268T64 352Q70 398 105 431T188 483Q149 505 130 526T105 571T104 619Q109 657 135 687T205 735T303 752Q367 752 411 724T475 656Q478 653 478 651T476 646L441 629Q436 626 433 628T428 634Q409 662 379 681T307 700Q247 700 210 677T168 618Q165 596
179 573T246 527L328 492Q401 460 429 420T450 327Q443 276 410 247T336 198V198ZM269 232Q296 230 321 242T365 276T387 323Q390 345 386 363T365 397T310 429L253 453Q223 450 195 436T149 399T127 352Q123 324 137 304T206 259L269 232V232Z" />
<glyph unicode="&#xa8;" horiz-adv-x="222" d="M134 649Q133 641 131 639T119 637H77Q69 637 67 640T65 650L76 732Q77 739 79 740T86 742H135Q141 742 144 739T145 729L134 649ZM266 649Q265 641 263 639T251 637H209Q201 637 199 640T197 650L208 732Q209 739
211 740T218 742H267Q273 742 276 739T277 729L266 649Z" />
<glyph unicode="&#xa9;" horiz-adv-x="830" d="M379 -10Q300 -10 234 19T123 102T58 224T49 374Q60 452 99 521T197 641T329 722T480 752Q559 752 625 722T736 639T801 517T811 368Q800 289 761 220T662 100T530 19T379 -10V-10ZM381 43Q448 43 510 66T624 133T710
238T755 374Q766 447 749 507T692 610T599 676T479 700Q411 700 349 676T235 608T149 503T105 368Q94 294 111 234T166 132T259 66T381 43V43ZM460 589Q499 589 527 576T575 539T608 488Q610 486 609 485T607 482L565 467Q562 466 560 468T556 476Q540 507 517
524T463 541Q423 541 389 520T333 461T302 371Q292 296 322 252T411 208Q451 208 484 230T541 287Q543 288 546 287T552 284L578 272Q583 270 582 260Q566 239 547 221T506 189T459 167T405 159Q348 159 308 186T249 263T240 376Q249 439 280 487T358 562T460 589V589Z"
/>
<glyph unicode="&#xaa;" horiz-adv-x="402" d="M255 749Q298 749 325 735T364 696T371 635L347 471Q345 456 345 446T347 418Q349 414 347 413T340 411H307Q302 411 300 413T297 421L296 453Q296 458 294 456T288 450Q259 427 233 416T176 405Q123 405 96 431T75
501Q82 548 126 574T252 608L306 613Q311 614 315 617T320 624L322 640Q327 676 309 692T251 709Q222 709 199 698T154 659Q153 658 151 658T145 660L113 672Q112 673 112 676T112 683Q134 715 170 732T255 749V749ZM127 496Q123 473 140 459T190 444Q213 444 233
452T269 476Q285 486 294 498T305 522L312 568Q313 574 312 575T304 576L260 572Q219 570 191 560T146 534T127 496V496Z" />
<glyph unicode="&#xab;" horiz-adv-x="436" d="M358 80Q360 76 359 76T351 75H330Q326 75 323 77T320 82L214 249Q211 254 210 258T213 267L370 445Q373 448 374 448T379 448H403Q406 448 409 445T410 437L280 262Q278 259 277 256T277 248L358 80ZM184 80Q186
76 185 76T178 75H156Q153 75 150 77T147 82L40 249Q38 254 37 258T39 267L197 445Q199 448 200 448T205 448H229Q233 448 236 445T236 437L107 262Q104 259 103 256T103 248L184 80Z" />
<glyph unicode="&#xac;" horiz-adv-x="551" d="M498 355Q498 349 495 348T485 346L88 345Q83 345 80 348T78 357L83 392Q84 397 85 398T90 400H495Q498 400 501 397T504 390L498 355ZM478 211Q477 206 476 204T468 202H431Q426 202 424 205T422 212L444 379Q445
383 446 384T451 386H492Q498 386 500 383T501 373L478 211Z" />
<glyph unicode="&#xad;" horiz-adv-x="381" d="M532 247Q531 241 528 239T518 237H293Q287 237 284 240T282 248L287 285Q288 290 289 291T294 293L528 294Q532 294 535 291T537 284L532 247Z" />
<glyph unicode="&#xae;" horiz-adv-x="545" d="M277 275Q210 275 160 307T85 395T69 516Q79 582 118 635T214 720T338 752Q404 752 454 720T530 632T546 510Q537 445 497 392T400 307T277 275V275ZM277 316Q335 316 383 340T463 410T503 516Q512 575 494 619T436
687T339 711Q280 711 232 686T152 616T111 510Q99 421 145 369T277 316V316ZM377 397Q378 395 378 394T375 393H344Q343 393 342 395T340 398L315 503Q314 505 314 505T309 505H259Q257 505 255 503T252 499L238 396Q238 394 238 394T235 393H207Q205 393 204 395T203
399L235 627Q235 630 235 630T236 630H337Q374 630 393 614T408 567Q405 540 388 527T355 508Q353 508 351 507T350 505L377 397V397ZM318 536Q337 536 352 543T371 570Q372 582 364 590T327 599H272Q270 599 269 599T266 594L258 537Q258 536 258 536T260 536H318V536Z"
/>
<glyph unicode="&#xaf;" horiz-adv-x="298" d="M347 682Q346 677 344 675T334 673H79Q73 673 71 676T69 686L73 718Q75 722 76 723T80 725H344Q347 725 349 722T351 715L347 682Z" />
<glyph unicode="&#xb0;" horiz-adv-x="464" d="M448 699Q442 655 418 621T356 567T275 547Q229 547 196 567T148 624T139 706Q145 751 169 785T231 838T312 858Q358 858 390 838T439 782T448 699V699ZM395 705Q402 751 379 779T309 807Q262 807 229 777T189 698Q183
652 205 624T274 595Q322 595 355 625T395 705V705Z" />
<glyph unicode="&#xb1;" horiz-adv-x="551" d="M460 82Q459 76 457 75T447 73L50 72Q44 72 42 75T40 84L45 119Q46 124 47 125T52 127L456 128Q460 128 462 125T465 117L460 82ZM509 429Q507 423 505 422T495 420L99 419Q93 419 91 422T88 431L94 466Q94 471 96
472T101 474L505 475Q509 475 511 472T514 464L509 429ZM258 236Q252 236 249 240T246 252L302 648Q303 655 304 656T311 657H346Q351 657 354 654T356 648L300 243Q299 240 298 238T292 236H258Z" />
<glyph unicode="&#xb2;" horiz-adv-x="452" d="M186 579Q220 608 247 635T289 689T304 745Q304 783 278 801T219 819Q191 819 157 804T98 756Q94 751 90 754L63 774Q60 776 66 784Q98 821 141 839T225 857Q258 857 287 846T333 810T351 748Q351 711 335 680T290
620T223 557L77 432Q73 430 73 428T78 425H304Q312 425 311 418L307 390Q306 387 305 386T300 384H18Q8 384 9 394L12 415Q13 422 16 426T27 439L186 579Z" />
<glyph unicode="&#xb3;" horiz-adv-x="467" d="M91 788Q90 790 90 793T92 798Q128 829 164 843T240 857Q306 857 342 828T379 754Q379 712 352 680T279 633Q275 632 275 631T279 628Q314 619 337 593T361 527Q361 485 339 451T273 398T169 378Q129 378 103 387T58
411T24 444Q22 448 24 450L49 470Q52 472 55 470Q76 441 106 429T174 416Q233 416 274 445T315 525Q315 553 299 572T257 600T202 610H144Q137 610 139 616L142 643Q142 647 148 647H194Q231 647 262 660T312 697T332 749Q332 780 307 800T240 820Q197 820 169
804T117 770Q111 764 107 771L91 788V788Z" />
<glyph unicode="&#xb4;" horiz-adv-x="280" d="M330 705Q332 700 331 697T322 691L83 618Q78 616 74 618T70 626L65 645Q64 655 69 656L312 751Q315 752 318 751T322 745L330 705Z" />
<glyph unicode="&#xb5;" horiz-adv-x="576" d="M219 45Q266 45 312 71T409 141L463 520Q464 526 466 528T475 530H517Q524 530 527 527T529 516L457 9Q456 4 455 2T447 0H404Q399 0 396 3T394 12L403 73Q404 79 403 79T395 72Q355 43 325 26T268 0T214 -9Q180
-9 154 -1T109 27L83 -152Q82 -161 80 -163T67 -165H30Q22 -165 19 -162T17 -151L111 519Q112 525 115 527T123 530H166Q172 530 175 527T177 516L124 142Q120 115 131 93T166 58T219 45V45Z" />
<glyph unicode="&#xb6;" horiz-adv-x="550" d="M481 697Q479 697 476 695T472 689L364 -80Q364 -82 364 -83T359 -85H325Q321 -85 319 -82T317 -76L425 694Q425 696 425 696T421 697H386Q383 697 380 695T377 689L269 -80Q268 -83 267 -84T263 -85H228Q225 -85
223 -83T221 -76L274 302Q274 304 274 304T273 305Q204 306 160 335T97 414T86 519Q94 576 126 626T215 709T349 742H533Q536 742 538 740T539 735L535 700Q534 697 534 697T530 697H481Z" />
<glyph unicode="&#xb7;" horiz-adv-x="189" d="M154 338Q153 330 151 328T138 326H67Q60 326 57 330T55 340L66 412Q67 418 68 419T74 421H156Q161 421 163 418T164 410L154 338Z" />
<glyph unicode="&#xb8;" horiz-adv-x="211" d="M145 -134Q140 -171 108 -189T32 -207Q8 -207 -11 -201T-47 -184Q-49 -184 -51 -182T-53 -176L-38 -153Q-37 -151 -36 -152T-32 -156Q-22 -163 -10 -167T24 -172Q54 -172 71 -161T91 -128Q94 -106 77 -96T20 -85Q16
-85 14 -83T13 -78L61 5H103L72 -55Q71 -56 71 -56T72 -57Q104 -60 120 -71T142 -99T145 -134V-134Z" />
<glyph unicode="&#xb9;" horiz-adv-x="367" d="M219 419Q225 419 224 413L220 385Q219 380 215 380H0Q-5 380 -4 385L0 415Q1 419 5 419H89Q92 419 94 423L145 790Q147 795 141 793L55 762Q48 760 48 767L51 789Q52 793 53 795T58 798L153 843Q159 846 162 846T171
847H195Q201 847 200 839L141 423Q139 419 144 419H219V419Z" />
<glyph unicode="&#xba;" horiz-adv-x="414" d="M272 751Q322 751 354 729T401 667T408 574Q401 525 378 488T317 429T230 407Q179 407 147 429T101 491T95 581Q102 632 126 670T188 730T272 751V751ZM272 709Q220 709 189 673T149 577Q140 517 160 483T230 448Q281
448 313 485T354 584Q362 640 342 674T272 709V709Z" />
<glyph unicode="&#xbb;" horiz-adv-x="435" d="M152 252Q155 255 156 258T156 266L76 440Q75 445 76 446T80 448H104Q109 448 113 441L220 264Q223 260 223 256T219 246L64 78Q63 77 61 76T56 75H34Q29 75 26 77T24 83L152 252V252ZM326 252Q329 255 330 258T330
266L249 440Q248 445 249 446T254 448H278Q282 448 286 441L394 264Q396 260 397 256T393 246L237 78Q236 77 235 76T229 75H207Q202 75 199 77T197 83L326 252V252Z" />
<glyph unicode="&#xbc;" horiz-adv-x="878" d="M268 315Q274 315 273 309L269 281Q268 276 264 276H49Q44 276 45 281L49 311Q50 315 54 315H138Q141 315 143 319L194 686Q196 691 190 689L104 658Q97 656 97 663L100 685Q101 689 102 691T107 694L202 739Q208
742 211 742T220 743H244Q250 743 249 735L190 319Q188 315 193 315H268V315ZM187 3Q183 -1 180 -2T169 -4H147Q139 -4 138 2T140 14L730 745Q733 750 736 750T744 750H771Q776 750 779 747T778 738L187 3ZM704 462Q707 465 709 466T716 467H752Q758 467 758 459L717
171Q717 167 720 167H782Q790 167 789 161L785 135Q785 132 784 131T778 129H716Q710 129 710 124L694 6Q693 2 692 1T685 0H652Q645 0 646 7L662 124Q664 129 658 129H449Q442 129 443 137L447 165Q448 170 450 173T457 182L704 462V462ZM662 167Q667 167 668
172L699 399Q700 403 698 403T691 396L495 174Q488 167 495 167H662Z" />
<glyph unicode="&#xbd;" horiz-adv-x="939" d="M286 315Q292 315 291 309L287 281Q286 276 282 276H67Q62 276 63 281L67 311Q68 315 72 315H156Q159 315 161 319L212 686Q214 691 208 689L122 658Q115 656 115 663L118 685Q119 689 120 691T125 694L220 739Q226
742 229 742T238 743H262Q268 743 267 735L208 319Q206 315 211 315H286V315ZM169 3Q165 -1 162 -2T151 -4H129Q121 -4 120 2T122 14L712 745Q715 750 718 750T726 750H753Q758 750 761 747T760 738L169 3ZM679 195Q713 224 740 251T782 305T797 361Q797 399 771
417T712 435Q684 435 650 420T591 372Q587 367 583 370L556 390Q553 392 559 400Q591 437 634 455T718 473Q751 473 780 462T826 426T844 364Q844 327 828 296T783 236T716 173L570 48Q566 46 566 44T571 41H797Q805 41 804 34L800 6Q799 3 798 2T793 0H511Q501
0 502 10L505 31Q506 38 509 42T520 55L679 195Z" />
<glyph unicode="&#xbe;" horiz-adv-x="911" d="M110 683Q109 685 109 688T111 693Q147 724 183 738T259 752Q325 752 361 723T398 649Q398 607 371 575T298 528Q294 527 294 526T298 523Q333 514 356 488T380 422Q380 380 358 346T292 293T188 273Q148 273 122
282T77 306T43 339Q41 343 43 345L68 365Q71 367 74 365Q95 336 125 324T193 311Q252 311 293 340T334 420Q334 448 318 467T276 495T221 505H163Q156 505 158 511L161 538Q161 542 167 542H213Q250 542 281 555T331 592T351 644Q351 675 326 695T259 715Q216 715
188 699T136 665Q130 659 126 666L110 683V683ZM239 3Q235 -1 232 -2T221 -4H199Q191 -4 190 2T192 14L782 745Q785 750 788 750T796 750H823Q828 750 831 747T830 738L239 3ZM762 462Q765 465 767 466T774 467H810Q816 467 816 459L775 171Q775 167 778 167H840Q848
167 847 161L843 135Q843 132 842 131T836 129H774Q768 129 768 124L752 6Q751 2 750 1T743 0H710Q703 0 704 7L720 124Q722 129 716 129H507Q500 129 501 137L505 165Q506 170 508 173T515 182L762 462V462ZM720 167Q725 167 726 172L757 399Q758 403 756 403T749
396L553 174Q546 167 553 167H720Z" />
<glyph unicode="&#xbf;" horiz-adv-x="512" d="M260 518Q261 526 264 528T276 530H333Q339 530 343 526T345 516L334 441Q333 436 332 434T326 432H258Q253 432 251 435T249 444L260 518ZM431 -34Q434 -36 436 -40T435 -49Q396 -107 330 -141T188 -175Q119 -175
73 -152T6 -88T-7 9Q-1 50 18 79T63 131T120 176T176 222T222 279T249 355Q251 362 258 362H298Q303 362 306 358T309 347Q300 289 275 250T217 183T150 130T93 76T62 4Q55 -53 90 -85T191 -118Q227 -118 264 -105T332 -69T376 -19Q379 -16 380 -16T386 -18L431
-34Z" />
<glyph unicode="&#xc0;" horiz-adv-x="716" d="M19 0Q14 0 12 4T13 15L376 731Q379 738 383 740T395 742H455Q464 742 468 738T473 728L632 12Q633 7 631 4T623 0H571Q558 0 558 11L511 216Q510 223 502 223H199Q190 223 186 214L80 7Q79 2 76 1T67 0H19V0ZM489
284Q500 284 497 296L417 650Q415 660 412 659T403 648L222 296Q219 289 219 287T225 284H489ZM324 958Q325 961 328 961T333 961L550 868Q554 866 555 863T555 855L544 834Q543 830 541 830T531 830L314 902Q306 904 305 908T305 917L324 958V958Z" />
<glyph unicode="&#xc1;" horiz-adv-x="716" d="M19 0Q14 0 12 4T13 15L376 731Q379 738 383 740T395 742H455Q464 742 468 738T473 728L632 12Q633 7 631 4T623 0H571Q558 0 558 11L511 216Q510 223 502 223H199Q190 223 186 214L80 7Q79 2 76 1T67 0H19V0ZM489
284Q500 284 497 296L417 650Q415 660 412 659T403 648L222 296Q219 289 219 287T225 284H489ZM577 917Q579 912 578 909T569 903L330 830Q325 828 321 830T317 838L312 857Q311 867 316 868L559 963Q562 964 565 963T569 957L577 917Z" />
<glyph unicode="&#xc2;" horiz-adv-x="716" d="M19 0Q14 0 12 4T13 15L376 731Q379 738 383 740T395 742H455Q464 742 468 738T473 728L632 12Q633 7 631 4T623 0H571Q558 0 558 11L511 216Q510 223 502 223H199Q190 223 186 214L80 7Q79 2 76 1T67 0H19V0ZM489
284Q500 284 497 296L417 650Q415 660 412 659T403 648L222 296Q219 289 219 287T225 284H489ZM455 905Q448 912 446 911T435 904L368 854Q361 850 358 849T350 848H302Q296 848 295 852T300 860L413 947Q418 952 423 954T437 956H467Q474 956 477 952T484 945L572
858Q577 853 577 851T570 848H520Q515 848 512 850T504 856L455 905Z" />
<glyph unicode="&#xc3;" horiz-adv-x="716" d="M19 0Q14 0 12 4T13 15L376 731Q379 738 383 740T395 742H455Q464 742 468 738T473 728L632 12Q633 7 631 4T623 0H571Q558 0 558 11L511 216Q510 223 502 223H199Q190 223 186 214L80 7Q79 2 76 1T67 0H19V0ZM489
284Q500 284 497 296L417 650Q415 660 412 659T403 648L222 296Q219 289 219 287T225 284H489ZM583 893Q571 886 553 880T508 874Q481 874 463 880T428 893T390 899Q367 899 355 890T328 876Q322 875 320 877T315 885L309 907Q308 912 308 915T311 920Q328 931
345 938T386 945Q411 945 430 939T469 926T509 919Q522 919 531 922T549 930T567 939Q574 942 578 940T583 931L588 906Q589 902 589 899T583 893V893Z" />
<glyph unicode="&#xc4;" horiz-adv-x="716" d="M19 0Q14 0 12 4T13 15L376 731Q379 738 383 740T395 742H455Q464 742 468 738T473 728L632 12Q633 7 631 4T623 0H571Q558 0 558 11L511 216Q510 223 502 223H199Q190 223 186 214L80 7Q79 2 76 1T67 0H19V0ZM489
284Q500 284 497 296L417 650Q415 660 412 659T403 648L222 296Q219 289 219 287T225 284H489ZM410 861Q409 853 407 851T395 849H353Q345 849 343 852T341 862L352 944Q353 951 355 952T362 954H411Q417 954 420 951T421 941L410 861ZM542 861Q541 853 539 851T527
849H485Q477 849 475 852T473 862L484 944Q485 951 487 952T494 954H543Q549 954 552 951T553 941L542 861Z" />
<glyph unicode="&#xc5;" horiz-adv-x="716" d="M19 0Q14 0 12 4T13 15L376 731Q379 738 383 740T395 742H455Q464 742 468 738T473 728L632 12Q633 7 631 4T623 0H571Q558 0 558 11L511 216Q510 223 502 223H199Q190 223 186 214L80 7Q79 2 76 1T67 0H19V0ZM489
284Q500 284 497 296L417 650Q415 660 412 659T403 648L222 296Q219 289 219 287T225 284H489ZM537 859Q531 816 498 788T423 760Q394 760 372 774T340 813T333 868Q338 908 371 935T446 963Q476 963 498 949T531 912T537 859V859ZM490 865Q494 889 481 903T445
918Q421 918 401 901T376 858Q373 837 387 821T423 804Q448 804 467 822T490 865V865Z" />
<glyph unicode="&#xc6;" horiz-adv-x="990" d="M900 60Q906 60 909 58T910 49L905 8Q904 3 903 2T896 0H474Q467 0 464 3T462 14L491 218Q491 221 490 222T486 223H241Q237 223 234 221T227 213L80 7Q75 0 65 0H20Q15 0 12 4T13 15L519 731Q523 738 527 740T539
742H984Q988 742 991 739T992 731L986 690Q985 685 984 684T976 682H644Q638 682 635 679T629 669L593 412Q592 407 594 406T601 404H856Q861 404 863 401T865 393L859 352Q859 347 858 346T850 345H596Q591 345 587 342T582 333L545 68Q544 62 545 61T552 60H900V60ZM489
284Q494 284 497 287T502 296L552 657Q554 669 549 668T534 653L276 292Q271 286 271 285T276 284H489V284Z" />
<glyph unicode="&#xc7;" horiz-adv-x="702" d="M444 752Q510 752 563 724T649 649T680 547Q681 537 672 537L616 533Q608 533 607 546Q601 611 556 651T441 692Q378 692 331 667T250 598T196 501T166 389T156 275Q156 165 204 109T351 52Q426 52 481 88T576 201Q579
207 588 204L635 190Q642 187 638 176Q623 146 602 118T554 67T494 27T424 0T345 -10Q260 -10 200 25T110 125T79 283Q79 348 92 415T132 542T203 650T306 725T444 752V752ZM409 -134Q404 -171 372 -189T296 -207Q272 -207 253 -201T217 -184Q215 -184 213 -182T211
-176L226 -153Q227 -151 228 -152T232 -156Q242 -163 254 -167T288 -172Q318 -172 335 -161T355 -128Q358 -106 341 -96T284 -85Q280 -85 278 -83T277 -78L325 5H367L336 -55Q335 -56 335 -56T336 -57Q368 -60 384 -71T406 -99T409 -134V-134Z" />
<glyph unicode="&#xc8;" horiz-adv-x="622" d="M170 732Q171 739 172 740T180 742H618Q627 742 624 731L619 692Q618 687 616 685T606 682H248Q242 682 240 680T236 672L200 412Q199 408 200 406T207 404H482Q487 404 488 402T488 395L482 353Q481 345 472 345H200Q190
345 189 334L152 69Q151 60 158 60H533Q539 60 541 58T542 50L537 8Q536 3 535 2T527 0H80Q67 0 68 14L170 732V732ZM310 958Q311 961 314 961T319 961L536 868Q540 866 541 863T541 855L530 834Q529 830 527 830T517 830L300 902Q292 904 291 908T291 917L310
958V958Z" />
<glyph unicode="&#xc9;" horiz-adv-x="622" d="M170 732Q171 739 172 740T180 742H618Q627 742 624 731L619 692Q618 687 616 685T606 682H248Q242 682 240 680T236 672L200 412Q199 408 200 406T207 404H482Q487 404 488 402T488 395L482 353Q481 345 472 345H200Q190
345 189 334L152 69Q151 60 158 60H533Q539 60 541 58T542 50L537 8Q536 3 535 2T527 0H80Q67 0 68 14L170 732V732ZM563 917Q565 912 564 909T555 903L316 830Q311 828 307 830T303 838L298 857Q297 867 302 868L545 963Q548 964 551 963T555 957L563 917Z" />
<glyph unicode="&#xca;" horiz-adv-x="622" d="M170 732Q171 739 172 740T180 742H618Q627 742 624 731L619 692Q618 687 616 685T606 682H248Q242 682 240 680T236 672L200 412Q199 408 200 406T207 404H482Q487 404 488 402T488 395L482 353Q481 345 472 345H200Q190
345 189 334L152 69Q151 60 158 60H533Q539 60 541 58T542 50L537 8Q536 3 535 2T527 0H80Q67 0 68 14L170 732V732ZM441 905Q434 912 432 911T421 904L354 854Q347 850 344 849T336 848H288Q282 848 281 852T286 860L399 947Q404 952 409 954T423 956H453Q460
956 463 952T470 945L558 858Q563 853 563 851T556 848H506Q501 848 498 850T490 856L441 905Z" />
<glyph unicode="&#xcb;" horiz-adv-x="622" d="M170 732Q171 739 172 740T180 742H618Q627 742 624 731L619 692Q618 687 616 685T606 682H248Q242 682 240 680T236 672L200 412Q199 408 200 406T207 404H482Q487 404 488 402T488 395L482 353Q481 345 472 345H200Q190
345 189 334L152 69Q151 60 158 60H533Q539 60 541 58T542 50L537 8Q536 3 535 2T527 0H80Q67 0 68 14L170 732V732ZM396 861Q395 853 393 851T381 849H339Q331 849 329 852T327 862L338 944Q339 951 341 952T348 954H397Q403 954 406 951T407 941L396 861ZM528
861Q527 853 525 851T513 849H471Q463 849 461 852T459 862L470 944Q471 951 473 952T480 954H529Q535 954 538 951T539 941L528 861Z" />
<glyph unicode="&#xcc;" horiz-adv-x="283" d="M235 742Q247 742 244 728L144 13Q142 4 140 2T128 0H81Q72 0 70 3T68 14L170 732Q171 739 173 740T180 742H235ZM111 958Q112 961 115 961T120 961L337 868Q341 866 342 863T342 855L331 834Q330 830 328 830T318
830L101 902Q93 904 92 908T92 917L111 958V958Z" />
<glyph unicode="&#xcd;" horiz-adv-x="283" d="M235 742Q247 742 244 728L144 13Q142 4 140 2T128 0H81Q72 0 70 3T68 14L170 732Q171 739 173 740T180 742H235ZM364 917Q366 912 365 909T356 903L117 830Q112 828 108 830T104 838L99 857Q98 867 103 868L346
963Q349 964 352 963T356 957L364 917Z" />
<glyph unicode="&#xce;" horiz-adv-x="283" d="M235 742Q247 742 244 728L144 13Q142 4 140 2T128 0H81Q72 0 70 3T68 14L170 732Q171 739 173 740T180 742H235ZM242 905Q235 912 233 911T222 904L155 854Q148 850 145 849T137 848H89Q83 848 82 852T87 860L200
947Q205 952 210 954T224 956H254Q261 956 264 952T271 945L359 858Q364 853 364 851T357 848H307Q302 848 299 850T291 856L242 905Z" />
<glyph unicode="&#xcf;" horiz-adv-x="283" d="M235 742Q247 742 244 728L144 13Q142 4 140 2T128 0H81Q72 0 70 3T68 14L170 732Q171 739 173 740T180 742H235ZM197 861Q196 853 194 851T182 849H140Q132 849 130 852T128 862L139 944Q140 951 142 952T149 954H198Q204
954 207 951T208 941L197 861ZM329 861Q328 853 326 851T314 849H272Q264 849 262 852T260 862L271 944Q272 951 274 952T281 954H330Q336 954 339 951T340 941L329 861Z" />
<glyph unicode="&#xd0;" horiz-adv-x="680" d="M349 355Q348 348 345 346T333 343H38Q31 343 28 347T26 358L31 392Q32 398 33 399T40 401H345Q350 401 352 398T354 390L349 355ZM47 0Q41 0 38 4T35 15L136 733Q137 738 140 740T149 742H284Q405 742 481 710T595
616T632 459Q632 313 583 211T433 54T181 0H47V0ZM184 59Q316 59 397 105T516 242T554 461Q554 544 524 592T432 661T277 682H214Q203 682 202 670L120 73Q119 65 121 62T130 59H184Z" />
<glyph unicode="&#xd1;" horiz-adv-x="756" d="M708 742Q718 742 717 730L616 9Q615 0 605 0H570Q564 0 560 1T551 9L230 598Q226 606 222 605T217 595L135 10Q134 4 132 2T123 0H78Q72 0 70 3T68 13L170 732Q171 739 173 740T181 742H222Q229 742 232 740T239
732L554 150Q559 142 564 143T570 154L651 733Q653 739 654 740T661 742H708ZM618 893Q606 886 588 880T543 874Q516 874 498 880T463 893T425 899Q402 899 390 890T363 876Q357 875 355 877T350 885L344 907Q343 912 343 915T346 920Q363 931 380 938T421 945Q446
945 465 939T504 926T544 919Q557 919 566 922T584 930T602 939Q609 942 613 940T618 931L623 906Q624 902 624 899T618 893V893Z" />
<glyph unicode="&#xd2;" horiz-adv-x="762" d="M345 -10Q260 -10 201 23T110 121T79 278Q79 300 80 323T86 371Q103 494 152 579T276 708T447 752Q531 752 590 718T680 619T712 458Q712 437 711 414T705 366Q688 244 640 161T516 34T345 -10V-10ZM349 51Q465 51
535 130T628 372Q632 399 633 424T635 471Q635 583 587 637T445 692Q330 692 259 611T163 365Q159 340 158 316T156 271Q156 159 205 105T349 51V51ZM348 958Q349 961 352 961T357 961L574 868Q578 866 579 863T579 855L568 834Q567 830 565 830T555 830L338 902Q330
904 329 908T329 917L348 958V958Z" />
<glyph unicode="&#xd3;" horiz-adv-x="762" d="M345 -10Q260 -10 201 23T110 121T79 278Q79 300 80 323T86 371Q103 494 152 579T276 708T447 752Q531 752 590 718T680 619T712 458Q712 437 711 414T705 366Q688 244 640 161T516 34T345 -10V-10ZM349 51Q465 51
535 130T628 372Q632 399 633 424T635 471Q635 583 587 637T445 692Q330 692 259 611T163 365Q159 340 158 316T156 271Q156 159 205 105T349 51V51ZM601 917Q603 912 602 909T593 903L354 830Q349 828 345 830T341 838L336 857Q335 867 340 868L583 963Q586 964
589 963T593 957L601 917Z" />
<glyph unicode="&#xd4;" horiz-adv-x="762" d="M345 -10Q260 -10 201 23T110 121T79 278Q79 300 80 323T86 371Q103 494 152 579T276 708T447 752Q531 752 590 718T680 619T712 458Q712 437 711 414T705 366Q688 244 640 161T516 34T345 -10V-10ZM349 51Q465 51
535 130T628 372Q632 399 633 424T635 471Q635 583 587 637T445 692Q330 692 259 611T163 365Q159 340 158 316T156 271Q156 159 205 105T349 51V51ZM479 905Q472 912 470 911T459 904L392 854Q385 850 382 849T374 848H326Q320 848 319 852T324 860L437 947Q442
952 447 954T461 956H491Q498 956 501 952T508 945L596 858Q601 853 601 851T594 848H544Q539 848 536 850T528 856L479 905Z" />
<glyph unicode="&#xd5;" horiz-adv-x="762" d="M345 -10Q260 -10 201 23T110 121T79 278Q79 300 80 323T86 371Q103 494 152 579T276 708T447 752Q531 752 590 718T680 619T712 458Q712 437 711 414T705 366Q688 244 640 161T516 34T345 -10V-10ZM349 51Q465 51
535 130T628 372Q632 399 633 424T635 471Q635 583 587 637T445 692Q330 692 259 611T163 365Q159 340 158 316T156 271Q156 159 205 105T349 51V51ZM606 893Q594 886 576 880T531 874Q504 874 486 880T451 893T413 899Q390 899 378 890T351 876Q345 875 343 877T338
885L332 907Q331 912 331 915T334 920Q351 931 368 938T409 945Q434 945 453 939T492 926T532 919Q545 919 554 922T572 930T590 939Q597 942 601 940T606 931L611 906Q612 902 612 899T606 893V893Z" />
<glyph unicode="&#xd6;" horiz-adv-x="762" d="M345 -10Q260 -10 201 23T110 121T79 278Q79 300 80 323T86 371Q103 494 152 579T276 708T447 752Q531 752 590 718T680 619T712 458Q712 437 711 414T705 366Q688 244 640 161T516 34T345 -10V-10ZM349 51Q465 51
535 130T628 372Q632 399 633 424T635 471Q635 583 587 637T445 692Q330 692 259 611T163 365Q159 340 158 316T156 271Q156 159 205 105T349 51V51ZM433 861Q432 853 430 851T418 849H376Q368 849 366 852T364 862L375 944Q376 951 378 952T385 954H434Q440 954
443 951T444 941L433 861ZM565 861Q564 853 562 851T550 849H508Q500 849 498 852T496 862L507 944Q508 951 510 952T517 954H566Q572 954 575 951T576 941L565 861Z" />
<glyph unicode="&#xd7;" horiz-adv-x="530" d="M425 178Q420 174 416 175T407 183L109 528Q106 533 105 536T109 543L137 568Q141 571 144 570T149 567L452 215Q455 213 456 210T453 203L425 178ZM65 204Q62 208 62 212T66 222L461 568Q466 572 469 571T475 565L497
540Q500 537 501 535T500 529L98 176Q95 174 92 175T87 179L65 204Z" />
<glyph unicode="&#xd8;" horiz-adv-x="721" d="M762 719Q764 716 765 713T763 705L663 610Q684 564 689 503T685 366Q668 244 619 161T496 34T324 -10Q254 -10 202 13T117 79L34 -3Q28 -10 23 -9T12 -2L-6 18Q-11 24 -13 28T-10 37L87 129Q67 175 61 235T65 371Q83
494 131 579T255 708T426 752Q496 752 548 729T634 660L720 746Q724 751 727 751T735 746L762 719V719ZM145 365Q137 311 138 267T150 187L583 613Q560 653 520 672T424 691Q309 691 239 611T145 365V365ZM605 372Q612 427 611 472T599 553L168 128Q192 89 232
70T329 51Q445 51 513 130T605 372V372Z" />
<glyph unicode="&#xd9;" horiz-adv-x="706" d="M608 238Q596 153 560 98T463 16T317 -10Q200 -10 144 40T88 191Q88 206 89 223T93 258L160 731Q161 738 163 740T170 742H224Q230 742 233 739T234 728L165 234Q164 222 163 212T162 191Q162 119 202 85T324 51Q388
51 434 71T508 134T545 241L614 733Q615 739 617 740T623 742H668Q674 742 676 739T677 729L608 238V238ZM326 958Q327 961 330 961T335 961L552 868Q556 866 557 863T557 855L546 834Q545 830 543 830T533 830L316 902Q308 904 307 908T307 917L326 958V958Z"
/>
<glyph unicode="&#xda;" horiz-adv-x="706" d="M608 238Q596 153 560 98T463 16T317 -10Q200 -10 144 40T88 191Q88 206 89 223T93 258L160 731Q161 738 163 740T170 742H224Q230 742 233 739T234 728L165 234Q164 222 163 212T162 191Q162 119 202 85T324 51Q388
51 434 71T508 134T545 241L614 733Q615 739 617 740T623 742H668Q674 742 676 739T677 729L608 238V238ZM579 917Q581 912 580 909T571 903L332 830Q327 828 323 830T319 838L314 857Q313 867 318 868L561 963Q564 964 567 963T571 957L579 917Z" />
<glyph unicode="&#xdb;" horiz-adv-x="706" d="M608 238Q596 153 560 98T463 16T317 -10Q200 -10 144 40T88 191Q88 206 89 223T93 258L160 731Q161 738 163 740T170 742H224Q230 742 233 739T234 728L165 234Q164 222 163 212T162 191Q162 119 202 85T324 51Q388
51 434 71T508 134T545 241L614 733Q615 739 617 740T623 742H668Q674 742 676 739T677 729L608 238V238ZM457 905Q450 912 448 911T437 904L370 854Q363 850 360 849T352 848H304Q298 848 297 852T302 860L415 947Q420 952 425 954T439 956H469Q476 956 479 952T486
945L574 858Q579 853 579 851T572 848H522Q517 848 514 850T506 856L457 905Z" />
<glyph unicode="&#xdc;" horiz-adv-x="706" d="M608 238Q596 153 560 98T463 16T317 -10Q200 -10 144 40T88 191Q88 206 89 223T93 258L160 731Q161 738 163 740T170 742H224Q230 742 233 739T234 728L165 234Q164 222 163 212T162 191Q162 119 202 85T324 51Q388
51 434 71T508 134T545 241L614 733Q615 739 617 740T623 742H668Q674 742 676 739T677 729L608 238V238ZM412 861Q411 853 409 851T397 849H355Q347 849 345 852T343 862L354 944Q355 951 357 952T364 954H413Q419 954 422 951T423 941L412 861ZM544 861Q543 853
541 851T529 849H487Q479 849 477 852T475 862L486 944Q487 951 489 952T496 954H545Q551 954 554 951T555 941L544 861Z" />
<glyph unicode="&#xdd;" horiz-adv-x="660" d="M675 742Q681 742 682 738T680 728L385 327Q381 322 379 317T376 299L335 14Q334 5 330 3T316 0H270Q262 0 261 4T260 14L299 296Q301 305 301 309T298 319L112 729Q110 735 111 738T121 742H173Q182 742 185 739T191
729L339 394Q348 375 361 394L605 733Q610 739 613 740T625 742H675V742ZM548 917Q550 912 549 909T540 903L301 830Q296 828 292 830T288 838L283 857Q282 867 287 868L530 963Q533 964 536 963T540 957L548 917Z" />
<glyph unicode="&#xde;" horiz-adv-x="684" d="M644 384Q635 310 595 264T492 197T354 176H177Q172 176 169 173T165 164L144 10Q142 4 140 2T132 0H79Q74 0 71 3T68 13L170 732Q171 739 173 740T180 742H234Q240 742 243 739T244 728L225 588Q224 585 225 585T229
584H400Q478 584 537 563T625 497T644 384V384ZM568 391Q578 465 530 494T392 524H229Q224 524 220 521T214 512L176 245Q175 239 176 237T182 235H354Q441 235 498 271T568 391V391Z" />
<glyph unicode="&#xdf;" horiz-adv-x="597" d="M380 742Q442 742 476 721T522 668T529 601Q524 562 505 539T457 499T395 467Q353 446 335 434T312 398Q310 377 322 369T370 347Q396 338 427 326T484 293T525 240T533 158Q525 103 494 66T416 9T317 -10Q281 -10
246 -2T189 23Q184 25 182 27T182 35L208 69Q210 72 213 71T217 66Q238 55 259 49T312 42Q376 42 418 72T469 159Q475 199 459 222T413 260T351 286Q326 294 302 305T264 338T255 396Q260 433 285 457T362 508Q385 519 407 531T445 561T465 608Q471 646 447 668T371
690Q306 690 260 651T203 533L129 10Q129 4 128 2T120 0H73Q69 0 66 3T64 12L127 465Q128 470 128 471T122 473H66Q61 473 59 476T57 483L62 518Q63 521 64 522T70 524H126Q132 524 134 528T137 538Q143 584 163 622T214 686T288 727T380 742V742Z" />
<glyph unicode="&#xe0;" horiz-adv-x="544" d="M368 65Q325 27 277 9T175 -10Q104 -10 64 24T23 115Q23 167 48 203T113 262T204 297T305 312L395 319Q414 321 416 336L420 365Q421 370 421 376T422 387Q422 435 391 462T305 489Q258 489 217 468T138 402Q135
399 133 399T126 400L87 417Q84 419 83 422T85 433Q122 481 179 510T310 540Q368 540 407 523T466 473T486 396Q486 389 486 382T484 366L434 11Q433 3 431 2T422 0H385Q380 0 377 3T374 14L380 67Q379 79 368 65V65ZM405 261Q406 269 404 272T394 274L316 268Q285
265 246 258T172 236T114 194T91 124Q91 85 119 64T197 42Q233 42 266 55T328 87Q356 108 373 130T393 173L405 261ZM208 746Q209 749 212 749T217 749L434 656Q438 654 439 651T439 643L428 622Q427 618 425 618T415 618L198 690Q190 692 189 696T189 705L208
746V746Z" />
<glyph unicode="&#xe1;" horiz-adv-x="544" d="M368 65Q325 27 277 9T175 -10Q104 -10 64 24T23 115Q23 167 48 203T113 262T204 297T305 312L395 319Q414 321 416 336L420 365Q421 370 421 376T422 387Q422 435 391 462T305 489Q258 489 217 468T138 402Q135
399 133 399T126 400L87 417Q84 419 83 422T85 433Q122 481 179 510T310 540Q368 540 407 523T466 473T486 396Q486 389 486 382T484 366L434 11Q433 3 431 2T422 0H385Q380 0 377 3T374 14L380 67Q379 79 368 65V65ZM405 261Q406 269 404 272T394 274L316 268Q285
265 246 258T172 236T114 194T91 124Q91 85 119 64T197 42Q233 42 266 55T328 87Q356 108 373 130T393 173L405 261ZM461 705Q463 700 462 697T453 691L214 618Q209 616 205 618T201 626L196 645Q195 655 200 656L443 751Q446 752 449 751T453 745L461 705Z" />
<glyph unicode="&#xe2;" horiz-adv-x="544" d="M368 65Q325 27 277 9T175 -10Q104 -10 64 24T23 115Q23 167 48 203T113 262T204 297T305 312L395 319Q414 321 416 336L420 365Q421 370 421 376T422 387Q422 435 391 462T305 489Q258 489 217 468T138 402Q135
399 133 399T126 400L87 417Q84 419 83 422T85 433Q122 481 179 510T310 540Q368 540 407 523T466 473T486 396Q486 389 486 382T484 366L434 11Q433 3 431 2T422 0H385Q380 0 377 3T374 14L380 67Q379 79 368 65V65ZM405 261Q406 269 404 272T394 274L316 268Q285
265 246 258T172 236T114 194T91 124Q91 85 119 64T197 42Q233 42 266 55T328 87Q356 108 373 130T393 173L405 261ZM339 693Q332 700 330 699T319 692L252 642Q245 638 242 637T234 636H186Q180 636 179 640T184 648L297 735Q302 740 307 742T321 744H351Q358
744 361 740T368 733L456 646Q461 641 461 639T454 636H404Q399 636 396 638T388 644L339 693Z" />
<glyph unicode="&#xe3;" horiz-adv-x="544" d="M368 65Q325 27 277 9T175 -10Q104 -10 64 24T23 115Q23 167 48 203T113 262T204 297T305 312L395 319Q414 321 416 336L420 365Q421 370 421 376T422 387Q422 435 391 462T305 489Q258 489 217 468T138 402Q135
399 133 399T126 400L87 417Q84 419 83 422T85 433Q122 481 179 510T310 540Q368 540 407 523T466 473T486 396Q486 389 486 382T484 366L434 11Q433 3 431 2T422 0H385Q380 0 377 3T374 14L380 67Q379 79 368 65V65ZM405 261Q406 269 404 272T394 274L316 268Q285
265 246 258T172 236T114 194T91 124Q91 85 119 64T197 42Q233 42 266 55T328 87Q356 108 373 130T393 173L405 261ZM467 681Q455 674 437 668T392 662Q365 662 347 668T312 681T274 687Q251 687 239 678T212 664Q206 663 204 665T199 673L193 695Q192 700 192
703T195 708Q212 719 229 726T270 733Q295 733 314 727T353 714T393 707Q406 707 415 710T433 718T451 727Q458 730 462 728T467 719L472 694Q473 690 473 687T467 681V681Z" />
<glyph unicode="&#xe4;" horiz-adv-x="544" d="M368 65Q325 27 277 9T175 -10Q104 -10 64 24T23 115Q23 167 48 203T113 262T204 297T305 312L395 319Q414 321 416 336L420 365Q421 370 421 376T422 387Q422 435 391 462T305 489Q258 489 217 468T138 402Q135
399 133 399T126 400L87 417Q84 419 83 422T85 433Q122 481 179 510T310 540Q368 540 407 523T466 473T486 396Q486 389 486 382T484 366L434 11Q433 3 431 2T422 0H385Q380 0 377 3T374 14L380 67Q379 79 368 65V65ZM405 261Q406 269 404 272T394 274L316 268Q285
265 246 258T172 236T114 194T91 124Q91 85 119 64T197 42Q233 42 266 55T328 87Q356 108 373 130T393 173L405 261ZM293 649Q292 641 290 639T278 637H236Q228 637 226 640T224 650L235 732Q236 739 238 740T245 742H294Q300 742 303 739T304 729L293 649ZM425
649Q424 641 422 639T410 637H368Q360 637 358 640T356 650L367 732Q368 739 370 740T377 742H426Q432 742 435 739T436 729L425 649Z" />
<glyph unicode="&#xe5;" horiz-adv-x="544" d="M368 65Q325 27 277 9T175 -10Q104 -10 64 24T23 115Q23 167 48 203T113 262T204 297T305 312L395 319Q414 321 416 336L420 365Q421 370 421 376T422 387Q422 435 391 462T305 489Q258 489 217 468T138 402Q135
399 133 399T126 400L87 417Q84 419 83 422T85 433Q122 481 179 510T310 540Q368 540 407 523T466 473T486 396Q486 389 486 382T484 366L434 11Q433 3 431 2T422 0H385Q380 0 377 3T374 14L380 67Q379 79 368 65V65ZM405 261Q406 269 404 272T394 274L316 268Q285
265 246 258T172 236T114 194T91 124Q91 85 119 64T197 42Q233 42 266 55T328 87Q356 108 373 130T393 173L405 261ZM434 696Q428 653 395 625T320 597Q291 597 269 611T237 650T230 705Q235 745 268 772T343 800Q373 800 395 786T428 749T434 696V696ZM387 702Q391
726 378 740T342 755Q318 755 298 738T273 695Q270 674 284 658T320 641Q345 641 364 659T387 702V702Z" />
<glyph unicode="&#xe6;" horiz-adv-x="927" d="M485 249Q473 249 468 244T461 222Q454 179 472 138T528 70T617 43Q664 43 697 56T753 91T796 133Q801 137 802 136T808 133L839 114Q842 113 843 110T842 100Q817 66 781 42T702 4T609 -10Q550 -10 513 9T453 55T418
105Q417 107 415 105T411 99Q388 76 356 51T280 8T173 -10Q93 -10 54 30T24 141Q35 214 101 258T294 312L392 319Q401 320 407 324T415 336L419 365Q427 423 397 456T300 489Q255 489 214 467T136 401Q132 397 130 397T123 400L86 417Q83 419 83 423T84 433Q110
467 144 491T220 527T310 540Q384 540 423 513T472 434Q510 488 564 514T682 540Q753 540 802 508T873 415T883 267Q882 258 879 254T863 250L485 249V249ZM680 489Q630 489 586 465T512 398T473 296L801 297Q813 297 817 301T822 316Q829 363 814 402T764 465T680
489V489ZM404 259Q406 267 404 270T392 272L309 266Q242 260 196 244T123 202T92 137Q86 93 113 66T197 42Q246 44 288 62T359 111T392 176L404 259V259Z" />
<glyph unicode="&#xe7;" horiz-adv-x="540" d="M332 540Q382 540 418 524T479 482T519 419Q522 414 521 412T516 407L474 395Q471 394 469 396T463 405Q443 434 424 452T384 479T335 488Q282 488 241 464T172 400T129 311T114 213Q114 134 155 88T268 42Q319 42
360 66T439 140Q444 146 450 142L483 126Q485 125 487 121T486 112Q467 85 443 62T391 23T330 -1T260 -10Q195 -10 147 18T73 96T47 215Q47 274 66 332T122 437T212 512T332 540V540ZM325 -134Q320 -171 288 -189T212 -207Q188 -207 169 -201T133 -184Q131 -184
129 -182T127 -176L142 -153Q143 -151 144 -152T148 -156Q158 -163 170 -167T204 -172Q234 -172 251 -161T271 -128Q274 -106 257 -96T200 -85Q196 -85 194 -83T193 -78L241 5H283L252 -55Q251 -56 251 -56T252 -57Q284 -60 300 -71T322 -99T325 -134V-134Z" />
<glyph unicode="&#xe8;" horiz-adv-x="579" d="M264 -10Q198 -10 149 18T73 96T46 213Q46 275 65 333T122 438T213 512T335 540Q399 540 444 515T514 442T539 326Q539 312 538 298T535 267Q534 260 529 255T516 250H125Q118 250 115 242T112 205Q112 130 156 87T270
43Q326 43 369 65T447 132Q451 136 454 136T461 133L492 114Q501 110 495 100Q465 62 430 38T353 2T264 -10V-10ZM455 296Q465 296 471 304T477 343Q477 408 438 448T333 489Q274 489 230 461T158 388T124 296H455ZM234 746Q235 749 238 749T243 749L460 656Q464
654 465 651T465 643L454 622Q453 618 451 618T441 618L224 690Q216 692 215 696T215 705L234 746V746Z" />
<glyph unicode="&#xe9;" horiz-adv-x="579" d="M264 -10Q198 -10 149 18T73 96T46 213Q46 275 65 333T122 438T213 512T335 540Q399 540 444 515T514 442T539 326Q539 312 538 298T535 267Q534 260 529 255T516 250H125Q118 250 115 242T112 205Q112 130 156 87T270
43Q326 43 369 65T447 132Q451 136 454 136T461 133L492 114Q501 110 495 100Q465 62 430 38T353 2T264 -10V-10ZM455 296Q465 296 471 304T477 343Q477 408 438 448T333 489Q274 489 230 461T158 388T124 296H455ZM488 705Q490 700 489 697T480 691L241 618Q236
616 232 618T228 626L223 645Q222 655 227 656L470 751Q473 752 476 751T480 745L488 705Z" />
<glyph unicode="&#xea;" horiz-adv-x="579" d="M264 -10Q198 -10 149 18T73 96T46 213Q46 275 65 333T122 438T213 512T335 540Q399 540 444 515T514 442T539 326Q539 312 538 298T535 267Q534 260 529 255T516 250H125Q118 250 115 242T112 205Q112 130 156 87T270
43Q326 43 369 65T447 132Q451 136 454 136T461 133L492 114Q501 110 495 100Q465 62 430 38T353 2T264 -10V-10ZM455 296Q465 296 471 304T477 343Q477 408 438 448T333 489Q274 489 230 461T158 388T124 296H455ZM365 693Q358 700 356 699T345 692L278 642Q271
638 268 637T260 636H212Q206 636 205 640T210 648L323 735Q328 740 333 742T347 744H377Q384 744 387 740T394 733L482 646Q487 641 487 639T480 636H430Q425 636 422 638T414 644L365 693Z" />
<glyph unicode="&#xeb;" horiz-adv-x="579" d="M264 -10Q198 -10 149 18T73 96T46 213Q46 275 65 333T122 438T213 512T335 540Q399 540 444 515T514 442T539 326Q539 312 538 298T535 267Q534 260 529 255T516 250H125Q118 250 115 242T112 205Q112 130 156 87T270
43Q326 43 369 65T447 132Q451 136 454 136T461 133L492 114Q501 110 495 100Q465 62 430 38T353 2T264 -10V-10ZM455 296Q465 296 471 304T477 343Q477 408 438 448T333 489Q274 489 230 461T158 388T124 296H455ZM320 649Q319 641 317 639T305 637H263Q255 637
253 640T251 650L262 732Q263 739 265 740T272 742H321Q327 742 330 739T331 729L320 649ZM452 649Q451 641 449 639T437 637H395Q387 637 385 640T383 650L394 732Q395 739 397 740T404 742H453Q459 742 462 739T463 729L452 649Z" />
<glyph unicode="&#xec;" horiz-adv-x="232" d="M113 13Q112 4 110 2T98 0H61Q53 0 50 3T47 14L119 520Q120 527 121 528T129 530H174Q179 530 182 527T185 517L113 13ZM53 746Q54 749 57 749T62 749L279 656Q283 654 284 651T284 643L273 622Q272 618 270 618T260
618L43 690Q35 692 34 696T34 705L53 746V746Z" />
<glyph unicode="&#xed;" horiz-adv-x="232" d="M113 13Q112 4 110 2T98 0H61Q53 0 50 3T47 14L119 520Q120 527 121 528T129 530H174Q179 530 182 527T185 517L113 13ZM306 705Q308 700 307 697T298 691L59 618Q54 616 50 618T46 626L41 645Q40 655 45 656L288
751Q291 752 294 751T298 745L306 705Z" />
<glyph unicode="&#xee;" horiz-adv-x="232" d="M113 13Q112 4 110 2T98 0H61Q53 0 50 3T47 14L119 520Q120 527 121 528T129 530H174Q179 530 182 527T185 517L113 13ZM184 693Q177 700 175 699T164 692L97 642Q90 638 87 637T79 636H31Q25 636 24 640T29 648L142
735Q147 740 152 742T166 744H196Q203 744 206 740T213 733L301 646Q306 641 306 639T299 636H249Q244 636 241 638T233 644L184 693Z" />
<glyph unicode="&#xef;" horiz-adv-x="232" d="M113 13Q112 4 110 2T98 0H61Q53 0 50 3T47 14L119 520Q120 527 121 528T129 530H174Q179 530 182 527T185 517L113 13ZM138 649Q137 641 135 639T123 637H81Q73 637 71 640T69 650L80 732Q81 739 83 740T90 742H139Q145
742 148 739T149 729L138 649ZM270 649Q269 641 267 639T255 637H213Q205 637 203 640T201 650L212 732Q213 739 215 740T222 742H271Q277 742 280 739T281 729L270 649Z" />
<glyph unicode="&#xf0;" horiz-adv-x="598" d="M546 256Q536 178 498 118T399 24T261 -10Q187 -10 136 24T61 118T49 255Q60 333 99 392T197 486T325 520Q371 520 406 506T465 465Q450 513 420 557T338 640L168 550Q164 547 161 550T155 557L147 573Q142 582 148
585L303 665Q281 678 256 690T204 716Q199 716 197 720T199 727L231 748Q237 752 240 752T248 748Q281 736 308 723T359 693L466 751Q470 753 473 751T476 747L487 722Q488 720 488 718T487 714L394 668Q497 591 530 486T546 256V256ZM267 43Q320 43 365 71T440
147T479 258Q488 318 472 365T419 440T331 468Q278 468 232 440T156 362T116 251Q108 192 124 145T178 70T267 43V43Z" />
<glyph unicode="&#xf1;" horiz-adv-x="581" d="M58 0Q52 0 49 4T47 13L119 521Q120 527 121 528T128 530H174Q179 530 181 528T182 520L173 461Q172 450 181 457Q231 497 279 518T379 540Q451 540 487 506T524 415Q524 409 524 403T522 389L469 11Q468 5 466 3T456
0H413Q407 0 405 4T403 13L454 374Q455 381 455 388T456 401Q456 442 433 463T360 485Q328 485 299 476T239 447T169 398L113 10Q112 4 110 2T100 0H58V0ZM499 681Q487 674 469 668T424 662Q397 662 379 668T344 681T306 687Q283 687 271 678T244 664Q238 663 236
665T231 673L225 695Q224 700 224 703T227 708Q244 719 261 726T302 733Q327 733 346 727T385 714T425 707Q438 707 447 710T465 718T483 727Q490 730 494 728T499 719L504 694Q505 690 505 687T499 681V681Z" />
<glyph unicode="&#xf2;" horiz-adv-x="598" d="M263 -10Q196 -10 147 18T73 96T47 214Q47 285 69 344T131 448T224 516T336 540Q403 540 451 511T525 431T551 311Q551 218 513 146T409 32T263 -10V-10ZM267 43Q329 43 378 77T455 174T484 319Q484 398 445 443T334
488Q273 488 223 453T144 356T114 211Q114 133 154 88T267 43V43ZM238 746Q239 749 242 749T247 749L464 656Q468 654 469 651T469 643L458 622Q457 618 455 618T445 618L228 690Q220 692 219 696T219 705L238 746V746Z" />
<glyph unicode="&#xf3;" horiz-adv-x="598" d="M263 -10Q196 -10 147 18T73 96T47 214Q47 285 69 344T131 448T224 516T336 540Q403 540 451 511T525 431T551 311Q551 218 513 146T409 32T263 -10V-10ZM267 43Q329 43 378 77T455 174T484 319Q484 398 445 443T334
488Q273 488 223 453T144 356T114 211Q114 133 154 88T267 43V43ZM491 705Q493 700 492 697T483 691L244 618Q239 616 235 618T231 626L226 645Q225 655 230 656L473 751Q476 752 479 751T483 745L491 705Z" />
<glyph unicode="&#xf4;" horiz-adv-x="598" d="M263 -10Q196 -10 147 18T73 96T47 214Q47 285 69 344T131 448T224 516T336 540Q403 540 451 511T525 431T551 311Q551 218 513 146T409 32T263 -10V-10ZM267 43Q329 43 378 77T455 174T484 319Q484 398 445 443T334
488Q273 488 223 453T144 356T114 211Q114 133 154 88T267 43V43ZM369 693Q362 700 360 699T349 692L282 642Q275 638 272 637T264 636H216Q210 636 209 640T214 648L327 735Q332 740 337 742T351 744H381Q388 744 391 740T398 733L486 646Q491 641 491 639T484
636H434Q429 636 426 638T418 644L369 693Z" />
<glyph unicode="&#xf5;" horiz-adv-x="598" d="M263 -10Q196 -10 147 18T73 96T47 214Q47 285 69 344T131 448T224 516T336 540Q403 540 451 511T525 431T551 311Q551 218 513 146T409 32T263 -10V-10ZM267 43Q329 43 378 77T455 174T484 319Q484 398 445 443T334
488Q273 488 223 453T144 356T114 211Q114 133 154 88T267 43V43ZM496 681Q484 674 466 668T421 662Q394 662 376 668T341 681T303 687Q280 687 268 678T241 664Q235 663 233 665T228 673L222 695Q221 700 221 703T224 708Q241 719 258 726T299 733Q324 733 343
727T382 714T422 707Q435 707 444 710T462 718T480 727Q487 730 491 728T496 719L501 694Q502 690 502 687T496 681V681Z" />
<glyph unicode="&#xf6;" horiz-adv-x="598" d="M263 -10Q196 -10 147 18T73 96T47 214Q47 285 69 344T131 448T224 516T336 540Q403 540 451 511T525 431T551 311Q551 218 513 146T409 32T263 -10V-10ZM267 43Q329 43 378 77T455 174T484 319Q484 398 445 443T334
488Q273 488 223 453T144 356T114 211Q114 133 154 88T267 43V43ZM323 649Q322 641 320 639T308 637H266Q258 637 256 640T254 650L265 732Q266 739 268 740T275 742H324Q330 742 333 739T334 729L323 649ZM455 649Q454 641 452 639T440 637H398Q390 637 388 640T386
650L397 732Q398 739 400 740T407 742H456Q462 742 465 739T466 729L455 649Z" />
<glyph unicode="&#xf7;" horiz-adv-x="551" d="M312 167Q311 160 308 158T296 156H224Q217 156 215 159T213 169L223 242Q224 248 226 249T231 251H314Q318 251 320 249T322 240L312 167ZM498 355Q498 349 495 348T485 346L88 345Q83 345 80 348T78 357L83 392Q84
397 85 398T90 400H495Q498 400 501 397T504 390L498 355ZM359 506Q358 498 356 496T344 494H272Q265 494 262 498T260 508L271 581Q272 587 273 588T279 590H361Q366 590 368 587T370 578L359 506Z" />
<glyph unicode="&#xf8;" horiz-adv-x="580" d="M22 4Q17 -1 12 0T2 7L-8 20Q-13 26 -13 31T-7 42L556 525Q562 530 566 529T574 523L588 506Q592 502 593 498T589 490L22 4ZM253 -10Q186 -10 137 18T62 96T36 214Q36 285 58 344T121 448T213 516T326 540Q393 540
441 511T514 431T540 311Q540 218 502 146T398 32T253 -10V-10ZM256 43Q318 43 367 77T444 174T473 319Q473 398 434 443T324 488Q263 488 213 453T133 356T104 211Q104 133 144 88T256 43V43Z" />
<glyph unicode="&#xf9;" horiz-adv-x="576" d="M201 -10Q137 -10 97 25T57 119Q57 125 57 131T58 142L111 519Q112 525 115 527T123 530H166Q172 530 175 527T177 516L127 161Q126 154 126 148T125 137Q125 89 149 67T219 45Q266 45 312 71T409 141L463 520Q464
526 466 528T475 530H517Q524 530 527 527T529 516L457 9Q456 4 455 2T447 0H404Q399 0 396 2T394 10L403 68Q404 74 402 75T394 72Q329 23 285 7T201 -10V-10ZM210 746Q211 749 214 749T219 749L436 656Q440 654 441 651T441 643L430 622Q429 618 427 618T417
618L200 690Q192 692 191 696T191 705L210 746V746Z" />
<glyph unicode="&#xfa;" horiz-adv-x="576" d="M201 -10Q137 -10 97 25T57 119Q57 125 57 131T58 142L111 519Q112 525 115 527T123 530H166Q172 530 175 527T177 516L127 161Q126 154 126 148T125 137Q125 89 149 67T219 45Q266 45 312 71T409 141L463 520Q464
526 466 528T475 530H517Q524 530 527 527T529 516L457 9Q456 4 455 2T447 0H404Q399 0 396 2T394 10L403 68Q404 74 402 75T394 72Q329 23 285 7T201 -10V-10ZM463 705Q465 700 464 697T455 691L216 618Q211 616 207 618T203 626L198 645Q197 655 202 656L445
751Q448 752 451 751T455 745L463 705Z" />
<glyph unicode="&#xfb;" horiz-adv-x="576" d="M201 -10Q137 -10 97 25T57 119Q57 125 57 131T58 142L111 519Q112 525 115 527T123 530H166Q172 530 175 527T177 516L127 161Q126 154 126 148T125 137Q125 89 149 67T219 45Q266 45 312 71T409 141L463 520Q464
526 466 528T475 530H517Q524 530 527 527T529 516L457 9Q456 4 455 2T447 0H404Q399 0 396 2T394 10L403 68Q404 74 402 75T394 72Q329 23 285 7T201 -10V-10ZM341 693Q334 700 332 699T321 692L254 642Q247 638 244 637T236 636H188Q182 636 181 640T186 648L299
735Q304 740 309 742T323 744H353Q360 744 363 740T370 733L458 646Q463 641 463 639T456 636H406Q401 636 398 638T390 644L341 693Z" />
<glyph unicode="&#xfc;" horiz-adv-x="576" d="M201 -10Q137 -10 97 25T57 119Q57 125 57 131T58 142L111 519Q112 525 115 527T123 530H166Q172 530 175 527T177 516L127 161Q126 154 126 148T125 137Q125 89 149 67T219 45Q266 45 312 71T409 141L463 520Q464
526 466 528T475 530H517Q524 530 527 527T529 516L457 9Q456 4 455 2T447 0H404Q399 0 396 2T394 10L403 68Q404 74 402 75T394 72Q329 23 285 7T201 -10V-10ZM295 649Q294 641 292 639T280 637H238Q230 637 228 640T226 650L237 732Q238 739 240 740T247 742H296Q302
742 305 739T306 729L295 649ZM427 649Q426 641 424 639T412 637H370Q362 637 360 640T358 650L369 732Q370 739 372 740T379 742H428Q434 742 437 739T438 729L427 649Z" />
<glyph unicode="&#xfd;" horiz-adv-x="521" d="M44 -165Q16 -165 0 -164T-15 -153L-11 -124Q-10 -117 -3 -115T22 -112H81Q103 -112 124 -96T161 -57T185 -9T187 34L63 514Q60 530 74 530H124Q134 530 135 522L238 111Q241 101 245 101T256 113L470 519Q473 525
476 527T484 530H522Q534 530 526 519L221 -58Q204 -89 185 -109T145 -142T98 -160T44 -165V-165ZM456 705Q458 700 457 697T448 691L209 618Q204 616 200 618T196 626L191 645Q190 655 195 656L438 751Q441 752 444 751T448 745L456 705Z" />
<glyph unicode="&#xfe;" horiz-adv-x="592" d="M200 742Q207 742 210 738T212 727L176 469Q175 461 177 462T187 470Q198 480 219 496T274 526T355 540Q419 540 465 511T534 421T543 270Q530 184 493 121T399 24T272 -10Q222 -10 189 6T136 42Q119 55 116 32L90
-155Q89 -161 88 -163T80 -165H34Q30 -165 27 -161T24 -152L148 730Q150 738 152 740T163 742H200V742ZM126 110Q154 78 186 60T260 41Q313 41 358 68T434 148T475 275Q486 350 469 397T417 466T335 489Q290 489 252 469T190 420T163 362L126 110V110Z" />
<glyph unicode="&#xff;" horiz-adv-x="521" d="M44 -165Q16 -165 0 -164T-15 -153L-11 -124Q-10 -117 -3 -115T22 -112H81Q103 -112 124 -96T161 -57T185 -9T187 34L63 514Q60 530 74 530H124Q134 530 135 522L238 111Q241 101 245 101T256 113L470 519Q473 525
476 527T484 530H522Q534 530 526 519L221 -58Q204 -89 185 -109T145 -142T98 -160T44 -165V-165ZM289 649Q288 641 286 639T274 637H232Q224 637 222 640T220 650L231 732Q232 739 234 740T241 742H290Q296 742 299 739T300 729L289 649ZM421 649Q420 641 418
639T406 637H364Q356 637 354 640T352 650L363 732Q364 739 366 740T373 742H422Q428 742 431 739T432 729L421 649Z" />
<glyph unicode="&#x2013;" horiz-adv-x="551" d="M482 240Q482 234 479 233T468 231L72 230Q66 230 64 233T61 242L67 278Q68 283 69 284T74 286L478 287Q482 287 485 284T487 277L482 240Z" />
<glyph unicode="&#x2014;" horiz-adv-x="873" d="M804 240Q803 234 800 233T790 231L72 230Q66 230 64 233T61 242L67 278Q68 283 69 284T74 286L800 287Q804 287 807 284T809 277L804 240Z" />
<glyph unicode="&#x2018;" horiz-adv-x="217" d="M268 742Q275 742 272 734L213 640Q204 623 217 622H234Q241 621 242 620T243 614L232 534Q231 530 228 527T221 524H136Q132 524 131 525T131 530L140 603Q141 605 142 607T144 610L234 733Q236 737 241 739T251
742H268V742Z" />
<glyph unicode="&#x2019;" horiz-adv-x="217" d="M90 524Q83 524 86 532L145 626Q154 643 140 644L124 645Q118 645 117 646T115 653L126 732Q127 736 130 739T137 742H222Q226 742 227 741T227 736L218 663Q217 661 216 660T214 656L124 533Q122 529 117 527T106
524H90V524Z" />
<glyph unicode="&#x201a;" horiz-adv-x="217" d="M0 -121Q-9 -121 -4 -113L55 -18Q63 -1 50 0H33Q27 0 26 1T25 8L36 87Q37 91 40 94T46 97H131Q135 97 136 96T137 91L127 19Q126 16 125 15T123 11L34 -111Q32 -116 27 -118T16 -121H0V-121Z" />
<glyph unicode="&#x201c;" horiz-adv-x="381" d="M262 524Q258 524 257 525T256 530L267 603Q267 605 268 607T271 610L360 733Q363 737 368 739T378 742H394Q403 742 398 734L339 640Q331 623 344 622H361Q367 621 368 620T369 614L357 534Q357 530 354 527T347
524H262V524ZM98 524Q94 524 93 525T93 530L103 603Q103 605 104 607T107 610L196 733Q199 737 204 739T214 742H230Q239 742 234 734L175 640Q167 623 180 622H197Q204 621 205 620T205 614L194 534Q193 530 190 527T183 524H98V524Z" />
<glyph unicode="&#x201d;" horiz-adv-x="382" d="M253 524Q247 524 250 532L308 626Q317 643 304 644L287 645Q282 645 281 646T279 653L290 732Q291 736 294 739T301 742H386Q390 742 391 741T391 736L382 663Q381 661 380 660T378 656L288 533Q286 529 281 527T270
524H253V524ZM90 524Q83 524 86 532L145 626Q154 643 140 644L124 645Q118 645 117 646T115 653L126 732Q127 736 130 739T137 742H222Q226 742 227 741T227 736L218 663Q217 661 216 660T214 656L124 533Q122 529 117 527T106 524H90V524Z" />
<glyph unicode="&#x201e;" horiz-adv-x="345" d="M127 -121Q118 -121 123 -113L182 -18Q190 -1 177 0H160Q154 0 153 1T152 8L163 87Q164 91 167 94T173 97H258Q262 97 263 96T264 91L254 19Q253 16 252 15T250 11L161 -111Q159 -116 154 -118T143 -121H127V-121ZM219
-121Q210 -121 215 -113L274 -18Q282 -1 269 0H252Q246 0 245 1T244 8L255 87Q256 91 259 94T265 97H350Q354 97 355 96T356 91L346 19Q345 16 344 15T342 11L253 -111Q251 -116 246 -118T235 -121H219V-121Z" />
<glyph unicode="&#x2022;" horiz-adv-x="304" d="M159 292Q135 292 116 304T88 336T83 380Q86 404 99 422T133 451T177 462Q201 462 219 450T246 418T252 374Q249 351 236 333T202 303T159 292V292Z" />
<glyph unicode="&#x2039;" horiz-adv-x="261" d="M184 80Q186 76 185 76T178 75H156Q153 75 150 77T147 82L40 249Q38 254 37 258T39 267L197 445Q199 448 200 448T205 448H229Q233 448 236 445T236 437L107 262Q104 259 103 256T103 248L184 80Z" />
<glyph unicode="&#x203a;" horiz-adv-x="262" d="M153 252Q156 255 157 258T157 266L76 440Q75 445 76 446T81 448H105Q110 448 114 441L221 264Q224 260 224 256T220 246L65 78Q63 77 62 76T56 75H34Q29 75 26 77T25 83L153 252V252Z" />
</font>
</defs>
</svg>
