<?xml version="1.0" standalone="no"?>
<!DOCTYPE svg PUBLIC "-//W3C//DTD SVG 1.1//EN" "http://www.w3.org/Graphics/SVG/1.1/DTD/svg11.dtd">
<svg xmlns="http://www.w3.org/2000/svg">
<defs >
<font id="LibreFranklin" horiz-adv-x="567" ><font-face
    font-family="Libre Franklin Thin"
    units-per-em="1000"
    panose-1="0 0 0 0 0 0 0 0 0 0"
    ascent="966"
    descent="-246"
    alphabetic="0" />
<glyph unicode=" " horiz-adv-x="214" />
<glyph unicode="!" horiz-adv-x="244" d="M137 14Q136 5 133 3T119 0H50Q41 0 38 4T35 17L47 101Q49 108 51 109T57 111H139Q145 111 147 108T150 98L137 14ZM141 192Q139 185 136 183T125 180H96Q89 180 86 184T83 195L138 733Q139 739 140 740T146 742H228Q233
742 235 738T238 729L141 192Z" />
<glyph unicode="&quot;" horiz-adv-x="409" d="M316 524Q314 517 312 515T300 512H275Q268 512 265 516T262 526L267 734Q267 739 269 740T275 742H361Q366 742 369 739T371 730L316 524ZM403 524Q401 517 399 515T387 512H362Q355 512 352 516T349 526L354 734Q354
739 356 740T362 742H448Q453 742 456 739T458 730L403 524Z" />
<glyph unicode="#" horiz-adv-x="603" d="M139 11Q138 3 135 1T125 0L97 5Q90 6 87 9T85 18L294 733Q297 738 299 740T304 742L338 737Q343 736 346 732T348 722L139 11ZM348 11Q346 3 344 1T334 0L306 5Q299 6 296 9T294 18L503 733Q505 738 507 740T513 742L546
737Q552 736 555 732T557 722L348 11ZM534 253Q533 246 530 244T518 242H46Q39 242 36 246T33 257L37 287Q38 293 40 294T46 296H530Q534 296 537 293T539 284L534 253ZM597 463Q596 456 593 454T581 452H108Q101 452 98 456T96 467L100 497Q101 503 103 504T109
506H593Q597 506 599 503T601 494L597 463Z" />
<glyph unicode="$" horiz-adv-x="605" d="M555 180Q548 127 517 86T435 20T322 -8Q313 -8 310 -11T305 -20L297 -76Q296 -83 294 -85T284 -87H248Q241 -87 238 -83T236 -74L244 -15Q245 -9 244 -9T240 -8Q155 -6 105 23T21 107Q16 113 14 118T18 127L55 158Q61
162 67 160T75 152Q104 111 141 88T241 61Q248 61 252 64T257 72L291 317Q293 326 290 331T278 341Q205 368 163 397T107 464T100 551Q107 604 138 645T220 713T335 748Q341 748 346 752T353 760L359 809Q361 814 362 815T367 816H408Q414 816 417 812T420 801L413
752Q412 749 413 748T418 745Q476 739 517 716T590 656Q595 654 597 649T593 639L553 603Q548 598 545 600T536 612Q518 635 487 652T416 677Q409 678 405 674T400 665L365 415Q364 408 365 407T373 403L409 390Q462 369 496 339T547 269T555 180V180ZM340 672Q341
677 340 678T333 677Q270 671 228 636T179 548Q176 524 184 504T215 466T282 426Q292 424 299 428T308 443L340 672ZM317 66Q316 62 317 62T322 63Q384 64 426 98T475 182Q482 226 458 256T371 312Q352 316 349 300L317 66V66Z" />
<glyph unicode="%" horiz-adv-x="916" d="M294 753Q345 753 381 727T433 652T439 537Q430 472 402 426T333 354T242 329Q191 329 154 355T101 430T95 545Q104 610 132 656T203 728T294 753V753ZM240 378Q275 378 303 399T349 458T375 544Q385 616 364 660T293
705Q259 705 231 684T184 624T158 536Q149 466 169 422T240 378V378ZM706 414Q756 414 792 388T844 313T851 198Q842 133 814 87T744 15T654 -10Q603 -10 567 16T514 91T507 207Q517 271 545 317T615 389T706 414V414ZM653 39Q687 39 714 60T761 119T787 206Q794
252 786 288T758 345T706 366Q672 366 644 344T597 283T571 197Q565 151 572 115T600 59T653 39V39ZM196 3Q191 -2 188 -3T176 -4H150Q141 -4 140 3T142 17L729 745Q733 751 736 751T745 750H778Q783 750 786 747T785 737L196 3Z" />
<glyph unicode="&amp;" horiz-adv-x="778" d="M403 753Q458 753 498 734T559 681T573 598Q568 564 545 529T480 462T372 401Q354 397 362 385L492 202Q497 197 500 199T511 210Q531 226 554 250T600 300T638 351T664 394Q667 398 671 398T681 396L719 382Q724
381 727 375T728 362Q714 334 687 298T625 223T555 149Q549 145 547 142T549 133Q566 117 592 104T648 83T707 74Q717 74 721 70T724 59L718 16Q717 6 714 3T701 0Q662 0 620 12T542 42T482 83Q476 87 472 85T462 76Q408 36 350 16T227 -5Q123 -5 70 49T30 194Q38
252 79 301T208 400Q221 405 223 410T219 426Q191 459 179 496T172 573Q179 625 211 665T294 729T403 753V753ZM404 693Q364 693 333 676T283 630T259 569Q256 546 262 524T285 478L308 448Q311 445 316 446T326 451Q408 487 448 523T494 606Q501 650 474 671T404
693V693ZM282 345Q276 353 270 352T255 345Q200 322 164 280T121 189Q113 133 148 98T245 62Q289 62 333 81T411 129Q419 133 422 138T422 150L282 345V345Z" />
<glyph unicode="&apos;" horiz-adv-x="240" d="M184 524Q182 517 180 515T168 512H143Q136 512 133 516T130 526L135 734Q135 739 137 740T143 742H229Q234 742 237 739T239 730L184 524Z" />
<glyph unicode="(" horiz-adv-x="286" d="M156 -165Q146 -165 145 -154Q113 -84 92 -16T65 128T71 289Q88 413 143 528T273 738Q280 742 291 742H325Q331 742 332 738T332 729Q290 664 254 591T191 439T152 280Q136 168 148 61T196 -159Q203 -165 193 -165H156V-165Z" />
<glyph unicode=")" horiz-adv-x="286" d="M-32 -165Q-37 -165 -39 -161T-40 -152Q2 -87 39 -14T102 138T140 297Q156 410 144 516T96 736Q90 742 100 742H137Q146 742 148 731Q180 661 200 593T227 449T221 288Q204 164 149 50T19 -161Q13 -165 2 -165H-32V-165Z" />
<glyph unicode="*" horiz-adv-x="380" d="M236 533Q235 534 234 532T230 528L138 409Q136 406 133 407T126 412L95 436Q91 439 90 442T92 449L193 555Q194 558 195 559T192 561L81 595Q78 596 77 599T76 608L95 645Q98 648 99 648T105 646L209 603Q212 601 215
604T219 610L228 736Q229 739 230 740T237 742H283Q287 742 290 738T291 732L266 605Q265 602 266 602T270 603L389 652Q395 654 397 652T400 644L408 609Q408 603 408 602T403 598L284 561Q281 560 279 557T277 551L344 451Q347 447 347 443T341 435L307 413Q301
410 297 412T292 417L236 533Z" />
<glyph unicode="+" horiz-adv-x="557" d="M508 351Q507 344 504 342T492 340L87 339Q80 339 77 343T74 354L80 397Q82 402 83 404T89 406H504Q508 406 511 403T514 394L508 351ZM246 156Q239 156 236 161T233 174L289 579Q291 587 293 588T301 590H344Q350 590
353 587T355 579L298 163Q297 159 296 158T289 156H246Z" />
<glyph unicode="," horiz-adv-x="212" d="M-8 -143Q-17 -143 -10 -131L52 -18Q56 -9 54 -5T44 0H30Q23 0 21 2T20 10L33 99Q33 104 36 108T45 112H128Q138 112 136 100L124 23Q123 18 122 14T119 8L26 -130Q21 -137 17 -140T5 -143H-8V-143Z" />
<glyph unicode="-" horiz-adv-x="381" d="M315 243Q314 236 311 234T299 231H72Q65 231 62 235T59 245L65 289Q67 295 68 296T74 298L312 299Q316 299 319 295T322 287L315 243Z" />
<glyph unicode="." horiz-adv-x="209" d="M120 14Q118 5 115 3T101 0H32Q23 0 20 4T17 17L30 102Q31 109 33 111T39 113H122Q127 113 129 109T132 99L120 14Z" />
<glyph unicode="/" horiz-adv-x="342" d="M-21 -43Q-27 -43 -29 -40T-31 -33L328 735Q331 739 334 740T341 742H385Q393 742 395 737T394 724L40 -33Q37 -40 33 -41T23 -43H-21V-43Z" />
<glyph unicode="0" horiz-adv-x="688" d="M409 752Q479 752 531 719T613 620T643 460Q643 438 642 415T636 365Q619 242 571 159T456 34T309 -9Q239 -9 186 23T104 120T74 277Q74 299 76 323T81 372Q95 465 125 535T200 654T297 727T409 752V752ZM313 64Q369 64
414 95T492 195T539 373Q544 404 546 431T548 481Q548 586 510 632T407 679Q352 679 306 647T226 545T178 364Q174 335 172 309T169 260Q169 157 208 111T313 64V64Z" />
<glyph unicode="1" horiz-adv-x="465" d="M386 76Q398 76 396 66L387 9Q386 4 384 2T376 0H24Q18 0 16 2T15 10L23 68Q24 73 25 74T32 76H160Q168 76 169 84L247 633Q248 638 246 639T239 638L109 593Q94 589 97 603L103 645Q104 653 106 656T114 662L271 735Q282
740 288 741T302 742H347Q358 742 356 729L265 82Q264 76 270 76H386V76Z" />
<glyph unicode="2" horiz-adv-x="599" d="M295 312Q351 360 393 402T459 485T483 568Q483 605 465 629T418 665T355 677Q310 677 259 653T168 575Q163 568 155 573L100 610Q97 613 97 617T104 628Q155 691 226 721T365 752Q424 752 471 733T547 674T575 574Q575
516 551 468T482 375T378 281L153 93Q147 89 147 85T155 81H503Q516 81 514 70L506 10Q505 5 503 3T494 0H30Q13 0 15 18L20 60Q21 67 23 72T32 84T51 101L295 312Z" />
<glyph unicode="3" horiz-adv-x="641" d="M129 641Q122 650 130 658Q167 690 206 710T286 741T373 752Q480 752 540 705T601 585Q601 541 581 504T525 439T444 395Q439 394 439 392T445 387Q500 373 536 331T573 228Q573 159 536 105T429 21T262 -10Q198 -10 154
5T78 45T24 100Q18 109 23 113L74 149Q77 152 80 152T85 149Q119 103 166 83T269 63Q329 63 376 83T452 139T480 225Q480 267 457 295T395 337T312 351L221 352Q209 352 211 361L218 416Q219 423 229 423L301 424Q355 424 402 444T478 499T507 577Q507 622 470
651T370 680Q327 680 294 669T234 640T180 601Q170 594 162 603L129 641V641Z" />
<glyph unicode="4" horiz-adv-x="649" d="M451 733Q456 739 460 740T474 742H545Q557 742 555 729L492 278Q491 271 497 271H593Q600 271 603 269T605 260L598 210Q597 204 595 202T584 199H489Q480 199 478 189L454 12Q453 5 450 3T438 0H370Q356 0 358 14L383
192Q385 199 376 199H49Q36 199 38 212L46 266Q47 274 50 280T64 298L451 733V733ZM384 271Q392 271 393 280L441 618Q443 632 428 614L136 283Q130 276 131 274T136 271H384Z" />
<glyph unicode="5" horiz-adv-x="654" d="M613 742Q621 742 623 739T624 728L612 671Q611 666 608 664T598 662H256Q250 662 248 660T243 651L195 431Q194 426 196 424T202 424Q240 442 282 456T378 470Q439 470 488 450T568 387T598 279Q598 192 556 127T441
26T278 -10Q226 -10 181 2T99 38T33 98Q28 105 28 108T34 115L80 148Q84 152 88 150T97 143Q125 112 165 87T269 62Q338 62 390 89T472 164T502 272Q502 314 483 342T431 383T356 397Q320 397 288 388T228 364T175 336Q170 334 166 334T156 338L109 368Q104 373
104 378T105 392L181 730Q183 739 186 740T202 742H613Z" />
<glyph unicode="6" horiz-adv-x="661" d="M434 751Q468 751 498 743T552 720T593 686T619 647Q621 641 615 637L557 613Q550 610 540 625Q523 650 498 664T432 679Q359 679 307 643T223 546T181 408Q180 403 180 400T179 394Q179 390 183 390T192 393Q233 411
280 427T386 443Q456 443 504 419T578 353T604 257Q604 199 581 151T518 66T425 11T314 -9Q237 -9 184 24T102 120T73 272Q73 293 74 316T80 364Q97 486 145 572T267 705T434 751V751ZM371 373Q344 373 311 367T247 350T194 326Q173 313 168 295T163 244Q163 212
171 180T198 120T246 77T316 61Q369 61 412 87T482 156T509 249Q509 303 474 338T371 373V373Z" />
<glyph unicode="7" horiz-adv-x="599" d="M608 742Q616 742 618 738T620 728L614 692Q613 683 609 673T596 654Q548 595 501 526T412 385T333 243T272 115T234 15Q233 7 230 4T219 0H139Q131 0 129 6T129 22Q151 76 184 146T263 298T368 469T499 651Q503 656 502
659T494 662H108Q102 662 100 665T99 675L113 733Q115 738 118 740T127 742H608Z" />
<glyph unicode="8" horiz-adv-x="668" d="M399 752Q465 752 515 730T592 668T619 572Q619 532 605 501T569 446T527 408T493 383Q487 379 487 376T493 369Q508 362 527 351T563 322T591 278T603 212Q603 158 579 116T513 47T415 5T294 -10Q219 -10 164 10T78 70T48
167Q48 217 68 254T121 320T192 371Q198 375 199 378T193 387Q173 401 156 416T128 455T118 514Q118 580 155 634T255 720T399 752V752ZM397 682Q343 682 300 660T233 603T209 526Q209 489 231 468T296 434L391 409Q410 404 434 416T482 453T520 509T535 572Q535
622 498 652T397 682V682ZM300 60Q363 60 409 79T482 131T508 208Q508 246 486 272T417 312L288 347Q276 351 251 339T198 302T153 244T134 171Q134 121 178 91T300 60V60Z" />
<glyph unicode="9" horiz-adv-x="658" d="M257 -9Q218 -9 187 0T132 23T92 56T67 93Q63 101 70 105L126 127Q137 132 144 118Q162 91 189 77T260 63Q331 63 382 98T465 195T507 334Q508 347 505 349T494 348Q453 329 408 314T305 299Q235 299 187 323T113 389T88
487Q88 545 111 593T175 677T267 732T377 751Q453 751 506 718T587 623T615 471Q615 378 592 292T523 137T411 30T257 -9V-9ZM318 369Q347 369 379 376T441 395T494 422Q515 434 521 452T527 502Q527 533 519 565T492 623T445 665T376 681Q324 681 280 656T210
588T183 494Q183 441 219 405T318 369V369Z" />
<glyph unicode=":" horiz-adv-x="209" d="M175 409Q174 401 171 398T157 395H87Q79 395 76 400T73 412L85 497Q86 503 88 505T95 507H177Q183 507 186 504T187 493L175 409ZM120 17Q119 8 116 6T101 3H32Q23 3 20 8T18 20L30 104Q31 111 33 112T39 114H122Q127
114 130 111T132 101L120 17Z" />
<glyph unicode=";" horiz-adv-x="229" d="M-4 -144Q-9 -144 -11 -139T-12 -127L50 -14Q55 -6 55 -3T47 0H34Q27 0 24 4T21 14L33 104Q34 109 36 110T42 112H126Q131 112 133 108T135 100L124 18Q123 10 121 5L28 -135Q24 -140 19 -142T7 -144H-4V-144ZM87 393Q78
393 75 398T72 410L85 496Q86 503 88 504T95 506H177Q182 506 185 503T187 492L175 407Q173 398 170 396T156 393H87V393Z" />
<glyph unicode="&lt;" horiz-adv-x="544" d="M464 170Q462 159 457 157T443 158L75 311Q69 314 65 318T62 329L70 385Q71 393 74 396T84 401L495 555Q506 560 512 554T516 539L510 493Q509 486 504 482T487 473L168 355L450 237Q461 232 466 227T470 212L464 170Z" />
<glyph unicode="=" horiz-adv-x="557" d="M522 450Q521 443 518 441T506 439L101 438Q94 438 91 442T88 452L94 495Q95 501 97 502T103 504L518 505Q522 505 525 502T528 493L522 450ZM491 224Q489 217 486 215T475 213L69 212Q62 212 59 216T57 227L62 270Q64
276 65 277T71 279H486Q491 279 494 276T496 267L491 224Z" />
<glyph unicode="&gt;" horiz-adv-x="544" d="M60 217Q61 225 66 229T83 238L401 355L119 474Q97 484 99 498L105 543Q107 562 127 554L494 400Q501 398 504 393T507 381L499 325Q499 318 496 316T485 310L76 157Q66 153 59 158T54 175L60 217V217Z" />
<glyph unicode="?" horiz-adv-x="523" d="M262 14Q261 5 258 3T244 0H174Q166 0 163 4T160 17L172 101Q173 108 174 109T182 111H264Q269 111 272 108T274 98L262 14ZM83 605Q78 607 77 611T77 622Q118 684 185 718T329 752Q398 752 446 729T516 664T532 568Q525
518 499 481T438 412T368 349T306 280T273 191Q271 183 262 183H213Q207 183 203 188T201 202Q208 258 233 299T292 373T358 436T415 499T445 574Q452 626 420 656T327 686Q293 686 258 673T194 638T150 588Q148 586 146 586T138 587L83 605Z" />
<glyph unicode="@" horiz-adv-x="834" d="M614 -49Q566 -78 508 -95T385 -113Q293 -113 225 -84T114 -2T54 118T48 266Q59 346 97 417T196 543T334 630T502 661Q567 661 628 642T735 584T802 482T812 335Q802 260 769 203T689 113T587 81Q560 81 542 87T515 107T502
138Q501 144 498 142T491 131Q464 103 428 85T344 67Q305 67 276 89T232 152T225 248Q234 311 265 362T344 444T448 475Q490 475 516 456T554 408Q557 407 560 409T565 417L576 446Q578 449 579 449T583 449H628Q632 449 634 447T636 440L567 218Q553 173 560 157T592
141Q626 141 658 165T714 233T747 338Q757 410 739 460T685 542T600 587T500 602Q419 602 352 575T235 499T154 389T113 255Q104 190 117 134T165 35T259 -32T399 -56Q444 -56 475 -48T532 -26T584 4Q592 8 597 6T604 -2L620 -28Q625 -35 622 -40T614 -49V-49ZM297
243Q290 191 306 160T359 129Q394 129 426 149T482 203T516 275Q529 321 522 351T495 397T450 413Q412 413 380 390T326 329T297 243V243Z" />
<glyph unicode="A" horiz-adv-x="727" d="M16 0Q10 0 8 5T10 19L370 730Q374 737 379 739T392 742H470Q480 742 484 737T489 725L646 15Q647 9 645 5T636 0H565Q552 0 551 13L508 205Q507 212 498 212H207Q198 212 194 203L94 7Q93 3 90 2T80 0H16V0ZM483 288Q495
288 492 301L418 630Q416 640 412 640T403 628L236 301Q233 293 233 291T239 288H483Z" />
<glyph unicode="B" horiz-adv-x="699" d="M71 0Q65 0 63 3T62 14L162 729Q164 742 177 742H406Q528 742 594 700T660 575Q660 500 619 453T505 382Q499 380 499 377T504 372Q563 358 596 322T629 226Q629 161 603 118T533 48T434 11T318 0H71V0ZM313 70Q352 70
390 77T461 101T511 149T530 228Q530 268 509 292T452 328T367 339H217Q210 339 207 336T201 327L167 81Q166 75 168 73T176 70H313ZM372 411Q425 411 468 428T537 479T563 564Q563 620 519 646T399 672H263Q256 672 253 669T248 659L215 422Q214 416 216 414T223
411H372Z" />
<glyph unicode="C" horiz-adv-x="707" d="M444 752Q513 752 568 723T655 647T688 542Q688 530 678 530L606 525Q598 525 596 541Q591 603 550 641T442 679Q382 679 337 654T260 587T209 493T181 384T172 275Q172 171 217 119T353 66Q425 66 479 101T571 211Q574
218 586 214L645 198Q652 195 646 180Q633 153 613 125T566 73T504 31T431 1T346 -10Q259 -10 198 26T106 128T74 287Q74 353 87 419T129 545T202 652T306 725T444 752V752Z" />
<glyph unicode="D" horiz-adv-x="722" d="M76 0Q69 0 65 5T62 18L162 732Q164 738 167 740T177 742H328Q448 742 525 709T641 612T679 455Q679 311 628 210T477 54T228 0H76V0ZM234 72Q357 72 433 117T544 249T579 459Q579 537 551 583T466 649T323 669H261Q249
669 247 656L169 87Q168 79 170 76T180 72H234Z" />
<glyph unicode="E" horiz-adv-x="628" d="M163 731Q164 738 166 740T174 742H626Q636 742 633 729L626 679Q625 673 623 671T612 668H260Q254 668 252 666T248 657L214 419Q213 415 215 413T222 411H486Q491 411 492 409T493 400L485 346Q484 338 474 338H212Q203
338 201 326L167 83Q166 74 174 74H543Q550 74 552 72T553 63L546 9Q545 3 543 2T535 0H75Q60 0 62 17L163 731V731Z" />
<glyph unicode="F" horiz-adv-x="601" d="M163 730Q164 738 166 740T175 742H616Q627 742 624 731L617 679Q616 673 614 671T604 668H260Q254 668 252 666T248 655L213 410Q212 404 213 402T221 399H491Q496 399 498 398T499 391L493 337Q492 332 490 330T481
327H211Q205 327 203 325T199 314L157 11Q156 4 153 2T143 0H71Q63 0 62 3T62 17L163 730V730Z" />
<glyph unicode="G" horiz-adv-x="739" d="M340 -10Q255 -10 196 25T105 127T74 285Q74 378 98 462T170 611T286 714T444 752Q514 752 569 723T657 648T690 547Q690 536 684 535L608 523Q604 522 603 526T600 539Q597 578 578 609T523 660T440 679Q370 679 320
645T237 552T189 422T173 275Q173 168 217 116T348 63Q398 63 436 80T503 125T549 184T574 246L583 305Q586 314 574 314H410Q401 314 402 324L408 370Q409 377 415 377L670 376Q676 376 678 374T680 366L630 11Q629 0 616 0H594Q581 0 580 12L582 105Q582 111
579 111T570 104Q549 74 517 48T440 6T340 -10V-10Z" />
<glyph unicode="H" horiz-adv-x="735" d="M213 347Q209 347 207 344T203 336L157 12Q156 5 153 3T141 0H74Q65 0 63 3T61 14L163 731Q164 738 166 740T174 742H249Q255 742 257 739T257 729L216 434Q215 427 217 425T225 423H555Q560 423 562 427T566 437L608
732Q609 738 611 740T619 742H694Q700 742 702 739T703 726L603 12Q602 5 600 3T589 0H521Q513 0 510 3T507 15L553 340Q554 347 545 347H213Z" />
<glyph unicode="I" horiz-adv-x="290" d="M248 742Q260 742 257 727L157 14Q156 5 153 3T140 0H75Q66 0 64 4T62 17L163 731Q164 738 166 740T174 742H248Z" />
<glyph unicode="J" horiz-adv-x="418" d="M311 160Q303 104 282 66T223 9T129 -10Q89 -10 61 -1T19 12Q11 15 8 18T7 27L25 84Q27 89 30 90T40 89Q52 84 71 79T116 73Q163 73 186 99T219 188L295 732Q296 738 298 740T306 742H381Q392 742 389 727L311 160V160Z" />
<glyph unicode="K" horiz-adv-x="701" d="M618 14Q625 0 613 0H531Q520 0 517 11L347 381Q345 386 342 384T333 375L199 244Q195 240 192 236T187 225L157 12Q156 6 153 3T141 0H74Q67 0 64 4T62 16L163 732Q164 738 166 740T173 742H247Q253 742 256 738T258
728L206 361Q205 354 207 356T214 363L594 734Q599 739 604 740T617 742H691Q700 742 700 738T696 729L424 466Q421 463 419 461T418 453L618 14V14Z" />
<glyph unicode="L" horiz-adv-x="602" d="M162 730Q164 742 175 742H250Q260 742 257 727L168 85Q165 74 175 74H522Q533 74 532 61L525 9Q524 3 522 2T514 0H75Q59 0 62 17L162 730V730Z" />
<glyph unicode="M" horiz-adv-x="906" d="M71 0Q64 0 62 3T62 17L163 731Q164 738 166 740T174 742H272Q279 742 281 740T286 731L429 157Q431 148 435 149T443 159L747 731Q752 742 762 742H865Q876 742 874 730L774 13Q772 5 770 3T759 0H692Q685 0 681 3T678
16L757 580Q759 585 757 585T753 581L452 11Q449 4 446 2T434 0H381Q375 0 372 2T366 14L230 577Q228 583 226 583T223 578L143 10Q142 5 140 3T130 0H71V0Z" />
<glyph unicode="N" horiz-adv-x="757" d="M716 742Q726 742 725 730L624 10Q623 0 612 0H563Q557 0 552 2T543 11L235 571Q231 578 227 577T222 567L144 11Q143 5 141 3T130 0H72Q66 0 63 4T61 15L163 731Q164 738 166 740T175 742H233Q240 742 244 740T251 730L550
182Q555 174 560 175T567 186L643 732Q645 738 647 740T655 742H716Z" />
<glyph unicode="O" horiz-adv-x="764" d="M347 -10Q260 -10 199 24T106 123T74 282Q74 303 75 326T80 372Q98 494 147 578T274 707T447 752Q533 752 594 717T687 616T719 454Q719 434 718 412T713 365Q696 245 647 161T521 34T347 -10V-10ZM352 63Q461 63 526
139T614 373Q618 400 619 425T621 472Q621 577 577 628T445 679Q337 679 270 602T179 364Q175 338 174 314T172 269Q172 165 217 114T352 63V63Z" />
<glyph unicode="P" horiz-adv-x="690" d="M210 310Q205 310 202 307T197 298L157 12Q156 5 153 3T143 0H72Q59 0 62 15L163 729Q164 737 166 739T174 742H426Q498 742 554 723T643 663T676 558Q676 477 638 422T534 339T381 310H210ZM577 559Q577 620 534 644T415
669H262Q256 669 253 666T248 656L211 396Q210 388 212 386T219 383H377Q439 383 483 404T552 464T577 559V559Z" />
<glyph unicode="Q" horiz-adv-x="765" d="M80 373Q98 495 147 580T273 708T447 752Q533 752 594 718T687 617T719 456Q719 435 718 412T713 365Q696 244 650 165T530 39Q520 33 521 26Q523 14 539 -2T580 -32T637 -50Q643 -51 645 -53T646 -61L639 -112Q637 -120
632 -122T613 -124Q588 -124 557 -113T496 -75T441 -4Q437 2 425 -1Q406 -5 386 -7T347 -10Q261 -10 200 23T107 122T74 284Q74 304 75 327T80 373V373ZM179 363Q175 336 174 312T172 267Q172 162 217 113T350 63Q459 63 525 138T614 373Q618 400 620 424T622 470Q622
574 578 626T445 679Q335 679 268 600T179 363V363Z" />
<glyph unicode="R" horiz-adv-x="696" d="M592 17Q598 0 581 0H507Q501 0 498 3T492 14L407 329Q406 334 403 336T390 338H214Q203 338 202 326L157 14Q156 5 153 3T140 0H75Q67 0 64 4T62 16L163 731Q164 738 166 740T174 742H453Q561 742 619 700T678 579Q678
524 657 479T598 402T507 355Q500 352 498 350T496 344L592 17V17ZM378 408Q439 408 484 425T553 478T578 571Q578 623 544 647T441 672H262Q251 672 248 660L214 418Q213 413 215 411T221 408H378V408Z" />
<glyph unicode="S" horiz-adv-x="641" d="M548 608Q525 638 486 658T386 679Q334 679 293 661T229 611T205 535Q205 518 213 501T241 467T296 437L435 386Q511 359 544 320T578 223Q578 148 540 96T435 17T285 -10Q192 -10 130 22T33 119Q30 126 30 131T39 141L77
165Q85 170 91 169T102 160Q125 127 149 105T206 72T292 61Q348 61 391 76T459 123T484 205Q484 236 463 259T385 304L241 359Q172 384 143 427T113 520Q113 573 134 615T194 688T283 735T391 752Q443 752 484 739T558 704T614 650Q620 643 620 640T615 632L566
598Q562 596 559 598T548 608V608Z" />
<glyph unicode="T" horiz-adv-x="645" d="M107 733Q109 739 110 740T119 742H661Q667 742 668 740T669 732L661 678Q660 673 658 671T648 669H447Q440 669 437 667T433 657L342 12Q341 4 339 2T331 0H258Q250 0 248 3T247 15L338 657Q339 669 327 669H110Q99 669
100 679L107 733Z" />
<glyph unicode="U" horiz-adv-x="709" d="M619 245Q606 155 568 99T468 16T319 -10Q197 -10 140 42T82 197Q82 213 83 230T88 266L153 730Q154 737 156 739T164 742H236Q243 742 246 738T248 727L180 241Q179 229 178 219T176 197Q176 129 214 97T329 64Q389 64
432 84T503 145T539 249L607 732Q608 738 610 740T617 742H676Q682 742 684 738T687 727L619 245V245Z" />
<glyph unicode="V" horiz-adv-x="707" d="M722 742Q735 742 729 728L373 13Q369 5 365 3T351 0H283Q273 0 268 2T261 13L111 729Q109 742 122 742H193Q205 742 207 728L331 124Q334 106 343 122L642 733Q645 739 648 740T657 742H722V742Z" />
<glyph unicode="W" horiz-adv-x="1045" d="M1055 742Q1065 742 1066 737T1065 722L758 13Q754 5 750 3T736 0H675Q666 0 661 3T653 14L573 579Q572 584 570 584T566 579L322 13Q319 5 315 3T300 0H237Q218 0 217 15L113 726Q112 734 115 738T127 742H191Q200 742
203 739T207 728L289 148Q291 139 294 139T301 148L550 733Q552 739 555 740T568 742H626Q634 742 637 739T641 728L724 145Q725 137 728 137T735 147L983 733Q986 739 989 740T1000 742H1055V742Z" />
<glyph unicode="X" horiz-adv-x="688" d="M602 19Q608 8 607 4T596 0H520Q515 0 512 1T505 9L355 296Q351 304 347 304T337 297L104 6Q101 3 97 2T86 0H16Q8 0 7 5T15 23L293 368Q300 375 301 380T299 393L122 730Q120 735 120 738T127 742H208Q215 742 218 740T223
733L362 465Q368 453 377 465L594 735Q597 740 600 741T610 742H686Q693 742 693 737T689 726L418 392Q413 387 413 383T414 374L602 19V19Z" />
<glyph unicode="Y" horiz-adv-x="675" d="M692 742Q699 742 701 738T699 727L404 328Q400 322 398 316T393 295L353 15Q352 6 348 3T333 0H269Q260 0 258 4T257 15L297 295Q299 306 298 310T295 322L110 728Q107 735 108 738T119 742H192Q201 742 204 739T211
728L352 408Q360 390 373 408L605 732Q610 738 613 740T626 742H692V742Z" />
<glyph unicode="Z" horiz-adv-x="631" d="M25 0Q18 0 15 3T12 13L15 38Q16 45 18 50T27 64L502 660Q505 665 505 666T499 668H133Q120 668 122 682L129 734Q130 739 131 740T138 742H639Q649 742 648 731L644 703Q643 697 642 694T635 684L154 82Q147 75 155 75H544Q549
75 551 73T553 66L545 9Q544 4 542 2T534 0H25V0Z" />
<glyph unicode="[" horiz-adv-x="287" d="M47 -165Q40 -165 36 -161T32 -150L155 734Q156 739 158 740T168 742H328Q333 742 335 740T337 732L332 692Q331 687 330 687T324 686H238Q232 686 228 682T222 670L113 -101Q112 -107 113 -108T120 -109H206Q212 -109
214 -112T217 -121L212 -157Q211 -162 210 -163T202 -165H47V-165Z" />
<glyph unicode="\" horiz-adv-x="342" d="M235 -43Q221 -43 220 -28L79 728Q77 736 78 739T87 742H130Q135 742 139 739T142 731L286 -37Q287 -41 286 -42T279 -43H235V-43Z" />
<glyph unicode="]" horiz-adv-x="287" d="M-34 -165Q-39 -165 -41 -163T-43 -155L-38 -115Q-37 -110 -36 -110T-30 -109H56Q62 -109 66 -105T71 -93L181 678Q182 685 181 685T173 686H88Q82 686 79 689T77 698L82 734Q83 740 84 741T92 742H247Q255 742 259 738T262
727L138 -157Q137 -162 136 -163T126 -165H-34V-165Z" />
<glyph unicode="^" horiz-adv-x="476" d="M267 425Q265 431 261 429T254 421L100 139Q98 134 95 134T87 134H41Q36 134 34 139T34 150L231 506Q243 529 258 536T288 536T308 502L406 143Q408 137 407 135T399 132H355Q350 132 345 135T339 143L267 425Z" />
<glyph unicode="_" horiz-adv-x="518" d="M404 -106Q403 -113 400 -115T388 -117L22 -118Q15 -118 12 -114T10 -104L16 -59Q17 -54 18 -52T24 -50H400Q404 -50 407 -53T410 -62L404 -106Z" />
<glyph unicode="`" horiz-adv-x="285" d="M93 745Q95 749 98 750T105 749L322 655Q326 653 328 650T328 640L316 616Q314 611 311 611T301 612L82 681Q73 684 71 688T72 698L93 745V745Z" />
<glyph unicode="a" horiz-adv-x="548" d="M358 62Q317 25 271 8T172 -10Q100 -10 60 24T20 116Q20 169 45 205T113 265T206 300T308 315L387 321Q406 323 408 338L412 365Q413 371 413 376T414 387Q414 431 386 455T307 480Q263 480 224 460T150 398Q147 394 145
394T136 395L85 413Q81 415 80 419T83 433Q119 482 177 511T313 540Q374 540 414 523T475 473T495 397Q495 390 495 383T493 367L444 12Q442 4 440 2T430 0H380Q373 0 370 4T367 16L372 64Q371 77 358 62V62ZM396 257Q398 265 396 268T386 270L317 264Q287 262
251 255T181 234T127 194T105 128Q105 93 131 73T203 52Q237 52 268 64T325 94Q351 113 367 133T385 173L396 257Z" />
<glyph unicode="b" horiz-adv-x="599" d="M57 0Q49 0 46 5T43 19L143 731Q144 737 146 739T154 742H218Q224 742 225 738T226 726L192 483Q191 474 194 474T204 481Q215 489 237 503T294 528T371 540Q435 540 475 513T534 439T554 329Q554 270 539 210T491 101T407
21T286 -10Q241 -10 210 4T161 37T134 70Q131 75 127 74T121 64L109 14Q108 6 105 3T91 0H57ZM149 177Q144 141 160 112T205 67T270 50Q322 50 359 75T420 143T456 234T468 329Q468 401 438 440T344 479Q297 479 255 457T182 403L149 177Z" />
<glyph unicode="c" horiz-adv-x="542" d="M332 540Q385 540 422 523T485 476T523 411Q525 406 524 404T518 399L463 387Q459 386 457 389T451 399Q435 426 418 443T381 469T335 478Q284 478 246 454T181 391T142 305T128 211Q128 136 166 94T271 52Q320 52 359
75T434 148Q439 153 446 149L486 133Q490 132 492 128T491 116Q473 91 450 68T398 27T335 0T261 -10Q194 -10 145 18T70 97T43 217Q43 277 62 334T119 438T210 512T332 540V540Z" />
<glyph unicode="d" horiz-adv-x="599" d="M419 0Q412 0 408 3T405 14L411 57Q413 65 410 65T399 58Q387 48 365 32T310 3T235 -10Q151 -10 97 43T43 201Q43 262 61 322T114 431T200 510T317 540Q368 540 398 523T450 484Q458 476 463 478T470 496L503 731Q505
737 507 739T516 742H577Q588 742 587 727L486 14Q485 5 482 3T469 0H419ZM460 415Q434 446 404 462T335 478Q284 478 245 453T180 387T141 298T128 203Q128 150 146 116T194 67T263 51Q304 51 339 70T398 118T425 174L460 415Z" />
<glyph unicode="e" horiz-adv-x="581" d="M265 -10Q198 -10 148 18T70 96T43 215Q43 277 63 335T121 439T213 512T334 540Q399 540 446 515T518 440T544 322Q544 308 543 294T540 264Q539 256 534 252T519 247H140Q132 247 129 238T126 202Q126 133 167 94T274
54Q327 54 368 75T443 138Q447 142 451 142T458 139L497 118Q508 112 501 101Q468 61 432 37T355 2T265 -10V-10ZM443 300Q453 300 459 308T465 345Q465 404 430 442T333 480Q280 480 239 454T172 387T140 300H443Z" />
<glyph unicode="f" horiz-adv-x="379" d="M382 530Q387 530 389 528T391 520L385 476Q383 467 375 467H259Q252 467 250 457L187 12Q186 4 184 2T176 0H114Q109 0 106 4T103 15L166 461Q168 467 161 467H62Q57 467 55 471T54 479L60 522Q61 527 62 528T70 530H165Q170
530 173 533T178 542L188 616Q197 679 231 710T329 742H413Q419 742 422 739T425 730L420 689Q419 681 409 681H340Q308 681 291 662T270 609L259 538Q258 530 267 530H382V530Z" />
<glyph unicode="g" horiz-adv-x="602" d="M215 -175Q101 -175 41 -141T-20 -48Q-20 -6 9 26T85 78Q93 81 95 84T90 91Q72 102 64 114T55 143Q55 164 68 180T102 207T141 226Q149 228 151 232T147 239Q113 257 96 284T78 348Q78 395 97 430T150 490T225 526T313
538Q377 538 413 524T469 490Q474 486 480 488T492 497Q506 508 522 517T556 533T590 539Q602 539 607 536T610 523L606 489Q604 479 601 475T588 471Q569 470 556 468T532 461Q501 450 506 436Q509 428 512 417T515 388Q515 341 495 307T441 252T365 220T279 209Q269
209 246 208T198 202T154 188T136 162Q136 148 156 142T221 133L348 126Q428 121 465 89T503 0Q503 -40 487 -69T442 -119T377 -151T299 -169T215 -175V-175ZM218 -123Q256 -123 293 -118T359 -100T405 -65T423 -9Q423 22 404 37T334 55L171 65Q141 58 115 45T73
11T57 -38Q57 -83 99 -103T218 -123V-123ZM281 262Q323 262 358 275T416 318T438 395Q438 438 407 461T314 485Q273 485 237 470T178 424T155 348Q155 307 188 285T281 262V262Z" />
<glyph unicode="h" horiz-adv-x="584" d="M56 0Q49 0 45 4T42 16L143 732Q145 738 147 740T155 742H214Q226 742 224 729L187 471Q186 459 194 464Q234 490 265 507T326 532T388 540Q460 540 496 506T532 414Q532 407 532 400T530 386L477 13Q476 5 474 3T463
0H407Q391 0 394 16L444 372Q445 379 445 385T446 397Q446 434 425 454T358 474Q327 474 300 465T245 437T180 391L126 12Q125 5 122 3T111 0H56Z" />
<glyph unicode="i" horiz-adv-x="239" d="M126 14Q125 5 122 3T108 0H57Q48 0 45 4T42 17L113 519Q114 526 116 528T124 530H187Q193 530 195 526T197 515L126 14ZM218 642Q216 633 213 629T199 625H138Q130 625 128 630T127 644L139 727Q141 742 154 742H219Q224
742 227 737T229 724L218 642Z" />
<glyph unicode="j" horiz-adv-x="239" d="M120 -31Q110 -103 76 -136T-35 -170Q-80 -170 -92 -167T-103 -154L-97 -111Q-96 -107 -94 -105T-88 -101L-36 -99Q-4 -97 13 -80T37 -21L113 519Q115 525 117 527T125 530H186Q192 530 195 526T197 515L120 -31V-31ZM218
642Q216 633 213 629T199 625H138Q130 625 128 630T127 644L139 727Q141 742 154 742H219Q224 742 227 737T229 724L218 642Z" />
<glyph unicode="k" horiz-adv-x="564" d="M498 14Q501 8 500 4T491 0H421Q415 0 411 4T405 14L289 272Q286 280 278 272L156 164Q152 160 149 155T144 144L126 14Q125 5 122 3T109 0H58Q48 0 45 4T42 17L143 731Q145 738 147 740T154 742H217Q223 742 225 738T226
727L162 262Q161 255 162 255T170 262L453 520Q460 526 465 528T475 530H536Q547 530 549 524T543 509L361 348Q357 345 355 341T354 331L498 14V14Z" />
<glyph unicode="l" horiz-adv-x="239" d="M126 14Q125 5 122 3T109 0H57Q48 0 45 4T42 17L144 731Q145 738 147 740T155 742H217Q229 742 226 728L126 14Z" />
<glyph unicode="m" horiz-adv-x="906" d="M56 0Q49 0 45 4T42 16L113 520Q114 526 116 528T123 530H185Q192 530 193 527T194 518L187 467Q185 457 193 462Q230 487 259 504T318 531T380 540Q441 540 472 513T510 451Q511 447 515 450T527 458Q563 484 594 502T655
530T718 540Q784 540 819 506T854 413Q854 406 854 400T852 385L799 13Q798 5 796 3T785 0H728Q713 0 716 16L766 370Q767 377 767 384T768 398Q768 434 749 454T687 474Q657 474 629 463T577 435T534 404Q526 397 521 391T513 374L462 13Q461 5 458 3T448 0H392Q386
0 382 4T379 16L429 372Q436 421 418 447T351 474Q321 474 295 465T242 437T180 391L126 12Q125 5 122 3T110 0H56V0Z" />
<glyph unicode="n" horiz-adv-x="584" d="M53 0Q47 0 44 4T42 16L113 520Q114 526 116 528T123 530H186Q191 530 193 528T194 519L186 462Q185 451 194 459Q242 497 289 518T388 540Q458 540 495 505T532 413Q532 407 532 401T530 386L477 13Q476 5 473 3T462
0H404Q398 0 395 4T394 16L444 371Q445 378 445 384T446 396Q446 434 425 454T358 474Q327 474 300 465T245 437T180 391L126 12Q125 5 122 3T110 0H53V0Z" />
<glyph unicode="o" horiz-adv-x="599" d="M264 -10Q196 -10 146 18T70 97T43 216Q43 286 66 345T129 448T222 516T335 540Q404 540 453 511T528 430T555 309Q555 217 516 145T411 31T264 -10V-10ZM267 53Q325 53 371 86T443 179T470 322Q470 395 435 436T333 478Q277
478 230 445T156 351T128 208Q128 136 164 95T267 53V53Z" />
<glyph unicode="p" horiz-adv-x="597" d="M28 -165Q23 -165 21 -161T19 -150L113 517Q114 525 116 527T129 530H181Q188 530 192 527T195 516L188 473Q187 467 191 467T202 473Q214 483 235 499T288 527T365 540Q448 540 501 488T554 330Q554 272 538 212T488
102T404 21T284 -10Q236 -10 202 6T148 44Q139 52 135 48T128 31L103 -155Q102 -161 100 -163T92 -165H28V-165ZM263 51Q314 51 353 76T417 143T456 233T469 329Q469 382 451 415T403 463T336 479Q294 479 259 461T201 415T175 361L139 115Q165 85 194 68T263 51V51Z"
/>
<glyph unicode="q" horiz-adv-x="599" d="M388 -165Q378 -165 380 -149L406 32Q408 42 406 43T394 38Q364 18 324 4T240 -10Q146 -10 95 49T44 209Q44 265 59 323T107 430T191 510T312 540Q364 540 394 527T442 497T467 466Q471 461 475 462T482 474L496 516Q499
525 502 527T515 530H546Q554 530 556 526T557 511L463 -154Q462 -161 459 -163T449 -165H388V-165ZM264 51Q305 51 345 69T416 117L451 353Q456 387 442 416T399 463T330 481Q280 481 243 457T180 391T143 303T130 209Q130 132 167 92T264 51V51Z" />
<glyph unicode="r" horiz-adv-x="383" d="M56 0Q49 0 45 4T42 16L113 520Q114 526 116 528T123 530H182Q188 530 191 527T193 516L184 459Q183 452 186 451T194 455Q224 485 252 504T307 531T358 540Q378 540 387 537T395 527L387 468Q386 463 385 461T380 460Q370
461 359 461T335 462Q313 462 286 452T234 425T192 387T172 343L126 12Q125 5 122 3T110 0H56V0Z" />
<glyph unicode="s" horiz-adv-x="512" d="M218 -10Q136 -10 80 22T6 104Q1 114 10 119L49 139Q55 142 59 141T66 134Q84 97 121 74T218 51Q238 51 264 55T314 71T355 100T371 146Q371 170 351 189T283 221L184 249Q120 268 93 297T65 367Q65 422 97 461T180 520T289
540Q358 540 406 514T477 443Q480 439 479 436T473 429L435 410Q431 408 428 409T419 417Q402 446 369 463T286 481Q256 481 223 471T168 441T145 388Q145 369 159 353T216 323L337 286Q396 270 423 237T451 161Q451 118 430 86T375 33T300 1T218 -10V-10Z" />
<glyph unicode="t" horiz-adv-x="387" d="M213 0Q158 0 131 22T103 92Q103 100 103 108T105 125L152 459Q153 464 151 465T143 467H61Q53 467 54 480L60 523Q61 528 62 529T69 530H154Q158 530 161 533T164 541L198 700Q200 710 211 710H262Q268 710 270 707T271
694L248 538Q247 534 249 532T255 530H380Q385 530 388 528T391 521L385 476Q384 471 382 469T374 467H247Q238 467 235 456L191 140Q190 132 190 125T189 112Q189 82 202 73T243 63H312Q317 63 320 59T323 50L317 16Q316 6 307 4Q296 2 278 2T242 1T213 0V0Z"
/>
<glyph unicode="u" horiz-adv-x="579" d="M195 -10Q131 -10 92 25T52 121Q52 126 52 132T53 145L106 517Q107 525 110 527T120 530H176Q184 530 187 526T189 514L140 163Q139 157 139 151T138 141Q138 96 160 76T224 56Q269 56 312 80T400 145L453 518Q455 526
458 528T469 530H524Q532 530 535 526T538 514L466 10Q465 5 463 3T455 0H397Q391 0 388 2T386 11L394 67Q395 73 393 74T384 70Q323 23 279 7T195 -10V-10Z" />
<glyph unicode="v" horiz-adv-x="547" d="M544 530Q551 530 554 525T554 513L280 13Q276 5 271 3T257 0H221Q212 0 206 4T198 16L64 517Q62 530 75 530H137Q143 530 147 526T152 517L254 124Q259 106 270 129L482 522Q487 530 497 530H544V530Z" />
<glyph unicode="w" horiz-adv-x="796" d="M790 530Q797 530 800 525T801 513L576 11Q574 4 570 2T558 0H510Q490 0 490 15L423 389Q421 398 418 396T411 385L244 11Q242 4 238 2T226 0H175Q156 0 156 15L67 517Q65 530 78 530H137Q143 530 147 526T152 517L218
128Q220 118 224 120T232 133L406 522Q409 530 419 530H466Q472 530 476 526T480 517L550 128Q552 118 555 120T563 133L733 522Q739 530 750 530H790V530Z" />
<glyph unicode="x" horiz-adv-x="544" d="M474 18Q481 7 480 4T470 0H400Q393 0 389 3T382 11L267 204Q263 212 260 211T249 201L74 7Q72 3 66 2T51 0H2Q-8 0 -10 6T0 26L215 258Q221 264 222 269T221 280L79 516Q76 521 77 525T87 530H153Q161 530 165 527T171
519L281 336Q283 331 287 332T296 340L453 523Q457 528 461 529T473 530H528Q537 530 537 525T533 514L332 288Q326 282 325 277T326 266L474 18V18Z" />
<glyph unicode="y" horiz-adv-x="530" d="M43 -165Q15 -165 0 -163T-14 -152L-9 -113Q-8 -106 -1 -103T24 -100H84Q106 -100 126 -86T161 -50T183 -7T186 33L61 511Q57 530 72 530H140Q151 530 153 521L249 133Q251 123 256 123T268 135L468 517Q471 524 475 527T484
530H532Q545 530 537 518L237 -45Q218 -80 198 -103T154 -140T103 -159T43 -165V-165Z" />
<glyph unicode="z" horiz-adv-x="482" d="M6 0Q-1 0 -3 2T-4 12L0 39Q1 47 5 52T17 68L363 459Q368 464 367 467T358 471H91Q85 471 84 474T83 484L89 521Q90 526 93 528T101 530H472Q479 530 479 521L474 490Q473 483 470 477T459 464L112 72Q107 67 108 63T115
59H409Q420 59 418 50L412 12Q411 6 409 3T400 0H6V0Z" />
<glyph unicode="{" horiz-adv-x="305" d="M187 -165Q157 -165 134 -157T96 -135T74 -102T71 -59L102 166Q106 190 98 212T68 249T10 263Q6 263 4 266T2 275L6 310Q7 315 8 316T10 317Q67 318 99 348T138 423L169 642Q174 673 193 695T241 730T309 742H346Q351
742 354 740T356 732L350 692Q349 687 348 687T342 686H317Q291 686 276 679T253 660T243 630L212 409Q206 371 189 346T148 309T100 293Q92 292 89 290T91 286Q117 284 138 272T171 235T177 167L146 -57Q142 -85 153 -97T202 -109H225Q231 -109 234 -112T236 -121L231
-157Q230 -162 229 -163T221 -165H187V-165Z" />
<glyph unicode="|" horiz-adv-x="261" d="M52 -165Q45 -165 42 -161T39 -150L177 837Q179 843 181 845T188 847H232Q239 847 242 843T243 832L105 -157Q104 -162 103 -163T95 -165H52Z" />
<glyph unicode="}" horiz-adv-x="305" d="M-34 -165Q-39 -165 -41 -163T-43 -155L-38 -115Q-37 -110 -36 -110T-30 -109H-4Q21 -109 36 -102T60 -83T69 -53L100 168Q106 207 123 231T164 269T212 284Q220 285 223 287T221 291Q196 293 174 305T141 343T135 410L166
634Q170 663 159 674T110 686H87Q81 686 79 689T76 698L81 734Q82 740 83 741T91 742H125Q155 742 178 734T217 712T238 679T241 636L210 411Q207 387 215 365T244 328T301 314Q305 314 308 311T310 302L305 267Q304 262 304 261T301 260Q244 259 213 229T174 154L143
-65Q139 -96 120 -118T71 -153T3 -165H-34V-165Z" />
<glyph unicode="~" horiz-adv-x="568" d="M519 368Q501 348 469 334T394 319Q363 319 340 326T298 344T258 362T213 370Q175 370 148 354T101 319Q96 316 93 318T89 327L76 359Q75 364 75 367T79 375Q108 397 139 413T212 430Q241 430 264 422T307 404T349 386T394
378Q431 378 455 393T494 426Q500 429 504 427T510 417L521 387Q525 380 519 368V368Z" />
<glyph unicode="&#xa0;" horiz-adv-x="214" />
<glyph unicode="&#xa1;" horiz-adv-x="244" d="M197 427Q196 422 194 421T187 419H105Q100 419 97 423T95 433L107 518Q108 525 110 527T121 530H190Q201 530 205 525T209 512L197 427V427ZM114 -157Q114 -161 112 -163T106 -165H23Q19 -165 16 -161T14 -151L104
340Q106 346 107 348T116 350H146Q154 350 158 346T161 334L114 -157V-157Z" />
<glyph unicode="&#xa2;" horiz-adv-x="558" d="M287 15Q286 6 283 3T269 0H239Q230 0 227 5T224 18L240 130Q240 137 243 139T254 142H290Q298 142 301 138T303 126L287 15V15ZM372 615Q371 606 367 603T353 600H323Q314 600 311 605T308 619L324 730Q325 738
328 740T339 742H375Q382 742 385 738T388 727L372 615V615ZM310 651Q363 651 400 634T463 587T501 522Q503 517 502 515T496 510L441 498Q437 497 435 500T429 510Q413 537 396 554T359 580T313 589Q262 589 224 565T159 502T120 416T106 322Q106 247 144 205T249
163Q298 163 337 186T412 259Q417 264 424 260L464 244Q468 243 470 239T469 227Q451 202 428 179T376 138T313 111T239 101Q172 101 123 129T48 208T21 328Q21 388 40 445T97 549T188 623T310 651V651Z" />
<glyph unicode="&#xa3;" horiz-adv-x="615" d="M-12 0Q-18 0 -21 4T-23 14L-16 66Q-15 71 -14 72T-8 73H22Q62 72 95 109T139 225Q143 246 144 277T146 352Q145 354 145 354T141 354H51Q48 354 45 357T43 364L49 404Q50 408 51 409T55 410H132Q136 410 140 413T144
420L139 495Q135 556 153 603T205 684T284 734T377 752Q422 752 461 737T528 697T564 637Q566 634 565 633T558 630L502 611Q497 610 493 612T487 620Q476 647 452 662T384 678Q348 678 316 664T262 621T235 554Q230 520 232 481T237 414Q240 410 244 410H399Q402
410 404 407T407 401L401 360Q400 356 399 356T394 355H252Q247 355 243 352T239 342Q239 315 238 288T230 231Q222 187 209 157T183 108T159 80Q154 76 153 75T157 74H332Q382 74 417 92T475 152Q479 155 482 155T489 154L538 141Q542 140 545 136T546 124Q515
62 460 31T330 0H-12V0Z" />
<glyph unicode="&#xa4;" horiz-adv-x="537" d="M260 183Q230 183 205 191T160 216Q154 218 151 217T144 211L93 166Q87 162 83 164T74 170L53 195Q49 200 49 204T52 212L104 257Q111 265 109 276Q99 297 94 322T93 377Q98 405 109 431T137 481Q145 487 141 492L102
537Q99 541 99 546T102 556L130 580Q136 585 139 584T147 577L187 531Q189 529 192 530T199 535Q224 548 251 555T305 563Q335 563 360 554T405 529Q411 528 414 529T420 534L475 582Q479 585 481 583T487 578L513 547Q515 543 516 541T515 535L458 486Q452 480
454 473Q465 453 470 426T472 369Q468 342 457 315T428 265Q425 264 423 262T424 256L465 208Q468 204 469 201T467 195L432 165Q429 162 426 163T421 168L381 216Q377 218 374 217T369 212Q343 198 316 191T260 183V183ZM263 249Q299 249 330 267T383 314T409
377Q414 410 402 437T365 480T305 497Q269 497 237 479T185 432T159 369Q155 337 167 310T204 266T263 249V249Z" />
<glyph unicode="&#xa5;" horiz-adv-x="609" d="M655 742Q663 742 666 737T664 726L373 334Q368 328 366 322T362 301L321 15Q320 6 316 3T301 0H241Q232 0 229 5T226 17L265 298Q267 309 267 313T263 325L79 728Q76 735 78 738T89 742H164Q173 742 177 739T184
728L324 407Q328 398 331 399T341 410L575 732Q580 740 583 741T596 742H655V742ZM519 301Q518 294 515 292T503 290L122 289Q115 289 112 293T109 303L113 335Q115 341 116 342T122 344L513 345Q517 345 520 341T523 333L519 301ZM498 153Q497 145 494 143T482
141H101Q94 141 91 145T88 155L92 187Q93 193 95 194T101 196L492 197Q496 197 499 193T502 184L498 153Z" />
<glyph unicode="&#xa6;" horiz-adv-x="261" d="M136 437Q129 437 126 441T124 453L177 837Q179 843 181 845T188 847H232Q239 847 242 843T243 832L189 446Q188 441 187 439T179 437H136ZM52 -165Q45 -165 42 -161T39 -150L93 235Q93 241 95 243T103 245H147Q154
245 157 241T159 230L105 -157Q104 -162 103 -163T95 -165H52Z" />
<glyph unicode="&#xa7;" horiz-adv-x="488" d="M346 201Q388 176 408 145T423 69Q418 28 390 -4T315 -54T209 -73Q137 -73 83 -42T10 39Q7 44 7 46T8 50L54 73Q59 75 62 73T68 64Q87 32 123 10T211 -12Q263 -12 301 9T344 70Q348 95 331 117T256 163L170 198Q105
225 79 262T60 350Q66 396 99 429T180 480Q144 502 125 523T102 567T100 616Q105 654 132 685T204 734T304 752Q371 752 417 723T481 655Q485 651 485 648T482 643L439 622Q433 619 429 622T424 629Q405 655 377 673T308 691Q253 691 219 670T179 614Q177 594 189
574T251 532L331 498Q406 466 435 425T457 330Q451 281 419 251T346 201V201ZM271 239Q297 237 321 248T361 280T381 324Q384 344 381 361T361 393T307 424L253 446Q224 444 198 430T156 395T135 351Q132 325 145 307T211 264L271 239V239Z" />
<glyph unicode="&#xa8;" horiz-adv-x="250" d="M147 645Q146 636 143 634T130 632H77Q69 632 66 636T64 647L76 732Q77 739 79 740T86 742H148Q154 742 157 738T158 727L147 645ZM293 645Q292 636 289 634T276 632H224Q215 632 213 636T211 647L222 732Q224 739
225 740T233 742H294Q300 742 303 738T305 727L293 645Z" />
<glyph unicode="&#xa9;" horiz-adv-x="830" d="M380 -10Q300 -10 235 20T124 102T58 225T49 375Q60 453 99 521T197 642T328 723T479 752Q559 752 624 722T735 639T801 516T810 367Q799 288 760 220T662 100T530 19T380 -10V-10ZM382 50Q447 50 508 73T620 138T703
241T748 375Q758 447 742 505T687 606T596 670T478 693Q412 693 350 670T239 603T156 500T112 367Q101 294 117 236T171 136T262 72T382 50V50ZM459 588Q501 588 530 574T579 535T610 482Q613 479 612 478T608 475L558 462Q554 461 552 464T548 472Q534 501 514
517T462 533Q425 533 394 514T341 457T312 370Q302 297 330 256T413 214Q452 214 483 236T538 292Q540 293 542 292T548 289L581 276Q587 274 585 262Q571 243 553 225T512 191T463 168T406 160Q348 160 307 187T248 263T238 377Q247 439 278 487T357 561T459 588V588Z"
/>
<glyph unicode="&#xaa;" horiz-adv-x="399" d="M254 750Q300 750 328 736T367 697T374 636L350 470Q348 456 348 446T350 418Q352 414 350 413T340 412H302Q296 412 294 415T291 423L290 452Q290 456 288 454T281 447Q252 426 228 416T173 406Q120 406 93 432T72
503Q79 550 123 576T251 609L299 614Q305 615 309 618T314 626L316 641Q320 674 304 689T251 705Q224 705 202 695T159 656Q158 655 156 655T149 657L111 670Q110 671 109 675T109 684Q131 716 166 733T254 750V750ZM133 497Q129 475 145 462T191 449Q213 449 231
457T266 480Q280 489 289 499T299 521L305 567Q306 572 305 573T297 574L257 571Q221 568 194 559T152 534T133 497V497Z" />
<glyph unicode="&#xab;" horiz-adv-x="446" d="M368 78Q370 74 369 74T361 73H332Q329 73 326 76T322 81L220 248Q218 254 217 259T220 269L372 446Q375 451 376 451T381 450H412Q416 450 420 447T421 438L297 263Q295 259 293 255T293 247L368 78ZM189 78Q191
74 190 74T183 73H154Q150 73 147 76T144 81L42 248Q39 254 39 259T42 269L194 446Q196 451 198 451T203 450H234Q238 450 241 447T242 438L119 263Q116 259 115 255T115 247L189 78Z" />
<glyph unicode="&#xac;" horiz-adv-x="557" d="M508 351Q507 344 504 342T492 340L87 339Q80 339 77 343T74 354L80 397Q82 402 83 404T89 406H504Q508 406 511 403T514 394L508 351ZM488 204Q487 198 485 196T475 194H429Q422 194 419 197T417 206L440 379Q442
384 443 385T449 387H501Q507 387 509 383T511 373L488 204Z" />
<glyph unicode="&#xad;" horiz-adv-x="381" d="M534 243Q533 236 530 234T518 231H291Q284 231 281 235T278 245L284 289Q286 295 287 296T293 298L531 299Q535 299 538 295T541 287L534 243Z" />
<glyph unicode="&#xae;" horiz-adv-x="545" d="M278 275Q210 275 160 308T85 396T69 517Q79 583 117 636T214 720T337 752Q404 752 454 719T529 631T545 509Q536 444 497 391T400 306T278 275V275ZM277 320Q334 320 381 344T459 413T499 517Q507 575 489 617T433
683T339 707Q281 707 234 683T156 613T116 509Q104 422 148 371T277 320V320ZM380 398Q381 395 381 394T378 393H343Q342 393 340 395T339 399L314 501Q313 503 313 503T308 503H262Q260 503 258 501T255 496L241 396Q241 394 241 394T238 393H206Q204 393 202
395T201 400L233 628Q233 630 233 630T234 630H337Q375 630 395 613T411 565Q407 539 391 526T358 507Q357 507 355 506T353 503L380 398V398ZM318 536Q336 536 351 544T368 571Q370 582 363 589T328 597H276Q274 597 272 596T269 591L261 538Q261 536 261 536T263
536H318V536Z" />
<glyph unicode="&#xaf;" horiz-adv-x="316" d="M364 676Q363 670 361 668T349 666H80Q73 666 71 670T69 680L74 719Q75 724 76 726T81 728H361Q365 728 367 724T369 716L364 676Z" />
<glyph unicode="&#xb0;" horiz-adv-x="464" d="M451 694Q445 649 420 614T357 560T274 540Q227 540 194 561T145 619T135 703Q141 749 166 783T228 838T311 858Q358 858 392 837T442 779T451 694V694ZM390 702Q397 746 375 772T309 799Q263 799 231 770T193 693Q187
650 208 623T274 595Q319 595 351 625T390 702V702Z" />
<glyph unicode="&#xb1;" horiz-adv-x="557" d="M470 76Q469 69 466 67T454 65L48 64Q41 64 38 68T36 79L42 122Q43 128 44 129T50 131H466Q470 131 473 128T476 119L470 76ZM519 428Q517 421 514 419T503 417L98 416Q91 416 88 420T85 430L91 473Q92 479 94 480T100
482L515 483Q520 483 523 480T525 471L519 428ZM257 233Q250 233 247 238T244 251L301 656Q302 664 303 665T312 667H355Q361 667 364 664T367 656L309 240Q308 236 306 235T299 233H257Z" />
<glyph unicode="&#xb2;" horiz-adv-x="452" d="M183 581Q219 611 245 637T286 689T301 741Q301 776 277 793T221 810Q194 810 161 795T104 746Q100 741 96 744L60 768Q57 771 63 780Q96 819 140 838T228 857Q264 857 294 845T342 808T360 745Q360 708 345 678T301
620T236 560L94 442Q90 440 90 438T95 435H314Q322 435 321 428L317 390Q316 388 315 386T309 384H17Q6 384 7 395L11 422Q12 429 15 433T30 448L183 581Z" />
<glyph unicode="&#xb3;" horiz-adv-x="467" d="M89 787Q87 789 87 792T90 798Q125 828 162 842T242 857Q310 857 348 828T386 752Q386 711 359 679T287 633Q284 632 284 630T288 627Q322 619 345 593T368 527Q368 484 345 450T278 397T173 378Q132 378 105 387T58
413T23 447Q20 452 23 455L54 478Q58 481 61 478Q83 449 112 437T178 424Q234 424 272 451T310 526Q310 552 295 569T256 596T204 605H147Q139 605 141 611L145 646Q145 650 152 650L197 651Q232 651 261 663T308 698T326 747Q326 775 304 793T241 812Q200 812
173 797T121 762Q115 757 110 764L89 787V787Z" />
<glyph unicode="&#xb4;" horiz-adv-x="285" d="M334 698Q336 692 335 689T324 682L85 611Q79 609 75 612T70 621L65 643Q63 654 68 656L313 751Q316 752 320 751T325 743L334 698Z" />
<glyph unicode="&#xb5;" horiz-adv-x="579" d="M225 56Q268 56 311 80T400 145L453 518Q455 526 458 528T469 530H524Q532 530 535 526T538 514L466 10Q465 5 463 3T455 0H397Q391 0 388 4T386 14L394 73Q395 78 393 78T385 70Q348 43 320 26T266 1T215 -8Q184
-9 161 -3T120 20L96 -151Q94 -160 92 -162T78 -165H27Q18 -165 15 -161T12 -148L106 517Q107 525 110 527T120 530H176Q184 530 187 526T189 514L137 146Q134 121 144 101T176 68T225 56V56Z" />
<glyph unicode="&#xb6;" horiz-adv-x="561" d="M497 689Q494 689 491 686T487 679L380 -79Q379 -81 379 -83T374 -85H333Q328 -85 326 -81T324 -74L430 685Q430 688 430 688T425 689H389Q386 689 383 686T380 679L272 -79Q272 -82 271 -83T266 -85H224Q221 -85
218 -82T216 -74L269 303Q269 305 269 305T267 306Q201 308 157 337T94 414T82 522Q90 578 123 628T212 710T346 742H548Q552 742 554 740T555 733L550 692Q549 689 549 689T545 689H497Z" />
<glyph unicode="&#xb7;" horiz-adv-x="201" d="M165 333Q164 325 161 323T148 320H68Q61 320 57 324T55 336L66 417Q68 424 69 425T76 427H167Q172 427 174 424T176 414L165 333Z" />
<glyph unicode="&#xb8;" horiz-adv-x="221" d="M154 -136Q149 -173 116 -191T39 -210Q13 -210 -8 -204T-46 -185Q-49 -185 -51 -183T-53 -177L-37 -151Q-36 -148 -35 -150T-31 -154Q-20 -161 -7 -165T27 -170Q57 -170 74 -159T94 -127Q96 -107 80 -97T22 -86Q16
-86 14 -84T13 -78L61 5H109L79 -54Q77 -56 77 -56T78 -57Q111 -59 128 -71T151 -100T154 -136V-136Z" />
<glyph unicode="&#xb9;" horiz-adv-x="367" d="M227 427Q234 427 234 421L229 386Q228 380 222 380H0Q-7 380 -5 386L-1 423Q0 427 6 427H86Q90 427 91 433L140 778Q142 783 135 782L53 753Q45 750 45 759L49 786Q51 790 52 792T57 796L155 843Q162 845 166 846T175
847H203Q211 847 209 838L152 432Q150 427 154 427H227V427Z" />
<glyph unicode="&#xba;" horiz-adv-x="411" d="M269 751Q320 751 353 729T401 666T408 573Q402 524 378 487T317 428T229 407Q178 407 145 429T98 491T91 582Q99 633 123 671T185 730T269 751V751ZM270 704Q222 704 192 670T154 576Q146 518 164 486T228 453Q277
453 307 488T346 585Q353 640 335 672T270 704V704Z" />
<glyph unicode="&#xbb;" horiz-adv-x="446" d="M146 251Q149 255 150 259T150 267L76 442Q75 447 76 448T81 450H112Q117 450 122 442L224 265Q227 260 227 255T223 244L73 77Q71 75 69 74T64 73H35Q29 73 26 75T24 82L146 251V251ZM324 251Q327 255 328 259T329
267L254 442Q253 447 254 448T260 450H291Q296 450 300 442L402 265Q405 260 405 255T401 244L251 77Q249 75 247 74T242 73H213Q207 73 204 75T202 82L324 251V251Z" />
<glyph unicode="&#xbc;" horiz-adv-x="891" d="M276 323Q283 323 283 317L278 282Q277 276 271 276H49Q42 276 44 282L48 319Q49 323 55 323H135Q139 323 140 329L189 674Q191 679 184 678L102 649Q94 646 94 655L98 682Q100 686 101 688T106 692L204 739Q211
741 215 742T224 743H252Q260 743 258 734L201 328Q199 323 203 323H276V323ZM199 3Q195 -2 191 -3T180 -4H154Q144 -4 143 3T146 17L732 745Q736 751 739 751T748 750H781Q786 750 790 747T789 737L199 3ZM709 461Q713 465 715 466T724 467H769Q776 467 775 458L735
174Q735 170 739 170H799Q807 170 807 164L802 132Q801 128 800 127T794 125H733Q727 125 727 119L712 7Q711 3 710 2T702 0H658Q650 0 651 8L667 120Q668 125 662 125H457Q449 125 450 134L455 167Q456 173 458 177T466 187L709 461V461ZM667 170Q673 170 674
176L703 388Q704 393 702 393T695 386L511 178Q504 170 511 170H667Z" />
<glyph unicode="&#xbd;" horiz-adv-x="950" d="M293 323Q300 323 300 317L295 282Q294 276 288 276H66Q59 276 61 282L65 319Q66 323 72 323H152Q156 323 157 329L206 674Q208 679 201 678L119 649Q111 646 111 655L115 682Q117 686 118 688T123 692L221 739Q228
741 232 742T241 743H269Q277 743 275 734L218 328Q216 323 220 323H293V323ZM180 3Q176 -2 172 -3T161 -4H135Q125 -4 124 3T127 17L713 745Q717 751 720 751T729 750H762Q767 750 771 747T770 737L180 3ZM684 197Q720 227 746 253T787 305T802 357Q802 392 778
409T722 426Q695 426 662 411T605 362Q601 357 597 360L561 384Q558 387 564 396Q597 435 641 454T729 473Q765 473 795 461T843 424T861 361Q861 324 846 294T802 236T737 176L595 58Q591 56 591 54T596 51H815Q823 51 822 44L818 6Q817 4 816 2T810 0H518Q507
0 508 11L512 38Q513 45 516 49T531 64L684 197Z" />
<glyph unicode="&#xbe;" horiz-adv-x="932" d="M108 682Q106 684 106 687T109 693Q144 723 181 737T261 752Q329 752 367 723T405 647Q405 606 378 574T306 528Q303 527 303 525T307 522Q341 514 364 488T387 422Q387 379 364 345T297 292T192 273Q151 273 124
282T77 308T42 342Q39 347 42 350L73 373Q77 376 80 373Q102 344 131 332T197 319Q253 319 291 346T329 421Q329 447 314 464T275 491T223 500H166Q158 500 160 506L164 541Q164 545 171 545L216 546Q251 546 280 558T327 593T345 642Q345 670 323 688T260 707Q219
707 192 692T140 657Q134 652 129 659L108 682V682ZM252 3Q248 -2 244 -3T233 -4H207Q197 -4 196 3T199 17L785 745Q789 751 792 751T801 750H834Q839 750 843 747T842 737L252 3ZM772 461Q776 465 778 466T787 467H832Q839 467 838 458L798 174Q798 170 802 170H862Q870
170 870 164L865 132Q864 128 863 127T857 125H796Q790 125 790 119L775 7Q774 3 773 2T765 0H721Q713 0 714 8L730 120Q731 125 725 125H520Q512 125 513 134L518 167Q519 173 521 177T529 187L772 461V461ZM730 170Q736 170 737 176L766 388Q767 393 765 393T758
386L574 178Q567 170 574 170H730Z" />
<glyph unicode="&#xbf;" horiz-adv-x="516" d="M254 516Q256 525 259 527T273 530H342Q350 530 354 526T357 513L344 429Q343 423 342 421T335 419H252Q247 419 245 423T242 432L254 516ZM440 -28Q444 -29 446 -34T445 -45Q405 -106 339 -140T193 -175Q122 -175
75 -152T6 -87T-8 9Q-2 49 16 78T61 129T117 172T173 215T219 269T244 342Q246 350 255 350H304Q310 350 314 345T316 331Q308 276 284 239T227 174T162 123T107 70T78 3Q71 -48 103 -77T196 -107Q231 -107 266 -95T330 -60T372 -11Q376 -8 376 -8T383 -10L440
-28Z" />
<glyph unicode="&#xc0;" horiz-adv-x="727" d="M16 0Q10 0 8 5T10 19L370 730Q374 737 379 739T392 742H470Q480 742 484 737T489 725L646 15Q647 9 645 5T636 0H565Q552 0 551 13L508 205Q507 212 498 212H207Q198 212 194 203L94 7Q93 3 90 2T80 0H16V0ZM483
288Q495 288 492 301L418 630Q416 640 412 640T403 628L236 301Q233 293 233 291T239 288H483ZM330 957Q332 961 335 962T342 961L559 867Q563 865 565 862T565 852L553 828Q551 823 548 823T538 824L319 893Q310 896 308 900T309 910L330 957V957Z" />
<glyph unicode="&#xc1;" horiz-adv-x="727" d="M16 0Q10 0 8 5T10 19L370 730Q374 737 379 739T392 742H470Q480 742 484 737T489 725L646 15Q647 9 645 5T636 0H565Q552 0 551 13L508 205Q507 212 498 212H207Q198 212 194 203L94 7Q93 3 90 2T80 0H16V0ZM483
288Q495 288 492 301L418 630Q416 640 412 640T403 628L236 301Q233 293 233 291T239 288H483ZM584 910Q586 904 585 901T574 894L335 823Q329 821 325 824T320 833L315 855Q313 866 318 868L563 963Q566 964 570 963T575 955L584 910Z" />
<glyph unicode="&#xc2;" horiz-adv-x="727" d="M16 0Q10 0 8 5T10 19L370 730Q374 737 379 739T392 742H470Q480 742 484 737T489 725L646 15Q647 9 645 5T636 0H565Q552 0 551 13L508 205Q507 212 498 212H207Q198 212 194 203L94 7Q93 3 90 2T80 0H16V0ZM483
288Q495 288 492 301L418 630Q416 640 412 640T403 628L236 301Q233 293 233 291T239 288H483ZM461 901Q454 908 452 908T440 900L374 849Q368 844 365 844T355 843H300Q293 843 293 847T297 855L413 948Q419 953 424 955T438 957H478Q485 957 488 953T495 946L584
853Q590 847 589 845T581 843H525Q519 843 516 845T509 851L461 901Z" />
<glyph unicode="&#xc3;" horiz-adv-x="727" d="M16 0Q10 0 8 5T10 19L370 730Q374 737 379 739T392 742H470Q480 742 484 737T489 725L646 15Q647 9 645 5T636 0H565Q552 0 551 13L508 205Q507 212 498 212H207Q198 212 194 203L94 7Q93 3 90 2T80 0H16V0ZM483
288Q495 288 492 301L418 630Q416 640 412 640T403 628L236 301Q233 293 233 291T239 288H483ZM594 886Q581 879 562 873T516 867Q488 867 469 873T432 886T393 892Q369 892 356 883T328 868Q321 866 319 868T314 878L307 905Q306 910 305 914T309 921Q327 932
345 939T388 947Q414 947 435 941T475 927T516 920Q530 920 540 923T559 932T577 942Q585 944 589 942T595 932L600 901Q601 897 601 893T594 886V886Z" />
<glyph unicode="&#xc4;" horiz-adv-x="727" d="M16 0Q10 0 8 5T10 19L370 730Q374 737 379 739T392 742H470Q480 742 484 737T489 725L646 15Q647 9 645 5T636 0H565Q552 0 551 13L508 205Q507 212 498 212H207Q198 212 194 203L94 7Q93 3 90 2T80 0H16V0ZM483
288Q495 288 492 301L418 630Q416 640 412 640T403 628L236 301Q233 293 233 291T239 288H483ZM414 857Q413 848 410 846T397 844H344Q336 844 333 848T331 859L343 944Q344 951 346 952T353 954H415Q421 954 424 950T425 939L414 857ZM560 857Q559 848 556 846T543
844H491Q482 844 480 848T478 859L489 944Q491 951 492 952T500 954H561Q567 954 570 950T572 939L560 857Z" />
<glyph unicode="&#xc5;" horiz-adv-x="727" d="M16 0Q10 0 8 5T10 19L370 730Q374 737 379 739T392 742H470Q480 742 484 737T489 725L646 15Q647 9 645 5T636 0H565Q552 0 551 13L508 205Q507 212 498 212H207Q198 212 194 203L94 7Q93 3 90 2T80 0H16V0ZM483
288Q495 288 492 301L418 630Q416 640 412 640T403 628L236 301Q233 293 233 291T239 288H483ZM545 855Q539 812 506 784T430 755Q400 755 377 769T344 809T337 866Q342 907 376 935T451 963Q482 963 504 949T538 910T545 855V855ZM495 863Q499 887 486 901T451
915Q427 915 407 898T383 854Q380 834 394 819T428 803Q453 803 472 821T495 863V863Z" />
<glyph unicode="&#xc6;" horiz-adv-x="1008" d="M920 74Q927 74 930 71T932 61L925 9Q924 3 923 2T914 0H477Q469 0 466 4T463 17L490 207Q491 210 490 211T485 212H246Q241 212 237 209T231 202L94 7Q88 0 77 0H17Q12 0 9 6T10 19L509 730Q514 737 518 739T531
742H1003Q1008 742 1011 738T1013 729L1005 678Q1004 672 1002 670T993 668H665Q658 668 654 665T648 654L616 419Q615 414 616 413T624 411H868Q874 411 877 408T879 398L872 345Q871 340 870 339T862 338H617Q612 338 608 335T602 325L569 82Q568 76 568 75T575
74H920V74ZM489 288Q495 288 499 292T503 302L551 641Q553 655 547 653T530 636L289 297Q284 291 284 290T288 288H489V288Z" />
<glyph unicode="&#xc7;" horiz-adv-x="707" d="M444 752Q513 752 568 723T655 647T688 542Q688 530 678 530L606 525Q598 525 596 541Q591 603 550 641T442 679Q382 679 337 654T260 587T209 493T181 384T172 275Q172 171 217 119T353 66Q425 66 479 101T571 211Q574
218 586 214L645 198Q652 195 646 180Q633 153 613 125T566 73T504 31T431 1T346 -10Q259 -10 198 26T106 128T74 287Q74 353 87 419T129 545T202 652T306 725T444 752V752ZM415 -136Q410 -173 377 -191T300 -210Q274 -210 253 -204T215 -185Q212 -185 210 -183T208
-177L224 -151Q225 -148 226 -150T230 -154Q241 -161 254 -165T288 -170Q318 -170 335 -159T355 -127Q357 -107 341 -97T283 -86Q277 -86 275 -84T274 -78L322 5H370L340 -54Q338 -56 338 -56T339 -57Q372 -59 389 -71T412 -100T415 -136V-136Z" />
<glyph unicode="&#xc8;" horiz-adv-x="628" d="M163 731Q164 738 166 740T174 742H626Q636 742 633 729L626 679Q625 673 623 671T612 668H260Q254 668 252 666T248 657L214 419Q213 415 215 413T222 411H486Q491 411 492 409T493 400L485 346Q484 338 474 338H212Q203
338 201 326L167 83Q166 74 174 74H543Q550 74 552 72T553 63L546 9Q545 3 543 2T535 0H75Q60 0 62 17L163 731V731ZM310 957Q312 961 315 962T322 961L539 867Q543 865 545 862T545 852L533 828Q531 823 528 823T518 824L299 893Q290 896 288 900T289 910L310
957V957Z" />
<glyph unicode="&#xc9;" horiz-adv-x="628" d="M163 731Q164 738 166 740T174 742H626Q636 742 633 729L626 679Q625 673 623 671T612 668H260Q254 668 252 666T248 657L214 419Q213 415 215 413T222 411H486Q491 411 492 409T493 400L485 346Q484 338 474 338H212Q203
338 201 326L167 83Q166 74 174 74H543Q550 74 552 72T553 63L546 9Q545 3 543 2T535 0H75Q60 0 62 17L163 731V731ZM564 910Q566 904 565 901T554 894L315 823Q309 821 305 824T300 833L295 855Q293 866 298 868L543 963Q546 964 550 963T555 955L564 910Z" />
<glyph unicode="&#xca;" horiz-adv-x="628" d="M163 731Q164 738 166 740T174 742H626Q636 742 633 729L626 679Q625 673 623 671T612 668H260Q254 668 252 666T248 657L214 419Q213 415 215 413T222 411H486Q491 411 492 409T493 400L485 346Q484 338 474 338H212Q203
338 201 326L167 83Q166 74 174 74H543Q550 74 552 72T553 63L546 9Q545 3 543 2T535 0H75Q60 0 62 17L163 731V731ZM441 901Q434 908 432 908T420 900L354 849Q348 844 345 844T335 843H280Q273 843 273 847T277 855L393 948Q399 953 404 955T418 957H458Q465
957 468 953T475 946L564 853Q570 847 569 845T561 843H505Q499 843 496 845T489 851L441 901Z" />
<glyph unicode="&#xcb;" horiz-adv-x="628" d="M163 731Q164 738 166 740T174 742H626Q636 742 633 729L626 679Q625 673 623 671T612 668H260Q254 668 252 666T248 657L214 419Q213 415 215 413T222 411H486Q491 411 492 409T493 400L485 346Q484 338 474 338H212Q203
338 201 326L167 83Q166 74 174 74H543Q550 74 552 72T553 63L546 9Q545 3 543 2T535 0H75Q60 0 62 17L163 731V731ZM394 857Q393 848 390 846T377 844H324Q316 844 313 848T311 859L323 944Q324 951 326 952T333 954H395Q401 954 404 950T405 939L394 857ZM540
857Q539 848 536 846T523 844H471Q462 844 460 848T458 859L469 944Q471 951 472 952T480 954H541Q547 954 550 950T552 939L540 857Z" />
<glyph unicode="&#xcc;" horiz-adv-x="290" d="M248 742Q260 742 257 727L157 14Q156 5 153 3T140 0H75Q66 0 64 4T62 17L163 731Q164 738 166 740T174 742H248ZM115 957Q117 961 120 962T127 961L344 867Q348 865 350 862T350 852L338 828Q336 823 333 823T323
824L104 893Q95 896 93 900T94 910L115 957V957Z" />
<glyph unicode="&#xcd;" horiz-adv-x="290" d="M248 742Q260 742 257 727L157 14Q156 5 153 3T140 0H75Q66 0 64 4T62 17L163 731Q164 738 166 740T174 742H248ZM369 910Q371 904 370 901T359 894L120 823Q114 821 110 824T105 833L100 855Q98 866 103 868L348
963Q351 964 355 963T360 955L369 910Z" />
<glyph unicode="&#xce;" horiz-adv-x="290" d="M248 742Q260 742 257 727L157 14Q156 5 153 3T140 0H75Q66 0 64 4T62 17L163 731Q164 738 166 740T174 742H248ZM245 901Q238 908 236 908T224 900L158 849Q152 844 149 844T139 843H84Q77 843 77 847T81 855L197
948Q203 953 208 955T222 957H262Q269 957 272 953T279 946L368 853Q374 847 373 845T365 843H309Q303 843 300 845T293 851L245 901Z" />
<glyph unicode="&#xcf;" horiz-adv-x="290" d="M248 742Q260 742 257 727L157 14Q156 5 153 3T140 0H75Q66 0 64 4T62 17L163 731Q164 738 166 740T174 742H248ZM199 857Q198 848 195 846T182 844H129Q121 844 118 848T116 859L128 944Q129 951 131 952T138 954H200Q206
954 209 950T210 939L199 857ZM345 857Q344 848 341 846T328 844H276Q267 844 265 848T263 859L274 944Q276 951 277 952T285 954H346Q352 954 355 950T357 939L345 857Z" />
<glyph unicode="&#xd0;" horiz-adv-x="690" d="M359 350Q358 341 354 339T340 336H38Q30 336 27 341T24 353L30 395Q31 402 33 404T40 406H355Q360 406 363 402T365 392L359 350ZM45 0Q38 0 34 5T31 18L131 732Q132 738 135 740T146 742H296Q417 742 494 709T609
612T647 455Q647 311 597 210T446 54T196 0H45V0ZM202 72Q326 72 401 117T512 249T547 459Q547 537 519 583T434 649T291 669H229Q217 669 216 656L137 87Q136 79 138 76T148 72H202Z" />
<glyph unicode="&#xd1;" horiz-adv-x="757" d="M716 742Q726 742 725 730L624 10Q623 0 612 0H563Q557 0 552 2T543 11L235 571Q231 578 227 577T222 567L144 11Q143 5 141 3T130 0H72Q66 0 63 4T61 15L163 731Q164 738 166 740T175 742H233Q240 742 244 740T251
730L550 182Q555 174 560 175T567 186L643 732Q645 738 647 740T655 742H716ZM622 886Q609 879 590 873T544 867Q516 867 497 873T460 886T421 892Q397 892 384 883T356 868Q349 866 347 868T342 878L335 905Q334 910 333 914T337 921Q355 932 373 939T416 947Q442
947 463 941T503 927T544 920Q558 920 568 923T587 932T605 942Q613 944 617 942T623 932L628 901Q629 897 629 893T622 886V886Z" />
<glyph unicode="&#xd2;" horiz-adv-x="764" d="M347 -10Q260 -10 199 24T106 123T74 282Q74 303 75 326T80 372Q98 494 147 578T274 707T447 752Q533 752 594 717T687 616T719 454Q719 434 718 412T713 365Q696 245 647 161T521 34T347 -10V-10ZM352 63Q461 63
526 139T614 373Q618 400 619 425T621 472Q621 577 577 628T445 679Q337 679 270 602T179 364Q175 338 174 314T172 269Q172 165 217 114T352 63V63ZM350 957Q352 961 355 962T362 961L579 867Q583 865 585 862T585 852L573 828Q571 823 568 823T558 824L339 893Q330
896 328 900T329 910L350 957V957Z" />
<glyph unicode="&#xd3;" horiz-adv-x="764" d="M347 -10Q260 -10 199 24T106 123T74 282Q74 303 75 326T80 372Q98 494 147 578T274 707T447 752Q533 752 594 717T687 616T719 454Q719 434 718 412T713 365Q696 245 647 161T521 34T347 -10V-10ZM352 63Q461 63
526 139T614 373Q618 400 619 425T621 472Q621 577 577 628T445 679Q337 679 270 602T179 364Q175 338 174 314T172 269Q172 165 217 114T352 63V63ZM604 910Q606 904 605 901T594 894L355 823Q349 821 345 824T340 833L335 855Q333 866 338 868L583 963Q586 964
590 963T595 955L604 910Z" />
<glyph unicode="&#xd4;" horiz-adv-x="764" d="M347 -10Q260 -10 199 24T106 123T74 282Q74 303 75 326T80 372Q98 494 147 578T274 707T447 752Q533 752 594 717T687 616T719 454Q719 434 718 412T713 365Q696 245 647 161T521 34T347 -10V-10ZM352 63Q461 63
526 139T614 373Q618 400 619 425T621 472Q621 577 577 628T445 679Q337 679 270 602T179 364Q175 338 174 314T172 269Q172 165 217 114T352 63V63ZM480 901Q473 908 471 908T459 900L393 849Q387 844 384 844T374 843H319Q312 843 312 847T316 855L432 948Q438
953 443 955T457 957H497Q504 957 507 953T514 946L603 853Q609 847 608 845T600 843H544Q538 843 535 845T528 851L480 901Z" />
<glyph unicode="&#xd5;" horiz-adv-x="764" d="M347 -10Q260 -10 199 24T106 123T74 282Q74 303 75 326T80 372Q98 494 147 578T274 707T447 752Q533 752 594 717T687 616T719 454Q719 434 718 412T713 365Q696 245 647 161T521 34T347 -10V-10ZM352 63Q461 63
526 139T614 373Q618 400 619 425T621 472Q621 577 577 628T445 679Q337 679 270 602T179 364Q175 338 174 314T172 269Q172 165 217 114T352 63V63ZM614 886Q601 879 582 873T536 867Q508 867 489 873T452 886T413 892Q389 892 376 883T348 868Q341 866 339 868T334
878L327 905Q326 910 325 914T329 921Q347 932 365 939T408 947Q434 947 455 941T495 927T536 920Q550 920 560 923T579 932T597 942Q605 944 609 942T615 932L620 901Q621 897 621 893T614 886V886Z" />
<glyph unicode="&#xd6;" horiz-adv-x="764" d="M347 -10Q260 -10 199 24T106 123T74 282Q74 303 75 326T80 372Q98 494 147 578T274 707T447 752Q533 752 594 717T687 616T719 454Q719 434 718 412T713 365Q696 245 647 161T521 34T347 -10V-10ZM352 63Q461 63
526 139T614 373Q618 400 619 425T621 472Q621 577 577 628T445 679Q337 679 270 602T179 364Q175 338 174 314T172 269Q172 165 217 114T352 63V63ZM433 857Q432 848 429 846T416 844H363Q355 844 352 848T350 859L362 944Q363 951 365 952T372 954H434Q440 954
443 950T444 939L433 857ZM579 857Q578 848 575 846T562 844H510Q501 844 499 848T497 859L508 944Q510 951 511 952T519 954H580Q586 954 589 950T591 939L579 857Z" />
<glyph unicode="&#xd7;" horiz-adv-x="540" d="M430 172Q424 167 420 169T409 178L108 527Q104 532 103 536T108 544L142 575Q147 579 150 578T156 573L464 217Q466 214 467 210T465 203L430 172ZM64 203Q60 209 60 214T66 225L464 574Q470 580 474 578T481 571L508
541Q511 537 512 534T511 526L104 170Q100 167 97 168T91 173L64 203Z" />
<glyph unicode="&#xd8;" horiz-adv-x="729" d="M771 714Q774 711 775 707T772 698L674 606Q694 561 700 500T695 365Q679 245 630 161T504 34T330 -10Q259 -10 207 12T120 78L40 -2Q32 -9 27 -8T15 0L-6 23Q-11 29 -13 33T-9 44L85 132Q65 178 59 238T63 372Q80
494 130 578T257 707T430 752Q500 752 553 729T640 661L725 745Q729 750 733 750T742 745L771 714V714ZM164 364Q157 316 158 277T168 205L575 603Q555 642 518 660T427 678Q319 678 253 601T164 364V364ZM595 373Q601 421 601 461T591 534L184 136Q206 99 244
82T334 64Q444 64 508 139T595 373V373Z" />
<glyph unicode="&#xd9;" horiz-adv-x="709" d="M619 245Q606 155 568 99T468 16T319 -10Q197 -10 140 42T82 197Q82 213 83 230T88 266L153 730Q154 737 156 739T164 742H236Q243 742 246 738T248 727L180 241Q179 229 178 219T176 197Q176 129 214 97T329 64Q389
64 432 84T503 145T539 249L607 732Q608 738 610 740T617 742H676Q682 742 684 738T687 727L619 245V245ZM330 957Q332 961 335 962T342 961L559 867Q563 865 565 862T565 852L553 828Q551 823 548 823T538 824L319 893Q310 896 308 900T309 910L330 957V957Z"
/>
<glyph unicode="&#xda;" horiz-adv-x="709" d="M619 245Q606 155 568 99T468 16T319 -10Q197 -10 140 42T82 197Q82 213 83 230T88 266L153 730Q154 737 156 739T164 742H236Q243 742 246 738T248 727L180 241Q179 229 178 219T176 197Q176 129 214 97T329 64Q389
64 432 84T503 145T539 249L607 732Q608 738 610 740T617 742H676Q682 742 684 738T687 727L619 245V245ZM584 910Q586 904 585 901T574 894L335 823Q329 821 325 824T320 833L315 855Q313 866 318 868L563 963Q566 964 570 963T575 955L584 910Z" />
<glyph unicode="&#xdb;" horiz-adv-x="709" d="M619 245Q606 155 568 99T468 16T319 -10Q197 -10 140 42T82 197Q82 213 83 230T88 266L153 730Q154 737 156 739T164 742H236Q243 742 246 738T248 727L180 241Q179 229 178 219T176 197Q176 129 214 97T329 64Q389
64 432 84T503 145T539 249L607 732Q608 738 610 740T617 742H676Q682 742 684 738T687 727L619 245V245ZM460 901Q453 908 451 908T439 900L373 849Q367 844 364 844T354 843H299Q292 843 292 847T296 855L412 948Q418 953 423 955T437 957H477Q484 957 487 953T494
946L583 853Q589 847 588 845T580 843H524Q518 843 515 845T508 851L460 901Z" />
<glyph unicode="&#xdc;" horiz-adv-x="709" d="M619 245Q606 155 568 99T468 16T319 -10Q197 -10 140 42T82 197Q82 213 83 230T88 266L153 730Q154 737 156 739T164 742H236Q243 742 246 738T248 727L180 241Q179 229 178 219T176 197Q176 129 214 97T329 64Q389
64 432 84T503 145T539 249L607 732Q608 738 610 740T617 742H676Q682 742 684 738T687 727L619 245V245ZM414 857Q413 848 410 846T397 844H344Q336 844 333 848T331 859L343 944Q344 951 346 952T353 954H415Q421 954 424 950T425 939L414 857ZM560 857Q559 848
556 846T543 844H491Q482 844 480 848T478 859L489 944Q491 951 492 952T500 954H561Q567 954 570 950T572 939L560 857Z" />
<glyph unicode="&#xdd;" horiz-adv-x="675" d="M692 742Q699 742 701 738T699 727L404 328Q400 322 398 316T393 295L353 15Q352 6 348 3T333 0H269Q260 0 258 4T257 15L297 295Q299 306 298 310T295 322L110 728Q107 735 108 738T119 742H192Q201 742 204 739T211
728L352 408Q360 390 373 408L605 732Q610 738 613 740T626 742H692V742ZM560 910Q562 904 561 901T550 894L311 823Q305 821 301 824T296 833L291 855Q289 866 294 868L539 963Q542 964 546 963T551 955L560 910Z" />
<glyph unicode="&#xde;" horiz-adv-x="692" d="M656 381Q646 307 606 261T504 193T364 171H190Q185 171 182 168T178 159L157 12Q156 5 153 3T143 0H75Q68 0 65 4T62 15L163 731Q164 738 166 740T174 742H246Q253 742 256 738T257 727L239 592Q238 588 239 588T243
587H408Q487 587 546 565T636 498T656 381V381ZM559 390Q568 459 524 486T397 514H243Q236 514 232 511T226 500L191 255Q190 248 191 246T198 244H362Q441 244 494 279T559 390V390Z" />
<glyph unicode="&#xdf;" horiz-adv-x="608" d="M384 742Q448 742 484 722T533 668T542 597Q537 559 518 535T470 495T405 461Q368 443 352 432T331 399Q329 381 340 374T382 354Q409 345 441 332T499 297T540 242T548 159Q540 104 508 66T430 9T328 -10Q291 -10
257 -1T201 23Q196 25 194 28T193 36L223 78Q225 81 228 79T233 74Q253 64 273 58T323 51Q382 51 421 79T469 160Q474 197 459 218T417 252T358 278Q333 287 309 299T271 334T262 393Q267 430 291 454T363 505Q385 517 406 529T443 559T463 604Q468 639 445 659T375
680Q313 680 269 643T215 533L142 11Q142 5 141 3T133 0H70Q65 0 62 4T59 14L121 451Q122 456 121 457T115 458H63Q58 458 56 461T53 470L59 513Q60 517 61 519T69 521H120Q126 521 128 525T132 536Q139 582 158 619T210 684T285 727T384 742V742Z" />
<glyph unicode="&#xe0;" horiz-adv-x="548" d="M358 62Q317 25 271 8T172 -10Q100 -10 60 24T20 116Q20 169 45 205T113 265T206 300T308 315L387 321Q406 323 408 338L412 365Q413 371 413 376T414 387Q414 431 386 455T307 480Q263 480 224 460T150 398Q147
394 145 394T136 395L85 413Q81 415 80 419T83 433Q119 482 177 511T313 540Q374 540 414 523T475 473T495 397Q495 390 495 383T493 367L444 12Q442 4 440 2T430 0H380Q373 0 370 4T367 16L372 64Q371 77 358 62V62ZM396 257Q398 265 396 268T386 270L317 264Q287
262 251 255T181 234T127 194T105 128Q105 93 131 73T203 52Q237 52 268 64T325 94Q351 113 367 133T385 173L396 257ZM212 745Q214 749 217 750T224 749L441 655Q445 653 447 650T447 640L435 616Q433 611 430 611T420 612L201 681Q192 684 190 688T191 698L212
745V745Z" />
<glyph unicode="&#xe1;" horiz-adv-x="548" d="M358 62Q317 25 271 8T172 -10Q100 -10 60 24T20 116Q20 169 45 205T113 265T206 300T308 315L387 321Q406 323 408 338L412 365Q413 371 413 376T414 387Q414 431 386 455T307 480Q263 480 224 460T150 398Q147
394 145 394T136 395L85 413Q81 415 80 419T83 433Q119 482 177 511T313 540Q374 540 414 523T475 473T495 397Q495 390 495 383T493 367L444 12Q442 4 440 2T430 0H380Q373 0 370 4T367 16L372 64Q371 77 358 62V62ZM396 257Q398 265 396 268T386 270L317 264Q287
262 251 255T181 234T127 194T105 128Q105 93 131 73T203 52Q237 52 268 64T325 94Q351 113 367 133T385 173L396 257ZM466 698Q468 692 467 689T456 682L217 611Q211 609 207 612T202 621L197 643Q195 654 200 656L445 751Q448 752 452 751T457 743L466 698Z"
/>
<glyph unicode="&#xe2;" horiz-adv-x="548" d="M358 62Q317 25 271 8T172 -10Q100 -10 60 24T20 116Q20 169 45 205T113 265T206 300T308 315L387 321Q406 323 408 338L412 365Q413 371 413 376T414 387Q414 431 386 455T307 480Q263 480 224 460T150 398Q147
394 145 394T136 395L85 413Q81 415 80 419T83 433Q119 482 177 511T313 540Q374 540 414 523T475 473T495 397Q495 390 495 383T493 367L444 12Q442 4 440 2T430 0H380Q373 0 370 4T367 16L372 64Q371 77 358 62V62ZM396 257Q398 265 396 268T386 270L317 264Q287
262 251 255T181 234T127 194T105 128Q105 93 131 73T203 52Q237 52 268 64T325 94Q351 113 367 133T385 173L396 257ZM343 689Q336 696 334 696T322 688L256 637Q250 632 247 632T237 631H182Q175 631 175 635T179 643L295 736Q301 741 306 743T320 745H360Q367
745 370 741T377 734L466 641Q472 635 471 633T463 631H407Q401 631 398 633T391 639L343 689Z" />
<glyph unicode="&#xe3;" horiz-adv-x="548" d="M358 62Q317 25 271 8T172 -10Q100 -10 60 24T20 116Q20 169 45 205T113 265T206 300T308 315L387 321Q406 323 408 338L412 365Q413 371 413 376T414 387Q414 431 386 455T307 480Q263 480 224 460T150 398Q147
394 145 394T136 395L85 413Q81 415 80 419T83 433Q119 482 177 511T313 540Q374 540 414 523T475 473T495 397Q495 390 495 383T493 367L444 12Q442 4 440 2T430 0H380Q373 0 370 4T367 16L372 64Q371 77 358 62V62ZM396 257Q398 265 396 268T386 270L317 264Q287
262 251 255T181 234T127 194T105 128Q105 93 131 73T203 52Q237 52 268 64T325 94Q351 113 367 133T385 173L396 257ZM476 674Q463 667 444 661T398 655Q370 655 351 661T314 674T275 680Q251 680 238 671T210 656Q203 654 201 656T196 666L189 693Q188 698 187
702T191 709Q209 720 227 727T270 735Q296 735 317 729T357 715T398 708Q412 708 422 711T441 720T459 730Q467 732 471 730T477 720L482 689Q483 685 483 681T476 674V674Z" />
<glyph unicode="&#xe4;" horiz-adv-x="548" d="M358 62Q317 25 271 8T172 -10Q100 -10 60 24T20 116Q20 169 45 205T113 265T206 300T308 315L387 321Q406 323 408 338L412 365Q413 371 413 376T414 387Q414 431 386 455T307 480Q263 480 224 460T150 398Q147
394 145 394T136 395L85 413Q81 415 80 419T83 433Q119 482 177 511T313 540Q374 540 414 523T475 473T495 397Q495 390 495 383T493 367L444 12Q442 4 440 2T430 0H380Q373 0 370 4T367 16L372 64Q371 77 358 62V62ZM396 257Q398 265 396 268T386 270L317 264Q287
262 251 255T181 234T127 194T105 128Q105 93 131 73T203 52Q237 52 268 64T325 94Q351 113 367 133T385 173L396 257ZM296 645Q295 636 292 634T279 632H226Q218 632 215 636T213 647L225 732Q226 739 228 740T235 742H297Q303 742 306 738T307 727L296 645ZM442
645Q441 636 438 634T425 632H373Q364 632 362 636T360 647L371 732Q373 739 374 740T382 742H443Q449 742 452 738T454 727L442 645Z" />
<glyph unicode="&#xe5;" horiz-adv-x="548" d="M358 62Q317 25 271 8T172 -10Q100 -10 60 24T20 116Q20 169 45 205T113 265T206 300T308 315L387 321Q406 323 408 338L412 365Q413 371 413 376T414 387Q414 431 386 455T307 480Q263 480 224 460T150 398Q147
394 145 394T136 395L85 413Q81 415 80 419T83 433Q119 482 177 511T313 540Q374 540 414 523T475 473T495 397Q495 390 495 383T493 367L444 12Q442 4 440 2T430 0H380Q373 0 370 4T367 16L372 64Q371 77 358 62V62ZM396 257Q398 265 396 268T386 270L317 264Q287
262 251 255T181 234T127 194T105 128Q105 93 131 73T203 52Q237 52 268 64T325 94Q351 113 367 133T385 173L396 257ZM439 693Q433 650 400 622T324 593Q294 593 271 607T238 647T231 704Q236 745 270 773T345 801Q376 801 398 787T432 748T439 693V693ZM389 701Q393
725 380 739T345 753Q321 753 301 736T277 692Q274 672 288 657T322 641Q347 641 366 659T389 701V701Z" />
<glyph unicode="&#xe6;" horiz-adv-x="925" d="M495 246Q484 246 479 241T472 219Q466 178 483 140T535 78T618 54Q662 54 692 66T746 99T789 140Q794 144 796 143T803 139L841 118Q844 116 846 112T844 101Q817 65 781 41T701 3T607 -10Q551 -10 514 8T453 52T415
101Q414 103 412 100T407 94Q383 71 351 47T275 6T171 -10Q90 -10 51 31T21 142Q32 217 99 261T296 314L384 321Q393 322 399 326T407 338L411 365Q419 419 392 449T303 480Q260 480 222 459T148 396Q144 391 142 392T133 395L84 413Q80 415 80 420T82 433Q107
467 141 491T217 527T311 540Q385 540 425 515T476 443Q514 492 566 516T679 540Q751 540 801 508T874 414T884 264Q883 255 880 251T865 247L495 246V246ZM677 480Q631 480 590 458T521 396T485 300L786 302Q798 302 802 306T808 321Q814 364 800 400T755 458T677
480V480ZM395 254Q397 262 395 264T383 267L310 261Q249 257 205 241T136 200T106 138Q100 98 125 74T203 51Q248 53 287 70T353 114T384 175L395 254V254Z" />
<glyph unicode="&#xe7;" horiz-adv-x="542" d="M332 540Q385 540 422 523T485 476T523 411Q525 406 524 404T518 399L463 387Q459 386 457 389T451 399Q435 426 418 443T381 469T335 478Q284 478 246 454T181 391T142 305T128 211Q128 136 166 94T271 52Q320 52
359 75T434 148Q439 153 446 149L486 133Q490 132 492 128T491 116Q473 91 450 68T398 27T335 0T261 -10Q194 -10 145 18T70 97T43 217Q43 277 62 334T119 438T210 512T332 540V540ZM331 -136Q326 -173 293 -191T216 -210Q190 -210 169 -204T131 -185Q128 -185
126 -183T124 -177L140 -151Q141 -148 142 -150T146 -154Q157 -161 170 -165T204 -170Q234 -170 251 -159T271 -127Q273 -107 257 -97T199 -86Q193 -86 191 -84T190 -78L238 5H286L256 -54Q254 -56 254 -56T255 -57Q288 -59 305 -71T328 -100T331 -136V-136Z" />
<glyph unicode="&#xe8;" horiz-adv-x="581" d="M265 -10Q198 -10 148 18T70 96T43 215Q43 277 63 335T121 439T213 512T334 540Q399 540 446 515T518 440T544 322Q544 308 543 294T540 264Q539 256 534 252T519 247H140Q132 247 129 238T126 202Q126 133 167 94T274
54Q327 54 368 75T443 138Q447 142 451 142T458 139L497 118Q508 112 501 101Q468 61 432 37T355 2T265 -10V-10ZM443 300Q453 300 459 308T465 345Q465 404 430 442T333 480Q280 480 239 454T172 387T140 300H443ZM236 745Q238 749 241 750T248 749L465 655Q469
653 471 650T471 640L459 616Q457 611 454 611T444 612L225 681Q216 684 214 688T215 698L236 745V745Z" />
<glyph unicode="&#xe9;" horiz-adv-x="581" d="M265 -10Q198 -10 148 18T70 96T43 215Q43 277 63 335T121 439T213 512T334 540Q399 540 446 515T518 440T544 322Q544 308 543 294T540 264Q539 256 534 252T519 247H140Q132 247 129 238T126 202Q126 133 167 94T274
54Q327 54 368 75T443 138Q447 142 451 142T458 139L497 118Q508 112 501 101Q468 61 432 37T355 2T265 -10V-10ZM443 300Q453 300 459 308T465 345Q465 404 430 442T333 480Q280 480 239 454T172 387T140 300H443ZM490 698Q492 692 491 689T480 682L241 611Q235
609 231 612T226 621L221 643Q219 654 224 656L469 751Q472 752 476 751T481 743L490 698Z" />
<glyph unicode="&#xea;" horiz-adv-x="581" d="M265 -10Q198 -10 148 18T70 96T43 215Q43 277 63 335T121 439T213 512T334 540Q399 540 446 515T518 440T544 322Q544 308 543 294T540 264Q539 256 534 252T519 247H140Q132 247 129 238T126 202Q126 133 167 94T274
54Q327 54 368 75T443 138Q447 142 451 142T458 139L497 118Q508 112 501 101Q468 61 432 37T355 2T265 -10V-10ZM443 300Q453 300 459 308T465 345Q465 404 430 442T333 480Q280 480 239 454T172 387T140 300H443ZM366 689Q359 696 357 696T345 688L279 637Q273
632 270 632T260 631H205Q198 631 198 635T202 643L318 736Q324 741 329 743T343 745H383Q390 745 393 741T400 734L489 641Q495 635 494 633T486 631H430Q424 631 421 633T414 639L366 689Z" />
<glyph unicode="&#xeb;" horiz-adv-x="581" d="M265 -10Q198 -10 148 18T70 96T43 215Q43 277 63 335T121 439T213 512T334 540Q399 540 446 515T518 440T544 322Q544 308 543 294T540 264Q539 256 534 252T519 247H140Q132 247 129 238T126 202Q126 133 167 94T274
54Q327 54 368 75T443 138Q447 142 451 142T458 139L497 118Q508 112 501 101Q468 61 432 37T355 2T265 -10V-10ZM443 300Q453 300 459 308T465 345Q465 404 430 442T333 480Q280 480 239 454T172 387T140 300H443ZM319 645Q318 636 315 634T302 632H249Q241 632
238 636T236 647L248 732Q249 739 251 740T258 742H320Q326 742 329 738T330 727L319 645ZM465 645Q464 636 461 634T448 632H396Q387 632 385 636T383 647L394 732Q396 739 397 740T405 742H466Q472 742 475 738T477 727L465 645Z" />
<glyph unicode="&#xec;" horiz-adv-x="239" d="M126 14Q125 5 122 3T108 0H57Q48 0 45 4T42 17L113 519Q114 526 116 528T124 530H185Q191 530 194 526T197 515L126 14ZM57 745Q59 749 62 750T69 749L286 655Q290 653 292 650T292 640L280 616Q278 611 275 611T265
612L46 681Q37 684 35 688T36 698L57 745V745Z" />
<glyph unicode="&#xed;" horiz-adv-x="239" d="M126 14Q125 5 122 3T108 0H57Q48 0 45 4T42 17L113 519Q114 526 116 528T124 530H185Q191 530 194 526T197 515L126 14ZM311 698Q313 692 312 689T301 682L62 611Q56 609 52 612T47 621L42 643Q40 654 45 656L290
751Q293 752 297 751T302 743L311 698Z" />
<glyph unicode="&#xee;" horiz-adv-x="239" d="M126 14Q125 5 122 3T108 0H57Q48 0 45 4T42 17L113 519Q114 526 116 528T124 530H185Q191 530 194 526T197 515L126 14ZM187 689Q180 696 178 696T166 688L100 637Q94 632 91 632T81 631H26Q19 631 19 635T23 643L139
736Q145 741 150 743T164 745H204Q211 745 214 741T221 734L310 641Q316 635 315 633T307 631H251Q245 631 242 633T235 639L187 689Z" />
<glyph unicode="&#xef;" horiz-adv-x="239" d="M126 14Q125 5 122 3T108 0H57Q48 0 45 4T42 17L113 519Q114 526 116 528T124 530H185Q191 530 194 526T197 515L126 14ZM141 645Q140 636 137 634T124 632H71Q63 632 60 636T58 647L70 732Q71 739 73 740T80 742H142Q148
742 151 738T152 727L141 645ZM287 645Q286 636 283 634T270 632H218Q209 632 207 636T205 647L216 732Q218 739 219 740T227 742H288Q294 742 297 738T299 727L287 645Z" />
<glyph unicode="&#xf0;" horiz-adv-x="599" d="M551 258Q540 179 501 119T402 24T262 -10Q187 -10 135 24T59 118T45 256Q56 334 96 393T195 486T325 520Q366 520 397 508T449 474Q434 518 407 558T331 634L170 547Q165 545 162 548T155 556L147 573Q141 583 147
586L293 660Q271 673 248 685T197 709Q192 710 190 714T192 721L232 749Q238 752 241 752T249 747Q282 737 309 724T361 695L465 751Q469 754 472 752T476 746L487 720Q488 717 489 715T487 711L400 667Q500 592 534 488T551 258V258ZM267 53Q317 53 359 79T429
152T465 259Q474 317 460 362T412 432T330 458Q281 458 239 431T168 357T130 250Q123 193 137 148T185 78T267 53V53Z" />
<glyph unicode="&#xf1;" horiz-adv-x="584" d="M53 0Q47 0 44 4T42 16L113 520Q114 526 116 528T123 530H186Q191 530 193 528T194 519L186 462Q185 451 194 459Q242 497 289 518T388 540Q458 540 495 505T532 413Q532 407 532 401T530 386L477 13Q476 5 473 3T462
0H404Q398 0 395 4T394 16L444 371Q445 378 445 384T446 396Q446 434 425 454T358 474Q327 474 300 465T245 437T180 391L126 12Q125 5 122 3T110 0H53V0ZM505 674Q492 667 473 661T427 655Q399 655 380 661T343 674T304 680Q280 680 267 671T239 656Q232 654 230
656T225 666L218 693Q217 698 216 702T220 709Q238 720 256 727T299 735Q325 735 346 729T386 715T427 708Q441 708 451 711T470 720T488 730Q496 732 500 730T506 720L511 689Q512 685 512 681T505 674V674Z" />
<glyph unicode="&#xf2;" horiz-adv-x="599" d="M264 -10Q196 -10 146 18T70 97T43 216Q43 286 66 345T129 448T222 516T335 540Q404 540 453 511T528 430T555 309Q555 217 516 145T411 31T264 -10V-10ZM267 53Q325 53 371 86T443 179T470 322Q470 395 435 436T333
478Q277 478 230 445T156 351T128 208Q128 136 164 95T267 53V53ZM238 745Q240 749 243 750T250 749L467 655Q471 653 473 650T473 640L461 616Q459 611 456 611T446 612L227 681Q218 684 216 688T217 698L238 745V745Z" />
<glyph unicode="&#xf3;" horiz-adv-x="599" d="M264 -10Q196 -10 146 18T70 97T43 216Q43 286 66 345T129 448T222 516T335 540Q404 540 453 511T528 430T555 309Q555 217 516 145T411 31T264 -10V-10ZM267 53Q325 53 371 86T443 179T470 322Q470 395 435 436T333
478Q277 478 230 445T156 351T128 208Q128 136 164 95T267 53V53ZM492 698Q494 692 493 689T482 682L243 611Q237 609 233 612T228 621L223 643Q221 654 226 656L471 751Q474 752 478 751T483 743L492 698Z" />
<glyph unicode="&#xf4;" horiz-adv-x="599" d="M264 -10Q196 -10 146 18T70 97T43 216Q43 286 66 345T129 448T222 516T335 540Q404 540 453 511T528 430T555 309Q555 217 516 145T411 31T264 -10V-10ZM267 53Q325 53 371 86T443 179T470 322Q470 395 435 436T333
478Q277 478 230 445T156 351T128 208Q128 136 164 95T267 53V53ZM369 689Q362 696 360 696T348 688L282 637Q276 632 273 632T263 631H208Q201 631 201 635T205 643L321 736Q327 741 332 743T346 745H386Q393 745 396 741T403 734L492 641Q498 635 497 633T489
631H433Q427 631 424 633T417 639L369 689Z" />
<glyph unicode="&#xf5;" horiz-adv-x="599" d="M264 -10Q196 -10 146 18T70 97T43 216Q43 286 66 345T129 448T222 516T335 540Q404 540 453 511T528 430T555 309Q555 217 516 145T411 31T264 -10V-10ZM267 53Q325 53 371 86T443 179T470 322Q470 395 435 436T333
478Q277 478 230 445T156 351T128 208Q128 136 164 95T267 53V53ZM502 674Q489 667 470 661T424 655Q396 655 377 661T340 674T301 680Q277 680 264 671T236 656Q229 654 227 656T222 666L215 693Q214 698 213 702T217 709Q235 720 253 727T296 735Q322 735 343
729T383 715T424 708Q438 708 448 711T467 720T485 730Q493 732 497 730T503 720L508 689Q509 685 509 681T502 674V674Z" />
<glyph unicode="&#xf6;" horiz-adv-x="599" d="M264 -10Q196 -10 146 18T70 97T43 216Q43 286 66 345T129 448T222 516T335 540Q404 540 453 511T528 430T555 309Q555 217 516 145T411 31T264 -10V-10ZM267 53Q325 53 371 86T443 179T470 322Q470 395 435 436T333
478Q277 478 230 445T156 351T128 208Q128 136 164 95T267 53V53ZM322 645Q321 636 318 634T305 632H252Q244 632 241 636T239 647L251 732Q252 739 254 740T261 742H323Q329 742 332 738T333 727L322 645ZM468 645Q467 636 464 634T451 632H399Q390 632 388 636T386
647L397 732Q399 739 400 740T408 742H469Q475 742 478 738T480 727L468 645Z" />
<glyph unicode="&#xf7;" horiz-adv-x="558" d="M320 156Q319 147 316 145T302 143H222Q214 143 211 147T209 159L220 241Q221 247 223 248T229 250H322Q327 250 330 247T332 237L320 156ZM508 351Q507 344 504 342T492 340L87 339Q80 339 77 343T74 354L80 397Q82
402 83 404T89 406H504Q508 406 511 403T514 394L508 351ZM369 508Q368 500 366 498T352 495H272Q264 495 261 499T258 511L270 593Q271 600 273 601T279 603H371Q377 603 379 600T381 590L369 508Z" />
<glyph unicode="&#xf8;" horiz-adv-x="583" d="M28 4Q21 -2 15 0T5 8L-6 22Q-12 29 -13 34T-7 46L555 525Q561 531 566 530T575 522L591 503Q594 499 595 495T591 486L28 4ZM254 -10Q186 -10 136 18T60 97T33 216Q33 286 56 345T119 448T212 516T325 540Q394 540
443 511T518 430T545 309Q545 217 506 145T402 31T254 -10V-10ZM257 53Q315 53 361 86T433 179T460 322Q460 395 425 436T323 478Q267 478 220 445T146 351T118 208Q118 136 154 95T257 53V53Z" />
<glyph unicode="&#xf9;" horiz-adv-x="579" d="M195 -10Q131 -10 92 25T52 121Q52 126 52 132T53 145L106 517Q107 525 110 527T120 530H176Q184 530 187 526T189 514L140 163Q139 157 139 151T138 141Q138 96 160 76T224 56Q269 56 312 80T400 145L453 518Q455
526 458 528T469 530H524Q532 530 535 526T538 514L466 10Q465 5 463 3T455 0H397Q391 0 388 2T386 11L394 67Q395 73 393 74T384 70Q323 23 279 7T195 -10V-10ZM214 745Q216 749 219 750T226 749L443 655Q447 653 449 650T449 640L437 616Q435 611 432 611T422
612L203 681Q194 684 192 688T193 698L214 745V745Z" />
<glyph unicode="&#xfa;" horiz-adv-x="579" d="M195 -10Q131 -10 92 25T52 121Q52 126 52 132T53 145L106 517Q107 525 110 527T120 530H176Q184 530 187 526T189 514L140 163Q139 157 139 151T138 141Q138 96 160 76T224 56Q269 56 312 80T400 145L453 518Q455
526 458 528T469 530H524Q532 530 535 526T538 514L466 10Q465 5 463 3T455 0H397Q391 0 388 2T386 11L394 67Q395 73 393 74T384 70Q323 23 279 7T195 -10V-10ZM468 698Q470 692 469 689T458 682L219 611Q213 609 209 612T204 621L199 643Q197 654 202 656L447
751Q450 752 454 751T459 743L468 698Z" />
<glyph unicode="&#xfb;" horiz-adv-x="579" d="M195 -10Q131 -10 92 25T52 121Q52 126 52 132T53 145L106 517Q107 525 110 527T120 530H176Q184 530 187 526T189 514L140 163Q139 157 139 151T138 141Q138 96 160 76T224 56Q269 56 312 80T400 145L453 518Q455
526 458 528T469 530H524Q532 530 535 526T538 514L466 10Q465 5 463 3T455 0H397Q391 0 388 2T386 11L394 67Q395 73 393 74T384 70Q323 23 279 7T195 -10V-10ZM345 689Q338 696 336 696T324 688L258 637Q252 632 249 632T239 631H184Q177 631 177 635T181 643L297
736Q303 741 308 743T322 745H362Q369 745 372 741T379 734L468 641Q474 635 473 633T465 631H409Q403 631 400 633T393 639L345 689Z" />
<glyph unicode="&#xfc;" horiz-adv-x="579" d="M195 -10Q131 -10 92 25T52 121Q52 126 52 132T53 145L106 517Q107 525 110 527T120 530H176Q184 530 187 526T189 514L140 163Q139 157 139 151T138 141Q138 96 160 76T224 56Q269 56 312 80T400 145L453 518Q455
526 458 528T469 530H524Q532 530 535 526T538 514L466 10Q465 5 463 3T455 0H397Q391 0 388 2T386 11L394 67Q395 73 393 74T384 70Q323 23 279 7T195 -10V-10ZM298 645Q297 636 294 634T281 632H228Q220 632 217 636T215 647L227 732Q228 739 230 740T237 742H299Q305
742 308 738T309 727L298 645ZM444 645Q443 636 440 634T427 632H375Q366 632 364 636T362 647L373 732Q375 739 376 740T384 742H445Q451 742 454 738T456 727L444 645Z" />
<glyph unicode="&#xfd;" horiz-adv-x="530" d="M43 -165Q15 -165 0 -163T-14 -152L-9 -113Q-8 -106 -1 -103T24 -100H84Q106 -100 126 -86T161 -50T183 -7T186 33L61 511Q57 530 72 530H140Q151 530 153 521L249 133Q251 123 256 123T268 135L468 517Q471 524
475 527T484 530H532Q545 530 537 518L237 -45Q218 -80 198 -103T154 -140T103 -159T43 -165V-165ZM466 698Q468 692 467 689T456 682L217 611Q211 609 207 612T202 621L197 643Q195 654 200 656L445 751Q448 752 452 751T457 743L466 698Z" />
<glyph unicode="&#xfe;" horiz-adv-x="595" d="M211 742Q218 742 222 737T225 725L189 470Q188 463 191 464T200 473Q213 483 234 499T287 527T365 540Q428 540 474 510T541 420T549 268Q537 180 500 118T407 23T284 -10Q236 -10 203 5T150 43Q132 56 128 31L103
-155Q102 -161 100 -163T92 -165H30Q25 -165 22 -161T19 -150L142 729Q144 737 146 739T159 742H211V742ZM139 115Q165 85 194 68T263 51Q312 51 354 76T425 152T464 276Q474 349 459 393T412 458T336 479Q294 479 259 461T201 415T175 361L139 115V115Z" />
<glyph unicode="&#xff;" horiz-adv-x="530" d="M43 -165Q15 -165 0 -163T-14 -152L-9 -113Q-8 -106 -1 -103T24 -100H84Q106 -100 126 -86T161 -50T183 -7T186 33L61 511Q57 530 72 530H140Q151 530 153 521L249 133Q251 123 256 123T268 135L468 517Q471 524
475 527T484 530H532Q545 530 537 518L237 -45Q218 -80 198 -103T154 -140T103 -159T43 -165V-165ZM296 645Q295 636 292 634T279 632H226Q218 632 215 636T213 647L225 732Q226 739 228 740T235 742H297Q303 742 306 738T307 727L296 645ZM442 645Q441 636 438
634T425 632H373Q364 632 362 636T360 647L371 732Q373 739 374 740T382 742H443Q449 742 452 738T454 727L442 645Z" />
<glyph unicode="&#x2013;" horiz-adv-x="558" d="M492 235Q491 228 488 226T475 224H70Q63 224 60 227T58 238L64 282Q65 288 66 289T72 291L488 292Q492 292 495 288T498 280L492 235Z" />
<glyph unicode="&#x2014;" horiz-adv-x="880" d="M814 235Q813 228 810 226T798 224H70Q63 224 60 227T58 238L64 282Q65 288 66 289T72 291L810 292Q815 292 818 288T820 280L814 235Z" />
<glyph unicode="&#x2018;" horiz-adv-x="222" d="M273 742Q281 742 277 733L218 637Q209 619 223 618L240 617Q248 617 249 615T250 608L238 521Q237 516 233 513T225 509H131Q127 509 126 510T125 516L136 596Q137 598 138 600T140 604L235 730Q238 736 244 739T256
742H273V742Z" />
<glyph unicode="&#x2019;" horiz-adv-x="222" d="M88 509Q80 509 84 518L142 613Q152 632 137 633L121 634Q114 634 112 636T111 643L123 729Q124 735 128 738T136 742H229Q234 742 235 741T235 735L225 655Q224 653 223 651T220 647L126 520Q123 515 117 512T105
509H88V509Z" />
<glyph unicode="&#x201a;" horiz-adv-x="222" d="M-1 -125Q-10 -125 -5 -116L54 -21Q62 -2 48 -1L31 0Q25 0 23 2T22 9L34 95Q35 101 38 104T47 108H140Q144 108 145 107T147 101L135 21Q134 19 133 17T131 13L37 -114Q35 -119 29 -122T16 -125H-1V-125Z" />
<glyph unicode="&#x201c;" horiz-adv-x="398" d="M270 509Q265 509 264 510T264 516L275 596Q275 598 276 600T279 604L373 730Q377 736 383 739T395 742H411Q421 742 415 733L357 637Q348 619 363 618L379 617Q386 617 388 615T388 608L376 521Q376 516 372 513T363
509H270V509ZM94 509Q89 509 88 510T87 516L99 596Q99 598 100 600T103 604L197 730Q201 736 207 739T218 742H235Q244 742 239 733L180 637Q172 619 186 618L203 617Q210 617 211 615T212 608L200 521Q199 516 195 513T187 509H94V509Z" />
<glyph unicode="&#x201d;" horiz-adv-x="399" d="M264 509Q256 509 260 518L318 613Q328 632 314 633L297 634Q290 634 289 636T287 643L299 729Q301 735 304 738T312 742H406Q410 742 411 741T412 735L401 655Q400 653 399 651T396 647L302 520Q299 515 294 512T281
509H264V509ZM88 509Q80 509 84 518L142 613Q152 632 137 633L121 634Q114 634 112 636T111 643L123 729Q124 735 128 738T136 742H229Q234 742 235 741T235 735L225 655Q224 653 223 651T220 647L126 520Q123 515 117 512T105 509H88V509Z" />
<glyph unicode="&#x201e;" horiz-adv-x="362" d="M138 -125Q129 -125 134 -116L193 -21Q201 -2 187 -1L170 0Q164 0 162 2T161 9L173 95Q174 101 177 104T186 108H279Q283 108 284 107T286 101L274 21Q273 19 272 17T270 13L176 -114Q174 -119 168 -122T155 -125H138V-125ZM218
-125Q209 -125 214 -116L273 -21Q281 -2 267 -1L250 0Q244 0 242 2T241 9L253 95Q254 101 257 104T266 108H359Q363 108 364 107T366 101L354 21Q353 19 352 17T350 13L256 -114Q254 -119 248 -122T235 -125H218V-125Z" />
<glyph unicode="&#x2022;" horiz-adv-x="311" d="M161 282Q135 282 114 295T83 332T77 381Q81 407 95 427T133 459T180 472Q208 472 228 459T258 423T264 373Q261 348 246 328T209 295T161 282V282Z" />
<glyph unicode="&#x2039;" horiz-adv-x="267" d="M189 78Q191 74 190 74T183 73H154Q150 73 147 76T144 81L42 248Q39 254 39 259T42 269L194 446Q196 451 198 451T203 450H234Q238 450 241 447T242 438L119 263Q116 259 115 255T115 247L189 78Z" />
<glyph unicode="&#x203a;" horiz-adv-x="268" d="M147 251Q150 255 151 259T151 267L77 442Q76 447 77 448T82 450H113Q118 450 122 442L225 265Q227 260 227 255T224 244L73 77Q72 75 70 74T64 73H35Q30 73 27 75T24 82L147 251V251Z" />
</font>
</defs>
</svg>
