<svg width="630" height="76" fill="none" xmlns="http://www.w3.org/2000/svg"><path d="M109.325 25.1c.859-.134 1.697-.269 2.555-.386.245-.028.611-.018.771.109 1.472 1.248 3.273.86 5.041.978 1.32.088 2.725.091 4.05.74 2.049 1.02 5.012.557 6.411-.735l-.041.034c.139.126.356.377.377.36 1.177-.65 2.492-.335 3.734-.37.469-.006.939-.08 1.408-.138 1.491-.187 2.972-.742 4.473.192.38.238 1.055.134 1.605.114.733-.033 1.109-.355.966-1.112-.201-.075-.421-.239-.664-.263-4.308-.275-8.615-.55-12.943-.808-2.824-.182-5.669-.347-8.493-.546-.813-.057-1.544-.112-2.232.482-.604.526-1.436.416-2.261.078-.765-.319-1.632-.605-2.465-.662-2.418-.154-4.86-.168-7.28-.251-.61-.017-1.22-.051-1.807-.137-1.277-.193-2.435-.294-3.694.337-.846.432-2.108.45-3.164.351-.67-.07-1.243-.699-2.043-1.193.51-.091.86-.222 1.227-.212 6.208-.04 12.424-.327 18.643 0 3.029.153 6.087-.061 9.137.057 5.001.224 9.997.622 14.997.881 5.203.264 10.43.424 15.634.636 3.843.157 7.683.385 11.548.472 1.871.051 3.729-.143 5.603-.197.468-.022.933.113 1.401.108 1.14-.004 2.281-.06 3.422-.082.265-.01.573-.142.795-.066 2.016.703 4.028.093 6.023.06 4.114-.081 8.193-.408 12.309-.558.855-.03 1.722.274 2.577.28 2.014.038 4.05.023 6.067-.044 2.363-.076 4.707-.223 7.05-.316 3.709-.144 7.417-.288 11.144-.397 1.059-.024 2.096.04 3.275.072.069.474.135 1.019.238 1.74 1.505-.695 3.264.474 4.579-.733-.231-1.232-1.453-.46-2.197-.778.203-.748.794-.766 1.385-.785 2.769-.047 5.538-.06 8.287-.142 5.521-.165 11.044-.452 16.563-.564 4.664-.1 9.342.009 14.003-.004 2.28-.008 4.563-.12 6.824-.2.016.159.012.316.028.457-1.691.059-3.382.118-5.072.16-2.689.084-5.4.22-8.088.27-3.563.06-7.144.014-10.728.074-1.12.022-2.246.272-3.308.418l-.422 1.267c-.314-.412-.55-.733-.884-1.163-2.404.075-4.886.042-7.334.256-2.347.216-4.853-.413-7.245.713.373.5.648.875.962 1.304 2.259-1.48 4.788-.92 7.292-.94.267.638.234 1.11-.603 1.192-1.061.112-2.12.135-3.343.19-.055.54-.111 1.082-.192 1.833.998-.043 1.752-.058 2.648-.086-.152.364-.303.657-.434.969.667.193 1.376.318 1.978.614.221.111.208.584.358 1.06-.669-.088-1.115-.153-1.562-.2-.548-.05-1.213-.295-1.585-.096-1.465.766-3.094.039-4.593.506-.534.178-1.296-.228-1.929-.175-2.693.241-5.369.589-8.041.831-1.122.092-2.261.043-3.38.048l-6.452-.018c-1.078-.012-2.155-.094-3.214-.07-1.608.026-3.237.034-4.829.2-3.409.363-6.762.902-10.221.878-1.119-.013-2.266.27-3.371.486-3.275.646-6.584.346-9.876.168-2.297-.132-4.596-.142-6.877-.117-.936.01-1.859.282-2.944.48-.548-.785-1.546-.778-2.583-.788-2.767-.04-5.549-.274-8.281-.103-1.754.11-3.352-.25-5.011-.592l4.372.12 13.381.416c4.129.13 8.228-.178 12.292-.698 3.207-.403 6.409-.63 9.665-.63 2.605.002 5.205-.54 7.795-.715 1.386-.085 2.804.164 4.209.132 1.874-.054 3.77-.16 5.628-.372 1-.112 1.903-.386 2.95.046.543.225 1.322.018 2.075.021.439-.426.92-.885 1.233-1.192 1.477.356 2.729.687 4.005.95.364.08.794-.014 1.201-.02 1.019-.042 1.972-.682 3.114.015.3.183 1.253-.421 2.219-.78-.525-.172-.767-.249-1.17-.382.544-1.299 1.66-.428 2.581-.613-.095.505-.166.871-.216 1.22.1.055.201.093.301.148l1.969-2.047c-1.27-.438-1.912-1.54-3.376-.862-.412.18-1.155-.154-1.743-.258-1.337-.23-2.672-.528-3.837.403-.104.085-.27.203-.331.184-1.606-.832-3.126.44-4.806.079-2.306-.5-3.013.04-3.355 2.132-1.421-.126-1.47-1.318-2.479-2.396-.28.587-.517 1.071-.735 1.573l-.357-.325c-.561-.348-1.213-1.066-1.683-.991-1.634.236-3.447-.48-4.652.433-.729-.125-1.233-.313-1.743-.292-.448.023-.881.238-1.332.366-1.355.4-2.544.719-4.137.168-1.412-.477-3.19-.175-4.801-.096-.59.019-.685.524-.539 1.876l-1.505-.041c.167-.923.311-1.725.5-2.665 4.547-.297 9.195-.59 13.966-.898-.408-.694-.999-.657-1.592-.586-2.287.305-4.56.05-6.833-.186-.325-.044-.75-.108-.998.025-1.366.82-3.024.426-4.481.841-.471.127-1.06.076-1.587-.008-1.195-.19-2.316-.168-3.563.043-1.432.258-3.049-.136-4.573-.247-.528-.032-1.112-.24-1.604-.114-1.414.33-2.808-.024-4.173-.009-1.995.016-3.977.312-5.959-.162-4.295.776-8.611.063-12.924.015-1.527-.006-3.077.127-4.605.172-1.283.036-2.308.305-2.221 1.603-2.188.36-2.493.353-4.166-.236.397-.392.753-.75 1.088-1.09-.079-.09-.198-.233-.238-.235-.738.173-1.432.276-2.118.783-.727.54-1.955.787-2.973.794-2.423.04-4.928.111-7.277-.338-1.479-.268-1.921 1.016-3.293.593.216.269.255.34.296.34 2.865.184 5.631.995 8.564.935 2.891-.062 5.78 0 8.68.376 2.454.312 4.978.328 7.48.38 2.766.057 5.536.01 8.284-.003.183.005.349-.13.658-.262-.19-.478-.382-.92-.61-1.505.51-.039.958-.061 1.529-.098-.055.506-.086.908-.143 1.52 1.372-.296 2.483 1.485 3.582-.008 1.289.525 2.395.993 3.502 1.443l-.059-.054c-.999.043-1.999.156-2.996.129-2.602-.089-5.183-.264-7.786-.335-1.281-.035-2.57.21-3.851.157-3.436-.128-6.869-.362-10.304-.543-.956-.043-1.891-.069-2.847-.113-5.873-.317-11.746-.652-17.619-1.005-.731-.037-1.458-.267-2.187-.392-.588-.086-1.254-.297-1.786-.171-3.195.7-6.437.174-9.655.262-2.77.064-5.556-.029-8.323-.07-2.828-.041-5.654-.154-8.482-.195-3.845-.053-7.706-.28-11.52 0-3.344.242-6.658.117-9.995.079-1.2-.015-2.39.302-3.577.55-1.31.262-2.52.614-3.955.225-.888-.252-2.014-.02-2.997.18-.49.093-.851.625-1.246.912-6.69.501-13.431-.068-20.128.695-6.574.749-13.235.97-19.871 1.735 1.561.217 3.144.383 4.705.636 1.6.27 3.31-.453 4.89.553-.837.1-1.742.425-2.49.265-1.64-.342-2.533.298-3.341 1.59.67.053 1.237.156 1.807.136 1.753-.057 3.485-.15 5.218-.243 2.16-.098 4.301-.268 6.46-.314 3.096-.073 6.193-.216 9.24.742.27-.15.62-.35.952-.552l-.045 1.645c-1.129.354-1.842-1.118-3.026-.24.464.153.847.286 1.25.42-.126.17-.192.327-.273.325-4.035.17-8.069.322-12.083.493-.06-.002-.143.014-.203-.005-2.747-.776-5.344.414-8.05.358-2.766-.058-5.541.2-8.293.352-.591.036-1.226.159-1.761.39-1.38.61-2.865.57-4.352.599-1.343.016-2.67.172-4.014.188-2.077.031-4.172-.026-6.248-.03-.163-.005-.327.044-.633.088.726.23 1.311.42 2.038.65-2.74 1.221-2.801 1.202-5.06-1.818.161-1.414 1.134-2 2.703-2.063.917-.045 1.817-.213 2.715-.31a21 21 0 00-.05-.405c-1.732.076-3.465.168-5.38.256.3-1.287.577-2.505.878-3.828l2.623.072.007-.245c-.773-.021-1.567-.025-2.339-.064-.792-.056-1.225-.594-.724-1.053 1.23-1.104.4-1.967-.269-2.843.508-.704.972-1.322 1.565-2.164 1.363.037 2.887.131 4.434.103 1.446-.03 3.021.433 4.721-.711-1.052-.204-1.68-.326-2.348-.45.09-.33.181-.695.313-1.059.309-.867-.232-1.18-1.105-1.273-.405-.046-.835.047-1.22-.051-.687-.159-1.331-.421-1.948-.928.532-.126 1.065-.27 1.762-.425-.391-.606-.704-1.07-1.114-1.694.876-.064 1.57-.115 2.284-.165.022-.087.045-.156.067-.243-.647-.158-1.274-.298-1.982-.457-.028-1.192.94-.885 1.671-.83.793.056 1.562.2 2.82.374-1.193-1.065-.539-2.658-2.73-2.928 1.325-.804 1.28-2.171 2.718-2.64.267-.097.25-.956.284-1.463.075-1.24 1.238-2.084 2.657-1.888.527.067 1.074.187 1.6.288 3.179.612 6.33.733 9.471-.25.8-.257 1.736-.232 2.557-.455 1.27-.333 2.371-.39 3.048.906 1.396-.435 2.598-1.207 4.097-.956.709.124 1.434.389 2.127.373 2.301-.06 4.586-.243 6.868-.32a89.473 89.473 0 014.866-.06c.386.01.929.27 1.104.555.508.766 1.133.994 2 .58.968-.447 1.904-.439 2.91.009.342.15.789.161 1.175.172 2.441.049 4.86.167 7.285.058 1.467-.065 3.086.294 4.397-.755 4.897 1.779 10.121.538 15.58 1.125-.54.388-.792.696-1.057.724a44.637 44.637 0 01-3.446.22c-.835.013-1.667-.08-2.501-.085-5.72.037-11.46.056-17.18.022-4.456-.034-8.92.212-13.379.266-1.384.015-1.649.76-1.586 1.463-1.278.595-2.309 1.057-3.34 1.537.038.14.074.282.111.423.63.052 1.257.174 1.868.156 3.24-.104 6.48-.261 9.719-.366 1.1-.04 2.243-.166 3.422.636-1.935.823-3.82-.191-5.588.409.043.666.422.974 1.159.801 1.455-.363 2.797-.326 4.226.29.724.318 1.723.24 2.579.211 1.12-.022 2.243-.166 3.478.06-.35.148-.682.384-1.049.409-2.345.181-4.742-.007-7.019.65-.225.063-.529-.015-.772-.057-2.084-.46-2.166-.427-3.09 1.369-1.678.34-3.72-.171-4.768 1.691-.36-.237-.662-.368-.84-.566-.414-.466-.982-.552-1.4-.178-1.358 1.311-3.22.945-4.915 1.144-.674.07-1.364.016-2.018.103-.265.028-.476.302-.871.606 7.674-.036 15.063-.044 22.473-.105 7.41-.043 14.82-.121 22.21-.2l.05.404c-2 .243-3.983.557-6.003.73-1.979.155-3.974.189-6.277.284.356.412.473.59.652.735.677.544.4.974-.276 1.166-.615.175-1.326.121-1.999.155a511.7 511.7 0 01-5.175.192c-.044.139-.09.295-.134.434.32.184.637.525.943.516.794-.014 1.594-.237 2.408-.25 1.202-.02 2.401.03 3.578.168 1.36.16 2.7.231 3.957-.33.639-.28 1.211-.37 1.915-.035.36.185.89.164 1.359.177 1.058-.006 2.138-.047 3.197-.07 1.446-.049 2.893-.114 4.462-.177a20.732 20.732 0 01-.335-1.165c.663-.42 4.673-.415 6.469.142-.854-.024-1.707-.117-2.543-.052-.836.047-1.655.253-2.76.433.735.685 1.26.857 1.995.772 1.387-.138 2.794-.222 4.201-.324.877-.063 1.733-.092 2.224-.937.15-.258.765-.452 1.172-.458 3.158-.09 6.334-.125 9.612-.176-.1.68-.174 1.15-.248 1.622 2.098.687 3.894.508 5.125-.579-.339-.254-.679-.49-1.258-.91 1.36.16 2.476.278 3.592.414-.272.255-.523.51-.795.766.078.125.136.231.214.356.695-.086 1.39-.19 2.084-.276.004-.157.028-.297.033-.454-.508-.05-1.034-.169-1.56-.288zm-65.93-13.23c-2.296-.15-4.478.001-6.68.169-2.203.167-4.479.018-6.927 1.001 1.046.432 1.625.85 2.524.717 1.451-.206 2.94-.305 4.427-.37 1.406-.066 2.834-.185 4.236-.077 1.685.151 1.682.256 2.42-1.44zM21.473 37.343a2.467 2.467 0 01-.092-.37c-1.16-.031-2.338-.081-3.498-.095-1.404-.02-2.815.22-4.119-.48-.622-.332-1.317-.229-1.516.361-.31.937-1.043.917-1.895.842-.528-.05-1.075-.135-1.216.527 1.038.028 2.07.214 3.011.047 2.68-.47 5.35-.607 8.088-.287.366.027.804-.364 1.237-.545zm24.855-10.598c3.592.378 7.154-.365 10.744.1.243.024.53-.073.778-.171.226-.081.433-.216.64-.315-4.112-.007-8.2-.89-12.162.386zm170.447-1.799a4.821 4.821 0 00-.129-.51c-1.649.024-3.298.032-4.928.11-.184.012-.336.358-.84.922 2.301-.024 4.165.272 5.897-.521zM42.198 18.474c-1.056-.117-1.925-.316-2.78-.304-.958.027-1.236.527-1.02 1.53 3.157-.07 3.157-.07 3.8-1.226zM60.1 24.722c2.058.669 3.674.38 5.012-.932-.852-.093-2.004-.404-2.173-.181-.696.908-1.678 1.092-2.839 1.113zm163.171.051c-1.98-1.297-1.98-1.297-2.807-.076l2.807.076zM5.398 37.938c-.987-.377-1.662-.255-2.273.499 1.005.465 1.68.36 2.273-.499zm32.155-17.087c1.394.388 1.414.389 2.783-.537-1.145.196-2.158-.742-2.783.537zm196.002 8.247c.144-.049.288-.115.452-.163-.245-.707-.49-1.431-.736-2.138-.062.803-.616 1.699.284 2.301zm-215.91-3.677c-.875.011-1.836-.593-3.063.372 1.343.001 2.272.272 3.063-.372zm199.977-.96c1.241.77 1.241.77 1.936-.07-.611.02-1.182.039-1.936.07zM46.95 16.59c-.056-.16-.112-.336-.17-.495-.43.11-.86.239-1.291.35l.112.37c.47-.074.9-.15 1.35-.225zm188.626 12.265c.101.056.22.164.302.149.102-.015.186-.135.27-.22-.14-.075-.26-.148-.401-.221-.084.102-.128.206-.171.292zM93.353 25.68c-.018-.088-.056-.194-.074-.282l-.859.134c.038.107.074.3.094.3.266-.045.552-.09.839-.152zm116.299-.77c-.103.05-.206.1-.33.148l.297.324c.084-.085.228-.152.25-.239.002-.052-.138-.143-.217-.233zM613.761 29.737a821.5 821.5 0 014.488-1.103c-1.007-.395-.057-1.647-1.613-2.075.66-.315 1.134-.53 1.609-.761.836.688 1.592 1.321 2.408 1.991-.358.446-.676.927-1.075 1.354-.377.41-.855.747-1.418 1.24.521.329 1.06.694 1.78 1.169-.714.05-1.203.072-1.835.125.074.282.082.702.224.741.627.14 1.277.175 2.028.266-.087.96-.69 1.434-1.674 1.67-.82.205-1.499.502-.976 1.479.155.284-.165.8-.358 1.18-.217.485-.514.932-.877 1.552-.367.008-1.197-.155-1.57.115-.332.236-.17.994-.247 1.587-1.584.604-1.95 1.347-.47 3.051-1.018.76-2.559-.192-3.687.845 1.152.33 2.141.619 3.352.984-.846.432-1.584.623-1.942 1.05-.379.498-.399 1.198-.6 1.875-.74.243-1.951-.106-2.225.99-.96.096-1.919.193-2.857.272-.017-.123-.055-.246-.072-.352.575-.194 1.17-.37 2.053-.662-.942-.533-1.732-.677-2.585-.718a18.927 18.927 0 01-2.212-.253c-.871-.146-1.041-.641-.739-1.246 1.86-.3 3.68-.617 5.826-.961-.577-.454-.999-.658-1.195-.961-.604-.962-1.696-1.99-2.741-2.473-.101-.038-.117-.196-.253-.427.638-.246 1.275-.49 2.18-.834-.395-.448-.71-.807-1.144-1.31.129-.258.323-.673.517-1.053 2.173.147 4.245 1.043 6.686.374-.916-.76-1.513-1.266-2.149-1.809 2.758-1.133 2.758-1.133 4.369-.511-.448-.73-.72-1.193-1.012-1.674-1.899.211-3.655.409-5.941.644-.158-.18-.613-.647-1.128-1.186 1.173-1.194 2.354.274 3.589-.218-.903-1.25-2.737-1.16-3.79-2.081 1.396-.453 3.904-.63 4.814-.395 1.817.523 2.127.356 2.462-1.49zm-7.36 16.906c.039.07.077.142.116.23.122-.014.305.009.347-.06.085-.12.11-.295.134-.434-.185.082-.391.182-.597.264zM9.57 43.164c.512-.09 1.006-.287 1.514-.273 2.157.04 4.222-.323 6.33-.738 1.882-.37 3.893-.227 5.85-.331 4.036-.205 8.092-.428 12.127-.598.855-.029 1.744.223 2.6.194 1.812-.039 3.628-.2 5.441-.272 1.08-.04 2.158.006 3.216.017 1.404.021 2.828.025 4.231.08 1.464.075 2.943.29 4.408.313 1.282.035 2.55-.175 3.831-.158 1.22.016 2.438.171 3.677.258l-.014.49c-.835.03-1.67.077-2.505.072-3.114-.015-6.226-.065-9.34-.08-2.096-.022-4.17-.061-6.269.004-1.202.038-2.39.32-3.592.358-2.424.074-4.866.06-7.288.064-1.282 0-2.637-.317-3.804-.069-2.867.64-5.78-.035-8.661.394-1.86.265-3.754.318-5.649.407-2.018.102-4.034.135-6.05.203a12.029 12.029 0 00-.052-.335zM332.065 24.586c.264-.71.439-1.178.637-1.733 3.049.17 6.014.391 8.983.507 3.638.17 7.281.199 10.918.42 3.17.192 6.314.592 9.484.784 2.398.135 4.801.078 7.202.091.143.004.266-.045.408-.041 3.373.232 6.725.463 10.097.712.02.001.038.09.077.16-.084.068-.189.188-.27.185-3.905-.088-7.786.419-11.742-.074-3.448-.444-6.993-.314-10.51-.444a345.74 345.74 0 01-8.517-.425c-1.463-.092-2.913-.64-4.32.197-.186.118-.614.141-.774.032-1.119-.766-2.337-.134-3.494-.253-1.38-.143-2.759-.355-4.071-.759-.928-.288-1.618-.359-2.426.18-.334.27-.924.29-1.682.461z" fill="#0A5B88"/><path d="M267.393 27.184c-.162 1.483-.162 1.466-1.671 1.565-.53.038-1.119.004-1.592.184-1.605.622-3.313.558-4.978.442-1.971-.123-3.901-.246-5.555.672a139.389 139.389 0 01-2.258-1.532c-.603.456-.772 1.432-1.88 1.016-.06-.019-.401.55-.613.842a61.954 61.954 0 01-1.923-.386c-1.295-.262-1.451-.512-1.107-1.938l2.989.081c.103-.785.203-1.447.283-2.163 1.832-.003 1.473 1.984 3.117 2.15 1.292-1.102 3.044-1.16 4.831-1.006 1.259.105 2.494.314 3.754.418.446.03.9-.168 1.452-.276.216.304.451.625.785 1.072 1.249-1.034 2.724-1.379 4.385-1.088l-.019-.053zM356.033 30.912c-.361-.973-.589-1.557-.817-2.14-.143-.005-.285.009-.448.005-.258.483-.494.95-.795 1.519-2.989-.082-5.982-.058-9.37-.448 1.406-.82 2.356-1.337 3.595-.48.319.236.867.286 1.314.316 1.362.09 2.706.056 4.325-.355-.673-.684-1.069-1.097-1.584-1.619.665-.524 1.265-.876 2.32-.76 2.212.253 4.427.366 6.64.567.427.046.848.268 1.473.477-.547.668-.989 1.216-1.558 1.919 1.663.22 3.062 1.151 4.711.408.206-.1.531-.09.774-.049 1.297.228 2.613.474 3.947.826-1.568.01-3.113-.032-4.683.047-.367.025-.762.33-1.074.566-.748.575-.768.557-1.295-.263-.156-.249-.597-.489-.943-.515-1.137-.084-2.277-.08-3.457-.112.328-.832.612-1.524 1.049-2.633-1.212.422-2.257-.079-2.532 1.052-1.375-.318-1.12.774-1.592 1.672zM267.433 27.22c.207-.117.52-.389.6-.351.984.482 1.644.167 2.114-.643.514.574.948 1.059 1.383 1.526 1.879-.247 2.704-2.133 4.864-2.232-.08.699-.156 1.257-.212 1.816 1.281.035 2.48.12 3.682.082 1.202-.037 2.407-.197 3.774-.317-.421.514-.695.857-1.117 1.388.792.074 1.341.106 1.868.156-.002.087.016.193.013.28-1.426.066-2.855.22-4.278.164-2.44-.102-4.82-.149-7.236.363-1.044.234-2.201.115-3.297.015-.427-.046-.883-.462-1.2-.803-.395-.448-.644-.998-.977-1.497-.02.017.019.053.019.053zm7.079.91c-.323-.096-.503-.206-.647-.175-.102.015-.169.223-.253.344.121.038.24.146.342.131.144-.048.29-.167.558-.3zM73.74 35.861c-1.002.148-1.983.296-2.735.994-.418.391-1.03.427-1.424-.022-1.046-1.184-2.034-.79-2.995.094-.726-1.718-.928-1.759-2.407-.52-.261-.13-.522-.278-.803-.426-.22-.128-.42-.274-.4-.256l-5.756-.156a1.545 1.545 0 01-.094-.283c.37-.095.74-.278 1.086-.268 1.546.024 3.128.243 4.657.144 5.67-.406 11.332.204 16.993.078 1.466-.03 2.935-.13 4.434.12-1.939.176-3.856.334-5.978.52-.317 1.2-1.391 1.766-2.998 1.705-1.362-.037-1.17-1.1-1.621-1.742.582.296 1.122.66 1.748.852.827.25 1.383.003 1.434-1.116-1.101.093-2.121.187-3.142.282zM26.572 47.375c-.288.114-.433.215-.534.195-2.69-.598-5.332-.005-7.985.22-2.692.224-5.367.52-8.058.709-.918.062-1.852-.033-2.91-.062.37-.865 1.029-1.128 1.886-1.21 3.08-.266 6.162-.584 9.262-.78 2.08-.136 4.195-.096 6.273-.18.978-.043 1.685.17 2.066 1.108zM142.003 36.653c-.344-.044-.669-.07-1.014-.115-2.352-.327-4.705-.636-6.727 1.112-.586-.891-1.203-1.398-2.334-.974-1.07.409-2.211.483-3.337-.056-.22-.11-.525-.119-.79-.126-3.092-.067-6.154-.465-9.253-.27-.734.05-1.483-.128-2.208-.41 2.409-.267 4.807-.867 7.153-.33 1.538.357 2.992.011 4.493.192 2.536.297 5.101.28 7.663.384 1.688.063 3.376.092 5.063.19.447.013.868.27 1.291.403zM561.112 28.793c-.207.117-.458.355-.619.316-1.902-.437-3.694.372-5.543.234-2.803-.216-5.605-.468-8.428-.667-.589-.051-1.201-.016-1.792.02-.795.05-.796.067-1.485-.775l17.755.484c.038.123.074.264.112.388zM342.488 26.026c.406.028.812.075 1.198.103.855 1.494-.312 2.477-1.238 3.625-.276-.358-.511-.68-.787-1.02-.62.351-.927 1.183-2.184.974.378-.41.751-.662.882-.974.395-1.057-.533-2.115-1.834-2.168l-4.617-.126c-.296.412-.557 1.035-1.075 1.371-.352.218-1.059.006-1.73-.012 1.383-2.203 3.198-2.329 5.587-1.861 1.862.366 3.885.088 5.839.089-.381.532-.885 1.096.392 1.289.504-.582-.118-.896-.433-1.29zM314.457 26.943c.249.602.497 1.204.784 1.877.33-.184.64-.35.93-.535 2.122 1.319 4.387.347 6.915.206-.697.91-1.238 1.367-2.195 1.376-2.403.022-4.822-.079-7.169.172-.98.114-1.911-.087-2.85.01-.204.03-.481-.293-.72-.457.167-.17.233-.344.314-.342 1.628.027 2.88-.377 3.409-1.85.066-.191.395-.305.602-.44l-.02-.017zM581.743 29.11c-.247.098-.476.285-.721.313-1.121.057-2.244.167-3.361.084-.955-.061-1.779-.434-2.832.098-.598.316-1.792.038-2.645-.003-1.484-.093-2.919.289-4.338.092-1.217-.173-2.385-.625-3.597-.956.024-.122.068-.243.091-.365 3.214.088 6.426.21 9.661.246 1.547.025 3.079-.179 4.624-.12 1.037.047 2.044.407 3.056.644l.062-.033zM463.07 34.053c-.45.828-1.048 1.11-1.738 1.055-2.986-.238-5.835.49-8.771.69-1.468.1-2.938.27-4.407.387-.224.011-.466-.065-.722-.405 2.232-.464 4.43-1.21 6.692-1.323 2.894-.131 5.8-.718 8.946-.404z" fill="#0A5B88"/><path d="M581.68 29.143c2.275.15 4.571.3 6.848.415.711.036 1.45-.189 2.181-.116.65.053 1.272.35 2.141.6-1.161.775-2.037 1.556-3.59 1.041-1.413-.459-3.011-.064-4.438-.716-.483-.223-1.306.104-2.102.188-.313-.464-.645-.963-.978-1.445l-.062.033zM623.413 19.88c1.6.307 3.3-.102 4.827.622.402.186.783.407 1.165.592-.764 2.623-.764 2.623-4.733 1.885 1.037-1.443-.327-2.198-1.218-3.115l-.041.016zM51.575 47.828c.066-.19.068-.26.09-.312a.377.377 0 01.105-.138c.103-.05.228-.133.35-.13.264.007.527.084.79.109.467.065.933.148 1.421.144 6.31.014 12.619.028 18.926.113-4.047.625-18.786.73-21.682.214zM58.927 15.568c1.348-.191 2.678-.435 4.023-.521 1.468-.1 2.952-.007 4.438-.037 1.406-.031 2.791-.099 4.543-.156-.338.464-.451.898-.74.996-.697.208-1.431.276-2.166.343-.98.096-1.977.121-3.098.178a31.804 31.804 0 00-.195-1.09c-1.49.186-1.49.186-1.225 2.4-.754.032-.927-.34-.832-.863.186-.818-.438-1.098-1.15-1.117-1.179-.05-2.382.04-3.583.06.002-.07-.017-.123-.015-.193zM9.24 57.513c1.366-.786 1.7.379 2.438.206.797-.136 1.614-.254 2.412-.39.838-.152 1.66-.41 2.496-.492 1.103-.11 2.221-.08 3.79-.124-1.591 1.602-4.108.588-5.11 2.277-1.896-.647-4.237.112-6.025-1.477zM92.028 41.42c-6.905.18-13.81.358-20.938.55.386-.743 1.039-.778 1.546-.711 1.46.215 2.8.321 4.335.013 1.719-.356 3.605-.095 5.416-.098 3.216-.017 6.432-.017 9.628-.035-.002.087-.005.192.013.28zM293.196 28.114c-.496.285-.847.468-1.158.67-.082.05-.066.207-.133.416.464.152.928.288 1.534.48-.228.15-.396.321-.517.3-2.049-.266-4.097-.532-6.124-.85-1.439-.214-1.652-.605-1.127-1.956 1.061-.094 1.698.414 2.144 1.249.923-.272 1.769-.687 2.666-.75.815-.048 1.682.256 2.715.441zM266.247 24.439c-1.258.596-2.329 1.092-3.422 1.605-1.41-.547-2.94-1.149-4.672-1.826.512-.144.904-.326 1.312-.35 1.896-.105 3.79-.159 5.665-.248.897-.045 1.233.296 1.117.819zM142.004 36.653c1.749.03 3.499.043 5.248.108 5.998.234 11.974.502 17.967.91-7.729-.193-15.482-.247-23.215-1.018zM303.061 29.101c-.231.239-.466.67-.711.681-2.262.096-4.521.105-6.863.146-.022-.684.267-.816.958-.797 1.382.073 2.768.023 3.948.02.233-1.08.44-1.967.627-2.854.164-.014.347-.026.51-.04.175.303.391.607.504.925.267.69.08 1.543 1.067 1.938l-.04-.019zM8.8 55.767c5.102-1.279 9.99-1.408 14.952-1.238-1.837.195-3.679.565-5.51.55-1.77-.03-3.308.4-4.87.918-.677.227-1.195.563-1.97-.089-.378-.36-1.443-.11-2.602-.14z" fill="#0A5B88"/><path d="M303.081 29.137c.211-.257.584-.492.612-.772.062-.803.022-.822.912-1.375.029.438.039.823.085 1.385l4.372.12c.047.508.095 1 .162 1.544-.306.01-.49.04-.693.034-1.179-.05-2.376-.187-3.558-.132-.897.046-1.354-.387-1.891-.84-.02 0-.001.036-.001.036zM453.63 29.4c-.669-1.593-2.437-.17-3.73-1.274 2.956-.182 5.647-.354 8.175-.512-.442.53-.967 1.129-1.492 1.745.079.072.179.145.258.217-.534.178-1.048.374-1.603.569-.667-.894.702-1.101.74-1.748-1.087-.45-1.087-.45-2.348 1.004zM471.312 34.067c3.922-.488 7.835-.697 12.037-.267-2.052.592-3.866.7-5.749.316-.546-.102-1.162.074-1.755.18-1.534.273-3.064.407-4.533-.229zM351.83 26.788c-1.324.787-2.515 1.157-3.919 1.154-.895-.007-1.819.283-2.903.481.119-.627.235-1.166.354-1.794 2.116.04 4.17.097 6.468.16zM91.977 22.386c-.25.186-.334.324-.436.321-2.834.185-5.648.371-8.482.54-.057-.142-.093-.301-.15-.443.616-.228 1.217-.632 1.849-.65 2.078-.083 4.173-.026 6.249-.022.284.025.566.156.97.254zM69.552 17.748c-1.053.532-2.015.733-2.696 1.8-.425.672-1.895.859-2.986 1.302-.84-.53-.89-.935.034-1.26.616-.21 1.091-.46 1.592-.92 1.045-.986 2.63-.89 4.056-.922zM577.033 18.95c-2.956.9-5.987.099-9.026.349.048-.28.053-.472.074-.471l8.881-.283c.038.123.054.264.071.404zM470.659 28.184c-3.366.259-6.663.992-10.076.759 1.608-.727 3.333-.54 5.064-.58 1.67-.025 3.314-.61 5.012-.179zM177.607 27.468c3.259-.086 6.091-.166 8.922-.247-2.803.52-5.583 1.704-8.922.247zM92.36 36.719c-.973.621-1.93.63-3.352-.214.855-.03 1.301.035 1.63-.078.35-.13.603-.474.915-.71-.322-.15-.64-.386-.986-.413-.975-.079-1.952-.07-2.92-.377l5.064.138c-.118.575-.234 1.114-.35 1.654zM522.352 27.58c2.546-.072 4.767-.151 6.967-.214-.463.566-.748 1.31-1.646.656-.18-.128-.669-.123-.875-.007-1.261.719-2.608.087-3.893.21-.083.032-.218-.234-.553-.646zM287.202 21.753c-1.498.467-2.942 1.18-4.715.502-.665-.264-1.587-.008-2.381-.03-.894-.024-1.768-.083-2.662-.125.004-.175.029-.332.034-.507 1.871.05 3.741.12 5.613.153 1.363.037 2.747.022 4.111.007zM597.25 20.183l-9.111-.248c2.377-.583 7.446-.655 9.111.248zM267.614 24.336c.387-.007.754-.032 1.14-.022 2.156.06 4.312.118 6.485.3-2.536.42-5.058.37-7.599.265-.015-.193-.011-.368-.026-.543zM470.015 33.892c-1.398 1.258-3.181.964-4.832 1.041-.57.02-1.218-.103-1.339-.911 2.017-.05 3.992-.084 6.171-.13zM229.905 32.325c-1.585.64-3.017.933-4.621.785-1.036-.099-2.121.152-3.199.123 1.198-.65 2.54-.596 3.902-.542 1.281.053 2.295-1.303 3.918-.366zM83.124 15.65c2.758-.398 5.517-.796 8.663-1.235-1.124.914-5.885 1.59-8.663 1.234zM86.573 10.841c3.46-.046 6.922-.074 10.383-.12-.003.123.014.246.01.368-3.44.046-6.901.075-10.342.121l-.051-.369zM128.133 25.805c-2.055.697-3.901-.281-5.889-.51 1.516-.344 2.97-.673 4.608-1.048-.155.468-.265.78-.355 1.093.504.172 1.049.344 1.594.499l.042-.034zM490.976 32.502c-.038-1.612 1.567-2.233 4.459-1.56-1.521.52-2.939 1.024-4.459 1.56zM481.619 32.282c.105-.137.194-.415.296-.412 1.589-.044 3.156-.054 4.744-.063.081.002.158.162.316.359-1.827.563-3.6.654-5.416.08l.06.036zM605.094 31.847c-.577.265-.969.464-1.072.496-1.556-.427-2.849-.778-4.242-1.166 1.893-.753 3.511-.377 5.314.67zM484.327 26.98l6.508.178c-2.163.204-4.334.723-6.517.173l.009-.35zM31.176 46.502c1.497-1.167 3.02-1.02 4.594-.505-1.433.276-2.65 1.661-4.594.505zM330.541 26.015c-1.314 1.173-1.355 1.171-4.316.058 1.501-.572 2.866-.605 4.316-.058zM82.954 16.678c-1.76 1.107-3.258 1.54-4.961 1.3-.347-.71.18-1.36.621-1.138 1.165.574 2.02-.155 2.997-.181.305-.01.63 0 1.343.019zM49.601 47.792c-1.202.055-2.325.164-3.444.151-1.139-.013-2.275-.15-3.494-.235 2.701-.54 5.428-.517 6.938.084zM257.176 24.209c-2.131.52-3.413.485-4.985-.084 1.933-.717 2.137-.73 4.985.084zM7.305 24.701c.21-.274.338-.463.486-.67-1.28-.857-3.236.735-4.301-1.237 1.762.293 3.342.564 4.963.835.144.687-.13 1.03-1.148 1.072zM11.875 49.723c-1.998.12-4.017.24-6.014.344a2.95 2.95 0 01-.03-.404c1.936-.822 3.997-.276 6.044.06zM124.927 15.738c1.921-.263 3.861-.525 5.966-.818-2.007 1.188-3.172 1.367-5.966.818zM244.361 29.182c-.654.087-1.126.25-1.531.169-.344-.08-.864-.427-.877-.672-.01-.386.346-.761.539-1.141.362.185.765.336 1.064.572.258.217.433.537.805 1.072z" fill="#0A5B88"/><path d="M481.579 32.246c-.352.2-.749.593-1.053.55-.689-.107-1.352-.423-2.038-.67.023-.821.558-1.052 1.191-1.122 1.015.115.628 1.61 1.939 1.296.001-.018-.039-.054-.039-.054zM161.718 27.228c-1.608 1.48-2.749 1.536-3.548.218 1.162-.073 2.243-.131 3.548-.218zM92.36 36.719c.761-.312 1.543-.623 2.367-.969.259.2.613.63 1.077.782.444.135 1.019-.024 1.732-.057-1.203.807-2.343.829-5.156.244h-.02zM540.89 31.463c-.493.18-.865.397-.925.343-1.074-.905-2.365-.59-3.587-.553-.184.012-.364-.097-.606-.174 1.538-.448 3.551-.341 5.118.384zM51.997 19.616c.14 1.615.138 1.65-1.104 1.668-.997.008-1.993-.054-3.009-.117.675-.104 1.2-.702 2.102-.188.701.405 1.203-.072 1.484-.694.088-.226.338-.446.527-.669zM460.917 15.172c-.681.35-1.363.716-2.251 1.182a61.132 61.132 0 01-.141-1.544c.774-.014 1.508-.047 2.241-.062.057.142.114.283.151.425zM100.812 10.388l6.63.18-.01.35c-2.215-.13-4.439.09-6.631-.145a1.213 1.213 0 01.011-.385zM379.891 30.021c.263-.71.418-1.144.659-1.785 1.168-.3.913.848 1.4 1.649-.714.05-1.346.086-2.059.136zM7.104 44.796c-1.348.926-2.88.359-4.35.511 1.33-.961 2.917-.2 4.35-.511zM420.711 25.076c-1.502.624-2.841.448-4.344.354 1.383-.715 2.056-.767 4.344-.354zM456.058 32.934c.993-.586 2.889-.727 4.095-.151-1.283.035-2.587.087-4.095.151zM474.9 31.661l.031-1.172c1.388-.12 1.388-.12 2.017 1.456a83.093 83.093 0 01-2.067-.337l.019.053zM69.197 42.005c-1.16.021-2.342.042-3.503.08-.017-.123-.014-.228-.031-.351 1.183-.108 2.346-.199 3.53-.306-.006.192-.011.384.004.577zM388.062 29.614c-.756.12-1.512.239-2.269.376.494-.95 1.194-1.228 2.121-.888.056.177.112.353.148.512zM85.704 16.595c1.407-.12 2.815-.22 4.65-.381-1.748.67-3.159.912-4.585.978-.036-.194-.05-.404-.065-.597zM1.253 42.903l4.108.112c-1.26-.035-2.523 1.472-4.108-.112zM361.169 32.138c-1.157-.12-2.313-.256-3.47-.375 1.183-.09 2.41-1.055 3.47.375zM288.873 21.71c1.278.158 2.557.298 3.814.455-1.263.053-2.585.77-3.846-.035.025-.14.028-.28.032-.42zM303.194 22.749l-3.803-.104.006-.227 3.844.105c-.022.07-.025.157-.047.226zM330.294 30.578c-1.339-.159-2.698-.3-4.037-.46 1.432-.276 2.788-.011 4.037.46zM400.629 28.608c-.255.378-.391.883-.783 1.1-.6.35-1.229.264-1.49-.601.819-.17 1.556-.326 2.293-.48l-.02-.019zM14.585 48.869c1.387-.12 2.794-.222 4.549-.366-1.264.806-1.896.858-4.549.366zM324.682 25.926c.448.747.509 1.502.322 2.372-1.302-.753-1.302-.753-.28-2.388l-.042.016zM451.776 30.961c.214.374.59.77.54 1.118-.027.227-.703.384-1.094.566-.12-.091-.219-.182-.339-.272.114-.452.228-.905.322-1.357.204-.012.388-.042.571-.055zM180.658 29.793c.534-.914 1.254-.439 2.023-.295-.861.992-.861.992-2.023.295zM98.102 29.171l-4.86-.132v-.053l4.867-.077-.007.262zM367.597 30.037c-.099-.843-.166-1.353-.231-1.968 1.529.655 1.586.814.231 1.968zM56.701 19.534c-1.104.916-1.104.915-2.544.736.422-1.284 1.445-.73 2.544-.736zM325.918 23.106c1.637-1.076 1.637-1.076 2.346-.199-.857.064-1.611.131-2.346.199zM552.897 31.51c.921-.184 1.817-.965 2.758-.38l-.014.508-1.381-.09-1.363-.037zM176.791 30.528c-1.728-.065-1.807-.137-1.545-1.53.534.54 1.03 1.008 1.545 1.53zM620.579 23.795c1.034.133 1.582.2 2.15.269.061.754-.494.967-.98.849-.364-.08-.615-.56-1.17-1.118zM297.467 26.76c-.062 1.54-.062 1.54-1.828 1.35l1.828-1.35zM439.149 34.259c-.581.387-1.161.791-2.032 1.363.217-1.237.858-1.588 2.032-1.363zM474.879 31.626c-.673.051-1.106.985-1.965.419.557-1.018.557-1.018 1.984-.384l-.019-.035zM85.971 37.367c-.505-.136-.99-.29-1.676-.483 1.198-.633 1.198-.633 1.676.483zM153.178 17.208c-.973.604-1.495 1.08-2.479.58.531-.79 1.261-.7 2.479-.58zM627.614 18.787c.689.141 1.377.282 2.085.424-.579 1.088-.64 1.086-2.085-.424zM545.018 18.147c-1.143.126-2.307.252-3.45.379l-.051-.387c1.162-.073 2.324-.13 3.486-.203-.002.07.017.14.015.21zM623.259 21.767c.295.393.532.645.646.928.019.07-.418.409-.518.371-.323-.131-.56-.365-.84-.565.169-.223.378-.41.712-.734zM90.64 17.675c-.763.347-1.525.694-2.596 1.155.64-1.086 1.62-1.164 2.596-1.155zM313.798 22.758c.369-.095.758-.19 1.413-.347-.27.956-.45 1.581-.674 2.345-.387-.745.432-1.669-.78-2.017l.041.019zM376.864 28.276c.624.262 1.187.505 1.791.766-1.236.527-1.236.527-1.791-.767zM558.389 42.06c-.599.334-1.214.493-2.184.256.897-.816 1.54-.518 2.184-.256zM520.722 27.657a84.041 84.041 0 00-2.093-.144l.006-.21 2.095.057-.008.297zM66.99 43.801l-1.953-.053c.668-.612 1.316-.472 1.962-.297l-.01.35zM169.733 27.394c-.412.164-.824.345-1.462.625.189-.975.582-1.227 1.462-.625zM330.975 24.311c-1.75-.012-1.75-.012-1.861-1.188.621.384 1.181.75 1.861 1.188zM119.767 43.804a171.79 171.79 0 01-2.331-.379l2.4.065a.88.88 0 01-.069.314zM432.978 25.323c.514-.214 1.028-.41 1.646-.656-.41.847-.41.847-1.508.817a.668.668 0 01-.182-.04c.021-.052.022-.087.044-.121zM115.272 14.53l2.786.075-.002.088-2.746-.075c-.019-.036-.039-.054-.038-.089zM399.717 32.925c.627-.595 1.066-1.021 1.504-1.43-.02.753.06 1.56-1.504 1.43zM309.411 23.163c-1.137-.1-1.787-.17-2.721-.249 1.233-.421 1.233-.421 2.721.25zM106.028 37.056c-.446-.082-.911-.182-1.357-.264.003-.088.025-.175.028-.28l1.424.039c-.025.174-.071.348-.095.505zM450.036 14.893l.77.897c-.228.134-.476.267-.703.4-.118-.16-.337-.323-.333-.498-.035-.211.114-.418.266-.799zM412.888 29.835c-.033-.299-.086-.598-.078-.878.001-.035.327-.06.511-.09.032.315.044.631.076.947a4.962 4.962 0 00-.509.021zM189.782 27.345c-.573.124-1.146.249-1.74.373.371-.918 1.113-.495 1.74-.373zM409.587 25.508c.55-.037 1.08-.075 1.631-.13.019.07.038.123.036.193-.512.126-1.024.235-1.557.36a6.514 6.514 0 01-.11-.423zM70.468 17.003c.715-.103 1.45-.188 2.165-.291.019.07.037.14.035.21-.716.139-1.432.277-2.128.415-.018-.088-.035-.21-.072-.334zM30.287 47.003c-.736.103-1.205.16-1.777.232.05-.349-.005-.56.099-.645.646-.578 1.088-.356 1.678.413zM171.321 37.82c.001-.03-.891-.077-1.992-.107s-1.994-.03-1.995-.002c0 .03.891.077 1.992.107s1.994.03 1.995.002zM118.438 11.131c-.428.006-.876.012-1.304.035-.018-.088-.015-.193-.033-.281.449-.04.898-.08 1.347-.138l-.01.384zM454.744 15.407l-1.292.385a59.245 59.245 0 01-.173-.373c.432-.18.864-.361 1.296-.524.057.159.113.335.169.512zM51.694 35.225c1.039-.024 2.078-.066 3.117-.09-.004.123.013.246.01.368-1.047.322-2.1.118-3.127-.278-.02 0 0 0 0 0zM148.7 22.461c.878-.081 1.754-.145 2.652-.225l.051.369a5648.306 5648.306 0 00-2.684-.073c-.02-.018-.019-.053-.019-.071zM374.842 29.306c-.372.2-.561.405-.723.383-.203-.023-.381-.22-.581-.348.167-.136.315-.36.479-.373.203-.012.423.152.825.338zM318.335 27.294c-.423-.152-.847-.286-1.27-.438.043-.086.066-.19.109-.277.445.1.869.216 1.314.316-.064.138-.109.277-.153.399zM317.188 22.308l1.162-.074c-.003.105.033.299-.008.315a9.77 9.77 0 01-1.027.322c-.056-.176-.091-.37-.127-.563zM249.223 24.01c.199.163.46.31.438.362-.066.19-.233.344-.36.515l-.54-.33c.126-.154.273-.325.462-.547zM455.754 15.697c.15-.258.279-.517.489-.74.041-.033.343.08.505.137l-.452.88c-.18-.11-.361-.184-.542-.277zM264.309 35.084c-.507-.084-.993-.185-1.499-.269.001-.052.023-.104.025-.157l1.484.04-.01.386zM389.346 25.114c-.311.954-1.111.442-1.643.533.456-.285.817-.836 1.643-.533zM596.967 38.017c.348-.061.675-.122 1.023-.165.036.158.052.316.088.492-.347.044-.674.087-1.021.13-.037-.158-.073-.3-.09-.457z" fill="#0A5B88"/><path d="M400.647 28.626c1.488-.082 1.489-.082 2.183.585-.965.289-1.452-.495-2.183-.585-.019-.018 0 0 0 0zM426.3 29.133c-.341-.185-.662-.351-1.003-.536.064-.12.149-.223.213-.344l1.026.448c-.086.155-.171.293-.236.431zM183.69 19.335l-2.318-.063a.264.264 0 00-.017-.123c.794-.014 1.589-.044 2.383-.058a.893.893 0 01-.048.244zM334.606 28.455c.111-.33.202-.66.312-.99.122.021.243.042.345.062-.07.331-.141.68-.191 1.01-.162-.021-.303-.06-.466-.082zM494.516 27.328c-.511.074-1.022.148-1.716.234.534-.914 1.206-.212 1.716-.234zM25.635 54.125l1.688.046c-.766.487-1.18.738-1.688-.046zM597.652 30.857l-1.912-.052c.001-.035-.018-.071-.018-.088l1.912.052a.142.142 0 01.018.088zM174.119 27.759c-.511.073-1.001.147-1.512.221-.018-.088-.057-.177-.074-.265.532-.108 1.063-.198 1.595-.306l-.009.35zM62.411 43.764c-.51.039-1.04.094-1.55.133-.017-.123-.014-.246-.03-.369.53-.02 1.038-.041 1.568-.045-.003.088-.005.193.012.281zM320.406 22.255c.423.134.867.287 1.291.42-.023.105-.067.209-.09.313-.446-.082-.912-.147-1.358-.23.045-.156.091-.33.157-.503zM486.318 13.711l1.058.029c.018.088.015.175.033.264-.346.025-.694.068-1.04.094-.017-.123-.034-.246-.051-.387zM440.822 29.63c-.349.113-.699.243-1.068.356-.039-.089-.097-.178-.136-.267.35-.13.679-.261 1.029-.392.078.107.137.197.175.303zM55.14 37.228c-.408.041-.817.1-1.205.142a347.73 347.73 0 00-.052-.316c.388-.06.797-.119 1.185-.178.017.14.034.246.072.352zM363.723 28.04c.492-.127.861-.221 1.414-.346-.404.619-.678.962-1.414.346zM370.073 28.791c.057.124.215.304.173.372a.728.728 0 01-.455.268c-.122-.003-.382-.185-.38-.273.007-.227.134-.434.222-.66.14.092.279.201.44.293zM127.272 17.815l-1.932-.052.003-.123 1.993.055a.847.847 0 00-.064.12zM248.247 35.189c-.572.072-1.144.144-1.716.233-.018-.088-.037-.159-.055-.247.572-.072 1.145-.16 1.716-.233.019.07.037.159.055.247zM605.538 58.122l.894 1.53c-1.029-.308-1.029-.308-.894-1.53zM49.162 13.13c.408-.024.816-.047 1.203-.072.019.053.058.124.076.177-.247.116-.455.286-.72.313-.184.03-.404-.116-.606-.174.023-.087.045-.156.047-.244zM532.735 28.195l1.404.038c-.001.035.018.07.017.106l-1.403-.039c-.02-.035-.019-.07-.018-.105zM313.758 22.74c-.514.195-1.049.373-1.563.57.288-.85.973-.604 1.603-.552l-.04-.019zM519.307 33.992c.308-.097.596-.211.904-.29.02 0 .176.267.176.267-.269.15-.578.3-.867.449-.077-.16-.135-.301-.213-.426zM61.146 8.8c-.083.05-.228.151-.269.133-.12-.056-.198-.18-.297-.271.123-.032.246-.098.348-.078.08.02.138.144.218.216zM431.341 33.24c.207-.134.355-.305.497-.3.102.002.32.218.317.306-.024.121-.211.274-.354.305-.143.014-.28-.183-.46-.31zM173.416 30.383c.029-.314.059-.646.11-1.03.838.6.838.6-.169.976-.001.018.059.054.059.054zM96.467 41.365c.655-.14 1.31-.297 1.966-.436l.055.211c-.674.087-1.348.156-2.021.225zM338.073 28.987l.42.274c-.084.068-.169.206-.229.186-.162-.039-.322-.148-.462-.222.083-.068.166-.136.271-.238zM6.777 56.78c.347-.043.674-.07 1.144-.126-.443.548-.443.548-1.144.126zM623.433 19.863c-.652.018-1.324.034-1.975.034.004-.14.007-.262.031-.402.628.122 1.275.263 1.923.385l.021-.017zM29.172 48.321c-.367.025-.754.05-1.121.092.001-.053-.018-.106-.016-.176.367-.007.754-.032 1.12-.039a.26.26 0 01.017.123zM323.107 22.486c.276.323.395.431.493.557-.145.1-.291.254-.455.267-.122.014-.361-.185-.358-.29.004-.14.171-.293.32-.534zM212.557 33.358c-.227.117-.372.183-.516.266-.078-.125-.177-.25-.193-.39-.019-.053.189-.205.249-.186.121.056.24.164.46.31zM50.729 8.656l1.037.028-.005.158-1.077-.03a.453.453 0 00.045-.156zM390.561 25.357l1.076.082-.006.21c-.366.008-.733.033-1.1.04.003-.105.006-.227.03-.332zM53.702 13.815c.308-.114.515-.231.74-.278.062-.016.277.305.235.34a1.641 1.641 0 01-.56.37c-.04.016-.217-.217-.415-.432zM475.186 16.664c.369-.095.738-.19 1.108-.302.038.07.077.142.096.213-.35.13-.68.279-1.029.41a1.69 1.69 0 00-.175-.32zM96.467 41.365c-.794.031-1.588.045-2.383.076l.007-.245 2.376.17zM420.596 39.797c.227-.133.434-.268.661-.384.059.071.119.143.177.232-.227.116-.454.25-.681.367-.06-.072-.098-.143-.157-.215zM540.2 27.645c.402.186.624.28.845.391-.205.03-.389.077-.593.089-.04-.019-.097-.178-.252-.48zM100.923 7.8c-.265.045-.552.09-.817.136-.039-.089-.057-.177-.095-.248.266-.063.553-.143.819-.205.039.088.056.211.093.317zM424.295 31.74c-.384-.081-.769-.144-1.154-.225.023-.087.026-.192.048-.279.386.046.791.11 1.177.155l-.071.348zM241.481 35.512c-.287.08-.574.142-.861.222.064-.104.109-.26.232-.31.145-.083.349-.077.533-.125a.963.963 0 01.096.213zM240.592 24.072c.285-.027.592-.071.877-.099.018.088.057.177.075.265-.288.08-.574.142-.861.222-.037-.141-.054-.264-.091-.388zM571.601 35.26c.146-.102.251-.222.395-.27.061-.016.18.092.28.148-.104.102-.209.222-.354.305-.021.017-.16-.092-.321-.184zM135.56 19.914c.509-.003 1.018-.024 1.547-.027-.002.087.017.158.014.245-.489.022-.978.026-1.467.048-.037-.106-.076-.177-.094-.266zM462.312 14.825c.204-.012.389-.06.55-.02.061.02.097.178.156.267-.164.03-.348.078-.511.074-.081-.003-.117-.179-.195-.32zM456.862 25.812l.956.026-.002.07-.976-.027a.115.115 0 00.022-.069zM251.812 35.058c.306-.026.632-.035.938-.062.019.07.017.14.036.194-.307.044-.593.089-.9.15-.017-.105-.056-.194-.074-.282zM244.694 30.364c-.105.103-.211.257-.251.239-.162-.04-.322-.132-.483-.206.064-.086.149-.223.21-.222.182.04.342.132.524.19zM242.428 30.635c-.306.045-.612.071-.939.115-.018-.088-.037-.159-.055-.247.287-.062.574-.142.861-.204.058.107.095.23.133.336zM138.841 18.27l1.076.082-.003.123c-.326.009-.652.017-.978.043-.039-.088-.057-.159-.095-.247zM140.042 14.521l.732.02-.001.035-.732-.02.001-.035zM110.871 10.96l-.875-.024.004-.157c.265-.01.55-.003.815-.013a.41.41 0 01.056.194zM541.269 41.436c.058.09.117.16.156.25-.103.05-.289.15-.329.113-.099-.09-.157-.214-.215-.338.143.004.265-.01.388-.025zM153.916 26.718c-.185.065-.329.148-.473.18-.061.015-.159-.127-.238-.2.144-.083.269-.185.433-.233.041-.016.139.127.278.253zM77.612 25.199c.08.054.18.11.26.147-.103.05-.207.134-.33.149-.081.015-.18-.075-.26-.13.103-.05.206-.1.33-.166zM402.89 25.518l1.038.028a.408.408 0 00.016.159l-1.039.024c-.018-.07-.016-.14-.015-.21zM399.12 25.695c.105-.102.168-.205.23-.22.122-.015.264.006.344.079.039.036-.005.175-.028.262a8.812 8.812 0 00-.546-.12zM59.14 43.605l-.875-.024.002-.088.875.024-.003.088zM392.725 29.583c-.14-.109-.3-.183-.279-.235a.542.542 0 01.211-.257c.082-.033.223.041.344.062a3.39 3.39 0 00-.276.43zM389.623 28.396c.265-.028.53-.038.795-.066.019.07.017.14.035.211l-.797.136c.003-.105-.015-.193-.033-.281zM215.827 20.859c-.326.043-.653.07-.98.113-.018-.088-.036-.159-.034-.246.327-.026.654-.07.98-.096a.908.908 0 00.034.229zM605.558 58.123c.446.082.891.164 1.316.246-.043.104-.086.19-.11.295-.402-.186-.804-.355-1.206-.541-.02 0 0 0 0 0zM46.924 45.95c.263.078.545.156.807.25-.043.087-.066.191-.109.277-.262-.077-.545-.154-.808-.232.044-.121.067-.208.11-.294zM314.476 26.96c.349-.112.718-.207 1.211-.351-.322.604-.671.717-1.211.352-.02-.018 0 0 0 0zM171.919 18.104c.287-.08.595-.177.882-.256.039.088.077.194.115.283-.287.08-.595.159-.882.239a30.463 30.463 0 00-.115-.266zM36.342 53.384c.242.076.484.17.726.247-.023.07-.065.138-.087.19l-.726-.23c.022-.069.044-.138.087-.207zM319.406 26.08c-.079-.072-.138-.144-.218-.216.103-.033.206-.082.309-.114.04 0 .119.09.119.108a1.131 1.131 0 01-.21.222zM324.723 25.91c-.489.021-.979.06-1.448.082.003-.105.026-.209.03-.331.445.082.911.182 1.377.247 0 .018.041.002.041.002zM618.717 24.882c.306-.026.632-.052.939-.096.017.105.035.193.032.298l-.938.08c.003-.105-.015-.194-.033-.282zM203.708 33.905c-.075-.247-.192-.425-.149-.512.064-.12.27-.203.414-.251.061-.016.18.11.26.165-.064.103-.168.205-.525.598zM332.645 28.752c.078.107.156.231.255.34-.103.049-.249.167-.309.13-.14-.073-.239-.198-.338-.306.104-.05.206-.082.392-.164zM15.139 7.599c-.385-.063-.75-.143-1.134-.206l.068-.278c.385.063.77.108 1.136.17l-.07.314z" fill="#0A5B88"/></svg>
