<svg width="1280" height="2313" fill="none" xmlns="http://www.w3.org/2000/svg">
  <g opacity=".05" fill="#0080FF">
    <path d="M1323.52 1476.05c-31.97-10.97-55.58-34.57-81.83-53.87-25.05-18.36-50.1-36.24-73.95-56.26-25.53-21.46-45.57-57.69-29.11-95.35 8.59-19.55-.48-36.48-12.64-50.3-12.41-14.07-16.47-27.18-10.74-45.29 5.73-18.12 8.59-36.95 11.45-55.79 1.43-8.82 8.59-16.68 7.4-24.79-3.58-23.36 5.72-43.14 14.79-63.41 1.19-2.38 1.19-5.48 1.19-8.1-.95-11.2 2.86-20.26 12.41-26.699 6.44-4.53 8.35-10.489 5.72-17.641-8.11-20.739-1.43-41.239 4.06-60.548 3.82-13.826 8.35-27.175 8.83-41.478 1.19-38.141 9.06-75.567 8.58-113.707-.23-9.059-1.9-17.64-4.77-25.507-8.35-23.361-4.53-49.821-20.04-71.514-10.26-14.064-18.37-29.559-28.15-44.1-14.55-21.931-20.52-46.961-27.91-71.514-6.44-21.931-11.69-44.577-30.3-60.787-7.63-6.675-8.35-16.925-9.54-26.46-.96-7.39 4.53-8.105 10.26-7.39 22.9 2.622 42.22 11.681 52.96 33.135 9.3 18.117 26.48 29.32 37.45 46.007 5.49 8.343 11.46 16.21 14.08 25.984 1.67 6.674 5.01 10.965 13.6 9.773 11.69-1.669 22.66 7.152 21.23 19.309-3.1 25.507 5.25 50.536.24 75.805-1.67 8.105 1.19 15.733 5.49 22.646 4.29 7.151 5.48 14.779 3.81 22.884-5.48 28.844.96 56.735 8.35 84.387 2.15 8.105 1.91 15.256.48 23.361-5.96 39.094-19.56 76.997-17.89 117.283.48 11.68-4.3 21.931-9.78 31.466-5.01 8.82-6.92 17.64-6.92 27.175 0 9.54 1.67 18.83.48 28.37-.72 5.96 2.38 11.68 7.87 15.25 8.35 5.49 16.46 10.97 25.05 15.98 5.01 2.86 10.02 1.9 14.31-2.15 11.93-11.44 25.53-21.45 32.21-37.43 1.91-4.52 6.68-7.86 10.26-11.44 7.39-7.388 14.55-6.911 21.71.24 3.34 3.34 6.44 6.91 9.54 10.49v209.77c-2.86 3.34-5.49 5.25-10.02 2.15-4.29-2.86-9.3-4.77-12.64-8.82-14.32-17.16-32.21-30.28-49.63-44.34-4.29-3.58-8.82-7.15-11.69-11.68-12.16-18.59-30.77-30.99-45.09-47.2-2.86-3.34-6.44-7.15-11.21-4.05-4.53 2.86-3.1 7.63-2.15 11.92 1.67 6.19 5.01 11.68 9.31 16.44 5.25 5.49 10.26 11.45 13.36 18.12 13.36 29.32 37.93 49.58 58.93 72.95 12.4 13.82 16.93 31.22 24.81 46.96 4.29 8.58-3.58 16.68-13.6 14.78-6.92-1.2-14.32-2.63-20.52-5.96-22.9-12.16-49.14-15.97-72.05-28.13-4.05-2.15-9.78-4.29-13.12.71-3.82 5.72 1.43 9.78 5.25 12.88 6.92 5.48 12.64 12.15 16.94 19.78 8.59 15.26 24.57 23.12 35.78 36 23.38 26.93 46.76 53.87 73.72 77.47 9.55 8.34 17.9 18.36 23.38 30.04v42.19zM612.58.715c-9.781 15.733.716 27.175 6.442 41.24 9.065 21.693 10.497 46.246 15.745 69.368 7.157 31.467 2.863 63.171 7.157 94.637 2.625 19.548 9.305 38.618 10.259 58.642.477 9.535 1.908 18.832-2.386 27.89-2.624 5.96-2.863 12.396 2.386 16.449 7.873 6.436 8.827 14.541 8.589 23.599-.239 8.82 1.192 17.402 6.202 25.03 2.863 4.052 6.919 7.39 11.929 6.436 5.964-.953 4.533-6.674 4.771-10.727.716-19.547 14.315-33.135 22.665-49.106 16.222-30.751 36.74-59.357 49.622-91.776 10.02-25.269 18.37-51.49 23.142-78.666 2.147-12.396 8.588-22.884 15.268-33.135 2.863-4.29 7.635-8.343 13.122-5.96 6.203 2.623 11.69 7.152 12.167 14.78.477 10.012.477 20.024-4.294 29.083-11.213 21.454-19.086 43.623-23.619 67.938-2.863 15.972-13.121 30.989-17.654 47.438-.716 2.145-2.386 4.291-2.863 6.436-8.111 40.763-26.243 78.665-33.877 119.428-2.386 13.588-3.34 27.414-3.102 41.24.239 23.6-4.771 46.722-8.35 69.607-2.862 18.832-12.644 36.711-16.938 55.543-8.589 37.664-22.426 73.421-34.593 109.654-1.909 5.483-2.624 12.873-10.02 13.111-6.68.477-7.873-6.674-10.974-11.204-12.167-18.116-16.939-38.14-14.792-60.071 2.147-22.17-5.725-43.624-4.294-66.032 3.34-53.397-5.964-105.84-11.69-158.761-.716-5.721.477-10.965 3.101-15.971 3.579-6.675 6.203-13.826 6.68-21.454.478-10.489-3.578-14.542-14.075-14.065-26.482 1.192-35.309-5.006-37.217-32.181-1.432-18.832-9.305-31.705-22.903-43.385-8.112-7.152-12.167-17.64-13.599-28.606-1.908-13.826-5.487-27.175-8.35-40.763-3.817-18.117-2.863-36.949 1.67-55.065 1.67-6.675 4.295-14.065 1.432-19.786-4.533-9.535 0-15.972 3.578-24.076 9.066-19.548 13.122-40.525 16.223-61.74.716-5.484 1.67-10.966 5.01-15.734 16.7.715 32.684.715 48.43.715zM1051.55 2312.52c0-2.86.48-5.72-.48-8.34-10.97-28.37-11.69-57.93-11.21-87.96.48-20.98 1.19-41.96 4.77-62.7 1.43-8.58 1.67-17.4 1.91-25.98.72-22.17 1.43-44.34 1.91-66.51.24-16.21 2.15-32.42 5.49-48.39 1.91-9.29 4.53-18.59 5.48-28.13.24-3.57.72-7.15 2.15-10.49 2.63-5.95 6.92-11.91 13.36-11.68 7.87.24 9.78 7.87 10.02 14.31.72 21.93 11.21 41.24 16.46 61.74 5.01 19.54 10.02 39.09 15.51 58.4 1.91 6.67-.24 16.21 8.11 18.59 8.83 2.63 13.12-6.43 17.66-11.92 14.55-18.11 26.24-37.9 35.54-59.11 10.5-23.6 22.67-46.49 27.92-71.99 1.67-7.87 10.02-9.06 17.65-1.43 8.59 8.58 15.98 18.35 23.62 27.89 2.38 3.1 3.58 6.91 7.16 9.29 24.33 15.5 28.62 41.72 34.35 66.75 1.43 5.96-.24 12.63-6.2 15.49-14.32 7.16-17.18 20.74-21.24 34.09-1.19 3.82-1.43 8.11-3.57 11.21-19.57 27.89-20.76 61.02-27.2 92.73-1.91 9.77-4.53 19.3-8.59 28.36-7.16 15.02-4.77 31.23-5.25 46.96 0 3.58 1.91 5.96 4.3 8.35-56.78.47-113.09.47-169.63.47zM78.42 2312.52c-1.91-12.87-3.102-25.98-5.726-38.85-3.579-17.88-9.305-34.81-22.665-48.87-13.36-14.06-18.37-34.09-29.582-50.06-5.249-7.39 1.67-8.34 7.157-8.34 19.563-.24 38.887 0 58.45-.48 20.517-.24 25.05-5.01 25.05-25.74 0-46.73.954-93.69-.716-140.41-.954-27.41 11.69-47.68 27.674-66.99 4.533-5.48 9.305-10.72 11.929-17.64 2.386-6.43 6.441-11.91 11.69-16.2 17.416-14.78 30.776-33.14 43.42-51.97 4.056-6.2 8.111-12.4 16.7-10.97 8.588 1.43 10.258 8.58 12.406 15.74 4.055 15.01 9.065 29.55 18.847 41.95 5.01 6.44 7.395 14.07 8.827 21.93 2.386 13.11 7.157 25.27 12.644 36.95 8.35 18.12 5.726 31.47-12.406 38.14-38.887 14.3-57.257 46.72-76.581 78.91-.716 1.43-1.431 2.86-2.386 4.05-29.105 35.99-41.75 79.14-54.871 122.52-7.634 25.51-13.837 51.02-20.517 76.76-1.909 7.87-5.965 15.5-9.543 22.89-2.624 5.48-2.863 10.49-1.193 16.21-5.964.47-12.406.47-18.609.47zM498.066 2312.52c-5.487-20.73-9.304-41.95-17.177-61.74-9.065-22.88-9.304-46.48-12.167-69.84-1.67-12.64-4.771-24.32-11.928-35.52-12.406-18.59-9.782-40.29-5.01-60.07 7.634-32.18 8.111-63.65-1.67-95.12-7.635-24.31-7.396-50.29-15.269-74.13-6.441-20.03-4.294-40.05-3.101-60.07.477-6.92-.955-16.21 9.781-17.88 10.974-1.67 17.177 4.05 20.756 13.59 4.294 11.2 9.304 21.69 15.507 32.18 5.487 9.29 10.258 7.63 16.461 1.19 4.533-4.77 6.919-10.49 9.782-16.21 3.101-6.68 8.111-11.2 15.745-10.49 8.112.72 7.396 7.87 9.066 13.35 7.873 25.74 6.919 51.49 2.147 77.71-.954 5.01-1.67 10.49-.238 15.26 4.771 17.16 6.441 34.09 3.34 51.73-1.909 10.48 3.34 19.31 6.68 28.6 3.34 9.06 3.578 17.64 2.147 26.94-6.68 39.57-5.249 79.86-6.68 119.9-.954 26.23-1.909 52.45-6.203 78.19-1.193 7.63-5.487 14.78-8.589 22.17-2.862 6.91-.954 10.01 6.919 10.97 22.426 2.38 44.851 2.86 67.516 2.86 8.35 0 16.938-2.86 26.004-4.77-1.193 6.67-9.066 6.2-11.451 11.2h-35.786c-8.112-4.53-16.939-2.14-25.289-1.9-10.735 0-21.471-2.86-31.968 1.9h-19.325z"/>
    <path d="M1323.52 920.623c-3.1-4.768-10.73-4.053-8.82-15.256 3.34-18.832 7.39-38.141 5.24-57.688-.47-3.814.48-8.344-4.05-10.489-4.53-1.907-7.4 1.43-10.5 3.814-3.58 3.099-7.16 6.198-10.73 9.535-2.39 2.384-4.3 6.675-8.59 4.529-3.82-1.907-3.58-5.959-3.82-9.535-2.15-26.937 2.86-53.874 3.82-80.572 1.43-34.804 3.58-69.845 2.86-104.411-.72-32.181-8.35-64.362-16.94-95.828-4.53-16.687-6.44-33.612-15.03-49.583-12.88-23.838-30.54-41.955-51.77-57.688-9.78-7.39-20.04-14.303-29.34-22.17-7.88-6.674-13.6-14.779-10.5-25.983 2.62-9.774 14.55-20.024 25.53-20.501 18.61-.953 36.98-4.767 55.11-8.82 14.55-3.337 26-10.965 36.98-20.262 12.88-10.965 24.33-24.076 40.55-30.274v591.182zM1323.52 1974.03c-1.19-.24-2.62-.24-3.34-.96-24.09-27.41-53.2-49.58-77.06-77.23-15.03-17.41-11.69-37.19-7.63-56.5 2.39-11.68 5.49-23.12 5.73-35.04.47-21.22-.72-42.67 1.67-63.89.47-4.29-.72-8.82-3.58-12.39-18.85-23.13-24.1-52.45-34.6-79.15-6.44-16.44-10.02-34.08-15.03-51.25-1.43-5-4.05-10.49.72-14.54 5.01-4.29 11.21-2.62 16.7.24 21.23 10.49 36.5 27.41 49.38 46.96 8.59 13.11 13.6 27.41 17.9 42.43 4.53 16.21 17.89 28.85 23.62 45.06 4.77 13.35 13.83 22.88 25.76 30.27-.24 75.09-.24 150.66-.24 225.99zM386.177.716c7.395 36.234 20.278 71.037 24.811 108.463 3.817 31.227 17.654 60.787 33.161 88.677 6.203 11.204 12.406 22.169 13.599 35.042.716 7.867 4.056 14.303 9.304 20.024 8.35 8.82 13.599 19.547 14.076 31.943.477 6.674 3.817 11.919 7.157 17.402 3.579 5.482 7.634 11.919 1.193 16.925-5.964 4.529-11.213-1.431-15.269-5.483-3.817-3.814-6.918-8.582-10.258-12.873-2.147-2.86-3.34-7.151-5.964-8.82-17.178-9.773-17.178-22.407-8.112-37.902 1.67-2.861 2.386-7.152 1.67-10.251-1.193-6.197-2.863-13.587-10.736-13.587-7.157-.239-7.634 6.913-8.827 12.157-2.863 14.303-3.817 15.257-18.131 11.204-6.68-1.907-13.122-1.907-20.04-.715-9.543 1.669-18.37 0-24.573-8.105-10.259-13.349-21.949-25.507-31.253-40.048-12.406-19.07-16.938-37.902-12.167-59.595 5.487-25.506 8.35-52.205 17.893-76.043 8.827-22.408 10.02-47.438 23.38-68.177 6.203-.238 12.644-.238 19.086-.238zM688.923 2312.52c15.03-9.77 31.73-4.29 47.475-4.05 15.746 0 15.985.95 16.462-14.78.716-22.17 5.01-43.15 14.314-63.17 2.624-5.72 4.533-11.68 4.533-18.35-.477-30.52 12.167-57.93 21.71-85.82 3.579-10.25 10.259-12.4 19.801-6.91 7.873 4.52 13.838 11.2 19.802 18.35 12.406 14.54 19.324 32.66 36.978 43.86 14.553 9.06 16.939 27.89 19.086 44.58.716 5.72-3.817 9.3-8.35 12.16-7.873 4.76-10.497 11.92-10.258 21.21.477 17.88-.239 35.76-.478 53.4-60.12-.48-120.478-.48-181.075-.48zM953.737.714c3.579 22.646 7.157 45.531 10.736 68.177.477 2.622 1.67 5.721 1.193 8.105-6.68 34.803-.716 71.514-15.746 105.125-4.771 10.489-5.01 22.408-6.441 33.85-2.863 24.554-7.158 48.391-18.37 70.799-2.625 5.244-2.148 10.727-1.193 16.448.954 5.96 1.67 11.919.477 17.879-1.193 4.767-3.101 9.297-9.543 8.105-17.177-3.337-28.867-17.879-28.151-35.757.954-21.693 4.771-43.147 5.487-65.078.716-23.838-1.432-47.914 3.101-71.275 5.964-31.705 2.147-63.171.954-94.876-.477-10.25 1.67-20.5 2.863-30.75s1.909-20.501-.715-30.752h55.348zM173.848 2312.52c0-7.86.238-15.73-9.543-17.16 13.121-12.16 20.04-27.65 22.187-44.1 3.578-29.56 14.076-56.97 21.233-85.1 8.827-34.09 25.527-63.89 42.943-93.68 2.385-4.06 4.294-9.3 10.258-8.11 6.203 1.19 6.68 6.91 7.634 12.16 4.533 25.74-.715 51.49-.954 77.23-.477 37.19-2.147 74.38-1.908 111.8 0 15.74-.716 31.47-1.193 47.2-30.299-.24-60.597-.24-90.657-.24zM1135.05.716c8.83 23.361 13.84 47.437 18.13 71.99 1.43 8.582 3.34 17.164 2.87 25.984-.48 10.012-4.3 12.634-13.6 8.582-2.39-1.192-5.01-2.622-6.92-4.529-6.92-5.96-13.12-4.53-16.46 3.098-11.69 27.176-34.6 46.961-46.76 74.137-5.49 12.395-16.46 22.884-22.91 35.518-1.67 3.337-4.53 5.96-8.58 5.006-4.3-.953-5.25-4.767-5.73-8.343-1.43-12.634-2.39-26.222 2.86-37.664 23.86-51.013 29.11-105.84 32.93-160.907.23-4.29 1.19-8.581 1.9-12.872h62.27zM1323.52 234.327c-18.37 17.164-42.94 23.838-63.22 37.903-4.29 2.86-7.63 1.907-8.83-3.338-.47-1.907-.71-3.814-.95-5.959-2.15-37.902-3.58-75.805 5.01-113.23 1.91-8.582 0-17.402-.72-25.984-.71-7.628-.23-15.971 8.12-19.309 8.58-3.099 14.55 2.623 18.84 9.059 9.55 15.018 18.13 30.512 27.68 45.53 3.58 5.96 6.2 13.111 14.07 15.495v59.833zM750.952.716c10.974 25.03 6.202 51.49-.239 75.566-7.396 27.891-7.396 58.165-22.664 83.91-1.193 1.907-1.193 5.006-4.295 4.529-3.101-.476-4.771-2.86-5.964-5.483-6.441-13.349-10.974-26.936-12.406-41.954-3.101-34.327-7.395-68.415-11.213-102.742-.477-4.767-1.908-9.297-2.862-14.064 20.04.238 39.841.238 59.643.238zM479.77 1156.62c-10.852 6.28-24.864 5.88-32.673-3.93-11.882-14.93-18.174-33.38-23.02-51.16-7.65-27.82-22.893-53.99-22.656-83.91.071-2.25-1.489-4.93 1.432-6.07 2.921-1.15 5.565.08 7.916 1.74 12.29 8.31 23.05 17.78 31.848 30.05 19.965 28.11 40.84 55.43 61.423 83.18 4.343 6 3.489 14.15-2.935 17.82a5101.42 5101.42 0 00-21.335 12.28zM321.762.716c-9.305 17.163-9.066 36.71-12.883 55.066-3.34 16.925-7.396 33.611-4.295 51.728 2.148 12.396-3.34 25.03-11.212 35.519-2.148 2.86-4.533 5.959-8.589 5.244-4.056-.715-6.441-4.052-6.441-7.628.477-22.17-16.462-39.333-16.939-61.502-.239-6.675-5.249-11.204-12.406-12.873-6.441-1.43-8.35-5.483-5.964-11.442 6.919-17.402 4.533-35.995 6.68-53.874 24.334-.238 48.191-.238 72.049-.238zM1280.58 2312.52c0-7.39 1.43-15.25-9.07-17.64-4.53-.95-3.34-5-.95-7.39 11.21-11.2 12.88-25.98 15.03-40.28 2.15-15.97 13.12-27.89 16.7-43.15 1.67-6.44 5.49-12.87 7.63-19.78 1.91-6.92 5.49-12.16 13.84-12.4 0 44.58-.24 88.92.24 133.49 0 5.96-1.43 7.63-7.4 7.39-12.16-.47-24.09-.24-36.02-.24zM350.391 2312.52c13.837-18.59 25.527-39.33 45.567-52.92 5.248-3.57 10.258-6.19 16.461-3.57 6.203 2.62 6.68 8.34 7.157 14.06.239 3.1.239 6.44.955 9.54 3.578 17.64 7.634 20.74 25.288 20.74 13.36 0 26.72 0 40.08 2.86h-45.328c-6.68 0-12.883.71-13.599 9.53-25.766-.24-51.293-.24-76.581-.24zM-36.095 2312.52c-1.193-24.55 6.68-48.39 4.533-72.94-.477-4.29 1.67-9.06 6.441-10.25 5.487-1.67 6.919 3.58 9.782 6.67 17.177 18.84 15.984 43.39 20.517 66.04.716 3.57 1.193 6.91 1.67 10.48h-42.943zM83.19.715c.478 4.767.955 9.296 1.67 14.064 1.91 13.11-3.816 18.594-15.983 12.872C55.755 21.454 45.019 11.92 35.477.953 51.222.715 67.207.715 83.19.715zM1189.92.716c.96 3.814 2.63 7.628 2.63 11.442-.24 9.535 3.58 13.11 13.83 10.012-14.31 14.78-30.06 20.739-42.46 16.448 2.38-5.721 13.6-3.576 11.93-12.396-1.91-10.012-3.82-20.5-14.56-25.744 9.55.238 19.09.238 28.63.238zM483.751.715c-1.431 3.338-4.055 5.96-7.157 7.629-7.157 3.814-9.781 9.535-9.543 17.401.239 2.623-.238 5.483-.954 8.105-1.431 5.245-3.817 10.012-10.497 9.059-6.68-.954-7.634-6.675-6.68-11.68 1.909-10.251 1.67-20.263-.954-30.514h35.785zM1006.22 2312.52c8.83-8.82 19.57-8.82 33.4 0h-33.4zM567.013 460.313c0 12.873 2.624 22.646 9.066 32.658 10.974 17.878 10.974 39.333 14.791 59.595 4.056 21.693 1.67 44.1 7.157 66.031 5.487 22.885.477 46.723-2.386 69.846-3.817 31.466-8.588 62.932-15.268 93.921-1.909 8.344.954 16.21 3.34 24.315 11.928 37.426 30.06 72.467 41.75 109.893 1.908 6.436 4.533 12.873 4.771 19.547.716 17.164 6.442 30.275 22.426 39.095 8.589 4.767 8.111 14.541 5.726 22.646-6.919 22.88-4.772 46.25-5.726 69.61-.716 22.4-4.533 45.05-10.259 66.74-4.294 16.45-6.441 33.38-10.974 49.82-1.908 6.68-3.578 16.69-11.69 15.74-9.066-1.19-9.781-11.21-9.543-19.31.716-24.08-8.827-46.01-16.461-67.94-8.589-24.31-14.553-49.34-21.949-74.14-4.294-14.06-7.157-28.84-14.075-41.474-12.645-22.884-17.655-47.438-22.426-72.467-1.909-10.489-5.726-20.501-9.066-30.751-8.588-25.507-14.075-51.252-.477-77.235 5.487-10.251 6.68-21.931 8.589-33.374 3.34-21.931 6.68-43.862 8.827-66.031 1.908-18.832-2.624-24.553-19.802-33.135-12.405-6.197-19.085-18.832-28.151-28.605-27.197-28.844-45.09-64.124-64.414-98.213-12.406-22.169-18.609-47.914-24.335-73.182-6.202-27.176-14.791-53.397-31.73-76.282-10.735-14.541-17.654-30.989-21.232-48.629-1.193-5.721-2.386-12.396 3.34-16.449 5.487-3.814 11.69-1.668 16.938.954 15.507 7.628 30.776 15.971 46.522 23.361 23.141 10.727 39.602 31.228 58.211 48.153 4.771 4.291 6.919 10.489 7.873 17.163 3.817 25.745 8.35 51.252 14.314 76.52.954 4.291.954 9.535 6.442 10.012 4.771.239 5.964-4.767 7.395-8.343 9.066-25.03 16.223-50.775 31.253-73.183 1.67-2.384 2.863-4.767 4.533-6.913 1.908-2.622 4.771-4.529 8.111-3.814 4.056.715 5.965 4.053 6.203 7.867.239 9.296 4.772 18.117 2.386 25.983zM150.706 1645.78c2.863-9.06 2.385-18.12 1.908-27.18-.238-5.24-2.147-9.06-8.35-9.53-2.863-.24-7.873 3.81-8.588-2.15-.716-5.24.715-11.68 6.68-12.4 12.883-1.66 10.735-9.53 10.974-18.83.954-36.95-5.01-73.66-6.441-110.37-.955-20.74-6.919-40.76-5.01-61.5.715-8.34-5.249-14.78-6.442-22.65-4.771-31.22-14.314-61.5-21.948-92.01-6.919-27.41-8.112-56.5-14.076-84.39-7.157-33.37-12.883-66.98-16.462-100.83-3.34-30.75-4.055-61.74.239-92.49 1.193-9.06.239-18.12-1.67-27.178-3.579-15.972 2.863-21.931 19.324-19.786 22.903 2.861 40.557 17.879 61.075 25.745 16.938 6.436 33.638 13.589 48.191 25.509 7.157 5.96 8.111 10.72 4.533 19.31-7.157 16.68-20.279 29.56-26.004 47.67-11.213 36-19.802 71.75-13.838 109.66.955 5.96 1.909 11.68 4.533 17.16 2.863 6.2 5.965 12.87 4.295 19.55-5.249 21.69 4.532 41.48 7.634 61.98 4.294 28.13 18.847 53.87 19.801 82.95 0 1.19.239 2.62.954 3.34 14.553 20.02 8.112 42.43 7.635 64.12-.239 7.39.238 14.55 3.101 20.98 5.487 11.68 5.01 23.84 5.726 36.47 1.67 26.46-9.066 49.59-13.837 74.14-7.157 37.43-22.187 72.71-29.583 110.13-.477 2.39-.954 4.77-1.909 6.91-3.101 5.96-7.157 12.88-14.552 12.64-8.589-.48-6.68-9.06-8.112-15.02-3.34-14.06-6.441-27.89-9.781-41.95zM1075.17 1821.46c1.19-.95 1.43-1.67 1.67-1.67 16.7 4.05 17.18 3.82 14.55-14.06-5.01-32.66-15.03-64.13-24.33-95.59-5.97-20.03-8.83-41.24-22.9-58.17-9.07-10.96-18.85-21.45-26.25-33.85-2.86-4.76-7.87-6.91-13.36-6.2-14.073 1.91-22.9-5.72-28.864-16.68-8.35-15.02-21.472-24.79-33.639-36.24-20.517-19.3-45.328-33.61-62.267-56.73-4.771-6.44-11.929-9.3-19.086-11.68-27.435-9.06-49.623-25.75-70.617-45.05-16.7-15.26-32.923-30.52-57.257-36.71-18.847-4.77-33.638-20.74-43.42-38.86-8.35-15.97 7.396-32.9 27.913-32.9 24.811-.24 49.384 6.92 74.434 2.63 10.259-1.91 20.756.71 29.583 6.91 7.157 5 15.984 4.29 23.619 7.86 12.882 6.2 15.268 11.69 8.827 24.08-8.112 16.21-5.487 26.22 10.735 33.85 18.848 8.58 34.116 23.36 54.395 29.32 2.385.72 5.248 2.86 6.68 2.15 13.598-7.63 20.755 5.48 30.537 9.53 7.395 3.1 11.928 12.16 21.948 10.01 2.148-.47 3.579 2.15 2.147 4.06-5.009 6.67.716 10.01 4.056 14.06 18.846 22.89 37.216 46.01 52.486 71.52 8.11 13.58 18.13 26.22 30.06 36.71 9.78 8.82 15.98 19.3 22.43 30.27 13.83 23.12 21.71 49.34 37.69 71.28 4.53 6.43 4.29 14.3 3.82 21.93-.72 10.96 3.1 20.5 6.2 30.75 7.63 24.31 16.46 48.87 11.45 75.33-.71 3.57-.95 7.15-.71 10.72 3.34 27.89 1.43 55.31-5.25 82.48-1.2 5.01-1.2 10.73-8.11 11.44-6.45.72-11.69-1.43-15.51-6.67-8.11-11.2-12.88-23.6-15.27-37.19-2.62-15.02-9.78-28.6-14.55-42.67-2.39-6.91-10.26-9.77-13.84-15.97zM647.888 1846.25c-10.02.72-16.461-5.96-24.334-6.2-36.74-1.19-65.13-26.22-99.484-34.56-17.893-4.53-30.537-19.07-45.329-30.04-29.582-21.93-52.247-49.1-70.617-80.81-15.03-25.74-17.177-55.06-25.527-82.71-5.487-18.6-8.827-37.91-20.517-54.36-3.817-5.48-8.111-10.48-13.837-14.54-14.553-10.25-17.177-27.17-23.38-41.95-10.259-24.08-20.994-48.15-28.867-72.95-10.259-31.94-18.132-64.84-12.883-98.92.954-6.2-.716-11.92-3.102-17.41-9.781-21.93-9.065-44.57-5.964-67.7 1.909-14.06 2.147-28.36 2.863-42.67.716-15.73 5.487-30.51 9.304-45.53 3.34-13.34 13.837-17.16 23.857-7.62 10.02 9.53 19.802 19.3 32.208 25.98 4.055 2.14 7.157 6.44 6.68 10.73-1.909 15.49 1.67 31.22-2.625 46.96-7.395 26.93-7.395 54.59-2.147 82 .954 4.77 3.579 9.54 1.909 13.83-3.817 10.72.715 20.97.715 30.99-.238 24.07 11.452 46.24 9.066 70.32-.954 9.77 1.193 19.54 6.203 28.6 2.624 4.77 4.294 10.49 4.771 15.74 3.102 27.65 16.7 50.29 35.548 69.6 13.36 13.35 21.71 29.8 29.105 46.01 9.782 21.22 24.812 38.62 36.025 58.64 9.065 16.45 22.902 30.04 29.821 48.16 5.964 15.25 20.279 24.31 33.638 32.65 32.685 20.74 66.323 40.53 99.008 61.51 11.928 7.62 20.517 19.54 32.684 27.41 6.203 4.05 8.827 11.68 5.964 19.07-3.817 10.49-14.076 8.1-20.756 9.77z"/>
    <path d="M811.31 922.053c-4.294 29.321 3.34 49.583 6.68 70.084 4.533 28.363.477 56.023-4.055 83.673-2.386 14.3-.716 28.37-1.432 42.67-.716 14.54-3.34 28.37-10.736 41-5.248 9.06-6.68 18.59-4.055 28.61.954 3.57 2.147 7.62.238 10.48-10.974 14.78-14.075 34.57-28.39 47.2-5.487 5.01-9.543 10.97-11.928 17.64-4.056 11.92-11.69 20.5-22.426 26.7-12.883 7.39-22.426 18.83-33.877 28.13-6.68 5.25-13.36 7.87-21.949 7.39-13.598-.95-16.938-4.05-16.222-17.4.715-11.68-6.203-21.69-4.295-33.85 3.817-24.55 17.893-43.62 29.822-64.13 13.837-24.07 26.481-48.62 35.547-75.08 12.167-35.29 14.553-71.28 11.69-107.99-1.432-18.12 4.294-35.281 4.055-53.398-.477-22.408-9.542-41.478-19.801-60.072-8.35-15.018-15.269-30.512-18.37-47.437-2.147-10.966-6.68-21.216-10.258-31.705-3.102-8.582-9.066-12.873-17.416-16.448-21.233-8.582-31.253-27.891-40.557-47.199-1.67-3.338-1.193-7.152 2.385-9.536 3.34-2.145 6.68-2.384 10.02-.238 1.432.715 2.625 1.669 4.056 2.622 20.517 14.065 24.573 13.588 41.75-5.006 7.873-8.343 15.507-16.925 23.619-25.268 4.532-4.768 10.02-8.105 16.938-6.436 7.634 1.907 7.396 8.581 8.35 14.302 1.432 8.82 5.01 16.449 10.736 23.362 8.35 10.25 13.598 22.169 15.984 35.28 2.863 16.448 8.35 32.181 10.259 48.868.715 7.628 5.487 13.826 10.497 19.547 15.03 17.878 27.436 36.472 23.141 53.635zM191.024 466.272c.716-8.582.478-16.686 5.726-22.646 17.177-20.501 17.893-46.007 21.949-70.561.954-6.197 2.147-12.395 4.533-18.355 1.908-4.767 5.009-8.105 10.497-8.105 5.248 0 9.304 2.384 11.451 6.913 8.589 16.925 17.893 32.42 37.456 39.333 6.918 2.384 8.588 10.489 9.304 16.925 2.386 20.977 6.203 41.478 13.599 61.264 7.872 20.739 3.817 43.146 10.497 64.362 4.055 12.634 8.827 24.792 16.223 35.519 20.04 27.89 37.217 58.165 63.937 80.811 4.771 4.052 6.68 9.773 9.304 15.256 8.111 16.925 21.71 30.274 31.014 46.246 5.487 9.296 8.827 18.355 6.203 29.32-3.817 15.257 2.386 30.513.477 46.246-3.101 28.844-10.258 56.734-20.04 83.91-3.34 9.297-7.395 18.355-11.451 27.413-3.102 7.152-7.873 6.913-12.883 1.907-7.873-7.389-12.883-16.925-13.36-27.175-.716-25.268-12.644-47.914-15.507-72.944-3.579-32.658-14.314-63.886-18.37-96.782-1.67-14.065-7.396-24.315-25.289-29.321-27.674-7.628-50.577-25.268-65.368-51.49-9.066-15.733-22.664-29.559-29.106-46.007-10.02-25.984-28.39-48.63-32.446-76.997-1.908-12.396-5.725-24.076-8.35-35.042zM564.866 1509.18c-14.315 0-28.629-.23-42.943 0-14.076.24-25.05 5.96-32.684 18.36-9.066 14.78-20.04 14.78-27.913-1.43-7.635-15.73-10.975-32.9-13.36-50.3-.955-7.15-1.432-14.06-2.625-21.22-7.157-38.61-9.542-77.71-6.68-117.04.955-13.11 6.203-18.12 19.086-17.16 15.507 1.19 30.299 3.81 41.512 17.4 13.837 16.92 30.298 30.99 48.668 43.38 11.452 7.63 16.939 22.41 30.299 29.56 7.873 4.29 15.03 10.25 23.141 14.54 14.076 7.63 23.619 20.98 33.877 32.66 19.324 22.41 44.613 32.18 71.333 40.53 19.324 5.96 35.309 17.16 52.247 27.41 3.102 1.91 5.249 5.24 8.35 6.67 42.466 17.88 64.892 55.07 89.226 90.59 5.01 7.15 9.781 14.54 17.654 19.07 12.167 6.91 13.122 20.26 17.654 31.47 9.066 22.17 16.462 44.57 15.03 69.13-.238 4.53.716 10.25-5.248 12.15-5.726 1.67-8.589-3.1-11.213-7.15-12.167-19.55-22.664-40.05-31.73-61.26-4.294-10.25-10.02-18.6-20.04-22.41-20.279-8.1-32.446-25.51-42.704-41.72-18.609-29.08-43.42-49.58-73.242-64.36-24.811-12.39-48.43-27.17-73.48-39.33-15.745-7.63-31.968-8.82-48.43-9.3-11.928-.47-23.857-.24-35.785-.24zM831.827 381.647c.716 11.204.954 24.792 2.147 38.141 1.909 20.262-3.101 39.809-8.35 58.641-7.873 28.368.955 52.206 12.883 76.282 1.67 3.576 3.102 7.628 5.726 10.489 19.324 21.454 24.334 48.152 28.628 75.328.478 3.099.955 6.436 2.386 9.058 8.589 14.78 10.259 30.513 8.35 47.199-3.578 28.367 5.964 55.781 7.634 83.672.716 11.919-.238 23.838 1.193 35.518 2.386 19.547-.715 38.618-3.578 57.688-1.909 12.634.477 24.792 3.34 36.472 6.918 27.175 3.578 54.589 1.908 81.765-.477 9.06-5.487 17.16-7.395 25.98-4.056 17.88-12.645 34.81-13.838 53.64-.238 1.91-1.431 3.57-2.624 5.24-1.908 2.86-3.34 7.39-7.634 5.72-3.579-1.43-4.056-5.96-3.34-9.53 4.771-28.13 5.726-56.74 6.68-85.103.954-26.937 7.634-54.112 1.908-81.288-2.147-10.011-6.202-18.116-13.837-24.314-18.131-15.018-22.187-35.996-23.38-57.688-.477-11.919-2.624-22.646-10.258-32.181-11.929-14.78-19.324-31.705-24.812-49.822-5.725-19.07-17.654-35.518-26.72-52.92-15.984-30.751-14.552-61.979-7.634-93.922 2.147-10.25 4.294-20.024 3.817-30.512-.715-15.972 9.782-29.083 10.975-44.816.715-9.535 2.147-19.07 4.532-28.129 6.919-26.221 14.553-52.443 19.563-79.38 2.863-15.495 5.726-31.228 12.644-45.769 2.863-5.96 3.579-14.78 12.406-13.111 9.066 1.669 8.589 10.012 7.634 17.402-.477 3.099-.477 5.483-.954 10.25z"/>
    <path d="M958.508 1760.91c-.715-15.25 2.386-38.85 5.487-62.45 1.432-10.97 7.635-14.31 17.655-8.82 7.396 4.05 12.644 10.01 13.837 18.35 4.294 29.8 11.693 59.12 11.453 89.63-.24 20.5 3.34 41 3.58 61.74.47 32.42.47 64.84-2.39 97.26-1.43 16.21-1.67 32.42-1.19 48.63.48 14.78-1.67 29.32-4.3 43.63-.95 4.76-2.38 9.77-7.869 10.72-5.487.96-9.781-1.9-13.36-5.96-10.258-11.92-15.984-26.46-23.618-39.81-7.873-13.35-18.848-21.21-32.923-27.65-22.426-10.49-43.659-21.93-58.45-44.34-21.472-32.65-45.567-63.88-69.425-95.11-12.882-16.69-21.709-36.23-28.389-56.02-9.782-29.32-18.609-59.12-17.655-90.58.239-8.35 2.625-15.02 9.782-18.84 7.157-3.81 12.882 1.2 18.37 5.25 11.928 9.06 20.278 21.69 26.72 34.32 15.984 31.95 34.831 61.75 57.257 89.64 16.7 20.73 27.674 46 34.354 72.46.716 3.1.716 6.44 2.147 9.3 7.873 15.49 7.873 31.23 3.34 47.44-1.908 7.15-2.863 15.02 5.487 18.59 7.635 3.34 12.168-3.1 16.939-8.1 12.883-13.59 13.837-31.71 18.131-48.39 11.213-43.39 16.223-87.49 15.03-140.89zM717.313 2069.85c-8.112 15.98 10.736 25.99 12.406 40.77.477 4.53 4.055 9.29 3.817 13.58-1.67 20.74-1.67 42.2-7.157 61.98-7.396 26.7-20.04 51.73-33.639 76.05-5.01 8.82-10.736 20.02-22.426 18.59-10.974-1.43-17.415-11.68-21.233-22.17-3.578-10.01-5.964-20.5-7.634-31.23-3.578-24.31-10.736-47.91-20.278-70.8-5.726-13.58-10.498-27.41-15.746-41-1.909-4.76-3.34-10.01-6.442-14.06-23.141-29.32-26.004-65.79-36.501-99.64-.716-2.15-1.193-4.77-.716-7.16 5.487-24.07 7.873-49.34 26.243-68.41 5.249-5.48 6.203-12.87 9.304-19.07 2.625-5.48 4.772-11.44 12.168-11.44 7.157.23 11.451 5.24 13.837 11.44 5.487 13.59 8.588 27.89 16.7 40.52 9.781 15.5 18.37 31.47 27.197 47.2 6.68 12.16 10.497 25.75 17.893 37.67 5.01 8.1 10.02 14.78 20.04 17.16 8.35 2.62 12.883 9.06 12.167 20.02zM109.433 1636.96c.477 15.73 3.579 29.08 4.295 42.19.954 18.83 4.532 37.66-.239 56.73-3.101 12.4-1.909 25.27-5.726 37.67-3.817 11.92-6.68 13.59-17.893 8.34-8.35-3.81-13.121-1.43-17.177 6.44-15.03 29.56-34.354 56.97-51.292 85.58-2.386 4.05-6.203 4.76-10.26 4.76-13.12.24-26.242.24-39.363.24-8.828 0-12.167-4.05-10.259-12.63 7.396-33.38 14.553-66.51 21.71-99.88 5.487-24.8 5.726-50.3 15.269-74.38 6.441-15.73 13.837-30.27 26.481-41.71 2.386-2.15 4.771-4.53 6.203-7.16 9.543-19.31 26.959-31.94 40.318-48.15 1.432-1.91 3.34-3.34 5.249-4.77 9.066-6.67 19.324-11.44 29.821-5.24 10.498 6.44 7.873 17.64 5.249 26.94-1.909 9.29-4.294 17.87-2.386 25.03zM334.883 2183.56c2.386-28.13 6.919-55.78 10.497-83.67 2.625-21.69.955-44.34-1.193-66.51-3.817-41.48-7.395-82.95-9.781-124.43-1.193-21.93-10.497-37.9-31.73-45.29-14.791-5.01-21.233-17.41-26.959-30.04-3.101-6.91-6.68-13.35-11.451-19.31-10.974-13.83-11.929-30.04-3.101-45.29 6.68-11.68 13.837-23.12 16.938-36.47 1.432-5.96 3.817-13.35 11.69-12.88 6.919.48 10.497 6.44 12.644 12.88 6.442 19.07 12.168 38.38 20.518 56.97 6.441 14.54 6.441 31.7 14.791 46.01 11.929 20.74 16.939 44.1 25.05 66.5 3.579 10.25 12.406 14.78 22.187 18.12 12.883 4.29 18.37 13.59 17.416 27.18-2.147 30.99-.955 61.74 5.248 92.25.955 5.01 1.193 10.25.477 15.49-5.01 35.05-11.928 69.61-23.857 102.98-3.34 9.06-7.395 17.64-13.837 24.8-7.634 8.58-13.121 17.87-15.984 28.84-1.193 4.29-2.863 8.58-8.35 8.58-5.249 0-7.396-4.05-9.066-8.34-4.055-9.06-1.908-18.83-2.147-28.37zM963.757 1168.54c9.066.71 12.644 5.96 15.507 13.35 7.635 20.02 8.827 41 12.167 61.74 2.147 12.63 7.396 24.07 13.359 33.85 13.12 21.45 19.33 46.72 36.74 65.79 10.02 10.97 18.13 23.12 30.06 32.9 17.66 14.54 38.65 23.36 56.54 36.95 19.33 14.78 42.23 22.64 61.79 37.42 17.66 13.59 40.08 20.74 58.93 33.14 17.89 11.92 36.26 24.07 44.37 46.24 2.87 7.87 9.79 14.31 14.56 21.69 3.1 4.53 8.11 9.54 3.1 14.78-5.01 5.01-10.74.24-15.03-2.86-8.59-6.43-17.89-12.39-24.57-20.5-21.24-25.98-50.34-37.18-80.88-47.2-22.43-7.15-43.18-17.64-61.55-34.08-12.41-10.97-24.34-23.84-41.27-29.56-7.64-2.63-11.22-10.97-18.85-14.07-11.69-4.77-23.14-10.25-36.26-9.06-6.45.72-11.69-2.62-15.51-7.62-14.32-18.6-34.117-31.47-50.817-47.92-18.609-18.12-26.004-38.85-26.72-62.45-1.193-34.81 4.533-69.37 10.02-103.94.954-8.58 4.533-16.68 14.314-18.59zM1130.04 742.316c1.67 31.227 2.86 62.217 4.77 93.444.96 14.542-.24 29.083-3.34 42.67-4.29 18.594-1.91 37.903-9.3 55.781-1.67 4.053 0 7.628 2.38 10.966 3.11 4.052 3.11 8.105-.23 11.919-1.91 2.145-4.06 4.767-6.92 2.86-3.82-2.383-4.3-6.674-4.06-10.727 1.91-21.931-8.11-41.716-12.64-62.217-4.54-20.262-12.89-39.571-14.32-61.025-1.19-19.547-13.12-37.187-16.22-56.973-4.06-25.983-12.41-50.775-23.14-74.851-1.19-2.622-1.43-5.96-3.34-7.628-20.04-17.879-25.77-44.339-38.89-66.27-14.551-24.076-29.104-47.914-44.373-71.276-3.817-5.721-4.056-12.157-2.386-18.355 3.102-11.919 9.305-22.646 11.929-34.803 1.67-7.628 5.964-6.913 11.69-1.192 15.746 16.21 26 35.757 35.79 55.304 5.96 11.919 6.2 25.983 14.07 37.664 7.64 11.204 13.6 23.123 25.53 30.751 10.73 6.913 13.6 20.262 21.47 29.798 14.79 17.878 33.16 33.134 43.42 54.827 5.73 12.872 7.4 25.983 8.11 39.333zM265.459 684.866c-5.487 3.814-10.497 1.43-15.507 1.43-4.056 0-8.112 1.907-5.487 6.437 3.817 6.198 5.487 15.733 13.121 17.64 20.278 5.244 26.958 20.5 31.014 38.14 2.147 9.774 6.203 18.594 11.213 27.176 5.01 8.581 9.066 17.64 7.634 28.129-.477 2.622.239 5.959 1.67 8.105 20.04 27.413 16.223 60.786 22.188 91.537 3.817 20.024 10.497 39.81 10.258 60.787 0 2.861.954 5.483.954 8.343-.477 5.96-.954 12.873-8.35 14.065-6.441.953-10.258-4.053-12.405-9.297-4.772-12.157-9.066-24.553-13.599-36.949-6.203-17.402-15.507-32.181-33.877-39.094-14.076-5.244-19.324-18.117-25.527-30.036-21.472-40.525-31.492-84.148-38.649-128.963-2.624-16.925-7.157-33.374-7.157-50.537 0-4.767 0-9.774 1.432-14.064 3.101-10.251 12.644-12.634 21.471-5.721 6.919 5.244 11.451 14.779 23.141 5.482 4.772-4.529 12.168 1.431 16.462 7.39zM1064.16 1077.4c-6.66-.56-9.8 4-14.14 6.5-3.52 2.03-7.98 2.4-7.98-2.83.2-7.27-3.12-16.37 2.53-21.83 14.94-14.66 13.08-31.21 7.76-48.51-3.04-9.54-3.94-19.2-3.9-29.133.04-9.933-.98-19.803-7.47-28.172-1.73-2.033-2.78-5.28-2.62-7.853 3.63-33.745-16.39-60.741-26.62-90.35-6.73-19.247-10.85-39.716-21.56-57.764-1.433-2.477-1.92-5.225-3.352-7.702-3.398-4.923-7.273-10.672-14.275-8.012-6.056 2.39-6.855 8.631-6.088 14.245 1.956 12.91 4.445 25.789 6.727 38.787 3.343 18.167 2.687 35.611-9.76 50.768-9.564 11.569-7.663 25.337-7.066 38.756 1.7 45.814 14.869 88.59 31.114 130.98 6.203 15.97 10.514 32.47 19.11 47.34 2.39 4.13 4.89 8.46 8.28 11.46 7.82 7.33 17.28 4.63 21.46-5.76 3.37-8 2.52-18.52 17.3-16.3 6.4 1.54 9.82-7.31 10.55-14.62zM937.276 2130.88c0 3.57-.477 7.63-4.294 9.06-4.295 1.66-7.635-1.2-10.259-4.29-11.69-13.83-23.857-27.66-34.831-42.2-6.68-8.82-13.599-16.21-23.619-20.98-21.71-10.48-40.08-25.03-54.871-44.33-8.589-11.21-21.233-18.12-33.639-23.84-16.223-7.39-27.674-19.55-37.694-33.61-10.259-14.54-11.452-30.04-1.67-45.53 1.67-2.63 2.863-5.73 4.056-8.59 6.441-16.68 22.425-20.26 31.968-5.24 15.269 24.08 39.842 39.09 57.257 61.26 15.507 19.55 29.822 40.53 47.476 58.88 9.066 9.54 13.121 24.08 21.471 35.28 11.69 15.74 26.72 29.32 33.639 48.39 1.67 5.25 5.01 10.02 5.01 15.74zM108.956 1425.51c-2.863 31.95-.238 62.46-1.67 92.73-.954 18.6-4.533 22.65-22.664 22.17-5.487-.24-10.259.72-14.314 4.29-15.985 13.59-35.07 21.93-53.202 31.71-8.111 4.29-15.507 1.19-17.893-7.63-1.192-4.77-.954-9.54.955-14.07 13.36-30.51 21.948-63.17 39.364-91.77 11.213-18.36 20.517-38.62 37.456-52.92 2.624-2.39 5.248-5.01 8.111-6.92 12.167-7.62 20.517-3.81 22.903 10.49.954 4.53.716 9.06.954 11.92zM1142.45 310.848c-13.12-5.006-29.35-3.337-44.85-5.244-15.03-1.669-20.04-13.826-12.65-27.176 1.43-2.383 2.86-4.767 5.01-6.674 25.29-24.077 39.37-56.258 60.84-83.195 2.86-3.814 4.53-8.582 10.73-7.628 5.73.953 7.4 5.244 8.35 10.25 2.63 13.111 5.73 26.222 8.11 39.571 1.67 10.012.72 19.309-8.35 26.699-8.35 6.913-6.68 15.495 3.34 20.739 5.01 2.861 9.31 5.96 11.46 11.442 3.57 9.297 0 15.733-9.79 17.164-10.25 1.668-20.04 2.622-32.2 4.052zM107.286 296.546c.716-6.674.954-16.21 2.624-25.507 2.625-15.017 12.645-19.07 25.528-11.203 7.872 5.006 15.745 9.535 26.004 10.488 15.507 1.431 21.233 14.065 14.314 27.652-7.396 14.542-13.36 28.844-14.791 45.769-1.432 15.972-9.782 30.751-13.36 46.484-2.147 9.059-8.827 9.535-16.462 4.291-12.644-8.582-15.268-21.692-16.938-35.042-2.863-19.785-4.533-39.809-6.919-62.932zM91.064 1864.13c-.955 5.01 2.385 11.92-4.772 13.35-8.111 1.91-16.461 2.62-24.573-1.19-.715-.48-1.431-1.91-1.431-2.86-.716-5.96 14.076-26.22 20.278-26.22 12.406-.24 9.305 9.77 10.498 16.92zM80.328 2027.66v-28.37c0-3.33.715-6.43 5.248-6.43s5.487 3.1 5.487 6.19a1950.22 1950.22 0 011.432 53.16c0 3.58-2.386 5.72-6.203 5.72-4.533.24-6.441-1.9-6.441-6.43v-23.84h.477zM316.751 231.944c-.238 3.337-.715 7.866-5.01 7.628-4.055 0-3.578-4.291-3.34-7.39 0-1.192 0-2.383.477-3.575 1.67-3.338-7.634-8.82 1.193-10.012 7.158-.954 5.01 6.436 6.442 10.488 0 .954 0 1.669.238 2.861zM151.184 2293.93c-11.69 2.15-23.142 1.19-34.593 3.58 6.203-5.72 20.278-7.16 34.593-3.58zM1181.81 61.502c7.87-4.53 15.99-9.297 23.86-13.826.48.954 1.19 1.907 1.67 2.86-7.87 4.53-15.75 9.297-23.62 13.826-.48-.953-1.19-1.907-1.91-2.86z"/>
  </g>
</svg>
