<svg width="936" height="400" viewBox="0 0 936 400" fill="none" xmlns="http://www.w3.org/2000/svg">
  <path fill="#1D35B4" d="M0 0h936v400H0z"/>
  <path d="M1333.98 1370.56H119.164V1481H1333.98v-110.44ZM1333.98 1186.5H119.164v110.44H1333.98V1186.5ZM1156.09 638.78c57.96-57.962 102.85-125.587 133.43-200.961 29.52-72.778 44.49-149.68 44.49-228.533 0-78.853-14.97-155.755-44.49-228.534-30.58-75.392-75.47-142.999-133.43-200.96-57.96-57.962-125.59-102.855-200.962-133.428-72.778-29.524-149.68-44.488-228.533-44.488-78.853 0-155.755 14.964-228.533 44.488-75.393 30.573-142.999 75.466-200.961 133.428-57.962 57.961-102.855 125.586-133.428 200.96-29.524 72.78-44.488 149.681-44.488 228.552 0 78.872 14.964 155.755 44.488 228.534 30.573 75.392 75.466 142.999 133.428 200.96a618.102 618.102 0 0 0 13.216 12.811l78.135-78.135a508.957 508.957 0 0 1-13.271-12.774c-93.873-93.872-145.558-218.667-145.558-351.414 0-132.747 51.685-257.542 145.558-351.414 93.872-93.873 218.667-145.558 351.414-145.558 132.747 0 257.542 51.685 351.415 145.558 93.87 93.872 145.56 218.667 145.56 351.414 0 132.747-51.69 257.542-145.56 351.414l-441.735 441.73H532.15l493.79-493.783c79.95-79.957 124-186.272 124-299.343 0-113.07-44.03-219.385-124-299.342-79.96-79.958-186.275-124.004-299.345-124.004-113.07 0-219.386 44.028-299.343 124.004-79.957 79.975-124.003 186.272-124.003 299.342 0 113.071 44.028 219.386 124.003 299.343 4.344 4.344 8.798 8.559 13.308 12.719l78.19-78.19c-4.583-4.087-9.074-8.283-13.418-12.627-121.997-121.998-121.997-320.51 0-442.526 121.998-121.997 320.51-121.997 442.526 0 59.102 59.103 91.642 137.68 91.642 221.263s-32.54 162.16-91.642 221.263L375.972 1002.43H271.847l623.958-623.934c93.302-93.302 93.302-245.1 0-338.401C850.617-5.093 790.52-29.997 726.613-29.997c-63.907 0-124.003 24.886-169.191 70.092-45.188 45.187-70.091 105.284-70.091 169.191s24.885 124.004 70.091 169.191a239.904 239.904 0 0 0 13.51 12.517l78.54-78.54a130.885 130.885 0 0 1-13.952-12.075c-24.333-24.333-37.733-56.692-37.733-91.112 0-34.419 13.4-66.778 37.733-91.111s56.692-37.733 91.112-37.733c34.42 0 66.778 13.4 91.111 37.733 50.231 50.231 50.231 131.974 0 182.223L119.222 998.901v113.949H1334.04v-110.43H792.49l363.64-363.64h-.04ZM-1277.19-91.013c-75.54 75.54-134.04 163.632-173.87 261.849-38.45 94.848-57.94 195.033-57.94 297.815 0 102.781 19.49 202.967 57.96 297.796 39.83 98.217 98.33 186.309 173.87 261.853 75.54 75.54 163.63 134.03 261.85 173.86 94.827 38.45 195.031 57.96 297.794 57.96 102.762 0 202.967-19.49 297.796-57.96 98.216-39.83 186.309-98.32 261.849-173.86 75.54-75.544 134.035-163.636 173.867-261.853 38.45-94.829 57.961-195.034 57.961-297.796 0-102.763-19.492-202.967-57.961-297.797-39.832-98.216-98.327-186.31-173.867-261.85-48.74-48.739-102.91-90.448-161.681-124.647l-81.228 81.227c60.52 31.788 115.85 72.54 164.829 121.52 128.624 128.623 199.47 299.655 199.47 481.565 0 181.91-70.846 352.942-199.47 481.566C-364.584 1078.86-535.616 1149.7-717.526 1149.7c-181.91 0-352.944-70.84-481.564-199.465-128.63-128.624-199.47-299.656-199.47-481.566 0-181.91 70.84-352.942 199.47-481.566L-593.007-619h-156.178L-1277.19-91.013Z" fill="#213FD4"/>
  <path d="M-1147.02 39.138c-57.96 57.962-102.86 125.587-133.43 200.961-29.52 72.778-44.49 149.68-44.49 228.533 0 78.853 14.97 155.755 44.49 228.533 30.57 75.393 75.47 142.999 133.43 200.961 57.96 57.962 125.58 102.854 200.958 133.424 72.779 29.53 149.681 44.49 228.534 44.49 78.853 0 155.754-14.96 228.533-44.49 75.393-30.57 142.999-75.462 200.961-133.424 57.962-57.962 102.855-125.587 133.428-200.961 29.523-72.778 44.488-149.68 44.488-228.533 0-78.853-14.965-155.755-44.488-228.533-30.573-75.393-75.466-143-133.428-200.961C-336.903-9.731-393.815-49.875-455.716-79.51l-83.97 83.97c64.735 24.83 124.169 63.355 173.572 112.776 93.873 93.873 145.558 218.668 145.558 351.414 0 132.747-51.685 257.542-145.558 351.415-93.872 93.872-218.667 145.557-351.414 145.557-132.747 0-257.542-51.703-351.412-145.557-93.87-93.873-145.56-218.668-145.56-351.415 0-132.746 51.69-257.541 145.56-351.414L-332.706-619h-156.178L-1147.02 39.138Z" fill="#213FD4"/>
  <path d="M-72.403-619h-156.178l-788.309 788.289c-79.96 79.958-124 186.273-124 299.343 0 113.07 44.03 219.386 124 299.343 79.958 79.957 186.273 124.004 299.343 124.004 113.071 0 219.404-44.047 299.343-124.004C-338.247 688.018-294.2 581.702-294.2 468.632c0-113.07-44.028-219.385-124.004-299.361-50.857-50.838-112.371-87.136-179.48-106.849l-94.333 94.333c73.957 5.926 142.686 37.567 195.733 90.614 59.103 59.103 91.646 137.68 91.646 221.263 0 83.584-32.543 162.16-91.646 221.263-59.102 59.103-137.679 91.645-221.263 91.645-83.583 0-162.16-32.542-221.262-91.645-59.103-59.103-91.641-137.679-91.641-221.263 0-83.583 32.538-162.16 91.641-221.263L-72.403-619Z" fill="#213FD4"/>
  <path d="M165.07 236h12.159l14.209-50.537h.292L205.939 236h12.159l18.896-70.459h-13.086l-12.256 53.174h-.244l-14.111-53.174h-11.426l-14.111 53.174h-.244l-12.256-53.174h-13.086L165.07 236Zm96.241 1.025c15.185 0 25.048-10.107 25.048-26.904v-.098c0-16.699-10.009-26.855-25.097-26.855-15.039 0-25 10.254-25 26.855v.098c0 16.748 9.814 26.904 25.049 26.904Zm.048-9.814c-7.763 0-12.695-6.201-12.695-17.09v-.098c0-10.742 5.029-16.992 12.598-16.992 7.715 0 12.695 6.201 12.695 16.992v.098c0 10.84-4.932 17.09-12.598 17.09ZM294.172 236h12.158v-30.029c0-7.666 4.15-12.012 11.035-12.012 2.051 0 3.906.293 4.932.684v-10.987a15.852 15.852 0 0 0-3.858-.488c-5.957 0-10.253 3.76-11.865 10.01h-.244v-8.936h-12.158V236Zm51.66 1.025c7.471 0 13.184-3.711 16.113-9.814h.293V236h12.158v-70.459h-12.158v27.588h-.293c-2.929-6.201-8.838-9.961-16.162-9.961-12.988 0-21.338 10.205-21.338 26.904v.049c0 16.65 8.301 26.904 21.387 26.904Zm3.662-10.254c-7.812 0-12.646-6.347-12.646-16.65v-.049c0-10.302 4.882-16.65 12.646-16.65 7.471 0 12.744 6.543 12.744 16.65v.049c0 10.156-5.224 16.65-12.744 16.65ZM385.822 236h12.598v-23.291h14.551c14.258 0 23.974-9.473 23.974-23.535v-.098c0-14.111-9.716-23.535-23.974-23.535h-27.149V236Zm24.024-60.156c9.033 0 14.306 4.834 14.306 13.281v.098c0 8.447-5.273 13.33-14.306 13.33H398.42v-26.709h11.426ZM444.953 236h12.158v-30.029c0-7.666 4.151-12.012 11.035-12.012 2.051 0 3.907.293 4.932.684v-10.987a15.85 15.85 0 0 0-3.857-.488c-5.957 0-10.254 3.76-11.866 10.01h-.244v-8.936h-12.158V236Zm55.176 1.025c13.525 0 21.142-8.007 22.754-15.966l.146-.538h-11.377l-.097.342c-1.172 3.467-5.127 6.69-11.182 6.69-7.91 0-12.891-5.371-13.086-14.453h36.231v-3.907c0-15.625-9.18-26.025-23.975-26.025-14.795 0-24.316 10.742-24.316 27.051v.049c0 16.455 9.375 26.757 24.902 26.757Zm-.44-44.336c6.446 0 11.133 4.102 12.012 12.305h-24.267c.976-7.959 5.81-12.305 12.255-12.305Zm51.905 44.336c12.695 0 21.728-6.543 21.728-16.308v-.049c0-7.52-4.15-11.719-14.843-14.111l-8.643-1.905c-5.371-1.22-7.373-3.173-7.373-6.152v-.049c0-3.808 3.369-6.299 8.74-6.299 5.664 0 8.985 3.028 9.522 7.178l.048.391h11.329l-.049-.537c-.44-8.936-7.959-16.016-20.85-16.016-12.5 0-20.752 6.396-20.752 15.869v.049c0 7.666 4.981 12.5 14.893 14.697l8.594 1.905c5.371 1.22 7.177 2.978 7.177 6.103v.049c0 3.808-3.564 6.201-9.472 6.201-6.153 0-9.522-2.637-10.45-7.08l-.097-.44h-11.963l.049.44c1.074 9.619 8.838 16.064 22.412 16.064Zm49.707 0c12.695 0 21.728-6.543 21.728-16.308v-.049c0-7.52-4.15-11.719-14.843-14.111l-8.643-1.905c-5.371-1.22-7.373-3.173-7.373-6.152v-.049c0-3.808 3.369-6.299 8.74-6.299 5.664 0 8.985 3.028 9.522 7.178l.048.391h11.329l-.049-.537c-.44-8.936-7.959-16.016-20.85-16.016-12.5 0-20.752 6.396-20.752 15.869v.049c0 7.666 4.981 12.5 14.893 14.697l8.594 1.905c5.371 1.22 7.177 2.978 7.177 6.103v.049c0 3.808-3.564 6.201-9.472 6.201-6.153 0-9.522-2.637-10.45-7.08l-.097-.44H578.84l.049.44c1.074 9.619 8.838 16.064 22.412 16.064Zm77.148.196c15.186 0 26.319-10.205 26.319-24.414v-.098c0-13.232-9.522-22.998-23.096-22.998-9.57 0-16.602 4.883-19.385 11.328h-.244c0-.781 0-1.514.049-2.246.488-13.33 5.224-24.17 16.553-24.17 6.298 0 10.644 3.125 12.5 7.959l.195.439h12.5l-.098-.537c-2.246-10.644-11.963-18.164-25-18.164-17.969 0-28.76 13.916-28.76 37.207v.098c0 24.707 12.891 35.596 28.467 35.596Zm-14.258-24.219v-.049c0-7.861 6.153-13.525 14.209-13.525 8.057 0 13.965 5.713 13.965 13.72v.098c0 7.617-6.25 13.672-14.111 13.672-7.861 0-14.063-6.104-14.063-13.916ZM738.166 236h49.512v-10.303h-32.862v-.537l15.528-14.746c12.402-11.914 16.26-17.529 16.26-25.83v-.098c0-11.621-9.864-20.166-23.975-20.166-14.307 0-25.147 9.229-25.147 22.119v.342h11.817v-.342c.146-6.787 5.615-12.011 13.428-12.011 6.787 0 11.523 4.492 11.572 10.791v.097c0 5.225-2.002 8.789-11.231 17.823l-24.902 24.267V236Z" fill="#fff"/>
  <path d="M721.369 236.781c3.955 0 7.031-3.125 7.031-7.08 0-3.906-3.076-7.031-7.031-7.031-3.955 0-7.08 3.125-7.08 7.031 0 3.955 3.125 7.08 7.08 7.08Z" fill="#33F078"/>
</svg>
