<svg width="180" height="180" viewBox="0 0 180 180" fill="none" xmlns="http://www.w3.org/2000/svg">
<g clip-path="url(#clip0_941_5616)">
<path d="M90 45C90 56.9347 85.2589 68.3807 76.8198 76.8198C68.3807 85.2589 56.9347 90 45 90V54C47.3869 54 49.6761 53.0518 51.364 51.364C53.0518 49.6761 54 47.3869 54 45H90Z" fill="#111111"/>
<path d="M45 0C56.9347 0 68.3807 4.74106 76.8198 13.1802C85.2589 21.6193 90 33.0653 90 45H54C54 42.6131 53.0518 40.3239 51.364 38.636C49.6761 36.9482 47.3869 36 45 36V0Z" fill="#CFCABE"/>
<path d="M45 90C33.0653 89.9997 21.6196 85.2586 13.1805 76.8195C4.74141 68.3804 0.000265206 56.9347 0 45H36C36 47.3869 36.9482 49.6761 38.636 51.364C40.3239 53.0518 42.6131 54 45 54V90Z" fill="#D8613C"/>
<path d="M0 45C0 33.0653 4.74106 21.6193 13.1802 13.1802C21.6193 4.74106 33.0653 0 45 0V36C42.6131 36 40.3239 36.9482 38.636 38.636C36.9482 40.3239 36 42.6131 36 45H0Z" fill="#B1C5A4"/>
<path d="M54 45C54 47.3869 53.0518 49.6761 51.364 51.364C49.6761 53.0518 47.3869 54 45 54C42.6131 54 40.3239 53.0518 38.636 51.364C36.9482 49.6761 36 47.3869 36 45C36 42.6131 36.9482 40.3239 38.636 38.636C40.3239 36.9482 42.6131 36 45 36C47.3869 36 49.6761 36.9482 51.364 38.636C53.0518 40.3239 54 42.6131 54 45Z" fill="white"/>
<path d="M180 45C179.999 56.9346 175.258 68.3803 166.82 76.82C158.38 85.258 146.935 89.9988 135 90V54C136.182 54.0001 137.352 53.7674 138.444 53.3152C139.536 52.8629 140.529 52.2 141.364 51.3643C142.2 50.5285 142.863 49.5363 143.315 48.4443C143.767 47.3523 144 46.1819 144 45H180Z" fill="#111111"/>
<path d="M135 0C143.9 0.000507103 152.6 2.64 160.001 7.58474C167.401 12.5295 173.169 19.5574 176.575 27.78C178.836 33.2395 180 39.0908 180 45H144C143.999 42.6132 143.051 40.3242 141.364 38.636C139.676 36.9485 137.387 36.0003 135 36V0Z" fill="#CFCABE"/>
<path d="M135 90C123.065 89.9995 111.62 85.2582 103.181 76.8192C94.7418 68.3802 90.0005 56.9346 90 45H126C126.001 46.7799 126.529 48.5197 127.518 49.9996C128.507 51.4796 129.912 52.6333 131.556 53.315C132.648 53.7673 133.818 54 135 54V90Z" fill="#D8613C"/>
<path d="M90 45C90.0003 33.0653 94.7414 21.6196 103.18 13.1805C111.62 4.74141 123.065 0.000265206 135 0V36C133.818 35.9999 132.648 36.2326 131.556 36.6848C130.464 37.1371 129.471 37.8 128.636 38.6357C127.8 39.4715 127.137 40.4637 126.685 41.5557C126.233 42.6477 126 43.8181 126 45H90Z" fill="#B1C5A4"/>
<path d="M144 45C144 47.3869 143.052 49.6761 141.364 51.364C139.676 53.0518 137.387 54 135 54C132.613 54 130.324 53.0518 128.636 51.364C126.948 49.6761 126 47.3869 126 45C126 42.6131 126.948 40.3239 128.636 38.636C130.324 36.9482 132.613 36 135 36C137.387 36 139.676 36.9482 141.364 38.636C143.052 40.3239 144 42.6131 144 45Z" fill="white"/>
<path d="M180 135C180 140.91 178.836 146.761 176.575 152.221C174.313 157.68 170.998 162.641 166.82 166.82C162.641 170.998 157.68 174.313 152.221 176.575C146.761 178.836 140.91 180 135 180V144C136.78 143.999 138.52 143.471 140 142.482C141.48 141.493 142.633 140.088 143.315 138.444C143.767 137.352 144 136.182 144 135H180Z" fill="#111111"/>
<path d="M135 90C143.9 90.0006 152.6 92.6399 160 97.5845C167.4 102.529 173.168 109.557 176.575 117.779C178.836 123.239 180 129.09 180 135H144C143.999 133.22 143.471 131.48 142.482 130C141.493 128.52 140.088 127.367 138.444 126.685C137.352 126.233 136.182 126 135 126V90Z" fill="#CFCABE"/>
<path d="M135 180C123.065 179.999 111.62 175.258 103.18 166.82C94.7419 158.38 90.0011 146.935 90 135H126C126.001 136.78 126.529 138.52 127.518 140C128.507 141.48 129.912 142.633 131.556 143.315C132.648 143.767 133.818 144 135 144V180Z" fill="#D8613C"/>
<path d="M90 135C90.0005 123.065 94.7418 111.62 103.181 103.181C111.62 94.7418 123.065 90.0005 135 90V126C133.22 126.001 131.48 126.529 130 127.518C128.52 128.507 127.367 129.912 126.685 131.556C126.233 132.648 126 133.818 126 135H90Z" fill="#B1C5A4"/>
<path d="M144 135C144 137.387 143.052 139.676 141.364 141.364C139.676 143.052 137.387 144 135 144C132.613 144 130.324 143.052 128.636 141.364C126.948 139.676 126 137.387 126 135C126 132.613 126.948 130.324 128.636 128.636C130.324 126.948 132.613 126 135 126C137.387 126 139.676 126.948 141.364 128.636C143.052 130.324 144 132.613 144 135Z" fill="white"/>
<path d="M90 135C89.9994 143.9 87.3598 152.6 82.4151 160.001C77.4704 167.401 70.4425 173.169 62.22 176.575C56.7605 178.836 50.9092 180 45 180V144C46.7799 143.999 48.5197 143.471 49.9996 142.482C51.4796 141.493 52.6333 140.088 53.315 138.444C53.7673 137.352 54 136.182 54 135H90Z" fill="#111111"/>
<path d="M45 90C56.9347 90.0003 68.3804 94.7414 76.8195 103.18C85.2586 111.62 89.9997 123.065 90 135H54C54.0001 133.818 53.7674 132.648 53.3152 131.556C52.8629 130.464 52.2 129.471 51.3643 128.636C50.5285 127.8 49.5363 127.137 48.4443 126.685C47.3523 126.233 46.1819 126 45 126V90Z" fill="#CFCABE"/>
<path d="M45 180C33.0654 179.999 21.6198 175.258 13.18 166.82C4.74182 158.38 0.000994934 146.935 0 135H36C35.9999 136.182 36.2326 137.352 36.6848 138.444C37.1371 139.536 37.8 140.529 38.6357 141.364C39.4715 142.2 40.4637 142.863 41.5557 143.315C42.6477 143.767 43.8181 144 45 144V180Z" fill="#D8613C"/>
<path d="M0 135C0 123.065 4.74106 111.619 13.1802 103.18C21.6193 94.7411 33.0653 90 45 90V126C43.2201 126.001 41.4803 126.529 40.0004 127.518C38.5204 128.507 37.3667 129.912 36.685 131.556C36.2327 132.648 36 133.818 36 135H0Z" fill="#B1C5A4"/>
<path d="M54 135C54 137.387 53.0518 139.676 51.364 141.364C49.6761 143.052 47.3869 144 45 144C42.6131 144 40.3239 143.052 38.636 141.364C36.9482 139.676 36 137.387 36 135C36 132.613 36.9482 130.324 38.636 128.636C40.3239 126.948 42.6131 126 45 126C47.3869 126 49.6761 126.948 51.364 128.636C53.0518 130.324 54 132.613 54 135Z" fill="white"/>
</g>
<defs>
<clipPath id="clip0_941_5616">
<rect width="180" height="180" fill="white"/>
</clipPath>
</defs>
</svg>
