<svg width="181" height="180" fill="none" xmlns="http://www.w3.org/2000/svg" aria-hidden="true" focusable="false"><g clip-path="url(#a)" stroke="#3858E9" stroke-width="1.2"><path d="M90.714 179.474c49.415 0 89.474-40.059 89.474-89.474 0-49.415-40.059-89.474-89.474-89.474C41.299.526 1.24 40.586 1.24 90c0 49.415 40.059 89.474 89.474 89.474Z" stroke-miterlimit="10"/><path d="M32.819 144.035c-4.274 0-8.368.576-12.158 1.625 11.65 14.645 27.793 25.551 46.347 30.635.587-1.909.899-3.898.899-5.944 0-14.533-15.709-26.316-35.088-26.316Z" fill="#fff" stroke-miterlimit="10"/><path d="M32.819 133.509c-6.614 0-12.8 1.372-18.08 3.758 10.806 17.337 27.378 30.705 47.038 37.421 3.867-4.228 6.13-9.348 6.13-14.863 0-14.534-15.71-26.316-35.088-26.316Z" fill="#fff" stroke-miterlimit="10"/><path d="M67.907 149.298c0-14.533-15.709-26.315-35.088-26.315-8.6 0-16.474 2.322-22.575 6.172A89.834 89.834 0 0 0 52.668 171c9.204-4.744 15.239-12.695 15.239-21.702Z" fill="#fff" stroke-miterlimit="10"/><path d="M67.907 138.772c0-14.533-15.709-26.316-35.088-26.316-10.319 0-19.596 3.341-26.017 8.66 6.59 17.768 18.66 32.87 34.161 43.26 15.453-2.755 26.944-13.172 26.944-25.6v-.004Z" fill="#fff" stroke-miterlimit="10"/><path d="M67.907 128.246c0-14.534-15.709-26.316-35.088-26.316-11.796 0-22.232 4.365-28.593 11.06 4.239 15.993 12.797 30.224 24.347 41.379 1.393.126 2.808.193 4.246.193 19.379 0 35.088-11.783 35.088-26.316Z" fill="#fff" stroke-miterlimit="10"/><path d="M67.907 117.719c0-14.533-15.709-26.315-35.088-26.315-12.986 0-24.326 5.29-30.393 13.158a88.986 88.986 0 0 0 15.039 36.824c4.639 1.695 9.849 2.649 15.354 2.649 19.38 0 35.088-11.782 35.088-26.316Z" fill="#fff" stroke-miterlimit="10"/><path d="M67.907 107.193c0-14.533-15.709-26.316-35.088-26.316-13.754 0-25.656 5.937-31.407 14.576a88.992 88.992 0 0 0 7.604 31.07c6.256 4.337 14.617 6.986 23.807 6.986 19.379 0 35.087-11.783 35.087-26.316h-.003Z" fill="#fff" stroke-miterlimit="10"/><path d="m20.587 98.021 24.814 18.607M20.587 116.628l24.814-18.607M32.995 94.169v26.315M15.45 107.323l35.088.004" stroke-miterlimit="10"/><path d="M102.994 154.562c19.379 0 35.088-11.782 35.088-26.316 0-14.534-15.709-26.316-35.088-26.316-19.378 0-35.087 11.782-35.087 26.316 0 14.534 15.709 26.316 35.087 26.316Z" fill="#fff" stroke-miterlimit="10"/><path d="M102.994 144.474c19.379 0 35.088-11.782 35.088-26.316 0-14.534-15.709-26.316-35.088-26.316-19.378 0-35.087 11.782-35.087 26.316 0 14.534 15.709 26.316 35.087 26.316Z" fill="#fff" stroke-miterlimit="10"/><path d="M102.994 134.386c19.379 0 35.088-11.782 35.088-26.316 0-14.533-15.709-26.316-35.088-26.316-19.378 0-35.087 11.782-35.087 26.316 0 14.534 15.709 26.316 35.087 26.316Z" fill="#fff" stroke-miterlimit="10"/><path d="M102.994 124.298c19.379 0 35.088-11.782 35.088-26.316 0-14.533-15.709-26.315-35.088-26.315-19.378 0-35.087 11.782-35.087 26.316 0 14.533 15.709 26.315 35.087 26.315Z" fill="#fff" stroke-miterlimit="10"/><path d="M102.994 114.211c19.379 0 35.088-11.782 35.088-26.316 0-14.534-15.709-26.316-35.088-26.316-19.378 0-35.087 11.782-35.087 26.316 0 14.534 15.709 26.316 35.087 26.316Z" fill="#fff" stroke-miterlimit="10"/><path d="M102.994 104.123c19.379 0 35.088-11.782 35.088-26.316 0-14.534-15.709-26.316-35.088-26.316-19.378 0-35.087 11.782-35.087 26.316 0 14.534 15.709 26.316 35.087 26.316Z" fill="#fff" stroke-miterlimit="10"/><path d="M102.994 94.035c19.379 0 35.088-11.782 35.088-26.316 0-14.533-15.709-26.315-35.088-26.315-19.378 0-35.087 11.781-35.087 26.315s15.709 26.316 35.087 26.316Z" fill="#fff" stroke-miterlimit="10"/><path d="M102.994 83.948c19.379 0 35.088-11.782 35.088-26.316 0-14.534-15.709-26.316-35.088-26.316-19.378 0-35.087 11.782-35.087 26.316 0 14.533 15.709 26.316 35.087 26.316Z" fill="#fff" stroke-miterlimit="10"/><path d="M102.994 73.86c19.379 0 35.088-11.782 35.088-26.316 0-14.534-15.709-26.316-35.088-26.316-19.378 0-35.087 11.782-35.087 26.316 0 14.534 15.709 26.316 35.087 26.316Z" fill="#fff" stroke-miterlimit="10"/><path d="m112.917 36.379-9.922 7.442-9.923-7.442M117.882 54.986l-9.926-7.442 9.926-7.442M88.107 40.102l9.926 7.442-9.926 7.442M93.072 58.709l9.923-7.442 9.922 7.442" stroke-linejoin="bevel"/><path d="M102.994 140.526c-19.379 0-35.087 11.783-35.087 26.316 0 3.691 1.014 7.204 2.845 10.393a89.72 89.72 0 0 0 19.962 2.239c17.386 0 33.61-4.965 47.344-13.548-.642-14.108-16.095-25.4-35.064-25.4Z" fill="#fff" stroke-miterlimit="10"/><path d="M134.363 168.116c2.379-3.548 3.719-7.558 3.719-11.8 0-14.533-15.709-26.316-35.088-26.316s-35.087 11.783-35.087 26.316c0 9.916 7.312 18.551 18.115 23.035 1.555.081 3.12.123 4.692.123 15.852 0 30.737-4.127 43.649-11.358Z" fill="#fff" stroke-miterlimit="10"/><path d="M102.994 172.105c19.379 0 35.088-11.782 35.088-26.315 0-14.534-15.709-26.316-35.088-26.316-19.378 0-35.087 11.782-35.087 26.316 0 14.533 15.709 26.315 35.087 26.315Z" fill="#fff" stroke-miterlimit="10"/><path d="M120.538 145.79c0 7.266-7.856 13.157-17.543 13.157-9.688 0-17.544-5.891-17.544-13.157M103.096 159.081l-.053-26.316" stroke-miterlimit="10"/><path d="M120.538 145.79c0-7.267-7.856-13.158-17.543-13.158-9.688 0-17.544 5.891-17.544 13.158" stroke-miterlimit="10"/><path d="M172.426 126.498c-19.035.299-34.344 11.962-34.344 26.309 0 3.93 1.151 7.656 3.207 11.004 13.523-9.285 24.368-22.186 31.133-37.313h.004Z" fill="#fff" stroke-miterlimit="10"/><path d="M138.082 142.281c0 6.666 3.309 12.758 8.761 17.393 13.786-11.12 24.2-26.242 29.481-43.604a46.903 46.903 0 0 0-3.154-.105c-19.379 0-35.088 11.782-35.088 26.316Z" fill="#fff" stroke-miterlimit="10"/><path d="M138.082 131.755c0 9.108 6.169 17.133 15.544 21.859 12.849-12.709 21.87-29.281 25.172-47.835a47.013 47.013 0 0 0-5.632-.34c-19.379 0-35.087 11.782-35.087 26.316h.003Z" fill="#fff" stroke-miterlimit="10"/><path d="M138.082 121.228c0 11.225 9.368 20.804 22.558 24.586 11.175-13.982 18.242-31.393 19.379-50.4a46.51 46.51 0 0 0-6.849-.502c-19.379 0-35.088 11.783-35.088 26.316Z" fill="#fff" stroke-miterlimit="10"/><path d="M155.802 108.204v26.312M155.802 134.516h12.631M155.802 108.204h22.456M173.346 108.204v16.358M155.802 121.358l18.947.003" stroke-miterlimit="10"/></g><defs><clipPath id="a"><path fill="#fff" transform="translate(.714)" d="M0 0h180v180H0z"/></clipPath></defs></svg>