<svg width="320" height="320" fill="none" xmlns="http://www.w3.org/2000/svg"><g clip-path="url(#a)" fill="#fff" stroke="#3858E9" stroke-width="1.2" stroke-miterlimit="10"><path d="M256.686.936H63.314C28.862.936.936 28.862.936 63.314V160c0 87.847 71.217 159.064 159.064 159.064S319.064 247.847 319.064 160V63.314c0-34.452-27.926-62.378-62.378-62.378Z"/><path d="M231.735 139.259c19.379 0 35.088-15.709 35.088-35.087 0-19.379-15.709-35.088-35.088-35.088-19.378 0-35.088 15.71-35.088 35.088s15.71 35.087 35.088 35.087Z"/><path d="M221.131 149.864c19.378 0 35.087-15.71 35.087-35.088 0-19.379-15.709-35.088-35.087-35.088-19.379 0-35.088 15.71-35.088 35.088s15.709 35.088 35.088 35.088Z"/><path d="M210.527 160.468c19.379 0 35.088-15.709 35.088-35.088 0-19.378-15.709-35.087-35.088-35.087-19.378 0-35.088 15.709-35.088 35.087 0 19.379 15.71 35.088 35.088 35.088Z"/><path d="M199.923 171.072c19.378 0 35.087-15.709 35.087-35.088 0-19.378-15.709-35.087-35.087-35.087-19.379 0-35.088 15.709-35.088 35.087 0 19.379 15.709 35.088 35.088 35.088Z"/><path d="M189.318 181.676c19.379 0 35.088-15.709 35.088-35.087 0-19.379-15.709-35.088-35.088-35.088-19.378 0-35.088 15.709-35.088 35.088 0 19.378 15.71 35.087 35.088 35.087Z"/><path d="M178.714 192.281c19.378 0 35.087-15.71 35.087-35.088s-15.709-35.088-35.087-35.088c-19.379 0-35.088 15.71-35.088 35.088s15.709 35.088 35.088 35.088Z"/><path d="M168.109 202.885c19.379 0 35.088-15.709 35.088-35.088 0-19.378-15.709-35.087-35.088-35.087-19.378 0-35.088 15.709-35.088 35.087 0 19.379 15.71 35.088 35.088 35.088Z"/><path d="M157.506 213.489c19.378 0 35.087-15.709 35.087-35.087 0-19.379-15.709-35.088-35.087-35.088-19.379 0-35.088 15.709-35.088 35.088 0 19.378 15.709 35.087 35.088 35.087Z"/><path d="M146.901 224.094c19.379 0 35.088-15.71 35.088-35.088 0-19.379-15.709-35.088-35.088-35.088-19.378 0-35.088 15.709-35.088 35.088 0 19.378 15.71 35.088 35.088 35.088Z"/><path d="M136.297 234.698c19.378 0 35.087-15.709 35.087-35.088 0-19.378-15.709-35.088-35.087-35.088-19.379 0-35.088 15.71-35.088 35.088 0 19.379 15.709 35.088 35.088 35.088Z"/><path d="M136.297 234.698c19.378 0 35.087-15.709 35.087-35.088 0-19.378-15.709-35.088-35.087-35.088-19.379 0-35.088 15.71-35.088 35.088 0 19.379 15.709 35.088 35.088 35.088Z"/><path d="M126.191 224.593c19.379 0 35.088-15.71 35.088-35.088 0-19.379-15.709-35.088-35.088-35.088-19.378 0-35.088 15.709-35.088 35.088 0 19.378 15.71 35.088 35.088 35.088Z"/><path d="M116.086 214.487c19.378 0 35.087-15.709 35.087-35.087 0-19.379-15.709-35.088-35.087-35.088-19.379 0-35.088 15.709-35.088 35.088 0 19.378 15.71 35.087 35.088 35.087Z"/><path d="M105.981 204.382c19.379 0 35.088-15.709 35.088-35.088 0-19.378-15.709-35.087-35.088-35.087-19.378 0-35.087 15.709-35.087 35.087 0 19.379 15.709 35.088 35.087 35.088Z"/><path d="M95.876 194.277c19.378 0 35.088-15.71 35.088-35.088s-15.71-35.088-35.088-35.088c-19.379 0-35.088 15.71-35.088 35.088s15.71 35.088 35.088 35.088Z"/><path d="M85.77 184.172c19.379 0 35.088-15.71 35.088-35.088 0-19.379-15.709-35.088-35.088-35.088-19.378 0-35.087 15.709-35.087 35.088 0 19.378 15.709 35.088 35.087 35.088Z"/></g><defs><clipPath id="a"><path fill="#fff" d="M0 0h320v320H0z"/></clipPath></defs></svg>