<svg xmlns="http://www.w3.org/2000/svg" xmlns:xlink="http://www.w3.org/1999/xlink" id="Layer_1" width="30" height="30" x="0" y="0" enable-background="new 0 0 30 30" version="1.1" viewBox="0 0 30 30" xml:space="preserve"><rect width="30" height="30" x="0" display="none"/><polygon fill="#FFF" points="30 0 0 30 1 30 30 1" opacity=".3"/><polygon fill="#FFF" points="30 5 0 35 1 35 30 6" opacity=".3"/><polygon fill="#FFF" points="30 10 0 40 1 40 30 11" opacity=".3"/><polygon fill="#FFF" points="30 15 0 45 1 45 30 16" opacity=".3"/><polygon fill="#FFF" points="30 20 0 50 1 50 30 21" opacity=".3"/><polygon fill="#FFF" points="30 25 0 55 1 55 30 26" opacity=".3"/><polygon fill="#FFF" points="26 -1 -4 29 -3 29 26 0" opacity=".3"/><polygon fill="#FFF" points="21 -1 -9 29 -8 29 21 0" opacity=".3"/><polygon fill="#FFF" points="16 -1 -14 29 -13 29 16 0" opacity=".3"/><polygon fill="#FFF" points="11 -1 -19 29 -18 29 11 0" opacity=".3"/><polygon fill="#FFF" points="6 -1 -24 29 -23 29 6 0" opacity=".3"/><polygon fill="#FFF" points="1 -1 -29 29 -28 29 1 0" opacity=".3"/></svg>